%TF.GenerationSoftware,KiCad,Pcbnew,10.0.4*%
%TF.CreationDate,2026-07-12T21:05:24-04:00*%
%TF.ProjectId,keyboard,6b657962-6f61-4726-942e-6b696361645f,rev?*%
%TF.SameCoordinates,Original*%
%TF.FileFunction,Copper,L1,Top*%
%TF.FilePolarity,Positive*%
%FSLAX46Y46*%
G04 Gerber Fmt 4.6, Leading zero omitted, Abs format (unit mm)*
G04 Created by KiCad (PCBNEW 10.0.4) date 2026-07-12 21:05:24*
%MOMM*%
%LPD*%
G01*
G04 APERTURE LIST*
G04 Aperture macros list*
%AMRoundRect*
0 Rectangle with rounded corners*
0 $1 Rounding radius*
0 $2 $3 $4 $5 $6 $7 $8 $9 X,Y pos of 4 corners*
0 Add a 4 corners polygon primitive as box body*
4,1,4,$2,$3,$4,$5,$6,$7,$8,$9,$2,$3,0*
0 Add four circle primitives for the rounded corners*
1,1,$1+$1,$2,$3*
1,1,$1+$1,$4,$5*
1,1,$1+$1,$6,$7*
1,1,$1+$1,$8,$9*
0 Add four rect primitives between the rounded corners*
20,1,$1+$1,$2,$3,$4,$5,0*
20,1,$1+$1,$4,$5,$6,$7,0*
20,1,$1+$1,$6,$7,$8,$9,0*
20,1,$1+$1,$8,$9,$2,$3,0*%
%AMFreePoly0*
4,1,37,0.000000,0.796148,0.078414,0.796148,0.232228,0.765552,0.377117,0.705537,0.507515,0.618408,0.618408,0.507515,0.705537,0.377117,0.765552,0.232228,0.796148,0.078414,0.796148,-0.078414,0.765552,-0.232228,0.705537,-0.377117,0.618408,-0.507515,0.507515,-0.618408,0.377117,-0.705537,0.232228,-0.765552,0.078414,-0.796148,0.000000,-0.796148,0.000000,-0.800000,-2.200000,-0.800000,
-2.203843,-0.796157,-2.239018,-0.796157,-2.311114,-0.766294,-2.366294,-0.711114,-2.396157,-0.639018,-2.396157,-0.603843,-2.400000,-0.600000,-2.400000,0.600000,-2.396157,0.603843,-2.396157,0.639018,-2.366294,0.711114,-2.311114,0.766294,-2.239018,0.796157,-2.203843,0.796157,-2.200000,0.800000,0.000000,0.800000,0.000000,0.796148,0.000000,0.796148,$1*%
%AMFreePoly1*
4,1,37,0.603843,0.796157,0.639018,0.796157,0.711114,0.766294,0.766294,0.711114,0.796157,0.639018,0.796157,0.603843,0.800000,0.600000,0.800000,-0.600000,0.796157,-0.603843,0.796157,-0.639018,0.766294,-0.711114,0.711114,-0.766294,0.639018,-0.796157,0.603843,-0.796157,0.600000,-0.800000,-1.600000,-0.800000,-1.600000,-0.796148,-1.678414,-0.796148,-1.832228,-0.765552,-1.977117,-0.705537,
-2.107515,-0.618408,-2.218408,-0.507515,-2.305537,-0.377117,-2.365552,-0.232228,-2.396148,-0.078414,-2.396148,0.078414,-2.365552,0.232228,-2.305537,0.377117,-2.218408,0.507515,-2.107515,0.618408,-1.977117,0.705537,-1.832228,0.765552,-1.678414,0.796148,-1.600000,0.796148,-1.600000,0.800000,0.600000,0.800000,0.603843,0.796157,0.603843,0.796157,$1*%
%AMFreePoly2*
4,1,37,0.603843,0.796157,0.639018,0.796157,0.711114,0.766294,0.766294,0.711114,0.796157,0.639018,0.796157,0.603843,0.800000,0.600000,0.800000,-0.600000,0.796157,-0.603843,0.796157,-0.639018,0.766294,-0.711114,0.711114,-0.766294,0.639018,-0.796157,0.603843,-0.796157,0.600000,-0.800000,0.000000,-0.800000,0.000000,-0.796148,-0.078414,-0.796148,-0.232228,-0.765552,-0.377117,-0.705537,
-0.507515,-0.618408,-0.618408,-0.507515,-0.705537,-0.377117,-0.765552,-0.232228,-0.796148,-0.078414,-0.796148,0.078414,-0.765552,0.232228,-0.705537,0.377117,-0.618408,0.507515,-0.507515,0.618408,-0.377117,0.705537,-0.232228,0.765552,-0.078414,0.796148,0.000000,0.796148,0.000000,0.800000,0.600000,0.800000,0.603843,0.796157,0.603843,0.796157,$1*%
%AMFreePoly3*
4,1,37,1.600000,0.796148,1.678414,0.796148,1.832228,0.765552,1.977117,0.705537,2.107515,0.618408,2.218408,0.507515,2.305537,0.377117,2.365552,0.232228,2.396148,0.078414,2.396148,-0.078414,2.365552,-0.232228,2.305537,-0.377117,2.218408,-0.507515,2.107515,-0.618408,1.977117,-0.705537,1.832228,-0.765552,1.678414,-0.796148,1.600000,-0.796148,1.600000,-0.800000,-0.600000,-0.800000,
-0.603843,-0.796157,-0.639018,-0.796157,-0.711114,-0.766294,-0.766294,-0.711114,-0.796157,-0.639018,-0.796157,-0.603843,-0.800000,-0.600000,-0.800000,0.600000,-0.796157,0.603843,-0.796157,0.639018,-0.766294,0.711114,-0.711114,0.766294,-0.639018,0.796157,-0.603843,0.796157,-0.600000,0.800000,1.600000,0.800000,1.600000,0.796148,1.600000,0.796148,$1*%
%AMFreePoly4*
4,1,37,0.000000,0.796148,0.078414,0.796148,0.232228,0.765552,0.377117,0.705537,0.507515,0.618408,0.618408,0.507515,0.705537,0.377117,0.765552,0.232228,0.796148,0.078414,0.796148,-0.078414,0.765552,-0.232228,0.705537,-0.377117,0.618408,-0.507515,0.507515,-0.618408,0.377117,-0.705537,0.232228,-0.765552,0.078414,-0.796148,0.000000,-0.796148,0.000000,-0.800000,-0.600000,-0.800000,
-0.603843,-0.796157,-0.639018,-0.796157,-0.711114,-0.766294,-0.766294,-0.711114,-0.796157,-0.639018,-0.796157,-0.603843,-0.800000,-0.600000,-0.800000,0.600000,-0.796157,0.603843,-0.796157,0.639018,-0.766294,0.711114,-0.711114,0.766294,-0.639018,0.796157,-0.603843,0.796157,-0.600000,0.800000,0.000000,0.800000,0.000000,0.796148,0.000000,0.796148,$1*%
G04 Aperture macros list end*
%TA.AperFunction,ComponentPad*%
%ADD10C,2.600000*%
%TD*%
%TA.AperFunction,ComponentPad*%
%ADD11C,2.200000*%
%TD*%
%TA.AperFunction,ComponentPad*%
%ADD12RoundRect,0.200000X-0.600000X-0.600000X0.600000X-0.600000X0.600000X0.600000X-0.600000X0.600000X0*%
%TD*%
%TA.AperFunction,SMDPad,CuDef*%
%ADD13FreePoly0,0.000000*%
%TD*%
%TA.AperFunction,ComponentPad*%
%ADD14C,1.600000*%
%TD*%
%TA.AperFunction,SMDPad,CuDef*%
%ADD15RoundRect,0.800000X-0.800000X-0.000010X0.800000X-0.000010X0.800000X0.000010X-0.800000X0.000010X0*%
%TD*%
%TA.AperFunction,SMDPad,CuDef*%
%ADD16FreePoly1,0.000000*%
%TD*%
%TA.AperFunction,ComponentPad*%
%ADD17FreePoly2,0.000000*%
%TD*%
%TA.AperFunction,SMDPad,CuDef*%
%ADD18FreePoly3,0.000000*%
%TD*%
%TA.AperFunction,ComponentPad*%
%ADD19FreePoly4,0.000000*%
%TD*%
%TA.AperFunction,Conductor*%
%ADD20C,0.200000*%
%TD*%
G04 APERTURE END LIST*
D10*
%TO.P,SW49,*%
%TO.N,*%
X206329889Y-138166199D03*
D11*
%TO.P,SW49,1,1*%
%TO.N,COL9*%
X208923203Y-126318109D03*
%TO.P,SW49,2,2*%
%TO.N,Net-(D49-A)*%
X214250556Y-127332661D03*
%TD*%
D10*
%TO.P,SW61,*%
%TO.N,*%
X302185000Y-147717500D03*
D11*
%TO.P,SW61,1,1*%
%TO.N,COL14*%
X307185000Y-136667500D03*
%TO.P,SW61,2,2*%
%TO.N,Net-(D61-A)*%
X312185000Y-138767500D03*
%TD*%
D10*
%TO.P,SW30,*%
%TO.N,*%
X39846909Y-168199882D03*
D11*
%TO.P,SW30,1,1*%
%TO.N,COL5*%
X47035071Y-158430909D03*
%TO.P,SW30,2,2*%
%TO.N,Net-(D30-A)*%
X51489194Y-161524579D03*
%TD*%
D10*
%TO.P,SW28,*%
%TO.N,*%
X101770169Y-160912709D03*
D11*
%TO.P,SW28,1,1*%
%TO.N,COL7*%
X108958331Y-151143736D03*
%TO.P,SW28,2,2*%
%TO.N,Net-(D28-A)*%
X113412454Y-154237406D03*
%TD*%
D10*
%TO.P,SW3,*%
%TO.N,*%
X13577500Y-90567500D03*
D11*
%TO.P,SW3,1,1*%
%TO.N,COL2*%
X18577500Y-79517500D03*
%TO.P,SW3,2,2*%
%TO.N,Net-(D3-A)*%
X23577500Y-81617500D03*
%TD*%
D10*
%TO.P,SW5,*%
%TO.N,*%
X52161073Y-91941205D03*
D11*
%TO.P,SW5,1,1*%
%TO.N,COL4*%
X59349235Y-82172232D03*
%TO.P,SW5,2,2*%
%TO.N,Net-(D5-A)*%
X63803358Y-85265902D03*
%TD*%
D10*
%TO.P,SW48,*%
%TO.N,*%
X187696178Y-142126917D03*
D11*
%TO.P,SW48,1,1*%
%TO.N,COL8*%
X190289492Y-130278827D03*
%TO.P,SW48,2,2*%
%TO.N,Net-(D48-A)*%
X195616845Y-131293379D03*
%TD*%
D10*
%TO.P,SW47,*%
%TO.N,*%
X315996250Y-109617500D03*
D11*
%TO.P,SW47,1,1*%
%TO.N,COL15*%
X320996250Y-98567500D03*
%TO.P,SW47,2,2*%
%TO.N,Net-(D47-A)*%
X325996250Y-100667500D03*
%TD*%
D10*
%TO.P,SW63,*%
%TO.N,*%
X201207727Y-178206125D03*
D11*
%TO.P,SW63,1,1*%
%TO.N,COL8*%
X203801041Y-166358035D03*
%TO.P,SW63,2,2*%
%TO.N,Net-(D63-A)*%
X209128394Y-167372587D03*
%TD*%
D10*
%TO.P,SW9,*%
%TO.N,*%
X-31190000Y-107712500D03*
D11*
%TO.P,SW9,1,1*%
%TO.N,COL0*%
X-26190000Y-96662500D03*
%TO.P,SW9,2,2*%
%TO.N,Net-(D9-A)*%
X-21190000Y-98762500D03*
%TD*%
D10*
%TO.P,SW37,*%
%TO.N,*%
X262180000Y-88662500D03*
D11*
%TO.P,SW37,1,1*%
%TO.N,COL12*%
X267180000Y-77612500D03*
%TO.P,SW37,2,2*%
%TO.N,Net-(D37-A)*%
X272180000Y-79712500D03*
%TD*%
D10*
%TO.P,SW26,*%
%TO.N,*%
X64502745Y-152991274D03*
D11*
%TO.P,SW26,1,1*%
%TO.N,COL5*%
X71690907Y-143222301D03*
%TO.P,SW26,2,2*%
%TO.N,Net-(D26-A)*%
X76145030Y-146315971D03*
%TD*%
D10*
%TO.P,SW43,*%
%TO.N,*%
X236841539Y-112205160D03*
D11*
%TO.P,SW43,1,1*%
%TO.N,COL11*%
X239434853Y-100357070D03*
%TO.P,SW43,2,2*%
%TO.N,Net-(D43-A)*%
X244762206Y-101371622D03*
%TD*%
D10*
%TO.P,SW4,*%
%TO.N,*%
X32627500Y-88662500D03*
D11*
%TO.P,SW4,1,1*%
%TO.N,COL3*%
X37627500Y-77612500D03*
%TO.P,SW4,2,2*%
%TO.N,Net-(D4-A)*%
X42627500Y-79712500D03*
%TD*%
D10*
%TO.P,SW15,*%
%TO.N,*%
X94784635Y-120476711D03*
D11*
%TO.P,SW15,1,1*%
%TO.N,COL6*%
X101972797Y-110707738D03*
%TO.P,SW15,2,2*%
%TO.N,Net-(D15-A)*%
X106426920Y-113801408D03*
%TD*%
D10*
%TO.P,SW40,*%
%TO.N,*%
X180940403Y-124087313D03*
D11*
%TO.P,SW40,1,1*%
%TO.N,COL8*%
X183533717Y-112239223D03*
%TO.P,SW40,2,2*%
%TO.N,Net-(D40-A)*%
X188861070Y-113253775D03*
%TD*%
D10*
%TO.P,SW2,*%
%TO.N,*%
X-5472500Y-90567500D03*
D11*
%TO.P,SW2,1,1*%
%TO.N,COL1*%
X-472500Y-79517500D03*
%TO.P,SW2,2,2*%
%TO.N,Net-(D2-A)*%
X4527500Y-81617500D03*
%TD*%
D10*
%TO.P,SW32,*%
%TO.N,*%
X102933722Y-180635618D03*
D11*
%TO.P,SW32,1,1*%
%TO.N,COL7*%
X110121884Y-170866645D03*
%TO.P,SW32,2,2*%
%TO.N,Net-(D32-A)*%
X114576007Y-173960315D03*
%TD*%
D10*
%TO.P,SW6,*%
%TO.N,*%
X70794785Y-95901923D03*
D11*
%TO.P,SW6,1,1*%
%TO.N,COL5*%
X77982947Y-86132950D03*
%TO.P,SW6,2,2*%
%TO.N,Net-(D6-A)*%
X82437070Y-89226620D03*
%TD*%
D10*
%TO.P,SW35,*%
%TO.N,*%
X223563965Y-95551807D03*
D11*
%TO.P,SW35,1,1*%
%TO.N,COL10*%
X226157279Y-83703717D03*
%TO.P,SW35,2,2*%
%TO.N,Net-(D35-A)*%
X231484632Y-84718269D03*
%TD*%
D10*
%TO.P,SW39,*%
%TO.N,*%
X307423750Y-90567500D03*
D11*
%TO.P,SW39,1,1*%
%TO.N,COL15*%
X312423750Y-79517500D03*
%TO.P,SW39,2,2*%
%TO.N,Net-(D39-A)*%
X317423750Y-81617500D03*
%TD*%
D10*
%TO.P,SW23,*%
%TO.N,*%
X-4996250Y-147717500D03*
D11*
%TO.P,SW23,1,1*%
%TO.N,COL1*%
X3750Y-136667500D03*
%TO.P,SW23,2,2*%
%TO.N,Net-(D23-A)*%
X5003750Y-138767500D03*
%TD*%
D12*
%TO.P,REF\u002A\u002A,1*%
%TO.N,COL0*%
X141610000Y-75370000D03*
D13*
X141610000Y-75370000D03*
D14*
%TO.P,REF\u002A\u002A,2*%
%TO.N,COL1*%
X141610000Y-77910000D03*
D15*
X140810000Y-77910000D03*
D16*
%TO.P,REF\u002A\u002A,3*%
%TO.N,N/C*%
X141610000Y-80450000D03*
D17*
X141610000Y-80450000D03*
D14*
%TO.P,REF\u002A\u002A,4*%
%TO.N,COL2*%
X141610000Y-82990000D03*
D15*
X140810000Y-82990000D03*
D14*
%TO.P,REF\u002A\u002A,5*%
%TO.N,COL3*%
X141610000Y-85530000D03*
D15*
X140810000Y-85530000D03*
D14*
%TO.P,REF\u002A\u002A,6*%
%TO.N,COL4*%
X141610000Y-88070000D03*
D15*
X140810000Y-88070000D03*
D14*
%TO.P,REF\u002A\u002A,7*%
%TO.N,COL5*%
X141610000Y-90610000D03*
D15*
X140810000Y-90610000D03*
D16*
%TO.P,REF\u002A\u002A,8*%
%TO.N,N/C*%
X141610000Y-93150000D03*
D17*
X141610000Y-93150000D03*
D14*
%TO.P,REF\u002A\u002A,9*%
%TO.N,COL6*%
X141610000Y-95690000D03*
D15*
X140810000Y-95690000D03*
D14*
%TO.P,REF\u002A\u002A,10*%
%TO.N,COL7*%
X141610000Y-98230000D03*
D15*
X140810000Y-98230000D03*
D14*
%TO.P,REF\u002A\u002A,11*%
%TO.N,ROW0*%
X141610000Y-100770000D03*
D15*
X140810000Y-100770000D03*
D14*
%TO.P,REF\u002A\u002A,12*%
%TO.N,ROW1*%
X141610000Y-103310000D03*
D15*
X140810000Y-103310000D03*
D16*
%TO.P,REF\u002A\u002A,13*%
%TO.N,N/C*%
X141610000Y-105850000D03*
D17*
X141610000Y-105850000D03*
D14*
%TO.P,REF\u002A\u002A,14*%
%TO.N,ROW2*%
X141610000Y-108390000D03*
D15*
X140810000Y-108390000D03*
D14*
%TO.P,REF\u002A\u002A,15*%
%TO.N,ROW3*%
X141610000Y-110930000D03*
D15*
X140810000Y-110930000D03*
D14*
%TO.P,REF\u002A\u002A,16*%
%TO.N,ROW4*%
X141610000Y-113470000D03*
D15*
X140810000Y-113470000D03*
D14*
%TO.P,REF\u002A\u002A,17*%
%TO.N,ROW9*%
X141610000Y-116010000D03*
D15*
X140810000Y-116010000D03*
D16*
%TO.P,REF\u002A\u002A,18*%
%TO.N,N/C*%
X141610000Y-118550000D03*
D17*
X141610000Y-118550000D03*
D14*
%TO.P,REF\u002A\u002A,19*%
%TO.N,ROW8*%
X141610000Y-121090000D03*
D15*
X140810000Y-121090000D03*
D14*
%TO.P,REF\u002A\u002A,20*%
%TO.N,ROW7*%
X141610000Y-123630000D03*
D15*
X140810000Y-123630000D03*
D14*
%TO.P,REF\u002A\u002A,21*%
%TO.N,ROW6*%
X159390000Y-123630000D03*
D15*
X160190000Y-123630000D03*
D14*
%TO.P,REF\u002A\u002A,22*%
%TO.N,ROW5*%
X159390000Y-121090000D03*
D15*
X160190000Y-121090000D03*
D18*
%TO.P,REF\u002A\u002A,23*%
%TO.N,N/C*%
X159390000Y-118550000D03*
D19*
X159390000Y-118550000D03*
D14*
%TO.P,REF\u002A\u002A,24*%
%TO.N,COL8*%
X159390000Y-116010000D03*
D15*
X160190000Y-116010000D03*
D14*
%TO.P,REF\u002A\u002A,25*%
%TO.N,COL9*%
X159390000Y-113470000D03*
D15*
X160190000Y-113470000D03*
D14*
%TO.P,REF\u002A\u002A,26*%
%TO.N,COL10*%
X159390000Y-110930000D03*
D15*
X160190000Y-110930000D03*
D14*
%TO.P,REF\u002A\u002A,27*%
%TO.N,COL11*%
X159390000Y-108390000D03*
D15*
X160190000Y-108390000D03*
D18*
%TO.P,REF\u002A\u002A,28*%
%TO.N,N/C*%
X159390000Y-105850000D03*
D19*
X159390000Y-105850000D03*
D14*
%TO.P,REF\u002A\u002A,29*%
%TO.N,COL12*%
X159390000Y-103310000D03*
D15*
X160190000Y-103310000D03*
D14*
%TO.P,REF\u002A\u002A,30*%
%TO.N,N/C*%
X159390000Y-100770000D03*
D15*
X160190000Y-100770000D03*
D14*
%TO.P,REF\u002A\u002A,31*%
%TO.N,COL13*%
X159390000Y-98230000D03*
D15*
X160190000Y-98230000D03*
D14*
%TO.P,REF\u002A\u002A,32*%
%TO.N,COL14*%
X159390000Y-95690000D03*
D15*
X160190000Y-95690000D03*
D18*
%TO.P,REF\u002A\u002A,33*%
%TO.N,N/C*%
X159390000Y-93150000D03*
D19*
X159390000Y-93150000D03*
D14*
%TO.P,REF\u002A\u002A,34*%
%TO.N,COL15*%
X159390000Y-90610000D03*
D15*
X160190000Y-90610000D03*
D14*
%TO.P,REF\u002A\u002A,35*%
%TO.N,N/C*%
X159390000Y-88070000D03*
D15*
X160190000Y-88070000D03*
D14*
%TO.P,REF\u002A\u002A,36*%
X159390000Y-85530000D03*
D15*
X160190000Y-85530000D03*
D14*
%TO.P,REF\u002A\u002A,37*%
X159390000Y-82990000D03*
D15*
X160190000Y-82990000D03*
D18*
%TO.P,REF\u002A\u002A,38*%
X159390000Y-80450000D03*
D19*
X159390000Y-80450000D03*
D14*
%TO.P,REF\u002A\u002A,39*%
X159390000Y-77910000D03*
D15*
X160190000Y-77910000D03*
D14*
%TO.P,REF\u002A\u002A,40*%
X159390000Y-75370000D03*
D15*
X160190000Y-75370000D03*
%TD*%
D10*
%TO.P,SW7,*%
%TO.N,*%
X89428497Y-99862641D03*
D11*
%TO.P,SW7,1,1*%
%TO.N,COL6*%
X96616659Y-90093668D03*
%TO.P,SW7,2,2*%
%TO.N,Net-(D7-A)*%
X101070782Y-93187338D03*
%TD*%
D10*
%TO.P,SW21,*%
%TO.N,*%
X77780319Y-136337921D03*
D11*
%TO.P,SW21,1,1*%
%TO.N,COL6*%
X84968481Y-126568948D03*
%TO.P,SW21,2,2*%
%TO.N,Net-(D21-A)*%
X89422604Y-129662618D03*
%TD*%
D10*
%TO.P,SW16,*%
%TO.N,*%
X-35000000Y-126762500D03*
D11*
%TO.P,SW16,1,1*%
%TO.N,COL0*%
X-30000000Y-115712500D03*
%TO.P,SW16,2,2*%
%TO.N,Net-(D16-A)*%
X-25000000Y-117812500D03*
%TD*%
D10*
%TO.P,SW60,*%
%TO.N,*%
X278372500Y-147717500D03*
D11*
%TO.P,SW60,1,1*%
%TO.N,COL13*%
X283372500Y-136667500D03*
%TO.P,SW60,2,2*%
%TO.N,Net-(D60-A)*%
X288372500Y-138767500D03*
%TD*%
D10*
%TO.P,SW65,*%
%TO.N,*%
X319806250Y-166767500D03*
D11*
%TO.P,SW65,1,1*%
%TO.N,COL15*%
X324806250Y-155717500D03*
%TO.P,SW65,2,2*%
%TO.N,Net-(D65-A)*%
X329806250Y-157817500D03*
%TD*%
D10*
%TO.P,SW34,*%
%TO.N,*%
X204930253Y-99512524D03*
D11*
%TO.P,SW34,1,1*%
%TO.N,COL9*%
X207523567Y-87664434D03*
%TO.P,SW34,2,2*%
%TO.N,Net-(D34-A)*%
X212850920Y-88678986D03*
%TD*%
D10*
%TO.P,SW20,*%
%TO.N,*%
X59146607Y-132377203D03*
D11*
%TO.P,SW20,1,1*%
%TO.N,COL5*%
X66334769Y-122608230D03*
%TO.P,SW20,2,2*%
%TO.N,Net-(D20-A)*%
X70788892Y-125701900D03*
%TD*%
D10*
%TO.P,SW54,*%
%TO.N,*%
X312662500Y-128667500D03*
D11*
%TO.P,SW54,1,1*%
%TO.N,COL15*%
X317662500Y-117617500D03*
%TO.P,SW54,2,2*%
%TO.N,Net-(D54-A)*%
X322662500Y-119717500D03*
%TD*%
D10*
%TO.P,SW46,*%
%TO.N,*%
X294565000Y-109617500D03*
D11*
%TO.P,SW46,1,1*%
%TO.N,COL14*%
X299565000Y-98567500D03*
%TO.P,SW46,2,2*%
%TO.N,Net-(D46-A)*%
X304565000Y-100667500D03*
%TD*%
D10*
%TO.P,SW11,*%
%TO.N,*%
X19292500Y-109617500D03*
D11*
%TO.P,SW11,1,1*%
%TO.N,COL2*%
X24292500Y-98567500D03*
%TO.P,SW11,2,2*%
%TO.N,Net-(D11-A)*%
X29292500Y-100667500D03*
%TD*%
D10*
%TO.P,SW19,*%
%TO.N,*%
X40512895Y-128416485D03*
D11*
%TO.P,SW19,1,1*%
%TO.N,COL4*%
X47701057Y-118647512D03*
%TO.P,SW19,2,2*%
%TO.N,Net-(D19-A)*%
X52155180Y-121741182D03*
%TD*%
D10*
%TO.P,SW24,*%
%TO.N,*%
X25960000Y-147717500D03*
D11*
%TO.P,SW24,1,1*%
%TO.N,COL2*%
X30960000Y-136667500D03*
%TO.P,SW24,2,2*%
%TO.N,Net-(D24-A)*%
X35960000Y-138767500D03*
%TD*%
D10*
%TO.P,SW25,*%
%TO.N,*%
X45869033Y-149030556D03*
D11*
%TO.P,SW25,1,1*%
%TO.N,COL4*%
X53057195Y-139261583D03*
%TO.P,SW25,2,2*%
%TO.N,Net-(D25-A)*%
X57511318Y-142355253D03*
%TD*%
D10*
%TO.P,SW31,*%
%TO.N,*%
X72653940Y-174199452D03*
D11*
%TO.P,SW31,1,1*%
%TO.N,COL6*%
X79842102Y-164430479D03*
%TO.P,SW31,2,2*%
%TO.N,Net-(D31-A)*%
X84296225Y-167524149D03*
%TD*%
D10*
%TO.P,SW56,*%
%TO.N,*%
X201905437Y-158582234D03*
D11*
%TO.P,SW56,1,1*%
%TO.N,COL9*%
X204498751Y-146734144D03*
%TO.P,SW56,2,2*%
%TO.N,Net-(D56-A)*%
X209826104Y-147748696D03*
%TD*%
D10*
%TO.P,SW38,*%
%TO.N,*%
X281230000Y-90567500D03*
D11*
%TO.P,SW38,1,1*%
%TO.N,COL13*%
X286230000Y-79517500D03*
%TO.P,SW38,2,2*%
%TO.N,Net-(D38-A)*%
X291230000Y-81617500D03*
%TD*%
D10*
%TO.P,SW17,*%
%TO.N,*%
X-5948750Y-128667500D03*
D11*
%TO.P,SW17,1,1*%
%TO.N,COL1*%
X-948750Y-117617500D03*
%TO.P,SW17,2,2*%
%TO.N,Net-(D17-A)*%
X4051250Y-119717500D03*
%TD*%
D10*
%TO.P,SW41,*%
%TO.N,*%
X199574115Y-120126595D03*
D11*
%TO.P,SW41,1,1*%
%TO.N,COL9*%
X202167429Y-108278505D03*
%TO.P,SW41,2,2*%
%TO.N,Net-(D41-A)*%
X207494782Y-109293057D03*
%TD*%
D10*
%TO.P,SW14,*%
%TO.N,*%
X76150923Y-116515994D03*
D11*
%TO.P,SW14,1,1*%
%TO.N,COL5*%
X83339085Y-106747021D03*
%TO.P,SW14,2,2*%
%TO.N,Net-(D14-A)*%
X87793208Y-109840691D03*
%TD*%
D10*
%TO.P,SW1,*%
%TO.N,*%
X-27380000Y-88662500D03*
D11*
%TO.P,SW1,1,1*%
%TO.N,COL0*%
X-22380000Y-77612500D03*
%TO.P,SW1,2,2*%
%TO.N,Net-(D1-A)*%
X-17380000Y-79712500D03*
%TD*%
D10*
%TO.P,SW42,*%
%TO.N,*%
X218207827Y-116165877D03*
D11*
%TO.P,SW42,1,1*%
%TO.N,COL10*%
X220801141Y-104317787D03*
%TO.P,SW42,2,2*%
%TO.N,Net-(D42-A)*%
X226128494Y-105332339D03*
%TD*%
D10*
%TO.P,SW18,*%
%TO.N,*%
X20245000Y-128667500D03*
D11*
%TO.P,SW18,1,1*%
%TO.N,COL2*%
X25245000Y-117617500D03*
%TO.P,SW18,2,2*%
%TO.N,Net-(D18-A)*%
X30245000Y-119717500D03*
%TD*%
D10*
%TO.P,SW51,*%
%TO.N,*%
X243597313Y-130244764D03*
D11*
%TO.P,SW51,1,1*%
%TO.N,COL11*%
X246190627Y-118396674D03*
%TO.P,SW51,2,2*%
%TO.N,Net-(D51-A)*%
X251517980Y-119411226D03*
%TD*%
D10*
%TO.P,SW59,*%
%TO.N,*%
X259322500Y-147717500D03*
D11*
%TO.P,SW59,1,1*%
%TO.N,COL12*%
X264322500Y-136667500D03*
%TO.P,SW59,2,2*%
%TO.N,Net-(D59-A)*%
X269322500Y-138767500D03*
%TD*%
D10*
%TO.P,SW62,*%
%TO.N,*%
X330760000Y-147717500D03*
D11*
%TO.P,SW62,1,1*%
%TO.N,COL15*%
X335760000Y-136667500D03*
%TO.P,SW62,2,2*%
%TO.N,Net-(D62-A)*%
X340760000Y-138767500D03*
%TD*%
D10*
%TO.P,SW27,*%
%TO.N,*%
X83136457Y-156951991D03*
D11*
%TO.P,SW27,1,1*%
%TO.N,COL6*%
X90324619Y-147183018D03*
%TO.P,SW27,2,2*%
%TO.N,Net-(D27-A)*%
X94778742Y-150276688D03*
%TD*%
D10*
%TO.P,SW45,*%
%TO.N,*%
X275515000Y-109617500D03*
D11*
%TO.P,SW45,1,1*%
%TO.N,COL13*%
X280515000Y-98567500D03*
%TO.P,SW45,2,2*%
%TO.N,Net-(D45-A)*%
X285515000Y-100667500D03*
%TD*%
D10*
%TO.P,SW33,*%
%TO.N,*%
X186296541Y-103473242D03*
D11*
%TO.P,SW33,1,1*%
%TO.N,COL8*%
X188889855Y-91625152D03*
%TO.P,SW33,2,2*%
%TO.N,Net-(D33-A)*%
X194217208Y-92639704D03*
%TD*%
D10*
%TO.P,SW29,*%
%TO.N,*%
X-12140000Y-166767500D03*
D11*
%TO.P,SW29,1,1*%
%TO.N,COL1*%
X-7140000Y-155717500D03*
%TO.P,SW29,2,2*%
%TO.N,Net-(D29-A)*%
X-2140000Y-157817500D03*
%TD*%
D10*
%TO.P,SW10,*%
%TO.N,*%
X-4520000Y-109617500D03*
D11*
%TO.P,SW10,1,1*%
%TO.N,COL1*%
X480000Y-98567500D03*
%TO.P,SW10,2,2*%
%TO.N,Net-(D10-A)*%
X5480000Y-100667500D03*
%TD*%
D10*
%TO.P,SW52,*%
%TO.N,*%
X265037500Y-128667500D03*
D11*
%TO.P,SW52,1,1*%
%TO.N,COL12*%
X270037500Y-117617500D03*
%TO.P,SW52,2,2*%
%TO.N,Net-(D52-A)*%
X275037500Y-119717500D03*
%TD*%
D10*
%TO.P,SW58,*%
%TO.N,*%
X239172860Y-150660798D03*
D11*
%TO.P,SW58,1,1*%
%TO.N,COL11*%
X241766174Y-138812708D03*
%TO.P,SW58,2,2*%
%TO.N,Net-(D58-A)*%
X247093527Y-139827260D03*
%TD*%
D10*
%TO.P,SW12,*%
%TO.N,*%
X38883499Y-108594558D03*
D11*
%TO.P,SW12,1,1*%
%TO.N,COL3*%
X46071661Y-98825585D03*
%TO.P,SW12,2,2*%
%TO.N,Net-(D12-A)*%
X50525784Y-101919255D03*
%TD*%
D10*
%TO.P,SW53,*%
%TO.N,*%
X284087500Y-128667500D03*
D11*
%TO.P,SW53,1,1*%
%TO.N,COL13*%
X289087500Y-117617500D03*
%TO.P,SW53,2,2*%
%TO.N,Net-(D53-A)*%
X294087500Y-119717500D03*
%TD*%
D10*
%TO.P,SW36,*%
%TO.N,*%
X242197677Y-91591089D03*
D11*
%TO.P,SW36,1,1*%
%TO.N,COL11*%
X244790991Y-79742999D03*
%TO.P,SW36,2,2*%
%TO.N,Net-(D36-A)*%
X250118344Y-80757551D03*
%TD*%
D10*
%TO.P,SW13,*%
%TO.N,*%
X57517211Y-112555276D03*
D11*
%TO.P,SW13,1,1*%
%TO.N,COL4*%
X64705373Y-102786303D03*
%TO.P,SW13,2,2*%
%TO.N,Net-(D13-A)*%
X69159496Y-105879973D03*
%TD*%
D10*
%TO.P,SW8,*%
%TO.N,*%
X108062208Y-103823358D03*
D11*
%TO.P,SW8,1,1*%
%TO.N,COL7*%
X115250370Y-94054385D03*
%TO.P,SW8,2,2*%
%TO.N,Net-(D8-A)*%
X119704493Y-97148055D03*
%TD*%
D10*
%TO.P,SW57,*%
%TO.N,*%
X220539149Y-154621516D03*
D11*
%TO.P,SW57,1,1*%
%TO.N,COL10*%
X223132463Y-142773426D03*
%TO.P,SW57,2,2*%
%TO.N,Net-(D57-A)*%
X228459816Y-143787978D03*
%TD*%
D10*
%TO.P,SW55,*%
%TO.N,*%
X183271725Y-162542952D03*
D11*
%TO.P,SW55,1,1*%
%TO.N,COL8*%
X185865039Y-150694862D03*
%TO.P,SW55,2,2*%
%TO.N,Net-(D55-A)*%
X191192392Y-151709414D03*
%TD*%
D10*
%TO.P,SW22,*%
%TO.N,*%
X96414031Y-140298638D03*
D11*
%TO.P,SW22,1,1*%
%TO.N,COL7*%
X103602193Y-130529665D03*
%TO.P,SW22,2,2*%
%TO.N,Net-(D22-A)*%
X108056316Y-133623335D03*
%TD*%
D10*
%TO.P,SW64,*%
%TO.N,*%
X241002400Y-170721286D03*
D11*
%TO.P,SW64,1,1*%
%TO.N,COL11*%
X243595714Y-158873196D03*
%TO.P,SW64,2,2*%
%TO.N,Net-(D64-A)*%
X248923067Y-159887748D03*
%TD*%
D10*
%TO.P,SW44,*%
%TO.N,*%
X256465000Y-108665000D03*
D11*
%TO.P,SW44,1,1*%
%TO.N,COL12*%
X261465000Y-97615000D03*
%TO.P,SW44,2,2*%
%TO.N,Net-(D44-A)*%
X266465000Y-99715000D03*
%TD*%
D10*
%TO.P,SW50,*%
%TO.N,*%
X224963601Y-134205481D03*
D11*
%TO.P,SW50,1,1*%
%TO.N,COL10*%
X227556915Y-122357391D03*
%TO.P,SW50,2,2*%
%TO.N,Net-(D50-A)*%
X232884268Y-123371943D03*
%TD*%
%TO.N,COL9*%
D20*
X208923203Y-126318109D02*
X202320355Y-136485601D01*
X205556592Y-110479453D02*
X206949427Y-111872288D01*
X200187069Y-98961648D02*
X207523567Y-87664434D01*
X206949427Y-124344333D02*
X208923203Y-126318109D01*
X190465566Y-87664434D02*
X164660000Y-113470000D01*
X206949427Y-111872288D02*
X206949427Y-124344333D01*
X207523567Y-87664434D02*
X190465566Y-87664434D01*
X164660000Y-113470000D02*
X159390000Y-113470000D01*
X202167429Y-108278505D02*
X200187069Y-98961648D01*
X202320355Y-136485601D02*
X204498751Y-146734144D01*
X202167429Y-108278505D02*
X205556592Y-110479453D01*
%TO.N,COL14*%
X148590000Y-187960000D02*
X143300000Y-182670000D01*
X143300000Y-182670000D02*
X143300000Y-110224365D01*
X156734365Y-96790000D02*
X161850917Y-96790000D01*
X143300000Y-110224365D02*
X156734365Y-96790000D01*
X299565000Y-98567500D02*
X307185000Y-106187500D01*
X255892500Y-187960000D02*
X148590000Y-187960000D01*
X307185000Y-136667500D02*
X255892500Y-187960000D01*
X307185000Y-106187500D02*
X307185000Y-136667500D01*
X161850917Y-96790000D02*
X162950917Y-95690000D01*
X162950917Y-95690000D02*
X159390000Y-95690000D01*
%TO.N,COL5*%
X136032950Y-86132950D02*
X140510000Y-90610000D01*
X83339085Y-106747021D02*
X85319443Y-97430164D01*
X73671265Y-133905444D02*
X66334769Y-122608230D01*
X47966757Y-158628944D02*
X71690907Y-143222301D01*
X66334769Y-122608230D02*
X67522984Y-117018116D01*
X77982947Y-86132950D02*
X136032950Y-86132950D01*
X71690907Y-143222301D02*
X73671265Y-133905444D01*
X85319443Y-97430164D02*
X77982947Y-86132950D01*
X47035071Y-158430909D02*
X47966757Y-158628944D01*
X140510000Y-90610000D02*
X141610000Y-90610000D01*
X67522984Y-117018116D02*
X83339085Y-106747021D01*
%TO.N,COL7*%
X110938689Y-141826878D02*
X108958331Y-151143736D01*
X108958331Y-151143736D02*
X112993403Y-157357203D01*
X110000000Y-125000000D02*
X109131858Y-125000000D01*
X115250370Y-94054385D02*
X136818749Y-94054385D01*
X115250370Y-94054385D02*
X110000000Y-99304755D01*
X139492182Y-96727818D02*
X140994364Y-98230000D01*
X140510000Y-97745636D02*
X140510000Y-98230000D01*
X109131858Y-125000000D02*
X103602193Y-130529665D01*
X103602193Y-130529665D02*
X110938689Y-141826878D01*
X110000000Y-99304755D02*
X110000000Y-125000000D01*
X140994364Y-98230000D02*
X141610000Y-98230000D01*
X139492182Y-96727818D02*
X140510000Y-97745636D01*
X136818749Y-94054385D02*
X139492182Y-96727818D01*
X112993403Y-157357203D02*
X110121884Y-170866645D01*
%TO.N,COL2*%
X27167500Y-101442500D02*
X27167500Y-115695000D01*
X18577500Y-79517500D02*
X24292500Y-85232500D01*
X138560000Y-82990000D02*
X131370000Y-75800000D01*
X22295000Y-75800000D02*
X18577500Y-79517500D01*
X131370000Y-75800000D02*
X22295000Y-75800000D01*
X24292500Y-98567500D02*
X27167500Y-101442500D01*
X25245000Y-117617500D02*
X30960000Y-123332500D01*
X24292500Y-85232500D02*
X24292500Y-98567500D01*
X27167500Y-115695000D02*
X25245000Y-117617500D01*
X141610000Y-82990000D02*
X138560000Y-82990000D01*
X30960000Y-123332500D02*
X30960000Y-136667500D01*
%TO.N,COL4*%
X59349235Y-82172232D02*
X135096596Y-82172232D01*
X66685731Y-93469446D02*
X59349235Y-82172232D01*
X48889273Y-113057398D02*
X64705373Y-102786303D01*
X47701057Y-118647512D02*
X48889273Y-113057398D01*
X64705373Y-102786303D02*
X66685731Y-93469446D01*
X141610000Y-88070000D02*
X140994364Y-88070000D01*
X47701057Y-118647512D02*
X55037554Y-129944725D01*
X55037554Y-129944725D02*
X53057195Y-139261583D01*
X140994364Y-88070000D02*
X140510000Y-87585636D01*
X135096596Y-82172232D02*
X140510000Y-87585636D01*
%TO.N,COL8*%
X181553357Y-102922366D02*
X188889855Y-91625152D01*
X183686643Y-140446320D02*
X185865039Y-150694862D01*
X185865039Y-150694862D02*
X202810860Y-161699607D01*
X188166857Y-128156192D02*
X190289492Y-130278827D01*
X183533717Y-112239223D02*
X181553357Y-102922366D01*
X186922881Y-114440172D02*
X188166857Y-115684148D01*
X190289492Y-130278827D02*
X183686643Y-140446320D01*
X164505007Y-116010000D02*
X159390000Y-116010000D01*
X183533717Y-112239223D02*
X186922881Y-114440172D01*
X188166857Y-115684148D02*
X188166857Y-128156192D01*
X188889855Y-91625152D02*
X164505007Y-116010000D01*
X202810860Y-161699607D02*
X203801041Y-166358035D01*
%TO.N,COL15*%
X335760000Y-136667500D02*
X324806250Y-147621250D01*
X177787500Y-76212500D02*
X162560000Y-91440000D01*
X324806250Y-147621250D02*
X324806250Y-155717500D01*
X320996250Y-88090000D02*
X320996250Y-98567500D01*
X312423750Y-79517500D02*
X309118750Y-76212500D01*
X312423750Y-79517500D02*
X320996250Y-88090000D01*
X317662500Y-118570000D02*
X335760000Y-136667500D01*
X160220000Y-91440000D02*
X159390000Y-90610000D01*
X317662500Y-101901250D02*
X317662500Y-117617500D01*
X320996250Y-98567500D02*
X317662500Y-101901250D01*
X309118750Y-76212500D02*
X177787500Y-76212500D01*
X317662500Y-117617500D02*
X317662500Y-118570000D01*
X162560000Y-91440000D02*
X160220000Y-91440000D01*
%TO.N,COL0*%
X-22380000Y-77612500D02*
X-25255000Y-80487500D01*
X-29590000Y-115302500D02*
X-30000000Y-115712500D01*
X-19767500Y-75000000D02*
X140510000Y-75000000D01*
X-22380000Y-77612500D02*
X-19767500Y-75000000D01*
X-25255000Y-95727500D02*
X-26190000Y-96662500D01*
X-25255000Y-80487500D02*
X-25255000Y-95727500D01*
X-29590000Y-100062500D02*
X-29590000Y-115302500D01*
X-26190000Y-96662500D02*
X-29590000Y-100062500D01*
%TO.N,COL12*%
X266637500Y-134352500D02*
X264322500Y-136667500D01*
X169740000Y-103310000D02*
X159390000Y-103310000D01*
X266637500Y-121017500D02*
X266637500Y-134352500D01*
X270037500Y-106187500D02*
X270037500Y-117617500D01*
X267180000Y-77612500D02*
X264305000Y-80487500D01*
X264305000Y-80487500D02*
X264305000Y-94775000D01*
X270037500Y-117617500D02*
X266637500Y-121017500D01*
X195437500Y-77612500D02*
X169740000Y-103310000D01*
X261465000Y-97615000D02*
X270037500Y-106187500D01*
X264305000Y-94775000D02*
X261465000Y-97615000D01*
X267180000Y-77612500D02*
X195437500Y-77612500D01*
%TO.N,COL11*%
X239587779Y-128564167D02*
X241766174Y-138812708D01*
X241766174Y-138812708D02*
X240000000Y-140578882D01*
X244790991Y-79742999D02*
X194577001Y-79742999D01*
X243840000Y-103574002D02*
X243840000Y-116840000D01*
X243840000Y-116840000D02*
X244633953Y-116840000D01*
X237454493Y-91040213D02*
X244790991Y-79742999D01*
X246190627Y-118396674D02*
X239587779Y-128564167D01*
X243595714Y-152820910D02*
X243595714Y-158873196D01*
X240000000Y-149225196D02*
X243595714Y-152820910D01*
X240000000Y-140578882D02*
X240000000Y-149225196D01*
X165930000Y-108390000D02*
X159390000Y-108390000D01*
X244633953Y-116840000D02*
X246190627Y-118396674D01*
X242824016Y-102558018D02*
X243840000Y-103574002D01*
X194577001Y-79742999D02*
X165930000Y-108390000D01*
X239434853Y-100357070D02*
X237454493Y-91040213D01*
X239434853Y-100357070D02*
X242824016Y-102558018D01*
%TO.N,COL3*%
X132592500Y-77612500D02*
X139250000Y-84270000D01*
X37627500Y-77612500D02*
X46071661Y-86056661D01*
X37627500Y-77612500D02*
X132592500Y-77612500D01*
X139250000Y-84270000D02*
X140350000Y-84270000D01*
X46071661Y-86056661D02*
X46071661Y-98825585D01*
X140350000Y-84270000D02*
X141610000Y-85530000D01*
%TO.N,COL6*%
X96616659Y-90093668D02*
X135000000Y-90093668D01*
X82416568Y-152318564D02*
X90324619Y-147183018D01*
X92304977Y-137866162D02*
X84968481Y-126568948D01*
X79842102Y-164430479D02*
X82416568Y-152318564D01*
X86156696Y-120978832D02*
X101972797Y-110707738D01*
X141610000Y-95690000D02*
X140987292Y-95690000D01*
X90324619Y-147183018D02*
X92304977Y-137866162D01*
X96616659Y-90093668D02*
X135390960Y-90093668D01*
X101972797Y-110707738D02*
X103953155Y-101390882D01*
X140510000Y-95212708D02*
X140510000Y-95690000D01*
X135390960Y-90093668D02*
X140510000Y-95212708D01*
X84968481Y-126568948D02*
X86156696Y-120978832D01*
X103953155Y-101390882D02*
X96616659Y-90093668D01*
X140987292Y-95690000D02*
X140510000Y-95212708D01*
X135000000Y-90093668D02*
X135093668Y-90093668D01*
%TO.N,COL1*%
X-4348750Y-132315000D02*
X3750Y-136667500D01*
X-2395000Y-116171250D02*
X-948750Y-117617500D01*
X-472500Y-79517500D02*
X-3347500Y-82392500D01*
X138125820Y-75400000D02*
X139858003Y-77132183D01*
X139858003Y-77132183D02*
X140635820Y-77910000D01*
X-7140000Y-143811250D02*
X-7140000Y-155717500D01*
X3645000Y-75400000D02*
X138125820Y-75400000D01*
X3750Y-136667500D02*
X-7140000Y-143811250D01*
X480000Y-98567500D02*
X-2395000Y-101442500D01*
X-472500Y-79527500D02*
X0Y-80000000D01*
X-472500Y-79517500D02*
X-472500Y-79527500D01*
X-472500Y-79517500D02*
X3645000Y-75400000D01*
X140635820Y-77910000D02*
X141610000Y-77910000D01*
X-3347500Y-94740000D02*
X480000Y-98567500D01*
X-4348750Y-121017500D02*
X-4348750Y-132315000D01*
X-2395000Y-101442500D02*
X-2395000Y-116171250D01*
X-948750Y-117617500D02*
X-4348750Y-121017500D01*
X-3347500Y-82392500D02*
X-3347500Y-94740000D01*
%TO.N,COL10*%
X164660000Y-110930000D02*
X159390000Y-110930000D01*
X220801141Y-104317787D02*
X224190304Y-106518735D01*
X225323680Y-120124156D02*
X227556915Y-122357391D01*
X224190304Y-106518735D02*
X225323680Y-107652111D01*
X218820781Y-95000931D02*
X226157279Y-83703717D01*
X226157279Y-83703717D02*
X191886283Y-83703717D01*
X225323680Y-107652111D02*
X225323680Y-120124156D01*
X227556915Y-122357391D02*
X220954067Y-132524884D01*
X191886283Y-83703717D02*
X164660000Y-110930000D01*
X220801141Y-104317787D02*
X218820781Y-95000931D01*
X220954067Y-132524884D02*
X223132463Y-142773426D01*
%TO.N,COL13*%
X157700000Y-100904365D02*
X158934365Y-99670000D01*
X283372500Y-136667500D02*
X261620000Y-158420000D01*
X280515000Y-98567500D02*
X289087500Y-107140000D01*
X261620000Y-180340000D02*
X255270000Y-186690000D01*
X285687500Y-134352500D02*
X283372500Y-136667500D01*
X283355000Y-95727500D02*
X280515000Y-98567500D01*
X157480000Y-186690000D02*
X157700000Y-186470000D01*
X286230000Y-79517500D02*
X283355000Y-82392500D01*
X285687500Y-121017500D02*
X285687500Y-134352500D01*
X161950000Y-99670000D02*
X163390000Y-98230000D01*
X157700000Y-186470000D02*
X157700000Y-100904365D01*
X283355000Y-82392500D02*
X283355000Y-95727500D01*
X261620000Y-158420000D02*
X261620000Y-180340000D01*
X289087500Y-107140000D02*
X289087500Y-117617500D01*
X289087500Y-117617500D02*
X285687500Y-121017500D01*
X163390000Y-98230000D02*
X159390000Y-98230000D01*
X158934365Y-99670000D02*
X161950000Y-99670000D01*
X255270000Y-186690000D02*
X157480000Y-186690000D01*
%TD*%
M02*
