%TF.GenerationSoftware,KiCad,Pcbnew,10.0.4*%
%TF.CreationDate,2026-07-12T21:05:24-04:00*%
%TF.ProjectId,keyboard,6b657962-6f61-4726-942e-6b696361645f,rev?*%
%TF.SameCoordinates,Original*%
%TF.FileFunction,Legend,Bot*%
%TF.FilePolarity,Positive*%
%FSLAX46Y46*%
G04 Gerber Fmt 4.6, Leading zero omitted, Abs format (unit mm)*
G04 Created by KiCad (PCBNEW 10.0.4) date 2026-07-12 21:05:24*
%MOMM*%
%LPD*%
G01*
G04 APERTURE LIST*
%ADD10C,0.150000*%
%ADD11C,0.120000*%
G04 APERTURE END LIST*
D10*
X213223426Y-156372079D02*
X214201573Y-156164168D01*
X214201573Y-156164168D02*
X214152070Y-155931275D01*
X214152070Y-155931275D02*
X214075790Y-155801441D01*
X214075790Y-155801441D02*
X213962832Y-155728085D01*
X213962832Y-155728085D02*
X213859775Y-155701307D01*
X213859775Y-155701307D02*
X213663560Y-155694331D01*
X213663560Y-155694331D02*
X213523825Y-155724033D01*
X213523825Y-155724033D02*
X213347412Y-155810214D01*
X213347412Y-155810214D02*
X213264155Y-155876593D01*
X213264155Y-155876593D02*
X213190800Y-155989551D01*
X213190800Y-155989551D02*
X213173923Y-156139187D01*
X213173923Y-156139187D02*
X213223426Y-156372079D01*
X213894656Y-154720236D02*
X213993661Y-155186020D01*
X213993661Y-155186020D02*
X213537777Y-155331604D01*
X213537777Y-155331604D02*
X213574455Y-155275125D01*
X213574455Y-155275125D02*
X213601233Y-155172068D01*
X213601233Y-155172068D02*
X213551730Y-154939175D01*
X213551730Y-154939175D02*
X213485350Y-154855919D01*
X213485350Y-154855919D02*
X213428871Y-154819241D01*
X213428871Y-154819241D02*
X213325814Y-154792464D01*
X213325814Y-154792464D02*
X213092922Y-154841967D01*
X213092922Y-154841967D02*
X213009665Y-154908346D01*
X213009665Y-154908346D02*
X212972987Y-154964825D01*
X212972987Y-154964825D02*
X212946210Y-155067883D01*
X212946210Y-155067883D02*
X212995713Y-155300775D01*
X212995713Y-155300775D02*
X213062092Y-155384031D01*
X213062092Y-155384031D02*
X213118571Y-155420709D01*
X213706545Y-153835245D02*
X213746148Y-154021559D01*
X213746148Y-154021559D02*
X213719370Y-154124616D01*
X213719370Y-154124616D02*
X213682692Y-154181095D01*
X213682692Y-154181095D02*
X213562758Y-154303954D01*
X213562758Y-154303954D02*
X213386345Y-154390134D01*
X213386345Y-154390134D02*
X213013717Y-154469339D01*
X213013717Y-154469339D02*
X212910660Y-154442561D01*
X212910660Y-154442561D02*
X212854181Y-154405884D01*
X212854181Y-154405884D02*
X212787801Y-154322627D01*
X212787801Y-154322627D02*
X212748199Y-154136313D01*
X212748199Y-154136313D02*
X212774976Y-154033256D01*
X212774976Y-154033256D02*
X212811654Y-153976777D01*
X212811654Y-153976777D02*
X212894910Y-153910397D01*
X212894910Y-153910397D02*
X213127803Y-153860895D01*
X213127803Y-153860895D02*
X213230860Y-153887672D01*
X213230860Y-153887672D02*
X213287339Y-153924350D01*
X213287339Y-153924350D02*
X213353719Y-154007606D01*
X213353719Y-154007606D02*
X213393321Y-154193920D01*
X213393321Y-154193920D02*
X213366544Y-154296977D01*
X213366544Y-154296977D02*
X213329866Y-154353456D01*
X213329866Y-154353456D02*
X213246609Y-154419836D01*
X231857138Y-152411361D02*
X232835285Y-152203450D01*
X232835285Y-152203450D02*
X232785782Y-151970557D01*
X232785782Y-151970557D02*
X232709502Y-151840723D01*
X232709502Y-151840723D02*
X232596544Y-151767367D01*
X232596544Y-151767367D02*
X232493487Y-151740589D01*
X232493487Y-151740589D02*
X232297272Y-151733613D01*
X232297272Y-151733613D02*
X232157537Y-151763315D01*
X232157537Y-151763315D02*
X231981124Y-151849496D01*
X231981124Y-151849496D02*
X231897867Y-151915875D01*
X231897867Y-151915875D02*
X231824512Y-152028833D01*
X231824512Y-152028833D02*
X231807635Y-152178469D01*
X231807635Y-152178469D02*
X231857138Y-152411361D01*
X232528368Y-150759518D02*
X232627373Y-151225302D01*
X232627373Y-151225302D02*
X232171489Y-151370886D01*
X232171489Y-151370886D02*
X232208167Y-151314407D01*
X232208167Y-151314407D02*
X232234945Y-151211350D01*
X232234945Y-151211350D02*
X232185442Y-150978457D01*
X232185442Y-150978457D02*
X232119062Y-150895201D01*
X232119062Y-150895201D02*
X232062583Y-150858523D01*
X232062583Y-150858523D02*
X231959526Y-150831746D01*
X231959526Y-150831746D02*
X231726634Y-150881249D01*
X231726634Y-150881249D02*
X231643377Y-150947628D01*
X231643377Y-150947628D02*
X231606699Y-151004107D01*
X231606699Y-151004107D02*
X231579922Y-151107165D01*
X231579922Y-151107165D02*
X231629425Y-151340057D01*
X231629425Y-151340057D02*
X231695804Y-151423313D01*
X231695804Y-151423313D02*
X231752283Y-151459991D01*
X232449163Y-150386890D02*
X232310556Y-149734791D01*
X232310556Y-149734791D02*
X231421513Y-150361909D01*
X-14940180Y-86901405D02*
X-15940180Y-86901405D01*
X-15940180Y-86901405D02*
X-15940180Y-87139500D01*
X-15940180Y-87139500D02*
X-15892561Y-87282357D01*
X-15892561Y-87282357D02*
X-15797323Y-87377595D01*
X-15797323Y-87377595D02*
X-15702085Y-87425214D01*
X-15702085Y-87425214D02*
X-15511609Y-87472833D01*
X-15511609Y-87472833D02*
X-15368752Y-87472833D01*
X-15368752Y-87472833D02*
X-15178276Y-87425214D01*
X-15178276Y-87425214D02*
X-15083038Y-87377595D01*
X-15083038Y-87377595D02*
X-14987800Y-87282357D01*
X-14987800Y-87282357D02*
X-14940180Y-87139500D01*
X-14940180Y-87139500D02*
X-14940180Y-86901405D01*
X-14940180Y-88425214D02*
X-14940180Y-87853786D01*
X-14940180Y-88139500D02*
X-15940180Y-88139500D01*
X-15940180Y-88139500D02*
X-15797323Y-88044262D01*
X-15797323Y-88044262D02*
X-15702085Y-87949024D01*
X-15702085Y-87949024D02*
X-15654466Y-87853786D01*
X234881954Y-93341652D02*
X235860101Y-93133741D01*
X235860101Y-93133741D02*
X235810598Y-92900848D01*
X235810598Y-92900848D02*
X235734318Y-92771014D01*
X235734318Y-92771014D02*
X235621360Y-92697658D01*
X235621360Y-92697658D02*
X235518303Y-92670880D01*
X235518303Y-92670880D02*
X235322088Y-92663904D01*
X235322088Y-92663904D02*
X235182353Y-92693606D01*
X235182353Y-92693606D02*
X235005940Y-92779787D01*
X235005940Y-92779787D02*
X234922683Y-92846166D01*
X234922683Y-92846166D02*
X234849328Y-92959124D01*
X234849328Y-92959124D02*
X234832451Y-93108760D01*
X234832451Y-93108760D02*
X234881954Y-93341652D01*
X235671991Y-92248750D02*
X235543283Y-91643230D01*
X235543283Y-91643230D02*
X235239960Y-92048484D01*
X235239960Y-92048484D02*
X235210258Y-91908748D01*
X235210258Y-91908748D02*
X235143878Y-91825492D01*
X235143878Y-91825492D02*
X235087399Y-91788814D01*
X235087399Y-91788814D02*
X234984342Y-91762037D01*
X234984342Y-91762037D02*
X234751450Y-91811540D01*
X234751450Y-91811540D02*
X234668193Y-91877919D01*
X234668193Y-91877919D02*
X234631515Y-91934398D01*
X234631515Y-91934398D02*
X234604738Y-92037456D01*
X234604738Y-92037456D02*
X234664141Y-92316926D01*
X234664141Y-92316926D02*
X234730521Y-92400183D01*
X234730521Y-92400183D02*
X234787000Y-92436861D01*
X235355173Y-90758239D02*
X235454178Y-91224024D01*
X235454178Y-91224024D02*
X234998294Y-91369608D01*
X234998294Y-91369608D02*
X235034972Y-91313129D01*
X235034972Y-91313129D02*
X235061750Y-91210071D01*
X235061750Y-91210071D02*
X235012247Y-90977179D01*
X235012247Y-90977179D02*
X234945867Y-90893923D01*
X234945867Y-90893923D02*
X234889388Y-90857245D01*
X234889388Y-90857245D02*
X234786331Y-90830468D01*
X234786331Y-90830468D02*
X234553438Y-90879970D01*
X234553438Y-90879970D02*
X234470182Y-90946350D01*
X234470182Y-90946350D02*
X234433504Y-91002829D01*
X234433504Y-91002829D02*
X234406727Y-91105886D01*
X234406727Y-91105886D02*
X234456230Y-91338779D01*
X234456230Y-91338779D02*
X234522609Y-91422035D01*
X234522609Y-91422035D02*
X234579088Y-91458713D01*
X197614530Y-101263087D02*
X198592677Y-101055176D01*
X198592677Y-101055176D02*
X198543174Y-100822283D01*
X198543174Y-100822283D02*
X198466894Y-100692449D01*
X198466894Y-100692449D02*
X198353936Y-100619093D01*
X198353936Y-100619093D02*
X198250879Y-100592315D01*
X198250879Y-100592315D02*
X198054664Y-100585339D01*
X198054664Y-100585339D02*
X197914929Y-100615041D01*
X197914929Y-100615041D02*
X197738516Y-100701222D01*
X197738516Y-100701222D02*
X197655259Y-100767601D01*
X197655259Y-100767601D02*
X197581904Y-100880559D01*
X197581904Y-100880559D02*
X197565027Y-101030195D01*
X197565027Y-101030195D02*
X197614530Y-101263087D01*
X198404567Y-100170185D02*
X198275859Y-99564665D01*
X198275859Y-99564665D02*
X197972536Y-99969919D01*
X197972536Y-99969919D02*
X197942834Y-99830183D01*
X197942834Y-99830183D02*
X197876454Y-99746927D01*
X197876454Y-99746927D02*
X197819975Y-99710249D01*
X197819975Y-99710249D02*
X197716918Y-99683472D01*
X197716918Y-99683472D02*
X197484026Y-99732975D01*
X197484026Y-99732975D02*
X197400769Y-99799354D01*
X197400769Y-99799354D02*
X197364091Y-99855833D01*
X197364091Y-99855833D02*
X197337314Y-99958891D01*
X197337314Y-99958891D02*
X197396717Y-100238361D01*
X197396717Y-100238361D02*
X197463097Y-100321618D01*
X197463097Y-100321618D02*
X197519576Y-100358296D01*
X198206555Y-99238616D02*
X198077848Y-98633096D01*
X198077848Y-98633096D02*
X197774524Y-99038350D01*
X197774524Y-99038350D02*
X197744823Y-98898614D01*
X197744823Y-98898614D02*
X197678443Y-98815358D01*
X197678443Y-98815358D02*
X197621964Y-98778680D01*
X197621964Y-98778680D02*
X197518907Y-98751903D01*
X197518907Y-98751903D02*
X197286014Y-98801405D01*
X197286014Y-98801405D02*
X197202758Y-98867785D01*
X197202758Y-98867785D02*
X197166080Y-98924264D01*
X197166080Y-98924264D02*
X197139303Y-99027321D01*
X197139303Y-99027321D02*
X197198706Y-99306792D01*
X197198706Y-99306792D02*
X197265086Y-99390049D01*
X197265086Y-99390049D02*
X197321565Y-99426726D01*
X253515666Y-89380934D02*
X254493813Y-89173023D01*
X254493813Y-89173023D02*
X254444310Y-88940130D01*
X254444310Y-88940130D02*
X254368030Y-88810296D01*
X254368030Y-88810296D02*
X254255072Y-88736940D01*
X254255072Y-88736940D02*
X254152015Y-88710162D01*
X254152015Y-88710162D02*
X253955800Y-88703186D01*
X253955800Y-88703186D02*
X253816065Y-88732888D01*
X253816065Y-88732888D02*
X253639652Y-88819069D01*
X253639652Y-88819069D02*
X253556395Y-88885448D01*
X253556395Y-88885448D02*
X253483040Y-88998406D01*
X253483040Y-88998406D02*
X253466163Y-89148042D01*
X253466163Y-89148042D02*
X253515666Y-89380934D01*
X254305703Y-88288032D02*
X254176995Y-87682512D01*
X254176995Y-87682512D02*
X253873672Y-88087766D01*
X253873672Y-88087766D02*
X253843970Y-87948030D01*
X253843970Y-87948030D02*
X253777590Y-87864774D01*
X253777590Y-87864774D02*
X253721111Y-87828096D01*
X253721111Y-87828096D02*
X253618054Y-87801319D01*
X253618054Y-87801319D02*
X253385162Y-87850822D01*
X253385162Y-87850822D02*
X253301905Y-87917201D01*
X253301905Y-87917201D02*
X253265227Y-87973680D01*
X253265227Y-87973680D02*
X253238450Y-88076738D01*
X253238450Y-88076738D02*
X253297853Y-88356208D01*
X253297853Y-88356208D02*
X253364233Y-88439465D01*
X253364233Y-88439465D02*
X253420712Y-88476143D01*
X253998785Y-86844100D02*
X254038388Y-87030414D01*
X254038388Y-87030414D02*
X254011610Y-87133471D01*
X254011610Y-87133471D02*
X253974932Y-87189950D01*
X253974932Y-87189950D02*
X253854998Y-87312809D01*
X253854998Y-87312809D02*
X253678585Y-87398989D01*
X253678585Y-87398989D02*
X253305957Y-87478194D01*
X253305957Y-87478194D02*
X253202900Y-87451416D01*
X253202900Y-87451416D02*
X253146421Y-87414739D01*
X253146421Y-87414739D02*
X253080041Y-87331482D01*
X253080041Y-87331482D02*
X253040439Y-87145168D01*
X253040439Y-87145168D02*
X253067216Y-87042111D01*
X253067216Y-87042111D02*
X253103894Y-86985632D01*
X253103894Y-86985632D02*
X253187150Y-86919252D01*
X253187150Y-86919252D02*
X253420043Y-86869750D01*
X253420043Y-86869750D02*
X253523100Y-86896527D01*
X253523100Y-86896527D02*
X253579579Y-86933205D01*
X253579579Y-86933205D02*
X253645959Y-87016461D01*
X253645959Y-87016461D02*
X253685561Y-87202775D01*
X253685561Y-87202775D02*
X253658784Y-87305832D01*
X253658784Y-87305832D02*
X253622106Y-87362311D01*
X253622106Y-87362311D02*
X253538849Y-87428691D01*
X314624819Y-145480214D02*
X313624819Y-145480214D01*
X313624819Y-145480214D02*
X313624819Y-145718309D01*
X313624819Y-145718309D02*
X313672438Y-145861166D01*
X313672438Y-145861166D02*
X313767676Y-145956404D01*
X313767676Y-145956404D02*
X313862914Y-146004023D01*
X313862914Y-146004023D02*
X314053390Y-146051642D01*
X314053390Y-146051642D02*
X314196247Y-146051642D01*
X314196247Y-146051642D02*
X314386723Y-146004023D01*
X314386723Y-146004023D02*
X314481961Y-145956404D01*
X314481961Y-145956404D02*
X314577200Y-145861166D01*
X314577200Y-145861166D02*
X314624819Y-145718309D01*
X314624819Y-145718309D02*
X314624819Y-145480214D01*
X313624819Y-146908785D02*
X313624819Y-146718309D01*
X313624819Y-146718309D02*
X313672438Y-146623071D01*
X313672438Y-146623071D02*
X313720057Y-146575452D01*
X313720057Y-146575452D02*
X313862914Y-146480214D01*
X313862914Y-146480214D02*
X314053390Y-146432595D01*
X314053390Y-146432595D02*
X314434342Y-146432595D01*
X314434342Y-146432595D02*
X314529580Y-146480214D01*
X314529580Y-146480214D02*
X314577200Y-146527833D01*
X314577200Y-146527833D02*
X314624819Y-146623071D01*
X314624819Y-146623071D02*
X314624819Y-146813547D01*
X314624819Y-146813547D02*
X314577200Y-146908785D01*
X314577200Y-146908785D02*
X314529580Y-146956404D01*
X314529580Y-146956404D02*
X314434342Y-147004023D01*
X314434342Y-147004023D02*
X314196247Y-147004023D01*
X314196247Y-147004023D02*
X314101009Y-146956404D01*
X314101009Y-146956404D02*
X314053390Y-146908785D01*
X314053390Y-146908785D02*
X314005771Y-146813547D01*
X314005771Y-146813547D02*
X314005771Y-146623071D01*
X314005771Y-146623071D02*
X314053390Y-146527833D01*
X314053390Y-146527833D02*
X314101009Y-146480214D01*
X314101009Y-146480214D02*
X314196247Y-146432595D01*
X314624819Y-147956404D02*
X314624819Y-147384976D01*
X314624819Y-147670690D02*
X313624819Y-147670690D01*
X313624819Y-147670690D02*
X313767676Y-147575452D01*
X313767676Y-147575452D02*
X313862914Y-147480214D01*
X313862914Y-147480214D02*
X313910533Y-147384976D01*
X299819Y-164530214D02*
X-700180Y-164530214D01*
X-700180Y-164530214D02*
X-700180Y-164768309D01*
X-700180Y-164768309D02*
X-652561Y-164911166D01*
X-652561Y-164911166D02*
X-557323Y-165006404D01*
X-557323Y-165006404D02*
X-462085Y-165054023D01*
X-462085Y-165054023D02*
X-271609Y-165101642D01*
X-271609Y-165101642D02*
X-128752Y-165101642D01*
X-128752Y-165101642D02*
X61723Y-165054023D01*
X61723Y-165054023D02*
X156961Y-165006404D01*
X156961Y-165006404D02*
X252200Y-164911166D01*
X252200Y-164911166D02*
X299819Y-164768309D01*
X299819Y-164768309D02*
X299819Y-164530214D01*
X-604942Y-165482595D02*
X-652561Y-165530214D01*
X-652561Y-165530214D02*
X-700180Y-165625452D01*
X-700180Y-165625452D02*
X-700180Y-165863547D01*
X-700180Y-165863547D02*
X-652561Y-165958785D01*
X-652561Y-165958785D02*
X-604942Y-166006404D01*
X-604942Y-166006404D02*
X-509704Y-166054023D01*
X-509704Y-166054023D02*
X-414466Y-166054023D01*
X-414466Y-166054023D02*
X-271609Y-166006404D01*
X-271609Y-166006404D02*
X299819Y-165434976D01*
X299819Y-165434976D02*
X299819Y-166054023D01*
X299819Y-166530214D02*
X299819Y-166720690D01*
X299819Y-166720690D02*
X252200Y-166815928D01*
X252200Y-166815928D02*
X204580Y-166863547D01*
X204580Y-166863547D02*
X61723Y-166958785D01*
X61723Y-166958785D02*
X-128752Y-167006404D01*
X-128752Y-167006404D02*
X-509704Y-167006404D01*
X-509704Y-167006404D02*
X-604942Y-166958785D01*
X-604942Y-166958785D02*
X-652561Y-166911166D01*
X-652561Y-166911166D02*
X-700180Y-166815928D01*
X-700180Y-166815928D02*
X-700180Y-166625452D01*
X-700180Y-166625452D02*
X-652561Y-166530214D01*
X-652561Y-166530214D02*
X-604942Y-166482595D01*
X-604942Y-166482595D02*
X-509704Y-166434976D01*
X-509704Y-166434976D02*
X-271609Y-166434976D01*
X-271609Y-166434976D02*
X-176371Y-166482595D01*
X-176371Y-166482595D02*
X-128752Y-166530214D01*
X-128752Y-166530214D02*
X-81133Y-166625452D01*
X-81133Y-166625452D02*
X-81133Y-166815928D01*
X-81133Y-166815928D02*
X-128752Y-166911166D01*
X-128752Y-166911166D02*
X-176371Y-166958785D01*
X-176371Y-166958785D02*
X-271609Y-167006404D01*
X107417771Y-120874698D02*
X106439623Y-120666786D01*
X106439623Y-120666786D02*
X106390120Y-120899679D01*
X106390120Y-120899679D02*
X106406997Y-121049315D01*
X106406997Y-121049315D02*
X106480353Y-121162273D01*
X106480353Y-121162273D02*
X106563609Y-121228652D01*
X106563609Y-121228652D02*
X106740023Y-121314833D01*
X106740023Y-121314833D02*
X106879758Y-121344534D01*
X106879758Y-121344534D02*
X107075972Y-121337558D01*
X107075972Y-121337558D02*
X107179030Y-121310781D01*
X107179030Y-121310781D02*
X107291988Y-121237425D01*
X107291988Y-121237425D02*
X107368268Y-121107590D01*
X107368268Y-121107590D02*
X107417771Y-120874698D01*
X107100953Y-122365209D02*
X107219760Y-121806267D01*
X107160356Y-122085738D02*
X106182209Y-121877826D01*
X106182209Y-121877826D02*
X106341745Y-121814371D01*
X106341745Y-121814371D02*
X106454703Y-121741015D01*
X106454703Y-121741015D02*
X106521083Y-121657759D01*
X105934695Y-123042288D02*
X106033700Y-122576503D01*
X106033700Y-122576503D02*
X106509386Y-122628930D01*
X106509386Y-122628930D02*
X106452907Y-122665608D01*
X106452907Y-122665608D02*
X106386527Y-122748864D01*
X106386527Y-122748864D02*
X106337024Y-122981757D01*
X106337024Y-122981757D02*
X106363802Y-123084814D01*
X106363802Y-123084814D02*
X106400479Y-123141293D01*
X106400479Y-123141293D02*
X106483736Y-123207673D01*
X106483736Y-123207673D02*
X106716628Y-123257176D01*
X106716628Y-123257176D02*
X106819686Y-123230398D01*
X106819686Y-123230398D02*
X106876165Y-123193720D01*
X106876165Y-123193720D02*
X106942544Y-123110464D01*
X106942544Y-123110464D02*
X106992047Y-122877572D01*
X106992047Y-122877572D02*
X106965270Y-122774514D01*
X106965270Y-122774514D02*
X106928592Y-122718035D01*
X254915302Y-128034609D02*
X255893449Y-127826698D01*
X255893449Y-127826698D02*
X255843946Y-127593805D01*
X255843946Y-127593805D02*
X255767666Y-127463971D01*
X255767666Y-127463971D02*
X255654708Y-127390615D01*
X255654708Y-127390615D02*
X255551651Y-127363837D01*
X255551651Y-127363837D02*
X255355436Y-127356861D01*
X255355436Y-127356861D02*
X255215701Y-127386563D01*
X255215701Y-127386563D02*
X255039288Y-127472744D01*
X255039288Y-127472744D02*
X254956031Y-127539123D01*
X254956031Y-127539123D02*
X254882676Y-127652081D01*
X254882676Y-127652081D02*
X254865799Y-127801717D01*
X254865799Y-127801717D02*
X254915302Y-128034609D01*
X255586532Y-126382766D02*
X255685537Y-126848550D01*
X255685537Y-126848550D02*
X255229653Y-126994134D01*
X255229653Y-126994134D02*
X255266331Y-126937655D01*
X255266331Y-126937655D02*
X255293109Y-126834598D01*
X255293109Y-126834598D02*
X255243606Y-126601705D01*
X255243606Y-126601705D02*
X255177226Y-126518449D01*
X255177226Y-126518449D02*
X255120747Y-126481771D01*
X255120747Y-126481771D02*
X255017690Y-126454994D01*
X255017690Y-126454994D02*
X254784798Y-126504497D01*
X254784798Y-126504497D02*
X254701541Y-126570876D01*
X254701541Y-126570876D02*
X254664863Y-126627355D01*
X254664863Y-126627355D02*
X254638086Y-126730413D01*
X254638086Y-126730413D02*
X254687589Y-126963305D01*
X254687589Y-126963305D02*
X254753968Y-127046561D01*
X254753968Y-127046561D02*
X254810447Y-127083239D01*
X254400473Y-125612530D02*
X254519279Y-126171471D01*
X254459876Y-125892000D02*
X255438024Y-125684089D01*
X255438024Y-125684089D02*
X255318089Y-125806947D01*
X255318089Y-125806947D02*
X255244733Y-125919905D01*
X255244733Y-125919905D02*
X255217956Y-126022963D01*
X212525716Y-175995970D02*
X213503863Y-175788059D01*
X213503863Y-175788059D02*
X213454360Y-175555166D01*
X213454360Y-175555166D02*
X213378080Y-175425332D01*
X213378080Y-175425332D02*
X213265122Y-175351976D01*
X213265122Y-175351976D02*
X213162065Y-175325198D01*
X213162065Y-175325198D02*
X212965850Y-175318222D01*
X212965850Y-175318222D02*
X212826115Y-175347924D01*
X212826115Y-175347924D02*
X212649702Y-175434105D01*
X212649702Y-175434105D02*
X212566445Y-175500484D01*
X212566445Y-175500484D02*
X212493090Y-175613442D01*
X212493090Y-175613442D02*
X212476213Y-175763078D01*
X212476213Y-175763078D02*
X212525716Y-175995970D01*
X213206846Y-174390705D02*
X213246449Y-174577019D01*
X213246449Y-174577019D02*
X213219671Y-174680076D01*
X213219671Y-174680076D02*
X213182993Y-174736555D01*
X213182993Y-174736555D02*
X213063059Y-174859414D01*
X213063059Y-174859414D02*
X212886646Y-174945595D01*
X212886646Y-174945595D02*
X212514018Y-175024799D01*
X212514018Y-175024799D02*
X212410961Y-174998022D01*
X212410961Y-174998022D02*
X212354482Y-174961344D01*
X212354482Y-174961344D02*
X212288102Y-174878087D01*
X212288102Y-174878087D02*
X212248500Y-174691774D01*
X212248500Y-174691774D02*
X212275277Y-174588716D01*
X212275277Y-174588716D02*
X212311955Y-174532237D01*
X212311955Y-174532237D02*
X212395212Y-174465858D01*
X212395212Y-174465858D02*
X212628104Y-174416355D01*
X212628104Y-174416355D02*
X212731161Y-174443132D01*
X212731161Y-174443132D02*
X212787640Y-174479810D01*
X212787640Y-174479810D02*
X212854020Y-174563066D01*
X212854020Y-174563066D02*
X212893622Y-174749380D01*
X212893622Y-174749380D02*
X212866845Y-174852438D01*
X212866845Y-174852438D02*
X212830167Y-174908917D01*
X212830167Y-174908917D02*
X212746911Y-174975296D01*
X213117741Y-173971499D02*
X212989034Y-173365979D01*
X212989034Y-173365979D02*
X212685710Y-173771233D01*
X212685710Y-173771233D02*
X212656009Y-173631497D01*
X212656009Y-173631497D02*
X212589629Y-173548241D01*
X212589629Y-173548241D02*
X212533150Y-173511563D01*
X212533150Y-173511563D02*
X212430093Y-173484786D01*
X212430093Y-173484786D02*
X212197200Y-173534288D01*
X212197200Y-173534288D02*
X212113944Y-173600668D01*
X212113944Y-173600668D02*
X212077266Y-173657147D01*
X212077266Y-173657147D02*
X212050489Y-173760204D01*
X212050489Y-173760204D02*
X212109892Y-174039675D01*
X212109892Y-174039675D02*
X212176272Y-174122932D01*
X212176272Y-174122932D02*
X212232751Y-174159609D01*
X70150347Y-112953263D02*
X69172199Y-112745351D01*
X69172199Y-112745351D02*
X69122696Y-112978244D01*
X69122696Y-112978244D02*
X69139573Y-113127880D01*
X69139573Y-113127880D02*
X69212929Y-113240838D01*
X69212929Y-113240838D02*
X69296185Y-113307217D01*
X69296185Y-113307217D02*
X69472599Y-113393398D01*
X69472599Y-113393398D02*
X69612334Y-113423099D01*
X69612334Y-113423099D02*
X69808548Y-113416123D01*
X69808548Y-113416123D02*
X69911606Y-113389346D01*
X69911606Y-113389346D02*
X70024564Y-113315990D01*
X70024564Y-113315990D02*
X70100844Y-113186155D01*
X70100844Y-113186155D02*
X70150347Y-112953263D01*
X69833529Y-114443774D02*
X69952336Y-113884832D01*
X69892932Y-114164303D02*
X68914785Y-113956391D01*
X68914785Y-113956391D02*
X69074321Y-113892936D01*
X69074321Y-113892936D02*
X69187279Y-113819580D01*
X69187279Y-113819580D02*
X69253659Y-113736324D01*
X68786078Y-114561911D02*
X68657370Y-115167431D01*
X68657370Y-115167431D02*
X69099302Y-114920586D01*
X69099302Y-114920586D02*
X69069600Y-115060322D01*
X69069600Y-115060322D02*
X69096378Y-115163379D01*
X69096378Y-115163379D02*
X69133055Y-115219858D01*
X69133055Y-115219858D02*
X69216312Y-115286238D01*
X69216312Y-115286238D02*
X69449204Y-115335741D01*
X69449204Y-115335741D02*
X69552262Y-115308963D01*
X69552262Y-115308963D02*
X69608741Y-115272285D01*
X69608741Y-115272285D02*
X69675120Y-115189029D01*
X69675120Y-115189029D02*
X69734523Y-114909558D01*
X69734523Y-114909558D02*
X69707746Y-114806501D01*
X69707746Y-114806501D02*
X69671068Y-114750022D01*
X325102319Y-126430214D02*
X324102319Y-126430214D01*
X324102319Y-126430214D02*
X324102319Y-126668309D01*
X324102319Y-126668309D02*
X324149938Y-126811166D01*
X324149938Y-126811166D02*
X324245176Y-126906404D01*
X324245176Y-126906404D02*
X324340414Y-126954023D01*
X324340414Y-126954023D02*
X324530890Y-127001642D01*
X324530890Y-127001642D02*
X324673747Y-127001642D01*
X324673747Y-127001642D02*
X324864223Y-126954023D01*
X324864223Y-126954023D02*
X324959461Y-126906404D01*
X324959461Y-126906404D02*
X325054700Y-126811166D01*
X325054700Y-126811166D02*
X325102319Y-126668309D01*
X325102319Y-126668309D02*
X325102319Y-126430214D01*
X324102319Y-127906404D02*
X324102319Y-127430214D01*
X324102319Y-127430214D02*
X324578509Y-127382595D01*
X324578509Y-127382595D02*
X324530890Y-127430214D01*
X324530890Y-127430214D02*
X324483271Y-127525452D01*
X324483271Y-127525452D02*
X324483271Y-127763547D01*
X324483271Y-127763547D02*
X324530890Y-127858785D01*
X324530890Y-127858785D02*
X324578509Y-127906404D01*
X324578509Y-127906404D02*
X324673747Y-127954023D01*
X324673747Y-127954023D02*
X324911842Y-127954023D01*
X324911842Y-127954023D02*
X325007080Y-127906404D01*
X325007080Y-127906404D02*
X325054700Y-127858785D01*
X325054700Y-127858785D02*
X325102319Y-127763547D01*
X325102319Y-127763547D02*
X325102319Y-127525452D01*
X325102319Y-127525452D02*
X325054700Y-127430214D01*
X325054700Y-127430214D02*
X325007080Y-127382595D01*
X324435652Y-128811166D02*
X325102319Y-128811166D01*
X324054700Y-128573071D02*
X324768985Y-128334976D01*
X324768985Y-128334976D02*
X324768985Y-128954023D01*
X58502169Y-149428543D02*
X57524021Y-149220631D01*
X57524021Y-149220631D02*
X57474518Y-149453524D01*
X57474518Y-149453524D02*
X57491395Y-149603160D01*
X57491395Y-149603160D02*
X57564751Y-149716118D01*
X57564751Y-149716118D02*
X57648007Y-149782497D01*
X57648007Y-149782497D02*
X57824421Y-149868678D01*
X57824421Y-149868678D02*
X57964156Y-149898379D01*
X57964156Y-149898379D02*
X58160370Y-149891403D01*
X58160370Y-149891403D02*
X58263428Y-149864626D01*
X58263428Y-149864626D02*
X58376386Y-149791270D01*
X58376386Y-149791270D02*
X58452666Y-149661435D01*
X58452666Y-149661435D02*
X58502169Y-149428543D01*
X57419167Y-150172002D02*
X57362688Y-150208679D01*
X57362688Y-150208679D02*
X57296308Y-150291936D01*
X57296308Y-150291936D02*
X57246806Y-150524828D01*
X57246806Y-150524828D02*
X57273583Y-150627886D01*
X57273583Y-150627886D02*
X57310261Y-150684365D01*
X57310261Y-150684365D02*
X57393517Y-150750744D01*
X57393517Y-150750744D02*
X57486674Y-150770545D01*
X57486674Y-150770545D02*
X57636310Y-150753668D01*
X57636310Y-150753668D02*
X58314058Y-150313534D01*
X58314058Y-150313534D02*
X58185351Y-150919054D01*
X57019093Y-151596133D02*
X57118098Y-151130348D01*
X57118098Y-151130348D02*
X57593784Y-151182775D01*
X57593784Y-151182775D02*
X57537305Y-151219453D01*
X57537305Y-151219453D02*
X57470925Y-151302709D01*
X57470925Y-151302709D02*
X57421422Y-151535602D01*
X57421422Y-151535602D02*
X57448200Y-151638659D01*
X57448200Y-151638659D02*
X57484877Y-151695138D01*
X57484877Y-151695138D02*
X57568134Y-151761518D01*
X57568134Y-151761518D02*
X57801026Y-151811021D01*
X57801026Y-151811021D02*
X57904084Y-151784243D01*
X57904084Y-151784243D02*
X57960563Y-151747565D01*
X57960563Y-151747565D02*
X58026942Y-151664309D01*
X58026942Y-151664309D02*
X58076445Y-151431417D01*
X58076445Y-151431417D02*
X58049668Y-151328359D01*
X58049668Y-151328359D02*
X58012990Y-151271880D01*
X290812319Y-145480214D02*
X289812319Y-145480214D01*
X289812319Y-145480214D02*
X289812319Y-145718309D01*
X289812319Y-145718309D02*
X289859938Y-145861166D01*
X289859938Y-145861166D02*
X289955176Y-145956404D01*
X289955176Y-145956404D02*
X290050414Y-146004023D01*
X290050414Y-146004023D02*
X290240890Y-146051642D01*
X290240890Y-146051642D02*
X290383747Y-146051642D01*
X290383747Y-146051642D02*
X290574223Y-146004023D01*
X290574223Y-146004023D02*
X290669461Y-145956404D01*
X290669461Y-145956404D02*
X290764700Y-145861166D01*
X290764700Y-145861166D02*
X290812319Y-145718309D01*
X290812319Y-145718309D02*
X290812319Y-145480214D01*
X289812319Y-146908785D02*
X289812319Y-146718309D01*
X289812319Y-146718309D02*
X289859938Y-146623071D01*
X289859938Y-146623071D02*
X289907557Y-146575452D01*
X289907557Y-146575452D02*
X290050414Y-146480214D01*
X290050414Y-146480214D02*
X290240890Y-146432595D01*
X290240890Y-146432595D02*
X290621842Y-146432595D01*
X290621842Y-146432595D02*
X290717080Y-146480214D01*
X290717080Y-146480214D02*
X290764700Y-146527833D01*
X290764700Y-146527833D02*
X290812319Y-146623071D01*
X290812319Y-146623071D02*
X290812319Y-146813547D01*
X290812319Y-146813547D02*
X290764700Y-146908785D01*
X290764700Y-146908785D02*
X290717080Y-146956404D01*
X290717080Y-146956404D02*
X290621842Y-147004023D01*
X290621842Y-147004023D02*
X290383747Y-147004023D01*
X290383747Y-147004023D02*
X290288509Y-146956404D01*
X290288509Y-146956404D02*
X290240890Y-146908785D01*
X290240890Y-146908785D02*
X290193271Y-146813547D01*
X290193271Y-146813547D02*
X290193271Y-146623071D01*
X290193271Y-146623071D02*
X290240890Y-146527833D01*
X290240890Y-146527833D02*
X290288509Y-146480214D01*
X290288509Y-146480214D02*
X290383747Y-146432595D01*
X289812319Y-147623071D02*
X289812319Y-147718309D01*
X289812319Y-147718309D02*
X289859938Y-147813547D01*
X289859938Y-147813547D02*
X289907557Y-147861166D01*
X289907557Y-147861166D02*
X290002795Y-147908785D01*
X290002795Y-147908785D02*
X290193271Y-147956404D01*
X290193271Y-147956404D02*
X290431366Y-147956404D01*
X290431366Y-147956404D02*
X290621842Y-147908785D01*
X290621842Y-147908785D02*
X290717080Y-147861166D01*
X290717080Y-147861166D02*
X290764700Y-147813547D01*
X290764700Y-147813547D02*
X290812319Y-147718309D01*
X290812319Y-147718309D02*
X290812319Y-147623071D01*
X290812319Y-147623071D02*
X290764700Y-147527833D01*
X290764700Y-147527833D02*
X290717080Y-147480214D01*
X290717080Y-147480214D02*
X290621842Y-147432595D01*
X290621842Y-147432595D02*
X290431366Y-147384976D01*
X290431366Y-147384976D02*
X290193271Y-147384976D01*
X290193271Y-147384976D02*
X290002795Y-147432595D01*
X290002795Y-147432595D02*
X289907557Y-147480214D01*
X289907557Y-147480214D02*
X289859938Y-147527833D01*
X289859938Y-147527833D02*
X289812319Y-147623071D01*
X248159528Y-109995005D02*
X249137675Y-109787094D01*
X249137675Y-109787094D02*
X249088172Y-109554201D01*
X249088172Y-109554201D02*
X249011892Y-109424367D01*
X249011892Y-109424367D02*
X248898934Y-109351011D01*
X248898934Y-109351011D02*
X248795877Y-109324233D01*
X248795877Y-109324233D02*
X248599662Y-109317257D01*
X248599662Y-109317257D02*
X248459927Y-109346959D01*
X248459927Y-109346959D02*
X248283514Y-109433140D01*
X248283514Y-109433140D02*
X248200257Y-109499519D01*
X248200257Y-109499519D02*
X248126902Y-109612477D01*
X248126902Y-109612477D02*
X248110025Y-109762113D01*
X248110025Y-109762113D02*
X248159528Y-109995005D01*
X248514609Y-108459044D02*
X247862511Y-108597652D01*
X248936740Y-108612732D02*
X248287566Y-108994132D01*
X248287566Y-108994132D02*
X248158858Y-108388612D01*
X248751553Y-107970534D02*
X248622846Y-107365014D01*
X248622846Y-107365014D02*
X248319522Y-107770268D01*
X248319522Y-107770268D02*
X248289821Y-107630532D01*
X248289821Y-107630532D02*
X248223441Y-107547276D01*
X248223441Y-107547276D02*
X248166962Y-107510598D01*
X248166962Y-107510598D02*
X248063905Y-107483821D01*
X248063905Y-107483821D02*
X247831012Y-107533323D01*
X247831012Y-107533323D02*
X247747756Y-107599703D01*
X247747756Y-107599703D02*
X247711078Y-107656182D01*
X247711078Y-107656182D02*
X247684301Y-107759239D01*
X247684301Y-107759239D02*
X247743704Y-108038710D01*
X247743704Y-108038710D02*
X247810084Y-108121967D01*
X247810084Y-108121967D02*
X247866563Y-108158644D01*
X101962627Y-100726413D02*
X100984480Y-100518501D01*
X100984480Y-100518501D02*
X100934977Y-100751394D01*
X100934977Y-100751394D02*
X100951854Y-100901030D01*
X100951854Y-100901030D02*
X101025209Y-101013988D01*
X101025209Y-101013988D02*
X101108466Y-101080367D01*
X101108466Y-101080367D02*
X101284879Y-101166548D01*
X101284879Y-101166548D02*
X101424614Y-101196250D01*
X101424614Y-101196250D02*
X101620829Y-101189273D01*
X101620829Y-101189273D02*
X101723886Y-101162496D01*
X101723886Y-101162496D02*
X101836844Y-101089140D01*
X101836844Y-101089140D02*
X101913124Y-100959305D01*
X101913124Y-100959305D02*
X101962627Y-100726413D01*
X100796369Y-101403492D02*
X100657761Y-102055590D01*
X100657761Y-102055590D02*
X101725014Y-101844296D01*
X277477319Y-126430214D02*
X276477319Y-126430214D01*
X276477319Y-126430214D02*
X276477319Y-126668309D01*
X276477319Y-126668309D02*
X276524938Y-126811166D01*
X276524938Y-126811166D02*
X276620176Y-126906404D01*
X276620176Y-126906404D02*
X276715414Y-126954023D01*
X276715414Y-126954023D02*
X276905890Y-127001642D01*
X276905890Y-127001642D02*
X277048747Y-127001642D01*
X277048747Y-127001642D02*
X277239223Y-126954023D01*
X277239223Y-126954023D02*
X277334461Y-126906404D01*
X277334461Y-126906404D02*
X277429700Y-126811166D01*
X277429700Y-126811166D02*
X277477319Y-126668309D01*
X277477319Y-126668309D02*
X277477319Y-126430214D01*
X276477319Y-127906404D02*
X276477319Y-127430214D01*
X276477319Y-127430214D02*
X276953509Y-127382595D01*
X276953509Y-127382595D02*
X276905890Y-127430214D01*
X276905890Y-127430214D02*
X276858271Y-127525452D01*
X276858271Y-127525452D02*
X276858271Y-127763547D01*
X276858271Y-127763547D02*
X276905890Y-127858785D01*
X276905890Y-127858785D02*
X276953509Y-127906404D01*
X276953509Y-127906404D02*
X277048747Y-127954023D01*
X277048747Y-127954023D02*
X277286842Y-127954023D01*
X277286842Y-127954023D02*
X277382080Y-127906404D01*
X277382080Y-127906404D02*
X277429700Y-127858785D01*
X277429700Y-127858785D02*
X277477319Y-127763547D01*
X277477319Y-127763547D02*
X277477319Y-127525452D01*
X277477319Y-127525452D02*
X277429700Y-127430214D01*
X277429700Y-127430214D02*
X277382080Y-127382595D01*
X276572557Y-128334976D02*
X276524938Y-128382595D01*
X276524938Y-128382595D02*
X276477319Y-128477833D01*
X276477319Y-128477833D02*
X276477319Y-128715928D01*
X276477319Y-128715928D02*
X276524938Y-128811166D01*
X276524938Y-128811166D02*
X276572557Y-128858785D01*
X276572557Y-128858785D02*
X276667795Y-128906404D01*
X276667795Y-128906404D02*
X276763033Y-128906404D01*
X276763033Y-128906404D02*
X276905890Y-128858785D01*
X276905890Y-128858785D02*
X277477319Y-128287357D01*
X277477319Y-128287357D02*
X277477319Y-128906404D01*
X199014167Y-139916762D02*
X199992314Y-139708851D01*
X199992314Y-139708851D02*
X199942811Y-139475958D01*
X199942811Y-139475958D02*
X199866531Y-139346124D01*
X199866531Y-139346124D02*
X199753573Y-139272768D01*
X199753573Y-139272768D02*
X199650516Y-139245990D01*
X199650516Y-139245990D02*
X199454301Y-139239014D01*
X199454301Y-139239014D02*
X199314566Y-139268716D01*
X199314566Y-139268716D02*
X199138153Y-139354897D01*
X199138153Y-139354897D02*
X199054896Y-139421276D01*
X199054896Y-139421276D02*
X198981541Y-139534234D01*
X198981541Y-139534234D02*
X198964664Y-139683870D01*
X198964664Y-139683870D02*
X199014167Y-139916762D01*
X199369248Y-138380801D02*
X198717150Y-138519409D01*
X199791379Y-138534489D02*
X199142205Y-138915889D01*
X199142205Y-138915889D02*
X199013497Y-138310369D01*
X199137484Y-137748504D02*
X199203863Y-137831760D01*
X199203863Y-137831760D02*
X199260342Y-137868438D01*
X199260342Y-137868438D02*
X199363400Y-137895215D01*
X199363400Y-137895215D02*
X199409978Y-137885315D01*
X199409978Y-137885315D02*
X199493234Y-137818935D01*
X199493234Y-137818935D02*
X199529912Y-137762456D01*
X199529912Y-137762456D02*
X199556690Y-137659399D01*
X199556690Y-137659399D02*
X199517087Y-137473085D01*
X199517087Y-137473085D02*
X199450708Y-137389828D01*
X199450708Y-137389828D02*
X199394229Y-137353150D01*
X199394229Y-137353150D02*
X199291171Y-137326373D01*
X199291171Y-137326373D02*
X199244593Y-137336274D01*
X199244593Y-137336274D02*
X199161337Y-137402653D01*
X199161337Y-137402653D02*
X199124659Y-137459132D01*
X199124659Y-137459132D02*
X199097881Y-137562190D01*
X199097881Y-137562190D02*
X199137484Y-137748504D01*
X199137484Y-137748504D02*
X199110706Y-137851561D01*
X199110706Y-137851561D02*
X199074028Y-137908040D01*
X199074028Y-137908040D02*
X198990772Y-137974420D01*
X198990772Y-137974420D02*
X198804458Y-138014022D01*
X198804458Y-138014022D02*
X198701401Y-137987244D01*
X198701401Y-137987244D02*
X198644922Y-137950567D01*
X198644922Y-137950567D02*
X198578542Y-137867310D01*
X198578542Y-137867310D02*
X198538940Y-137680996D01*
X198538940Y-137680996D02*
X198565717Y-137577939D01*
X198565717Y-137577939D02*
X198602395Y-137521460D01*
X198602395Y-137521460D02*
X198685651Y-137455080D01*
X198685651Y-137455080D02*
X198871965Y-137415478D01*
X198871965Y-137415478D02*
X198975023Y-137442255D01*
X198975023Y-137442255D02*
X199031502Y-137478933D01*
X199031502Y-137478933D02*
X199097881Y-137562190D01*
X6491069Y-126430214D02*
X5491069Y-126430214D01*
X5491069Y-126430214D02*
X5491069Y-126668309D01*
X5491069Y-126668309D02*
X5538688Y-126811166D01*
X5538688Y-126811166D02*
X5633926Y-126906404D01*
X5633926Y-126906404D02*
X5729164Y-126954023D01*
X5729164Y-126954023D02*
X5919640Y-127001642D01*
X5919640Y-127001642D02*
X6062497Y-127001642D01*
X6062497Y-127001642D02*
X6252973Y-126954023D01*
X6252973Y-126954023D02*
X6348211Y-126906404D01*
X6348211Y-126906404D02*
X6443450Y-126811166D01*
X6443450Y-126811166D02*
X6491069Y-126668309D01*
X6491069Y-126668309D02*
X6491069Y-126430214D01*
X6491069Y-127954023D02*
X6491069Y-127382595D01*
X6491069Y-127668309D02*
X5491069Y-127668309D01*
X5491069Y-127668309D02*
X5633926Y-127573071D01*
X5633926Y-127573071D02*
X5729164Y-127477833D01*
X5729164Y-127477833D02*
X5776783Y-127382595D01*
X5491069Y-128287357D02*
X5491069Y-128954023D01*
X5491069Y-128954023D02*
X6491069Y-128525452D01*
X95769593Y-157349978D02*
X94791445Y-157142066D01*
X94791445Y-157142066D02*
X94741942Y-157374959D01*
X94741942Y-157374959D02*
X94758819Y-157524595D01*
X94758819Y-157524595D02*
X94832175Y-157637553D01*
X94832175Y-157637553D02*
X94915431Y-157703932D01*
X94915431Y-157703932D02*
X95091845Y-157790113D01*
X95091845Y-157790113D02*
X95231580Y-157819814D01*
X95231580Y-157819814D02*
X95427794Y-157812838D01*
X95427794Y-157812838D02*
X95530852Y-157786061D01*
X95530852Y-157786061D02*
X95643810Y-157712705D01*
X95643810Y-157712705D02*
X95720090Y-157582870D01*
X95720090Y-157582870D02*
X95769593Y-157349978D01*
X94686591Y-158093437D02*
X94630112Y-158130114D01*
X94630112Y-158130114D02*
X94563732Y-158213371D01*
X94563732Y-158213371D02*
X94514230Y-158446263D01*
X94514230Y-158446263D02*
X94541007Y-158549321D01*
X94541007Y-158549321D02*
X94577685Y-158605800D01*
X94577685Y-158605800D02*
X94660941Y-158672179D01*
X94660941Y-158672179D02*
X94754098Y-158691980D01*
X94754098Y-158691980D02*
X94903734Y-158675103D01*
X94903734Y-158675103D02*
X95581482Y-158234969D01*
X95581482Y-158234969D02*
X95452775Y-158840489D01*
X94405324Y-158958626D02*
X94266716Y-159610725D01*
X94266716Y-159610725D02*
X95333968Y-159399430D01*
X53146031Y-128814472D02*
X52167883Y-128606560D01*
X52167883Y-128606560D02*
X52118380Y-128839453D01*
X52118380Y-128839453D02*
X52135257Y-128989089D01*
X52135257Y-128989089D02*
X52208613Y-129102047D01*
X52208613Y-129102047D02*
X52291869Y-129168426D01*
X52291869Y-129168426D02*
X52468283Y-129254607D01*
X52468283Y-129254607D02*
X52608018Y-129284308D01*
X52608018Y-129284308D02*
X52804232Y-129277332D01*
X52804232Y-129277332D02*
X52907290Y-129250555D01*
X52907290Y-129250555D02*
X53020248Y-129177199D01*
X53020248Y-129177199D02*
X53096528Y-129047364D01*
X53096528Y-129047364D02*
X53146031Y-128814472D01*
X52829213Y-130304983D02*
X52948020Y-129746041D01*
X52888616Y-130025512D02*
X51910469Y-129817600D01*
X51910469Y-129817600D02*
X52070005Y-129754145D01*
X52070005Y-129754145D02*
X52182963Y-129680789D01*
X52182963Y-129680789D02*
X52249343Y-129597533D01*
X52730207Y-130770767D02*
X52690605Y-130957081D01*
X52690605Y-130957081D02*
X52624226Y-131040337D01*
X52624226Y-131040337D02*
X52567747Y-131077015D01*
X52567747Y-131077015D02*
X52408210Y-131140471D01*
X52408210Y-131140471D02*
X52211996Y-131147447D01*
X52211996Y-131147447D02*
X51839368Y-131068242D01*
X51839368Y-131068242D02*
X51756112Y-131001863D01*
X51756112Y-131001863D02*
X51719434Y-130945384D01*
X51719434Y-130945384D02*
X51692657Y-130842326D01*
X51692657Y-130842326D02*
X51732259Y-130656012D01*
X51732259Y-130656012D02*
X51798638Y-130572756D01*
X51798638Y-130572756D02*
X51855117Y-130536078D01*
X51855117Y-130536078D02*
X51958175Y-130509301D01*
X51958175Y-130509301D02*
X52191067Y-130558804D01*
X52191067Y-130558804D02*
X52274323Y-130625183D01*
X52274323Y-130625183D02*
X52311001Y-130681662D01*
X52311001Y-130681662D02*
X52337779Y-130784720D01*
X52337779Y-130784720D02*
X52298176Y-130971034D01*
X52298176Y-130971034D02*
X52231797Y-131054290D01*
X52231797Y-131054290D02*
X52175318Y-131090968D01*
X52175318Y-131090968D02*
X52072260Y-131117745D01*
X114403305Y-161310696D02*
X113425157Y-161102784D01*
X113425157Y-161102784D02*
X113375654Y-161335677D01*
X113375654Y-161335677D02*
X113392531Y-161485313D01*
X113392531Y-161485313D02*
X113465887Y-161598271D01*
X113465887Y-161598271D02*
X113549143Y-161664650D01*
X113549143Y-161664650D02*
X113725557Y-161750831D01*
X113725557Y-161750831D02*
X113865292Y-161780532D01*
X113865292Y-161780532D02*
X114061506Y-161773556D01*
X114061506Y-161773556D02*
X114164564Y-161746779D01*
X114164564Y-161746779D02*
X114277522Y-161673423D01*
X114277522Y-161673423D02*
X114353802Y-161543588D01*
X114353802Y-161543588D02*
X114403305Y-161310696D01*
X113320303Y-162054155D02*
X113263824Y-162090832D01*
X113263824Y-162090832D02*
X113197444Y-162174089D01*
X113197444Y-162174089D02*
X113147942Y-162406981D01*
X113147942Y-162406981D02*
X113174719Y-162510039D01*
X113174719Y-162510039D02*
X113211397Y-162566518D01*
X113211397Y-162566518D02*
X113294653Y-162632897D01*
X113294653Y-162632897D02*
X113387810Y-162652698D01*
X113387810Y-162652698D02*
X113537446Y-162635821D01*
X113537446Y-162635821D02*
X114215194Y-162195687D01*
X114215194Y-162195687D02*
X114086487Y-162801207D01*
X113408739Y-163241341D02*
X113381962Y-163138284D01*
X113381962Y-163138284D02*
X113345284Y-163081805D01*
X113345284Y-163081805D02*
X113262027Y-163015425D01*
X113262027Y-163015425D02*
X113215449Y-163005525D01*
X113215449Y-163005525D02*
X113112391Y-163032302D01*
X113112391Y-163032302D02*
X113055912Y-163068980D01*
X113055912Y-163068980D02*
X112989533Y-163152236D01*
X112989533Y-163152236D02*
X112949931Y-163338550D01*
X112949931Y-163338550D02*
X112976708Y-163441608D01*
X112976708Y-163441608D02*
X113013386Y-163498087D01*
X113013386Y-163498087D02*
X113096642Y-163564466D01*
X113096642Y-163564466D02*
X113143221Y-163574367D01*
X113143221Y-163574367D02*
X113246278Y-163547590D01*
X113246278Y-163547590D02*
X113302757Y-163510912D01*
X113302757Y-163510912D02*
X113369137Y-163427655D01*
X113369137Y-163427655D02*
X113408739Y-163241341D01*
X113408739Y-163241341D02*
X113475118Y-163158085D01*
X113475118Y-163158085D02*
X113531597Y-163121407D01*
X113531597Y-163121407D02*
X113634655Y-163094630D01*
X113634655Y-163094630D02*
X113820969Y-163134232D01*
X113820969Y-163134232D02*
X113904225Y-163200612D01*
X113904225Y-163200612D02*
X113940903Y-163257091D01*
X113940903Y-163257091D02*
X113967680Y-163360148D01*
X113967680Y-163360148D02*
X113928078Y-163546462D01*
X113928078Y-163546462D02*
X113861699Y-163629718D01*
X113861699Y-163629718D02*
X113805220Y-163666396D01*
X113805220Y-163666396D02*
X113702162Y-163693174D01*
X113702162Y-163693174D02*
X113515848Y-163653571D01*
X113515848Y-163653571D02*
X113432592Y-163587192D01*
X113432592Y-163587192D02*
X113395914Y-163530713D01*
X113395914Y-163530713D02*
X113369137Y-163427655D01*
X236281590Y-131995326D02*
X237259737Y-131787415D01*
X237259737Y-131787415D02*
X237210234Y-131554522D01*
X237210234Y-131554522D02*
X237133954Y-131424688D01*
X237133954Y-131424688D02*
X237020996Y-131351332D01*
X237020996Y-131351332D02*
X236917939Y-131324554D01*
X236917939Y-131324554D02*
X236721724Y-131317578D01*
X236721724Y-131317578D02*
X236581989Y-131347280D01*
X236581989Y-131347280D02*
X236405576Y-131433461D01*
X236405576Y-131433461D02*
X236322319Y-131499840D01*
X236322319Y-131499840D02*
X236248964Y-131612798D01*
X236248964Y-131612798D02*
X236232087Y-131762434D01*
X236232087Y-131762434D02*
X236281590Y-131995326D01*
X236952820Y-130343483D02*
X237051825Y-130809267D01*
X237051825Y-130809267D02*
X236595941Y-130954851D01*
X236595941Y-130954851D02*
X236632619Y-130898372D01*
X236632619Y-130898372D02*
X236659397Y-130795315D01*
X236659397Y-130795315D02*
X236609894Y-130562422D01*
X236609894Y-130562422D02*
X236543514Y-130479166D01*
X236543514Y-130479166D02*
X236487035Y-130442488D01*
X236487035Y-130442488D02*
X236383978Y-130415711D01*
X236383978Y-130415711D02*
X236151086Y-130465214D01*
X236151086Y-130465214D02*
X236067829Y-130531593D01*
X236067829Y-130531593D02*
X236031151Y-130588072D01*
X236031151Y-130588072D02*
X236004374Y-130691130D01*
X236004374Y-130691130D02*
X236053877Y-130924022D01*
X236053877Y-130924022D02*
X236120256Y-131007278D01*
X236120256Y-131007278D02*
X236176735Y-131043956D01*
X236814212Y-129691384D02*
X236794411Y-129598227D01*
X236794411Y-129598227D02*
X236728031Y-129514971D01*
X236728031Y-129514971D02*
X236671552Y-129478293D01*
X236671552Y-129478293D02*
X236568495Y-129451516D01*
X236568495Y-129451516D02*
X236372281Y-129444539D01*
X236372281Y-129444539D02*
X236139388Y-129494042D01*
X236139388Y-129494042D02*
X235962975Y-129580223D01*
X235962975Y-129580223D02*
X235879719Y-129646602D01*
X235879719Y-129646602D02*
X235843041Y-129703081D01*
X235843041Y-129703081D02*
X235816263Y-129806139D01*
X235816263Y-129806139D02*
X235836064Y-129899296D01*
X235836064Y-129899296D02*
X235902444Y-129982552D01*
X235902444Y-129982552D02*
X235958923Y-130019230D01*
X235958923Y-130019230D02*
X236061981Y-130046007D01*
X236061981Y-130046007D02*
X236258195Y-130052984D01*
X236258195Y-130052984D02*
X236491087Y-130003481D01*
X236491087Y-130003481D02*
X236667500Y-129917300D01*
X236667500Y-129917300D02*
X236750757Y-129850921D01*
X236750757Y-129850921D02*
X236787435Y-129794442D01*
X236787435Y-129794442D02*
X236814212Y-129691384D01*
X26017319Y-88806405D02*
X25017319Y-88806405D01*
X25017319Y-88806405D02*
X25017319Y-89044500D01*
X25017319Y-89044500D02*
X25064938Y-89187357D01*
X25064938Y-89187357D02*
X25160176Y-89282595D01*
X25160176Y-89282595D02*
X25255414Y-89330214D01*
X25255414Y-89330214D02*
X25445890Y-89377833D01*
X25445890Y-89377833D02*
X25588747Y-89377833D01*
X25588747Y-89377833D02*
X25779223Y-89330214D01*
X25779223Y-89330214D02*
X25874461Y-89282595D01*
X25874461Y-89282595D02*
X25969700Y-89187357D01*
X25969700Y-89187357D02*
X26017319Y-89044500D01*
X26017319Y-89044500D02*
X26017319Y-88806405D01*
X25017319Y-89711167D02*
X25017319Y-90330214D01*
X25017319Y-90330214D02*
X25398271Y-89996881D01*
X25398271Y-89996881D02*
X25398271Y-90139738D01*
X25398271Y-90139738D02*
X25445890Y-90234976D01*
X25445890Y-90234976D02*
X25493509Y-90282595D01*
X25493509Y-90282595D02*
X25588747Y-90330214D01*
X25588747Y-90330214D02*
X25826842Y-90330214D01*
X25826842Y-90330214D02*
X25922080Y-90282595D01*
X25922080Y-90282595D02*
X25969700Y-90234976D01*
X25969700Y-90234976D02*
X26017319Y-90139738D01*
X26017319Y-90139738D02*
X26017319Y-89854024D01*
X26017319Y-89854024D02*
X25969700Y-89758786D01*
X25969700Y-89758786D02*
X25922080Y-89711167D01*
X120596338Y-104687130D02*
X119618191Y-104479218D01*
X119618191Y-104479218D02*
X119568688Y-104712111D01*
X119568688Y-104712111D02*
X119585565Y-104861747D01*
X119585565Y-104861747D02*
X119658920Y-104974705D01*
X119658920Y-104974705D02*
X119742177Y-105041084D01*
X119742177Y-105041084D02*
X119918590Y-105127265D01*
X119918590Y-105127265D02*
X120058325Y-105156967D01*
X120058325Y-105156967D02*
X120254540Y-105149990D01*
X120254540Y-105149990D02*
X120357597Y-105123213D01*
X120357597Y-105123213D02*
X120470555Y-105049857D01*
X120470555Y-105049857D02*
X120546835Y-104920022D01*
X120546835Y-104920022D02*
X120596338Y-104687130D01*
X119799783Y-105686206D02*
X119773006Y-105583149D01*
X119773006Y-105583149D02*
X119736328Y-105526670D01*
X119736328Y-105526670D02*
X119653072Y-105460290D01*
X119653072Y-105460290D02*
X119606493Y-105450390D01*
X119606493Y-105450390D02*
X119503436Y-105477167D01*
X119503436Y-105477167D02*
X119446957Y-105513845D01*
X119446957Y-105513845D02*
X119380577Y-105597101D01*
X119380577Y-105597101D02*
X119340975Y-105783415D01*
X119340975Y-105783415D02*
X119367752Y-105886473D01*
X119367752Y-105886473D02*
X119404430Y-105942952D01*
X119404430Y-105942952D02*
X119487687Y-106009331D01*
X119487687Y-106009331D02*
X119534265Y-106019232D01*
X119534265Y-106019232D02*
X119637323Y-105992454D01*
X119637323Y-105992454D02*
X119693802Y-105955777D01*
X119693802Y-105955777D02*
X119760181Y-105872520D01*
X119760181Y-105872520D02*
X119799783Y-105686206D01*
X119799783Y-105686206D02*
X119866163Y-105602950D01*
X119866163Y-105602950D02*
X119922642Y-105566272D01*
X119922642Y-105566272D02*
X120025699Y-105539495D01*
X120025699Y-105539495D02*
X120212013Y-105579097D01*
X120212013Y-105579097D02*
X120295270Y-105645477D01*
X120295270Y-105645477D02*
X120331947Y-105701956D01*
X120331947Y-105701956D02*
X120358725Y-105805013D01*
X120358725Y-105805013D02*
X120319123Y-105991327D01*
X120319123Y-105991327D02*
X120252743Y-106074583D01*
X120252743Y-106074583D02*
X120196264Y-106111261D01*
X120196264Y-106111261D02*
X120093207Y-106138038D01*
X120093207Y-106138038D02*
X119906893Y-106098436D01*
X119906893Y-106098436D02*
X119823636Y-106032057D01*
X119823636Y-106032057D02*
X119786958Y-105975578D01*
X119786958Y-105975578D02*
X119760181Y-105872520D01*
X64695203Y-92804977D02*
X63717056Y-92597065D01*
X63717056Y-92597065D02*
X63667553Y-92829958D01*
X63667553Y-92829958D02*
X63684430Y-92979594D01*
X63684430Y-92979594D02*
X63757785Y-93092552D01*
X63757785Y-93092552D02*
X63841042Y-93158931D01*
X63841042Y-93158931D02*
X64017455Y-93245112D01*
X64017455Y-93245112D02*
X64157190Y-93274814D01*
X64157190Y-93274814D02*
X64353405Y-93267837D01*
X64353405Y-93267837D02*
X64456462Y-93241060D01*
X64456462Y-93241060D02*
X64569420Y-93167704D01*
X64569420Y-93167704D02*
X64645700Y-93037869D01*
X64645700Y-93037869D02*
X64695203Y-92804977D01*
X63410138Y-94040998D02*
X63509144Y-93575213D01*
X63509144Y-93575213D02*
X63984829Y-93627640D01*
X63984829Y-93627640D02*
X63928350Y-93664318D01*
X63928350Y-93664318D02*
X63861970Y-93747574D01*
X63861970Y-93747574D02*
X63812468Y-93980467D01*
X63812468Y-93980467D02*
X63839245Y-94083524D01*
X63839245Y-94083524D02*
X63875923Y-94140003D01*
X63875923Y-94140003D02*
X63959179Y-94206383D01*
X63959179Y-94206383D02*
X64192072Y-94255885D01*
X64192072Y-94255885D02*
X64295129Y-94229108D01*
X64295129Y-94229108D02*
X64351608Y-94192430D01*
X64351608Y-94192430D02*
X64417988Y-94109174D01*
X64417988Y-94109174D02*
X64467490Y-93876282D01*
X64467490Y-93876282D02*
X64440713Y-93773224D01*
X64440713Y-93773224D02*
X64404035Y-93716745D01*
X307004819Y-107380214D02*
X306004819Y-107380214D01*
X306004819Y-107380214D02*
X306004819Y-107618309D01*
X306004819Y-107618309D02*
X306052438Y-107761166D01*
X306052438Y-107761166D02*
X306147676Y-107856404D01*
X306147676Y-107856404D02*
X306242914Y-107904023D01*
X306242914Y-107904023D02*
X306433390Y-107951642D01*
X306433390Y-107951642D02*
X306576247Y-107951642D01*
X306576247Y-107951642D02*
X306766723Y-107904023D01*
X306766723Y-107904023D02*
X306861961Y-107856404D01*
X306861961Y-107856404D02*
X306957200Y-107761166D01*
X306957200Y-107761166D02*
X307004819Y-107618309D01*
X307004819Y-107618309D02*
X307004819Y-107380214D01*
X306338152Y-108808785D02*
X307004819Y-108808785D01*
X305957200Y-108570690D02*
X306671485Y-108332595D01*
X306671485Y-108332595D02*
X306671485Y-108951642D01*
X306004819Y-109761166D02*
X306004819Y-109570690D01*
X306004819Y-109570690D02*
X306052438Y-109475452D01*
X306052438Y-109475452D02*
X306100057Y-109427833D01*
X306100057Y-109427833D02*
X306242914Y-109332595D01*
X306242914Y-109332595D02*
X306433390Y-109284976D01*
X306433390Y-109284976D02*
X306814342Y-109284976D01*
X306814342Y-109284976D02*
X306909580Y-109332595D01*
X306909580Y-109332595D02*
X306957200Y-109380214D01*
X306957200Y-109380214D02*
X307004819Y-109475452D01*
X307004819Y-109475452D02*
X307004819Y-109665928D01*
X307004819Y-109665928D02*
X306957200Y-109761166D01*
X306957200Y-109761166D02*
X306909580Y-109808785D01*
X306909580Y-109808785D02*
X306814342Y-109856404D01*
X306814342Y-109856404D02*
X306576247Y-109856404D01*
X306576247Y-109856404D02*
X306481009Y-109808785D01*
X306481009Y-109808785D02*
X306433390Y-109761166D01*
X306433390Y-109761166D02*
X306385771Y-109665928D01*
X306385771Y-109665928D02*
X306385771Y-109475452D01*
X306385771Y-109475452D02*
X306433390Y-109380214D01*
X306433390Y-109380214D02*
X306481009Y-109332595D01*
X306481009Y-109332595D02*
X306576247Y-109284976D01*
X217647878Y-135956044D02*
X218626025Y-135748133D01*
X218626025Y-135748133D02*
X218576522Y-135515240D01*
X218576522Y-135515240D02*
X218500242Y-135385406D01*
X218500242Y-135385406D02*
X218387284Y-135312050D01*
X218387284Y-135312050D02*
X218284227Y-135285272D01*
X218284227Y-135285272D02*
X218088012Y-135278296D01*
X218088012Y-135278296D02*
X217948277Y-135307998D01*
X217948277Y-135307998D02*
X217771864Y-135394179D01*
X217771864Y-135394179D02*
X217688607Y-135460558D01*
X217688607Y-135460558D02*
X217615252Y-135573516D01*
X217615252Y-135573516D02*
X217598375Y-135723152D01*
X217598375Y-135723152D02*
X217647878Y-135956044D01*
X218002959Y-134420083D02*
X217350861Y-134558691D01*
X218425090Y-134573771D02*
X217775916Y-134955171D01*
X217775916Y-134955171D02*
X217647208Y-134349651D01*
X217232054Y-133999749D02*
X217192452Y-133813435D01*
X217192452Y-133813435D02*
X217219229Y-133710378D01*
X217219229Y-133710378D02*
X217255907Y-133653899D01*
X217255907Y-133653899D02*
X217375841Y-133531040D01*
X217375841Y-133531040D02*
X217552255Y-133444860D01*
X217552255Y-133444860D02*
X217924882Y-133365655D01*
X217924882Y-133365655D02*
X218027940Y-133392432D01*
X218027940Y-133392432D02*
X218084419Y-133429110D01*
X218084419Y-133429110D02*
X218150798Y-133512367D01*
X218150798Y-133512367D02*
X218190401Y-133698681D01*
X218190401Y-133698681D02*
X218163623Y-133801738D01*
X218163623Y-133801738D02*
X218126945Y-133858217D01*
X218126945Y-133858217D02*
X218043689Y-133924597D01*
X218043689Y-133924597D02*
X217810797Y-133974099D01*
X217810797Y-133974099D02*
X217707739Y-133947322D01*
X217707739Y-133947322D02*
X217651260Y-133910644D01*
X217651260Y-133910644D02*
X217584881Y-133827388D01*
X217584881Y-133827388D02*
X217545278Y-133641074D01*
X217545278Y-133641074D02*
X217572056Y-133538016D01*
X217572056Y-133538016D02*
X217608734Y-133481537D01*
X217608734Y-133481537D02*
X217691990Y-133415158D01*
X77135881Y-153389261D02*
X76157733Y-153181349D01*
X76157733Y-153181349D02*
X76108230Y-153414242D01*
X76108230Y-153414242D02*
X76125107Y-153563878D01*
X76125107Y-153563878D02*
X76198463Y-153676836D01*
X76198463Y-153676836D02*
X76281719Y-153743215D01*
X76281719Y-153743215D02*
X76458133Y-153829396D01*
X76458133Y-153829396D02*
X76597868Y-153859097D01*
X76597868Y-153859097D02*
X76794082Y-153852121D01*
X76794082Y-153852121D02*
X76897140Y-153825344D01*
X76897140Y-153825344D02*
X77010098Y-153751988D01*
X77010098Y-153751988D02*
X77086378Y-153622153D01*
X77086378Y-153622153D02*
X77135881Y-153389261D01*
X76052879Y-154132720D02*
X75996400Y-154169397D01*
X75996400Y-154169397D02*
X75930020Y-154252654D01*
X75930020Y-154252654D02*
X75880518Y-154485546D01*
X75880518Y-154485546D02*
X75907295Y-154588604D01*
X75907295Y-154588604D02*
X75943973Y-154645083D01*
X75943973Y-154645083D02*
X76027229Y-154711462D01*
X76027229Y-154711462D02*
X76120386Y-154731263D01*
X76120386Y-154731263D02*
X76270022Y-154714386D01*
X76270022Y-154714386D02*
X76947770Y-154274252D01*
X76947770Y-154274252D02*
X76819063Y-154879772D01*
X75662705Y-155510272D02*
X75702308Y-155323958D01*
X75702308Y-155323958D02*
X75768687Y-155240702D01*
X75768687Y-155240702D02*
X75825166Y-155204024D01*
X75825166Y-155204024D02*
X75984703Y-155140569D01*
X75984703Y-155140569D02*
X76180917Y-155133593D01*
X76180917Y-155133593D02*
X76553545Y-155212797D01*
X76553545Y-155212797D02*
X76636801Y-155279177D01*
X76636801Y-155279177D02*
X76673479Y-155335656D01*
X76673479Y-155335656D02*
X76700256Y-155438713D01*
X76700256Y-155438713D02*
X76660654Y-155625027D01*
X76660654Y-155625027D02*
X76594275Y-155708283D01*
X76594275Y-155708283D02*
X76537796Y-155744961D01*
X76537796Y-155744961D02*
X76434738Y-155771739D01*
X76434738Y-155771739D02*
X76201846Y-155722236D01*
X76201846Y-155722236D02*
X76118589Y-155655856D01*
X76118589Y-155655856D02*
X76081912Y-155599377D01*
X76081912Y-155599377D02*
X76055134Y-155496320D01*
X76055134Y-155496320D02*
X76094736Y-155310006D01*
X76094736Y-155310006D02*
X76161116Y-155226750D01*
X76161116Y-155226750D02*
X76217595Y-155190072D01*
X76217595Y-155190072D02*
X76320652Y-155163294D01*
X274619819Y-86425214D02*
X273619819Y-86425214D01*
X273619819Y-86425214D02*
X273619819Y-86663309D01*
X273619819Y-86663309D02*
X273667438Y-86806166D01*
X273667438Y-86806166D02*
X273762676Y-86901404D01*
X273762676Y-86901404D02*
X273857914Y-86949023D01*
X273857914Y-86949023D02*
X274048390Y-86996642D01*
X274048390Y-86996642D02*
X274191247Y-86996642D01*
X274191247Y-86996642D02*
X274381723Y-86949023D01*
X274381723Y-86949023D02*
X274476961Y-86901404D01*
X274476961Y-86901404D02*
X274572200Y-86806166D01*
X274572200Y-86806166D02*
X274619819Y-86663309D01*
X274619819Y-86663309D02*
X274619819Y-86425214D01*
X273619819Y-87329976D02*
X273619819Y-87949023D01*
X273619819Y-87949023D02*
X274000771Y-87615690D01*
X274000771Y-87615690D02*
X274000771Y-87758547D01*
X274000771Y-87758547D02*
X274048390Y-87853785D01*
X274048390Y-87853785D02*
X274096009Y-87901404D01*
X274096009Y-87901404D02*
X274191247Y-87949023D01*
X274191247Y-87949023D02*
X274429342Y-87949023D01*
X274429342Y-87949023D02*
X274524580Y-87901404D01*
X274524580Y-87901404D02*
X274572200Y-87853785D01*
X274572200Y-87853785D02*
X274619819Y-87758547D01*
X274619819Y-87758547D02*
X274619819Y-87472833D01*
X274619819Y-87472833D02*
X274572200Y-87377595D01*
X274572200Y-87377595D02*
X274524580Y-87329976D01*
X273619819Y-88282357D02*
X273619819Y-88949023D01*
X273619819Y-88949023D02*
X274619819Y-88520452D01*
X109047167Y-140696625D02*
X108069019Y-140488713D01*
X108069019Y-140488713D02*
X108019516Y-140721606D01*
X108019516Y-140721606D02*
X108036393Y-140871242D01*
X108036393Y-140871242D02*
X108109749Y-140984200D01*
X108109749Y-140984200D02*
X108193005Y-141050579D01*
X108193005Y-141050579D02*
X108369419Y-141136760D01*
X108369419Y-141136760D02*
X108509154Y-141166461D01*
X108509154Y-141166461D02*
X108705368Y-141159485D01*
X108705368Y-141159485D02*
X108808426Y-141132708D01*
X108808426Y-141132708D02*
X108921384Y-141059352D01*
X108921384Y-141059352D02*
X108997664Y-140929517D01*
X108997664Y-140929517D02*
X109047167Y-140696625D01*
X107964165Y-141440084D02*
X107907686Y-141476761D01*
X107907686Y-141476761D02*
X107841306Y-141560018D01*
X107841306Y-141560018D02*
X107791804Y-141792910D01*
X107791804Y-141792910D02*
X107818581Y-141895968D01*
X107818581Y-141895968D02*
X107855259Y-141952447D01*
X107855259Y-141952447D02*
X107938515Y-142018826D01*
X107938515Y-142018826D02*
X108031672Y-142038627D01*
X108031672Y-142038627D02*
X108181308Y-142021750D01*
X108181308Y-142021750D02*
X108859056Y-141581616D01*
X108859056Y-141581616D02*
X108730349Y-142187136D01*
X107766154Y-142371653D02*
X107709675Y-142408331D01*
X107709675Y-142408331D02*
X107643295Y-142491587D01*
X107643295Y-142491587D02*
X107593793Y-142724479D01*
X107593793Y-142724479D02*
X107620570Y-142827537D01*
X107620570Y-142827537D02*
X107657248Y-142884016D01*
X107657248Y-142884016D02*
X107740504Y-142950395D01*
X107740504Y-142950395D02*
X107833661Y-142970196D01*
X107833661Y-142970196D02*
X107983297Y-142953320D01*
X107983297Y-142953320D02*
X108661045Y-142513185D01*
X108661045Y-142513185D02*
X108532338Y-143118705D01*
X90413455Y-136735908D02*
X89435307Y-136527996D01*
X89435307Y-136527996D02*
X89385804Y-136760889D01*
X89385804Y-136760889D02*
X89402681Y-136910525D01*
X89402681Y-136910525D02*
X89476037Y-137023483D01*
X89476037Y-137023483D02*
X89559293Y-137089862D01*
X89559293Y-137089862D02*
X89735707Y-137176043D01*
X89735707Y-137176043D02*
X89875442Y-137205744D01*
X89875442Y-137205744D02*
X90071656Y-137198768D01*
X90071656Y-137198768D02*
X90174714Y-137171991D01*
X90174714Y-137171991D02*
X90287672Y-137098635D01*
X90287672Y-137098635D02*
X90363952Y-136968800D01*
X90363952Y-136968800D02*
X90413455Y-136735908D01*
X89330453Y-137479367D02*
X89273974Y-137516044D01*
X89273974Y-137516044D02*
X89207594Y-137599301D01*
X89207594Y-137599301D02*
X89158092Y-137832193D01*
X89158092Y-137832193D02*
X89184869Y-137935251D01*
X89184869Y-137935251D02*
X89221547Y-137991730D01*
X89221547Y-137991730D02*
X89304803Y-138058109D01*
X89304803Y-138058109D02*
X89397960Y-138077910D01*
X89397960Y-138077910D02*
X89547596Y-138061033D01*
X89547596Y-138061033D02*
X90225344Y-137620899D01*
X90225344Y-137620899D02*
X90096637Y-138226419D01*
X89898626Y-139157988D02*
X90017433Y-138599046D01*
X89958029Y-138878517D02*
X88979882Y-138670605D01*
X88979882Y-138670605D02*
X89139418Y-138607150D01*
X89139418Y-138607150D02*
X89252376Y-138533794D01*
X89252376Y-138533794D02*
X89318756Y-138450538D01*
X328436069Y-107380214D02*
X327436069Y-107380214D01*
X327436069Y-107380214D02*
X327436069Y-107618309D01*
X327436069Y-107618309D02*
X327483688Y-107761166D01*
X327483688Y-107761166D02*
X327578926Y-107856404D01*
X327578926Y-107856404D02*
X327674164Y-107904023D01*
X327674164Y-107904023D02*
X327864640Y-107951642D01*
X327864640Y-107951642D02*
X328007497Y-107951642D01*
X328007497Y-107951642D02*
X328197973Y-107904023D01*
X328197973Y-107904023D02*
X328293211Y-107856404D01*
X328293211Y-107856404D02*
X328388450Y-107761166D01*
X328388450Y-107761166D02*
X328436069Y-107618309D01*
X328436069Y-107618309D02*
X328436069Y-107380214D01*
X327769402Y-108808785D02*
X328436069Y-108808785D01*
X327388450Y-108570690D02*
X328102735Y-108332595D01*
X328102735Y-108332595D02*
X328102735Y-108951642D01*
X327436069Y-109237357D02*
X327436069Y-109904023D01*
X327436069Y-109904023D02*
X328436069Y-109475452D01*
X6967319Y-88806405D02*
X5967319Y-88806405D01*
X5967319Y-88806405D02*
X5967319Y-89044500D01*
X5967319Y-89044500D02*
X6014938Y-89187357D01*
X6014938Y-89187357D02*
X6110176Y-89282595D01*
X6110176Y-89282595D02*
X6205414Y-89330214D01*
X6205414Y-89330214D02*
X6395890Y-89377833D01*
X6395890Y-89377833D02*
X6538747Y-89377833D01*
X6538747Y-89377833D02*
X6729223Y-89330214D01*
X6729223Y-89330214D02*
X6824461Y-89282595D01*
X6824461Y-89282595D02*
X6919700Y-89187357D01*
X6919700Y-89187357D02*
X6967319Y-89044500D01*
X6967319Y-89044500D02*
X6967319Y-88806405D01*
X6062557Y-89758786D02*
X6014938Y-89806405D01*
X6014938Y-89806405D02*
X5967319Y-89901643D01*
X5967319Y-89901643D02*
X5967319Y-90139738D01*
X5967319Y-90139738D02*
X6014938Y-90234976D01*
X6014938Y-90234976D02*
X6062557Y-90282595D01*
X6062557Y-90282595D02*
X6157795Y-90330214D01*
X6157795Y-90330214D02*
X6253033Y-90330214D01*
X6253033Y-90330214D02*
X6395890Y-90282595D01*
X6395890Y-90282595D02*
X6967319Y-89711167D01*
X6967319Y-89711167D02*
X6967319Y-90330214D01*
X210892104Y-117916440D02*
X211870251Y-117708529D01*
X211870251Y-117708529D02*
X211820748Y-117475636D01*
X211820748Y-117475636D02*
X211744468Y-117345802D01*
X211744468Y-117345802D02*
X211631510Y-117272446D01*
X211631510Y-117272446D02*
X211528453Y-117245668D01*
X211528453Y-117245668D02*
X211332238Y-117238692D01*
X211332238Y-117238692D02*
X211192503Y-117268394D01*
X211192503Y-117268394D02*
X211016090Y-117354575D01*
X211016090Y-117354575D02*
X210932833Y-117420954D01*
X210932833Y-117420954D02*
X210859478Y-117533912D01*
X210859478Y-117533912D02*
X210842601Y-117683548D01*
X210842601Y-117683548D02*
X210892104Y-117916440D01*
X211247185Y-116380479D02*
X210595087Y-116519087D01*
X211669316Y-116534167D02*
X211020142Y-116915567D01*
X211020142Y-116915567D02*
X210891434Y-116310047D01*
X210377275Y-115494361D02*
X210496081Y-116053302D01*
X210436678Y-115773831D02*
X211414826Y-115565920D01*
X211414826Y-115565920D02*
X211294891Y-115688778D01*
X211294891Y-115688778D02*
X211221535Y-115801736D01*
X211221535Y-115801736D02*
X211194758Y-115904794D01*
X7443569Y-145480214D02*
X6443569Y-145480214D01*
X6443569Y-145480214D02*
X6443569Y-145718309D01*
X6443569Y-145718309D02*
X6491188Y-145861166D01*
X6491188Y-145861166D02*
X6586426Y-145956404D01*
X6586426Y-145956404D02*
X6681664Y-146004023D01*
X6681664Y-146004023D02*
X6872140Y-146051642D01*
X6872140Y-146051642D02*
X7014997Y-146051642D01*
X7014997Y-146051642D02*
X7205473Y-146004023D01*
X7205473Y-146004023D02*
X7300711Y-145956404D01*
X7300711Y-145956404D02*
X7395950Y-145861166D01*
X7395950Y-145861166D02*
X7443569Y-145718309D01*
X7443569Y-145718309D02*
X7443569Y-145480214D01*
X6538807Y-146432595D02*
X6491188Y-146480214D01*
X6491188Y-146480214D02*
X6443569Y-146575452D01*
X6443569Y-146575452D02*
X6443569Y-146813547D01*
X6443569Y-146813547D02*
X6491188Y-146908785D01*
X6491188Y-146908785D02*
X6538807Y-146956404D01*
X6538807Y-146956404D02*
X6634045Y-147004023D01*
X6634045Y-147004023D02*
X6729283Y-147004023D01*
X6729283Y-147004023D02*
X6872140Y-146956404D01*
X6872140Y-146956404D02*
X7443569Y-146384976D01*
X7443569Y-146384976D02*
X7443569Y-147004023D01*
X6443569Y-147337357D02*
X6443569Y-147956404D01*
X6443569Y-147956404D02*
X6824521Y-147623071D01*
X6824521Y-147623071D02*
X6824521Y-147765928D01*
X6824521Y-147765928D02*
X6872140Y-147861166D01*
X6872140Y-147861166D02*
X6919759Y-147908785D01*
X6919759Y-147908785D02*
X7014997Y-147956404D01*
X7014997Y-147956404D02*
X7253092Y-147956404D01*
X7253092Y-147956404D02*
X7348330Y-147908785D01*
X7348330Y-147908785D02*
X7395950Y-147861166D01*
X7395950Y-147861166D02*
X7443569Y-147765928D01*
X7443569Y-147765928D02*
X7443569Y-147480214D01*
X7443569Y-147480214D02*
X7395950Y-147384976D01*
X7395950Y-147384976D02*
X7348330Y-147337357D01*
X85287076Y-174597439D02*
X84308928Y-174389527D01*
X84308928Y-174389527D02*
X84259425Y-174622420D01*
X84259425Y-174622420D02*
X84276302Y-174772056D01*
X84276302Y-174772056D02*
X84349658Y-174885014D01*
X84349658Y-174885014D02*
X84432914Y-174951393D01*
X84432914Y-174951393D02*
X84609328Y-175037574D01*
X84609328Y-175037574D02*
X84749063Y-175067275D01*
X84749063Y-175067275D02*
X84945277Y-175060299D01*
X84945277Y-175060299D02*
X85048335Y-175033522D01*
X85048335Y-175033522D02*
X85161293Y-174960166D01*
X85161293Y-174960166D02*
X85237573Y-174830331D01*
X85237573Y-174830331D02*
X85287076Y-174597439D01*
X84120818Y-175274518D02*
X83992110Y-175880038D01*
X83992110Y-175880038D02*
X84434042Y-175633193D01*
X84434042Y-175633193D02*
X84404340Y-175772929D01*
X84404340Y-175772929D02*
X84431118Y-175875986D01*
X84431118Y-175875986D02*
X84467796Y-175932465D01*
X84467796Y-175932465D02*
X84551052Y-175998845D01*
X84551052Y-175998845D02*
X84783944Y-176048347D01*
X84783944Y-176048347D02*
X84887002Y-176021570D01*
X84887002Y-176021570D02*
X84943481Y-175984892D01*
X84943481Y-175984892D02*
X85009860Y-175901636D01*
X85009860Y-175901636D02*
X85069264Y-175622165D01*
X85069264Y-175622165D02*
X85042486Y-175519108D01*
X85042486Y-175519108D02*
X85005808Y-175462629D01*
X84772247Y-177019519D02*
X84891054Y-176460577D01*
X84831650Y-176740048D02*
X83853503Y-176532136D01*
X83853503Y-176532136D02*
X84013039Y-176468681D01*
X84013039Y-176468681D02*
X84125997Y-176395325D01*
X84125997Y-176395325D02*
X84192377Y-176312069D01*
X229525816Y-113955722D02*
X230503963Y-113747811D01*
X230503963Y-113747811D02*
X230454460Y-113514918D01*
X230454460Y-113514918D02*
X230378180Y-113385084D01*
X230378180Y-113385084D02*
X230265222Y-113311728D01*
X230265222Y-113311728D02*
X230162165Y-113284950D01*
X230162165Y-113284950D02*
X229965950Y-113277974D01*
X229965950Y-113277974D02*
X229826215Y-113307676D01*
X229826215Y-113307676D02*
X229649802Y-113393857D01*
X229649802Y-113393857D02*
X229566545Y-113460236D01*
X229566545Y-113460236D02*
X229493190Y-113573194D01*
X229493190Y-113573194D02*
X229476313Y-113722830D01*
X229476313Y-113722830D02*
X229525816Y-113955722D01*
X229880897Y-112419761D02*
X229228799Y-112558369D01*
X230303028Y-112573449D02*
X229653854Y-112954849D01*
X229653854Y-112954849D02*
X229525146Y-112349329D01*
X230014784Y-111904473D02*
X230051462Y-111847994D01*
X230051462Y-111847994D02*
X230078239Y-111744937D01*
X230078239Y-111744937D02*
X230028736Y-111512045D01*
X230028736Y-111512045D02*
X229962357Y-111428788D01*
X229962357Y-111428788D02*
X229905878Y-111392110D01*
X229905878Y-111392110D02*
X229802820Y-111365333D01*
X229802820Y-111365333D02*
X229709663Y-111385134D01*
X229709663Y-111385134D02*
X229579829Y-111461414D01*
X229579829Y-111461414D02*
X229139694Y-112139163D01*
X229139694Y-112139163D02*
X229010987Y-111533643D01*
X115566858Y-181033605D02*
X114588710Y-180825693D01*
X114588710Y-180825693D02*
X114539207Y-181058586D01*
X114539207Y-181058586D02*
X114556084Y-181208222D01*
X114556084Y-181208222D02*
X114629440Y-181321180D01*
X114629440Y-181321180D02*
X114712696Y-181387559D01*
X114712696Y-181387559D02*
X114889110Y-181473740D01*
X114889110Y-181473740D02*
X115028845Y-181503441D01*
X115028845Y-181503441D02*
X115225059Y-181496465D01*
X115225059Y-181496465D02*
X115328117Y-181469688D01*
X115328117Y-181469688D02*
X115441075Y-181396332D01*
X115441075Y-181396332D02*
X115517355Y-181266497D01*
X115517355Y-181266497D02*
X115566858Y-181033605D01*
X114400600Y-181710684D02*
X114271892Y-182316204D01*
X114271892Y-182316204D02*
X114713824Y-182069359D01*
X114713824Y-182069359D02*
X114684122Y-182209095D01*
X114684122Y-182209095D02*
X114710900Y-182312152D01*
X114710900Y-182312152D02*
X114747578Y-182368631D01*
X114747578Y-182368631D02*
X114830834Y-182435011D01*
X114830834Y-182435011D02*
X115063726Y-182484513D01*
X115063726Y-182484513D02*
X115166784Y-182457736D01*
X115166784Y-182457736D02*
X115223263Y-182421058D01*
X115223263Y-182421058D02*
X115289642Y-182337802D01*
X115289642Y-182337802D02*
X115349046Y-182058331D01*
X115349046Y-182058331D02*
X115322268Y-181955274D01*
X115322268Y-181955274D02*
X115285590Y-181898795D01*
X114285845Y-182708633D02*
X114229366Y-182745311D01*
X114229366Y-182745311D02*
X114162986Y-182828567D01*
X114162986Y-182828567D02*
X114113484Y-183061459D01*
X114113484Y-183061459D02*
X114140261Y-183164517D01*
X114140261Y-183164517D02*
X114176939Y-183220996D01*
X114176939Y-183220996D02*
X114260195Y-183287375D01*
X114260195Y-183287375D02*
X114353352Y-183307176D01*
X114353352Y-183307176D02*
X114502988Y-183290300D01*
X114502988Y-183290300D02*
X115180736Y-182850165D01*
X115180736Y-182850165D02*
X115052029Y-183455685D01*
X343199819Y-145480214D02*
X342199819Y-145480214D01*
X342199819Y-145480214D02*
X342199819Y-145718309D01*
X342199819Y-145718309D02*
X342247438Y-145861166D01*
X342247438Y-145861166D02*
X342342676Y-145956404D01*
X342342676Y-145956404D02*
X342437914Y-146004023D01*
X342437914Y-146004023D02*
X342628390Y-146051642D01*
X342628390Y-146051642D02*
X342771247Y-146051642D01*
X342771247Y-146051642D02*
X342961723Y-146004023D01*
X342961723Y-146004023D02*
X343056961Y-145956404D01*
X343056961Y-145956404D02*
X343152200Y-145861166D01*
X343152200Y-145861166D02*
X343199819Y-145718309D01*
X343199819Y-145718309D02*
X343199819Y-145480214D01*
X342199819Y-146908785D02*
X342199819Y-146718309D01*
X342199819Y-146718309D02*
X342247438Y-146623071D01*
X342247438Y-146623071D02*
X342295057Y-146575452D01*
X342295057Y-146575452D02*
X342437914Y-146480214D01*
X342437914Y-146480214D02*
X342628390Y-146432595D01*
X342628390Y-146432595D02*
X343009342Y-146432595D01*
X343009342Y-146432595D02*
X343104580Y-146480214D01*
X343104580Y-146480214D02*
X343152200Y-146527833D01*
X343152200Y-146527833D02*
X343199819Y-146623071D01*
X343199819Y-146623071D02*
X343199819Y-146813547D01*
X343199819Y-146813547D02*
X343152200Y-146908785D01*
X343152200Y-146908785D02*
X343104580Y-146956404D01*
X343104580Y-146956404D02*
X343009342Y-147004023D01*
X343009342Y-147004023D02*
X342771247Y-147004023D01*
X342771247Y-147004023D02*
X342676009Y-146956404D01*
X342676009Y-146956404D02*
X342628390Y-146908785D01*
X342628390Y-146908785D02*
X342580771Y-146813547D01*
X342580771Y-146813547D02*
X342580771Y-146623071D01*
X342580771Y-146623071D02*
X342628390Y-146527833D01*
X342628390Y-146527833D02*
X342676009Y-146480214D01*
X342676009Y-146480214D02*
X342771247Y-146432595D01*
X342295057Y-147384976D02*
X342247438Y-147432595D01*
X342247438Y-147432595D02*
X342199819Y-147527833D01*
X342199819Y-147527833D02*
X342199819Y-147765928D01*
X342199819Y-147765928D02*
X342247438Y-147861166D01*
X342247438Y-147861166D02*
X342295057Y-147908785D01*
X342295057Y-147908785D02*
X342390295Y-147956404D01*
X342390295Y-147956404D02*
X342485533Y-147956404D01*
X342485533Y-147956404D02*
X342628390Y-147908785D01*
X342628390Y-147908785D02*
X343199819Y-147337357D01*
X343199819Y-147337357D02*
X343199819Y-147956404D01*
X194589714Y-160332797D02*
X195567861Y-160124886D01*
X195567861Y-160124886D02*
X195518358Y-159891993D01*
X195518358Y-159891993D02*
X195442078Y-159762159D01*
X195442078Y-159762159D02*
X195329120Y-159688803D01*
X195329120Y-159688803D02*
X195226063Y-159662025D01*
X195226063Y-159662025D02*
X195029848Y-159655049D01*
X195029848Y-159655049D02*
X194890113Y-159684751D01*
X194890113Y-159684751D02*
X194713700Y-159770932D01*
X194713700Y-159770932D02*
X194630443Y-159837311D01*
X194630443Y-159837311D02*
X194557088Y-159950269D01*
X194557088Y-159950269D02*
X194540211Y-160099905D01*
X194540211Y-160099905D02*
X194589714Y-160332797D01*
X195260944Y-158680954D02*
X195359949Y-159146738D01*
X195359949Y-159146738D02*
X194904065Y-159292322D01*
X194904065Y-159292322D02*
X194940743Y-159235843D01*
X194940743Y-159235843D02*
X194967521Y-159132786D01*
X194967521Y-159132786D02*
X194918018Y-158899893D01*
X194918018Y-158899893D02*
X194851638Y-158816637D01*
X194851638Y-158816637D02*
X194795159Y-158779959D01*
X194795159Y-158779959D02*
X194692102Y-158753182D01*
X194692102Y-158753182D02*
X194459210Y-158802685D01*
X194459210Y-158802685D02*
X194375953Y-158869064D01*
X194375953Y-158869064D02*
X194339275Y-158925543D01*
X194339275Y-158925543D02*
X194312498Y-159028601D01*
X194312498Y-159028601D02*
X194362001Y-159261493D01*
X194362001Y-159261493D02*
X194428380Y-159344749D01*
X194428380Y-159344749D02*
X194484859Y-159381427D01*
X195062933Y-157749384D02*
X195161938Y-158215169D01*
X195161938Y-158215169D02*
X194706054Y-158360753D01*
X194706054Y-158360753D02*
X194742732Y-158304274D01*
X194742732Y-158304274D02*
X194769510Y-158201216D01*
X194769510Y-158201216D02*
X194720007Y-157968324D01*
X194720007Y-157968324D02*
X194653627Y-157885068D01*
X194653627Y-157885068D02*
X194597148Y-157848390D01*
X194597148Y-157848390D02*
X194494091Y-157821613D01*
X194494091Y-157821613D02*
X194261198Y-157871115D01*
X194261198Y-157871115D02*
X194177942Y-157937495D01*
X194177942Y-157937495D02*
X194141264Y-157993974D01*
X194141264Y-157993974D02*
X194114487Y-158097031D01*
X194114487Y-158097031D02*
X194163990Y-158329924D01*
X194163990Y-158329924D02*
X194230369Y-158413180D01*
X194230369Y-158413180D02*
X194286848Y-158449858D01*
X287954819Y-107380214D02*
X286954819Y-107380214D01*
X286954819Y-107380214D02*
X286954819Y-107618309D01*
X286954819Y-107618309D02*
X287002438Y-107761166D01*
X287002438Y-107761166D02*
X287097676Y-107856404D01*
X287097676Y-107856404D02*
X287192914Y-107904023D01*
X287192914Y-107904023D02*
X287383390Y-107951642D01*
X287383390Y-107951642D02*
X287526247Y-107951642D01*
X287526247Y-107951642D02*
X287716723Y-107904023D01*
X287716723Y-107904023D02*
X287811961Y-107856404D01*
X287811961Y-107856404D02*
X287907200Y-107761166D01*
X287907200Y-107761166D02*
X287954819Y-107618309D01*
X287954819Y-107618309D02*
X287954819Y-107380214D01*
X287288152Y-108808785D02*
X287954819Y-108808785D01*
X286907200Y-108570690D02*
X287621485Y-108332595D01*
X287621485Y-108332595D02*
X287621485Y-108951642D01*
X286954819Y-109808785D02*
X286954819Y-109332595D01*
X286954819Y-109332595D02*
X287431009Y-109284976D01*
X287431009Y-109284976D02*
X287383390Y-109332595D01*
X287383390Y-109332595D02*
X287335771Y-109427833D01*
X287335771Y-109427833D02*
X287335771Y-109665928D01*
X287335771Y-109665928D02*
X287383390Y-109761166D01*
X287383390Y-109761166D02*
X287431009Y-109808785D01*
X287431009Y-109808785D02*
X287526247Y-109856404D01*
X287526247Y-109856404D02*
X287764342Y-109856404D01*
X287764342Y-109856404D02*
X287859580Y-109808785D01*
X287859580Y-109808785D02*
X287907200Y-109761166D01*
X287907200Y-109761166D02*
X287954819Y-109665928D01*
X287954819Y-109665928D02*
X287954819Y-109427833D01*
X287954819Y-109427833D02*
X287907200Y-109332595D01*
X287907200Y-109332595D02*
X287859580Y-109284976D01*
X88784059Y-116913981D02*
X87805911Y-116706069D01*
X87805911Y-116706069D02*
X87756408Y-116938962D01*
X87756408Y-116938962D02*
X87773285Y-117088598D01*
X87773285Y-117088598D02*
X87846641Y-117201556D01*
X87846641Y-117201556D02*
X87929897Y-117267935D01*
X87929897Y-117267935D02*
X88106311Y-117354116D01*
X88106311Y-117354116D02*
X88246046Y-117383817D01*
X88246046Y-117383817D02*
X88442260Y-117376841D01*
X88442260Y-117376841D02*
X88545318Y-117350064D01*
X88545318Y-117350064D02*
X88658276Y-117276708D01*
X88658276Y-117276708D02*
X88734556Y-117146873D01*
X88734556Y-117146873D02*
X88784059Y-116913981D01*
X88467241Y-118404492D02*
X88586048Y-117845550D01*
X88526644Y-118125021D02*
X87548497Y-117917109D01*
X87548497Y-117917109D02*
X87708033Y-117853654D01*
X87708033Y-117853654D02*
X87820991Y-117780298D01*
X87820991Y-117780298D02*
X87887371Y-117697042D01*
X87636933Y-119104296D02*
X88289031Y-119242904D01*
X87313808Y-118792199D02*
X88061987Y-118707815D01*
X88061987Y-118707815D02*
X87933280Y-119313335D01*
X52480045Y-168597869D02*
X51501897Y-168389957D01*
X51501897Y-168389957D02*
X51452394Y-168622850D01*
X51452394Y-168622850D02*
X51469271Y-168772486D01*
X51469271Y-168772486D02*
X51542627Y-168885444D01*
X51542627Y-168885444D02*
X51625883Y-168951823D01*
X51625883Y-168951823D02*
X51802297Y-169038004D01*
X51802297Y-169038004D02*
X51942032Y-169067705D01*
X51942032Y-169067705D02*
X52138246Y-169060729D01*
X52138246Y-169060729D02*
X52241304Y-169033952D01*
X52241304Y-169033952D02*
X52354262Y-168960596D01*
X52354262Y-168960596D02*
X52430542Y-168830761D01*
X52430542Y-168830761D02*
X52480045Y-168597869D01*
X51313787Y-169274948D02*
X51185079Y-169880468D01*
X51185079Y-169880468D02*
X51627011Y-169633623D01*
X51627011Y-169633623D02*
X51597309Y-169773359D01*
X51597309Y-169773359D02*
X51624087Y-169876416D01*
X51624087Y-169876416D02*
X51660765Y-169932895D01*
X51660765Y-169932895D02*
X51744021Y-169999275D01*
X51744021Y-169999275D02*
X51976913Y-170048777D01*
X51976913Y-170048777D02*
X52079971Y-170022000D01*
X52079971Y-170022000D02*
X52136450Y-169985322D01*
X52136450Y-169985322D02*
X52202829Y-169902066D01*
X52202829Y-169902066D02*
X52262233Y-169622595D01*
X52262233Y-169622595D02*
X52235455Y-169519538D01*
X52235455Y-169519538D02*
X52198777Y-169463059D01*
X51056372Y-170485988D02*
X51036571Y-170579145D01*
X51036571Y-170579145D02*
X51063348Y-170682202D01*
X51063348Y-170682202D02*
X51100026Y-170738681D01*
X51100026Y-170738681D02*
X51183283Y-170805061D01*
X51183283Y-170805061D02*
X51359696Y-170891242D01*
X51359696Y-170891242D02*
X51592588Y-170940744D01*
X51592588Y-170940744D02*
X51788803Y-170933768D01*
X51788803Y-170933768D02*
X51891860Y-170906991D01*
X51891860Y-170906991D02*
X51948339Y-170870313D01*
X51948339Y-170870313D02*
X52014719Y-170787057D01*
X52014719Y-170787057D02*
X52034520Y-170693900D01*
X52034520Y-170693900D02*
X52007742Y-170590842D01*
X52007742Y-170590842D02*
X51971065Y-170534363D01*
X51971065Y-170534363D02*
X51887808Y-170467984D01*
X51887808Y-170467984D02*
X51711395Y-170381803D01*
X51711395Y-170381803D02*
X51478503Y-170332300D01*
X51478503Y-170332300D02*
X51282288Y-170339276D01*
X51282288Y-170339276D02*
X51179231Y-170366054D01*
X51179231Y-170366054D02*
X51122752Y-170402732D01*
X51122752Y-170402732D02*
X51056372Y-170485988D01*
X192258392Y-121877158D02*
X193236539Y-121669247D01*
X193236539Y-121669247D02*
X193187036Y-121436354D01*
X193187036Y-121436354D02*
X193110756Y-121306520D01*
X193110756Y-121306520D02*
X192997798Y-121233164D01*
X192997798Y-121233164D02*
X192894741Y-121206386D01*
X192894741Y-121206386D02*
X192698526Y-121199410D01*
X192698526Y-121199410D02*
X192558791Y-121229112D01*
X192558791Y-121229112D02*
X192382378Y-121315293D01*
X192382378Y-121315293D02*
X192299121Y-121381672D01*
X192299121Y-121381672D02*
X192225766Y-121494630D01*
X192225766Y-121494630D02*
X192208889Y-121644266D01*
X192208889Y-121644266D02*
X192258392Y-121877158D01*
X192613473Y-120341197D02*
X191961375Y-120479805D01*
X193035604Y-120494885D02*
X192386430Y-120876285D01*
X192386430Y-120876285D02*
X192257722Y-120270765D01*
X192791014Y-119573216D02*
X192771213Y-119480059D01*
X192771213Y-119480059D02*
X192704833Y-119396803D01*
X192704833Y-119396803D02*
X192648354Y-119360125D01*
X192648354Y-119360125D02*
X192545297Y-119333348D01*
X192545297Y-119333348D02*
X192349083Y-119326371D01*
X192349083Y-119326371D02*
X192116190Y-119375874D01*
X192116190Y-119375874D02*
X191939777Y-119462055D01*
X191939777Y-119462055D02*
X191856521Y-119528434D01*
X191856521Y-119528434D02*
X191819843Y-119584913D01*
X191819843Y-119584913D02*
X191793065Y-119687971D01*
X191793065Y-119687971D02*
X191812866Y-119781128D01*
X191812866Y-119781128D02*
X191879246Y-119864384D01*
X191879246Y-119864384D02*
X191935725Y-119901062D01*
X191935725Y-119901062D02*
X192038783Y-119927839D01*
X192038783Y-119927839D02*
X192234997Y-119934816D01*
X192234997Y-119934816D02*
X192467889Y-119885313D01*
X192467889Y-119885313D02*
X192644302Y-119799132D01*
X192644302Y-119799132D02*
X192727559Y-119732753D01*
X192727559Y-119732753D02*
X192764237Y-119676274D01*
X192764237Y-119676274D02*
X192791014Y-119573216D01*
X271762319Y-145480214D02*
X270762319Y-145480214D01*
X270762319Y-145480214D02*
X270762319Y-145718309D01*
X270762319Y-145718309D02*
X270809938Y-145861166D01*
X270809938Y-145861166D02*
X270905176Y-145956404D01*
X270905176Y-145956404D02*
X271000414Y-146004023D01*
X271000414Y-146004023D02*
X271190890Y-146051642D01*
X271190890Y-146051642D02*
X271333747Y-146051642D01*
X271333747Y-146051642D02*
X271524223Y-146004023D01*
X271524223Y-146004023D02*
X271619461Y-145956404D01*
X271619461Y-145956404D02*
X271714700Y-145861166D01*
X271714700Y-145861166D02*
X271762319Y-145718309D01*
X271762319Y-145718309D02*
X271762319Y-145480214D01*
X270762319Y-146956404D02*
X270762319Y-146480214D01*
X270762319Y-146480214D02*
X271238509Y-146432595D01*
X271238509Y-146432595D02*
X271190890Y-146480214D01*
X271190890Y-146480214D02*
X271143271Y-146575452D01*
X271143271Y-146575452D02*
X271143271Y-146813547D01*
X271143271Y-146813547D02*
X271190890Y-146908785D01*
X271190890Y-146908785D02*
X271238509Y-146956404D01*
X271238509Y-146956404D02*
X271333747Y-147004023D01*
X271333747Y-147004023D02*
X271571842Y-147004023D01*
X271571842Y-147004023D02*
X271667080Y-146956404D01*
X271667080Y-146956404D02*
X271714700Y-146908785D01*
X271714700Y-146908785D02*
X271762319Y-146813547D01*
X271762319Y-146813547D02*
X271762319Y-146575452D01*
X271762319Y-146575452D02*
X271714700Y-146480214D01*
X271714700Y-146480214D02*
X271667080Y-146432595D01*
X271762319Y-147480214D02*
X271762319Y-147670690D01*
X271762319Y-147670690D02*
X271714700Y-147765928D01*
X271714700Y-147765928D02*
X271667080Y-147813547D01*
X271667080Y-147813547D02*
X271524223Y-147908785D01*
X271524223Y-147908785D02*
X271333747Y-147956404D01*
X271333747Y-147956404D02*
X270952795Y-147956404D01*
X270952795Y-147956404D02*
X270857557Y-147908785D01*
X270857557Y-147908785D02*
X270809938Y-147861166D01*
X270809938Y-147861166D02*
X270762319Y-147765928D01*
X270762319Y-147765928D02*
X270762319Y-147575452D01*
X270762319Y-147575452D02*
X270809938Y-147480214D01*
X270809938Y-147480214D02*
X270857557Y-147432595D01*
X270857557Y-147432595D02*
X270952795Y-147384976D01*
X270952795Y-147384976D02*
X271190890Y-147384976D01*
X271190890Y-147384976D02*
X271286128Y-147432595D01*
X271286128Y-147432595D02*
X271333747Y-147480214D01*
X271333747Y-147480214D02*
X271381366Y-147575452D01*
X271381366Y-147575452D02*
X271381366Y-147765928D01*
X271381366Y-147765928D02*
X271333747Y-147861166D01*
X271333747Y-147861166D02*
X271286128Y-147908785D01*
X271286128Y-147908785D02*
X271190890Y-147956404D01*
X252320389Y-168511131D02*
X253298536Y-168303220D01*
X253298536Y-168303220D02*
X253249033Y-168070327D01*
X253249033Y-168070327D02*
X253172753Y-167940493D01*
X253172753Y-167940493D02*
X253059795Y-167867137D01*
X253059795Y-167867137D02*
X252956738Y-167840359D01*
X252956738Y-167840359D02*
X252760523Y-167833383D01*
X252760523Y-167833383D02*
X252620788Y-167863085D01*
X252620788Y-167863085D02*
X252444375Y-167949266D01*
X252444375Y-167949266D02*
X252361118Y-168015645D01*
X252361118Y-168015645D02*
X252287763Y-168128603D01*
X252287763Y-168128603D02*
X252270886Y-168278239D01*
X252270886Y-168278239D02*
X252320389Y-168511131D01*
X253001519Y-166905866D02*
X253041122Y-167092180D01*
X253041122Y-167092180D02*
X253014344Y-167195237D01*
X253014344Y-167195237D02*
X252977666Y-167251716D01*
X252977666Y-167251716D02*
X252857732Y-167374575D01*
X252857732Y-167374575D02*
X252681319Y-167460756D01*
X252681319Y-167460756D02*
X252308691Y-167539960D01*
X252308691Y-167539960D02*
X252205634Y-167513183D01*
X252205634Y-167513183D02*
X252149155Y-167476505D01*
X252149155Y-167476505D02*
X252082775Y-167393248D01*
X252082775Y-167393248D02*
X252043173Y-167206935D01*
X252043173Y-167206935D02*
X252069950Y-167103877D01*
X252069950Y-167103877D02*
X252106628Y-167047398D01*
X252106628Y-167047398D02*
X252189885Y-166981019D01*
X252189885Y-166981019D02*
X252422777Y-166931516D01*
X252422777Y-166931516D02*
X252525834Y-166958293D01*
X252525834Y-166958293D02*
X252582313Y-166994971D01*
X252582313Y-166994971D02*
X252648693Y-167078227D01*
X252648693Y-167078227D02*
X252688295Y-167264541D01*
X252688295Y-167264541D02*
X252661518Y-167367599D01*
X252661518Y-167367599D02*
X252624840Y-167424078D01*
X252624840Y-167424078D02*
X252541584Y-167490457D01*
X252477459Y-166043601D02*
X251825361Y-166182208D01*
X252899590Y-166197289D02*
X252250415Y-166578689D01*
X252250415Y-166578689D02*
X252121708Y-165973169D01*
X71779743Y-132775190D02*
X70801595Y-132567278D01*
X70801595Y-132567278D02*
X70752092Y-132800171D01*
X70752092Y-132800171D02*
X70768969Y-132949807D01*
X70768969Y-132949807D02*
X70842325Y-133062765D01*
X70842325Y-133062765D02*
X70925581Y-133129144D01*
X70925581Y-133129144D02*
X71101995Y-133215325D01*
X71101995Y-133215325D02*
X71241730Y-133245026D01*
X71241730Y-133245026D02*
X71437944Y-133238050D01*
X71437944Y-133238050D02*
X71541002Y-133211273D01*
X71541002Y-133211273D02*
X71653960Y-133137917D01*
X71653960Y-133137917D02*
X71730240Y-133008082D01*
X71730240Y-133008082D02*
X71779743Y-132775190D01*
X70696741Y-133518649D02*
X70640262Y-133555326D01*
X70640262Y-133555326D02*
X70573882Y-133638583D01*
X70573882Y-133638583D02*
X70524380Y-133871475D01*
X70524380Y-133871475D02*
X70551157Y-133974533D01*
X70551157Y-133974533D02*
X70587835Y-134031012D01*
X70587835Y-134031012D02*
X70671091Y-134097391D01*
X70671091Y-134097391D02*
X70764248Y-134117192D01*
X70764248Y-134117192D02*
X70913884Y-134100315D01*
X70913884Y-134100315D02*
X71591632Y-133660181D01*
X71591632Y-133660181D02*
X71462925Y-134265701D01*
X70356070Y-134663309D02*
X70336269Y-134756466D01*
X70336269Y-134756466D02*
X70363046Y-134859523D01*
X70363046Y-134859523D02*
X70399724Y-134916002D01*
X70399724Y-134916002D02*
X70482981Y-134982382D01*
X70482981Y-134982382D02*
X70659394Y-135068563D01*
X70659394Y-135068563D02*
X70892286Y-135118065D01*
X70892286Y-135118065D02*
X71088501Y-135111089D01*
X71088501Y-135111089D02*
X71191558Y-135084312D01*
X71191558Y-135084312D02*
X71248037Y-135047634D01*
X71248037Y-135047634D02*
X71314417Y-134964378D01*
X71314417Y-134964378D02*
X71334218Y-134871221D01*
X71334218Y-134871221D02*
X71307440Y-134768163D01*
X71307440Y-134768163D02*
X71270763Y-134711684D01*
X71270763Y-134711684D02*
X71187506Y-134645305D01*
X71187506Y-134645305D02*
X71011093Y-134559124D01*
X71011093Y-134559124D02*
X70778201Y-134509621D01*
X70778201Y-134509621D02*
X70581986Y-134516597D01*
X70581986Y-134516597D02*
X70478929Y-134543375D01*
X70478929Y-134543375D02*
X70422450Y-134580053D01*
X70422450Y-134580053D02*
X70356070Y-134663309D01*
X45067319Y-86901405D02*
X44067319Y-86901405D01*
X44067319Y-86901405D02*
X44067319Y-87139500D01*
X44067319Y-87139500D02*
X44114938Y-87282357D01*
X44114938Y-87282357D02*
X44210176Y-87377595D01*
X44210176Y-87377595D02*
X44305414Y-87425214D01*
X44305414Y-87425214D02*
X44495890Y-87472833D01*
X44495890Y-87472833D02*
X44638747Y-87472833D01*
X44638747Y-87472833D02*
X44829223Y-87425214D01*
X44829223Y-87425214D02*
X44924461Y-87377595D01*
X44924461Y-87377595D02*
X45019700Y-87282357D01*
X45019700Y-87282357D02*
X45067319Y-87139500D01*
X45067319Y-87139500D02*
X45067319Y-86901405D01*
X44400652Y-88329976D02*
X45067319Y-88329976D01*
X44019700Y-88091881D02*
X44733985Y-87853786D01*
X44733985Y-87853786D02*
X44733985Y-88472833D01*
X38399819Y-145480214D02*
X37399819Y-145480214D01*
X37399819Y-145480214D02*
X37399819Y-145718309D01*
X37399819Y-145718309D02*
X37447438Y-145861166D01*
X37447438Y-145861166D02*
X37542676Y-145956404D01*
X37542676Y-145956404D02*
X37637914Y-146004023D01*
X37637914Y-146004023D02*
X37828390Y-146051642D01*
X37828390Y-146051642D02*
X37971247Y-146051642D01*
X37971247Y-146051642D02*
X38161723Y-146004023D01*
X38161723Y-146004023D02*
X38256961Y-145956404D01*
X38256961Y-145956404D02*
X38352200Y-145861166D01*
X38352200Y-145861166D02*
X38399819Y-145718309D01*
X38399819Y-145718309D02*
X38399819Y-145480214D01*
X37495057Y-146432595D02*
X37447438Y-146480214D01*
X37447438Y-146480214D02*
X37399819Y-146575452D01*
X37399819Y-146575452D02*
X37399819Y-146813547D01*
X37399819Y-146813547D02*
X37447438Y-146908785D01*
X37447438Y-146908785D02*
X37495057Y-146956404D01*
X37495057Y-146956404D02*
X37590295Y-147004023D01*
X37590295Y-147004023D02*
X37685533Y-147004023D01*
X37685533Y-147004023D02*
X37828390Y-146956404D01*
X37828390Y-146956404D02*
X38399819Y-146384976D01*
X38399819Y-146384976D02*
X38399819Y-147004023D01*
X37733152Y-147861166D02*
X38399819Y-147861166D01*
X37352200Y-147623071D02*
X38066485Y-147384976D01*
X38066485Y-147384976D02*
X38066485Y-148004023D01*
X51516635Y-108992545D02*
X50538487Y-108784633D01*
X50538487Y-108784633D02*
X50488984Y-109017526D01*
X50488984Y-109017526D02*
X50505861Y-109167162D01*
X50505861Y-109167162D02*
X50579217Y-109280120D01*
X50579217Y-109280120D02*
X50662473Y-109346499D01*
X50662473Y-109346499D02*
X50838887Y-109432680D01*
X50838887Y-109432680D02*
X50978622Y-109462381D01*
X50978622Y-109462381D02*
X51174836Y-109455405D01*
X51174836Y-109455405D02*
X51277894Y-109428628D01*
X51277894Y-109428628D02*
X51390852Y-109355272D01*
X51390852Y-109355272D02*
X51467132Y-109225437D01*
X51467132Y-109225437D02*
X51516635Y-108992545D01*
X51199817Y-110483056D02*
X51318624Y-109924114D01*
X51259220Y-110203585D02*
X50281073Y-109995673D01*
X50281073Y-109995673D02*
X50440609Y-109932218D01*
X50440609Y-109932218D02*
X50553567Y-109858862D01*
X50553567Y-109858862D02*
X50619947Y-109775606D01*
X50235622Y-110667573D02*
X50179143Y-110704251D01*
X50179143Y-110704251D02*
X50112763Y-110787507D01*
X50112763Y-110787507D02*
X50063261Y-111020399D01*
X50063261Y-111020399D02*
X50090038Y-111123457D01*
X50090038Y-111123457D02*
X50126716Y-111179936D01*
X50126716Y-111179936D02*
X50209972Y-111246315D01*
X50209972Y-111246315D02*
X50303129Y-111266116D01*
X50303129Y-111266116D02*
X50452765Y-111249240D01*
X50452765Y-111249240D02*
X51130513Y-110809105D01*
X51130513Y-110809105D02*
X51001806Y-111414625D01*
X7919819Y-107380214D02*
X6919819Y-107380214D01*
X6919819Y-107380214D02*
X6919819Y-107618309D01*
X6919819Y-107618309D02*
X6967438Y-107761166D01*
X6967438Y-107761166D02*
X7062676Y-107856404D01*
X7062676Y-107856404D02*
X7157914Y-107904023D01*
X7157914Y-107904023D02*
X7348390Y-107951642D01*
X7348390Y-107951642D02*
X7491247Y-107951642D01*
X7491247Y-107951642D02*
X7681723Y-107904023D01*
X7681723Y-107904023D02*
X7776961Y-107856404D01*
X7776961Y-107856404D02*
X7872200Y-107761166D01*
X7872200Y-107761166D02*
X7919819Y-107618309D01*
X7919819Y-107618309D02*
X7919819Y-107380214D01*
X7919819Y-108904023D02*
X7919819Y-108332595D01*
X7919819Y-108618309D02*
X6919819Y-108618309D01*
X6919819Y-108618309D02*
X7062676Y-108523071D01*
X7062676Y-108523071D02*
X7157914Y-108427833D01*
X7157914Y-108427833D02*
X7205533Y-108332595D01*
X6919819Y-109523071D02*
X6919819Y-109618309D01*
X6919819Y-109618309D02*
X6967438Y-109713547D01*
X6967438Y-109713547D02*
X7015057Y-109761166D01*
X7015057Y-109761166D02*
X7110295Y-109808785D01*
X7110295Y-109808785D02*
X7300771Y-109856404D01*
X7300771Y-109856404D02*
X7538866Y-109856404D01*
X7538866Y-109856404D02*
X7729342Y-109808785D01*
X7729342Y-109808785D02*
X7824580Y-109761166D01*
X7824580Y-109761166D02*
X7872200Y-109713547D01*
X7872200Y-109713547D02*
X7919819Y-109618309D01*
X7919819Y-109618309D02*
X7919819Y-109523071D01*
X7919819Y-109523071D02*
X7872200Y-109427833D01*
X7872200Y-109427833D02*
X7824580Y-109380214D01*
X7824580Y-109380214D02*
X7729342Y-109332595D01*
X7729342Y-109332595D02*
X7538866Y-109284976D01*
X7538866Y-109284976D02*
X7300771Y-109284976D01*
X7300771Y-109284976D02*
X7110295Y-109332595D01*
X7110295Y-109332595D02*
X7015057Y-109380214D01*
X7015057Y-109380214D02*
X6967438Y-109427833D01*
X6967438Y-109427833D02*
X6919819Y-109523071D01*
X216248242Y-97302369D02*
X217226389Y-97094458D01*
X217226389Y-97094458D02*
X217176886Y-96861565D01*
X217176886Y-96861565D02*
X217100606Y-96731731D01*
X217100606Y-96731731D02*
X216987648Y-96658375D01*
X216987648Y-96658375D02*
X216884591Y-96631597D01*
X216884591Y-96631597D02*
X216688376Y-96624621D01*
X216688376Y-96624621D02*
X216548641Y-96654323D01*
X216548641Y-96654323D02*
X216372228Y-96740504D01*
X216372228Y-96740504D02*
X216288971Y-96806883D01*
X216288971Y-96806883D02*
X216215616Y-96919841D01*
X216215616Y-96919841D02*
X216198739Y-97069477D01*
X216198739Y-97069477D02*
X216248242Y-97302369D01*
X217038279Y-96209467D02*
X216909571Y-95603947D01*
X216909571Y-95603947D02*
X216606248Y-96009201D01*
X216606248Y-96009201D02*
X216576546Y-95869465D01*
X216576546Y-95869465D02*
X216510166Y-95786209D01*
X216510166Y-95786209D02*
X216453687Y-95749531D01*
X216453687Y-95749531D02*
X216350630Y-95722754D01*
X216350630Y-95722754D02*
X216117738Y-95772257D01*
X216117738Y-95772257D02*
X216034481Y-95838636D01*
X216034481Y-95838636D02*
X215997803Y-95895115D01*
X215997803Y-95895115D02*
X215971026Y-95998173D01*
X215971026Y-95998173D02*
X216030429Y-96277643D01*
X216030429Y-96277643D02*
X216096809Y-96360900D01*
X216096809Y-96360900D02*
X216153288Y-96397578D01*
X216405312Y-94834839D02*
X215753214Y-94973446D01*
X216827443Y-94988527D02*
X216178268Y-95369927D01*
X216178268Y-95369927D02*
X216049561Y-94764407D01*
X250490849Y-148450643D02*
X251468996Y-148242732D01*
X251468996Y-148242732D02*
X251419493Y-148009839D01*
X251419493Y-148009839D02*
X251343213Y-147880005D01*
X251343213Y-147880005D02*
X251230255Y-147806649D01*
X251230255Y-147806649D02*
X251127198Y-147779871D01*
X251127198Y-147779871D02*
X250930983Y-147772895D01*
X250930983Y-147772895D02*
X250791248Y-147802597D01*
X250791248Y-147802597D02*
X250614835Y-147888778D01*
X250614835Y-147888778D02*
X250531578Y-147955157D01*
X250531578Y-147955157D02*
X250458223Y-148068115D01*
X250458223Y-148068115D02*
X250441346Y-148217751D01*
X250441346Y-148217751D02*
X250490849Y-148450643D01*
X251162079Y-146798800D02*
X251261084Y-147264584D01*
X251261084Y-147264584D02*
X250805200Y-147410168D01*
X250805200Y-147410168D02*
X250841878Y-147353689D01*
X250841878Y-147353689D02*
X250868656Y-147250632D01*
X250868656Y-147250632D02*
X250819153Y-147017739D01*
X250819153Y-147017739D02*
X250752773Y-146934483D01*
X250752773Y-146934483D02*
X250696294Y-146897805D01*
X250696294Y-146897805D02*
X250593237Y-146871028D01*
X250593237Y-146871028D02*
X250360345Y-146920531D01*
X250360345Y-146920531D02*
X250277088Y-146986910D01*
X250277088Y-146986910D02*
X250240410Y-147043389D01*
X250240410Y-147043389D02*
X250213633Y-147146447D01*
X250213633Y-147146447D02*
X250263136Y-147379339D01*
X250263136Y-147379339D02*
X250329515Y-147462595D01*
X250329515Y-147462595D02*
X250385994Y-147499273D01*
X250614166Y-146282385D02*
X250680545Y-146365641D01*
X250680545Y-146365641D02*
X250737024Y-146402319D01*
X250737024Y-146402319D02*
X250840082Y-146429096D01*
X250840082Y-146429096D02*
X250886660Y-146419196D01*
X250886660Y-146419196D02*
X250969916Y-146352816D01*
X250969916Y-146352816D02*
X251006594Y-146296337D01*
X251006594Y-146296337D02*
X251033372Y-146193280D01*
X251033372Y-146193280D02*
X250993769Y-146006966D01*
X250993769Y-146006966D02*
X250927390Y-145923709D01*
X250927390Y-145923709D02*
X250870911Y-145887031D01*
X250870911Y-145887031D02*
X250767853Y-145860254D01*
X250767853Y-145860254D02*
X250721275Y-145870155D01*
X250721275Y-145870155D02*
X250638019Y-145936534D01*
X250638019Y-145936534D02*
X250601341Y-145993013D01*
X250601341Y-145993013D02*
X250574563Y-146096071D01*
X250574563Y-146096071D02*
X250614166Y-146282385D01*
X250614166Y-146282385D02*
X250587388Y-146385442D01*
X250587388Y-146385442D02*
X250550710Y-146441921D01*
X250550710Y-146441921D02*
X250467454Y-146508301D01*
X250467454Y-146508301D02*
X250281140Y-146547903D01*
X250281140Y-146547903D02*
X250178083Y-146521125D01*
X250178083Y-146521125D02*
X250121604Y-146484448D01*
X250121604Y-146484448D02*
X250055224Y-146401191D01*
X250055224Y-146401191D02*
X250015622Y-146214877D01*
X250015622Y-146214877D02*
X250042399Y-146111820D01*
X250042399Y-146111820D02*
X250079077Y-146055341D01*
X250079077Y-146055341D02*
X250162333Y-145988961D01*
X250162333Y-145988961D02*
X250348647Y-145949359D01*
X250348647Y-145949359D02*
X250451705Y-145976136D01*
X250451705Y-145976136D02*
X250508184Y-146012814D01*
X250508184Y-146012814D02*
X250574563Y-146096071D01*
X293669819Y-88330214D02*
X292669819Y-88330214D01*
X292669819Y-88330214D02*
X292669819Y-88568309D01*
X292669819Y-88568309D02*
X292717438Y-88711166D01*
X292717438Y-88711166D02*
X292812676Y-88806404D01*
X292812676Y-88806404D02*
X292907914Y-88854023D01*
X292907914Y-88854023D02*
X293098390Y-88901642D01*
X293098390Y-88901642D02*
X293241247Y-88901642D01*
X293241247Y-88901642D02*
X293431723Y-88854023D01*
X293431723Y-88854023D02*
X293526961Y-88806404D01*
X293526961Y-88806404D02*
X293622200Y-88711166D01*
X293622200Y-88711166D02*
X293669819Y-88568309D01*
X293669819Y-88568309D02*
X293669819Y-88330214D01*
X292669819Y-89234976D02*
X292669819Y-89854023D01*
X292669819Y-89854023D02*
X293050771Y-89520690D01*
X293050771Y-89520690D02*
X293050771Y-89663547D01*
X293050771Y-89663547D02*
X293098390Y-89758785D01*
X293098390Y-89758785D02*
X293146009Y-89806404D01*
X293146009Y-89806404D02*
X293241247Y-89854023D01*
X293241247Y-89854023D02*
X293479342Y-89854023D01*
X293479342Y-89854023D02*
X293574580Y-89806404D01*
X293574580Y-89806404D02*
X293622200Y-89758785D01*
X293622200Y-89758785D02*
X293669819Y-89663547D01*
X293669819Y-89663547D02*
X293669819Y-89377833D01*
X293669819Y-89377833D02*
X293622200Y-89282595D01*
X293622200Y-89282595D02*
X293574580Y-89234976D01*
X293098390Y-90425452D02*
X293050771Y-90330214D01*
X293050771Y-90330214D02*
X293003152Y-90282595D01*
X293003152Y-90282595D02*
X292907914Y-90234976D01*
X292907914Y-90234976D02*
X292860295Y-90234976D01*
X292860295Y-90234976D02*
X292765057Y-90282595D01*
X292765057Y-90282595D02*
X292717438Y-90330214D01*
X292717438Y-90330214D02*
X292669819Y-90425452D01*
X292669819Y-90425452D02*
X292669819Y-90615928D01*
X292669819Y-90615928D02*
X292717438Y-90711166D01*
X292717438Y-90711166D02*
X292765057Y-90758785D01*
X292765057Y-90758785D02*
X292860295Y-90806404D01*
X292860295Y-90806404D02*
X292907914Y-90806404D01*
X292907914Y-90806404D02*
X293003152Y-90758785D01*
X293003152Y-90758785D02*
X293050771Y-90711166D01*
X293050771Y-90711166D02*
X293098390Y-90615928D01*
X293098390Y-90615928D02*
X293098390Y-90425452D01*
X293098390Y-90425452D02*
X293146009Y-90330214D01*
X293146009Y-90330214D02*
X293193628Y-90282595D01*
X293193628Y-90282595D02*
X293288866Y-90234976D01*
X293288866Y-90234976D02*
X293479342Y-90234976D01*
X293479342Y-90234976D02*
X293574580Y-90282595D01*
X293574580Y-90282595D02*
X293622200Y-90330214D01*
X293622200Y-90330214D02*
X293669819Y-90425452D01*
X293669819Y-90425452D02*
X293669819Y-90615928D01*
X293669819Y-90615928D02*
X293622200Y-90711166D01*
X293622200Y-90711166D02*
X293574580Y-90758785D01*
X293574580Y-90758785D02*
X293479342Y-90806404D01*
X293479342Y-90806404D02*
X293288866Y-90806404D01*
X293288866Y-90806404D02*
X293193628Y-90758785D01*
X293193628Y-90758785D02*
X293146009Y-90711166D01*
X293146009Y-90711166D02*
X293098390Y-90615928D01*
X319863569Y-88330214D02*
X318863569Y-88330214D01*
X318863569Y-88330214D02*
X318863569Y-88568309D01*
X318863569Y-88568309D02*
X318911188Y-88711166D01*
X318911188Y-88711166D02*
X319006426Y-88806404D01*
X319006426Y-88806404D02*
X319101664Y-88854023D01*
X319101664Y-88854023D02*
X319292140Y-88901642D01*
X319292140Y-88901642D02*
X319434997Y-88901642D01*
X319434997Y-88901642D02*
X319625473Y-88854023D01*
X319625473Y-88854023D02*
X319720711Y-88806404D01*
X319720711Y-88806404D02*
X319815950Y-88711166D01*
X319815950Y-88711166D02*
X319863569Y-88568309D01*
X319863569Y-88568309D02*
X319863569Y-88330214D01*
X318863569Y-89234976D02*
X318863569Y-89854023D01*
X318863569Y-89854023D02*
X319244521Y-89520690D01*
X319244521Y-89520690D02*
X319244521Y-89663547D01*
X319244521Y-89663547D02*
X319292140Y-89758785D01*
X319292140Y-89758785D02*
X319339759Y-89806404D01*
X319339759Y-89806404D02*
X319434997Y-89854023D01*
X319434997Y-89854023D02*
X319673092Y-89854023D01*
X319673092Y-89854023D02*
X319768330Y-89806404D01*
X319768330Y-89806404D02*
X319815950Y-89758785D01*
X319815950Y-89758785D02*
X319863569Y-89663547D01*
X319863569Y-89663547D02*
X319863569Y-89377833D01*
X319863569Y-89377833D02*
X319815950Y-89282595D01*
X319815950Y-89282595D02*
X319768330Y-89234976D01*
X319863569Y-90330214D02*
X319863569Y-90520690D01*
X319863569Y-90520690D02*
X319815950Y-90615928D01*
X319815950Y-90615928D02*
X319768330Y-90663547D01*
X319768330Y-90663547D02*
X319625473Y-90758785D01*
X319625473Y-90758785D02*
X319434997Y-90806404D01*
X319434997Y-90806404D02*
X319054045Y-90806404D01*
X319054045Y-90806404D02*
X318958807Y-90758785D01*
X318958807Y-90758785D02*
X318911188Y-90711166D01*
X318911188Y-90711166D02*
X318863569Y-90615928D01*
X318863569Y-90615928D02*
X318863569Y-90425452D01*
X318863569Y-90425452D02*
X318911188Y-90330214D01*
X318911188Y-90330214D02*
X318958807Y-90282595D01*
X318958807Y-90282595D02*
X319054045Y-90234976D01*
X319054045Y-90234976D02*
X319292140Y-90234976D01*
X319292140Y-90234976D02*
X319387378Y-90282595D01*
X319387378Y-90282595D02*
X319434997Y-90330214D01*
X319434997Y-90330214D02*
X319482616Y-90425452D01*
X319482616Y-90425452D02*
X319482616Y-90615928D01*
X319482616Y-90615928D02*
X319434997Y-90711166D01*
X319434997Y-90711166D02*
X319387378Y-90758785D01*
X319387378Y-90758785D02*
X319292140Y-90806404D01*
X-22560180Y-124525214D02*
X-23560180Y-124525214D01*
X-23560180Y-124525214D02*
X-23560180Y-124763309D01*
X-23560180Y-124763309D02*
X-23512561Y-124906166D01*
X-23512561Y-124906166D02*
X-23417323Y-125001404D01*
X-23417323Y-125001404D02*
X-23322085Y-125049023D01*
X-23322085Y-125049023D02*
X-23131609Y-125096642D01*
X-23131609Y-125096642D02*
X-22988752Y-125096642D01*
X-22988752Y-125096642D02*
X-22798276Y-125049023D01*
X-22798276Y-125049023D02*
X-22703038Y-125001404D01*
X-22703038Y-125001404D02*
X-22607800Y-124906166D01*
X-22607800Y-124906166D02*
X-22560180Y-124763309D01*
X-22560180Y-124763309D02*
X-22560180Y-124525214D01*
X-22560180Y-126049023D02*
X-22560180Y-125477595D01*
X-22560180Y-125763309D02*
X-23560180Y-125763309D01*
X-23560180Y-125763309D02*
X-23417323Y-125668071D01*
X-23417323Y-125668071D02*
X-23322085Y-125572833D01*
X-23322085Y-125572833D02*
X-23274466Y-125477595D01*
X-23560180Y-126906166D02*
X-23560180Y-126715690D01*
X-23560180Y-126715690D02*
X-23512561Y-126620452D01*
X-23512561Y-126620452D02*
X-23464942Y-126572833D01*
X-23464942Y-126572833D02*
X-23322085Y-126477595D01*
X-23322085Y-126477595D02*
X-23131609Y-126429976D01*
X-23131609Y-126429976D02*
X-22750657Y-126429976D01*
X-22750657Y-126429976D02*
X-22655419Y-126477595D01*
X-22655419Y-126477595D02*
X-22607800Y-126525214D01*
X-22607800Y-126525214D02*
X-22560180Y-126620452D01*
X-22560180Y-126620452D02*
X-22560180Y-126810928D01*
X-22560180Y-126810928D02*
X-22607800Y-126906166D01*
X-22607800Y-126906166D02*
X-22655419Y-126953785D01*
X-22655419Y-126953785D02*
X-22750657Y-127001404D01*
X-22750657Y-127001404D02*
X-22988752Y-127001404D01*
X-22988752Y-127001404D02*
X-23083990Y-126953785D01*
X-23083990Y-126953785D02*
X-23131609Y-126906166D01*
X-23131609Y-126906166D02*
X-23179228Y-126810928D01*
X-23179228Y-126810928D02*
X-23179228Y-126620452D01*
X-23179228Y-126620452D02*
X-23131609Y-126525214D01*
X-23131609Y-126525214D02*
X-23083990Y-126477595D01*
X-23083990Y-126477595D02*
X-22988752Y-126429976D01*
X268904819Y-106427714D02*
X267904819Y-106427714D01*
X267904819Y-106427714D02*
X267904819Y-106665809D01*
X267904819Y-106665809D02*
X267952438Y-106808666D01*
X267952438Y-106808666D02*
X268047676Y-106903904D01*
X268047676Y-106903904D02*
X268142914Y-106951523D01*
X268142914Y-106951523D02*
X268333390Y-106999142D01*
X268333390Y-106999142D02*
X268476247Y-106999142D01*
X268476247Y-106999142D02*
X268666723Y-106951523D01*
X268666723Y-106951523D02*
X268761961Y-106903904D01*
X268761961Y-106903904D02*
X268857200Y-106808666D01*
X268857200Y-106808666D02*
X268904819Y-106665809D01*
X268904819Y-106665809D02*
X268904819Y-106427714D01*
X268238152Y-107856285D02*
X268904819Y-107856285D01*
X267857200Y-107618190D02*
X268571485Y-107380095D01*
X268571485Y-107380095D02*
X268571485Y-107999142D01*
X268238152Y-108808666D02*
X268904819Y-108808666D01*
X267857200Y-108570571D02*
X268571485Y-108332476D01*
X268571485Y-108332476D02*
X268571485Y-108951523D01*
X83328915Y-96765695D02*
X82350768Y-96557783D01*
X82350768Y-96557783D02*
X82301265Y-96790676D01*
X82301265Y-96790676D02*
X82318142Y-96940312D01*
X82318142Y-96940312D02*
X82391497Y-97053270D01*
X82391497Y-97053270D02*
X82474754Y-97119649D01*
X82474754Y-97119649D02*
X82651167Y-97205830D01*
X82651167Y-97205830D02*
X82790902Y-97235532D01*
X82790902Y-97235532D02*
X82987117Y-97228555D01*
X82987117Y-97228555D02*
X83090174Y-97201778D01*
X83090174Y-97201778D02*
X83203132Y-97128422D01*
X83203132Y-97128422D02*
X83279412Y-96998587D01*
X83279412Y-96998587D02*
X83328915Y-96765695D01*
X82053751Y-97955137D02*
X82093353Y-97768823D01*
X82093353Y-97768823D02*
X82159733Y-97685567D01*
X82159733Y-97685567D02*
X82216212Y-97648889D01*
X82216212Y-97648889D02*
X82375748Y-97585434D01*
X82375748Y-97585434D02*
X82571963Y-97578458D01*
X82571963Y-97578458D02*
X82944590Y-97657662D01*
X82944590Y-97657662D02*
X83027847Y-97724042D01*
X83027847Y-97724042D02*
X83064524Y-97780521D01*
X83064524Y-97780521D02*
X83091302Y-97883578D01*
X83091302Y-97883578D02*
X83051700Y-98069892D01*
X83051700Y-98069892D02*
X82985320Y-98153148D01*
X82985320Y-98153148D02*
X82928841Y-98189826D01*
X82928841Y-98189826D02*
X82825784Y-98216603D01*
X82825784Y-98216603D02*
X82592891Y-98167101D01*
X82592891Y-98167101D02*
X82509635Y-98100721D01*
X82509635Y-98100721D02*
X82472957Y-98044242D01*
X82472957Y-98044242D02*
X82446180Y-97941185D01*
X82446180Y-97941185D02*
X82485782Y-97754871D01*
X82485782Y-97754871D02*
X82552161Y-97671614D01*
X82552161Y-97671614D02*
X82608640Y-97634937D01*
X82608640Y-97634937D02*
X82711698Y-97608159D01*
X332246069Y-164530214D02*
X331246069Y-164530214D01*
X331246069Y-164530214D02*
X331246069Y-164768309D01*
X331246069Y-164768309D02*
X331293688Y-164911166D01*
X331293688Y-164911166D02*
X331388926Y-165006404D01*
X331388926Y-165006404D02*
X331484164Y-165054023D01*
X331484164Y-165054023D02*
X331674640Y-165101642D01*
X331674640Y-165101642D02*
X331817497Y-165101642D01*
X331817497Y-165101642D02*
X332007973Y-165054023D01*
X332007973Y-165054023D02*
X332103211Y-165006404D01*
X332103211Y-165006404D02*
X332198450Y-164911166D01*
X332198450Y-164911166D02*
X332246069Y-164768309D01*
X332246069Y-164768309D02*
X332246069Y-164530214D01*
X331246069Y-165958785D02*
X331246069Y-165768309D01*
X331246069Y-165768309D02*
X331293688Y-165673071D01*
X331293688Y-165673071D02*
X331341307Y-165625452D01*
X331341307Y-165625452D02*
X331484164Y-165530214D01*
X331484164Y-165530214D02*
X331674640Y-165482595D01*
X331674640Y-165482595D02*
X332055592Y-165482595D01*
X332055592Y-165482595D02*
X332150830Y-165530214D01*
X332150830Y-165530214D02*
X332198450Y-165577833D01*
X332198450Y-165577833D02*
X332246069Y-165673071D01*
X332246069Y-165673071D02*
X332246069Y-165863547D01*
X332246069Y-165863547D02*
X332198450Y-165958785D01*
X332198450Y-165958785D02*
X332150830Y-166006404D01*
X332150830Y-166006404D02*
X332055592Y-166054023D01*
X332055592Y-166054023D02*
X331817497Y-166054023D01*
X331817497Y-166054023D02*
X331722259Y-166006404D01*
X331722259Y-166006404D02*
X331674640Y-165958785D01*
X331674640Y-165958785D02*
X331627021Y-165863547D01*
X331627021Y-165863547D02*
X331627021Y-165673071D01*
X331627021Y-165673071D02*
X331674640Y-165577833D01*
X331674640Y-165577833D02*
X331722259Y-165530214D01*
X331722259Y-165530214D02*
X331817497Y-165482595D01*
X331246069Y-166958785D02*
X331246069Y-166482595D01*
X331246069Y-166482595D02*
X331722259Y-166434976D01*
X331722259Y-166434976D02*
X331674640Y-166482595D01*
X331674640Y-166482595D02*
X331627021Y-166577833D01*
X331627021Y-166577833D02*
X331627021Y-166815928D01*
X331627021Y-166815928D02*
X331674640Y-166911166D01*
X331674640Y-166911166D02*
X331722259Y-166958785D01*
X331722259Y-166958785D02*
X331817497Y-167006404D01*
X331817497Y-167006404D02*
X332055592Y-167006404D01*
X332055592Y-167006404D02*
X332150830Y-166958785D01*
X332150830Y-166958785D02*
X332198450Y-166911166D01*
X332198450Y-166911166D02*
X332246069Y-166815928D01*
X332246069Y-166815928D02*
X332246069Y-166577833D01*
X332246069Y-166577833D02*
X332198450Y-166482595D01*
X332198450Y-166482595D02*
X332150830Y-166434976D01*
X296527319Y-126430214D02*
X295527319Y-126430214D01*
X295527319Y-126430214D02*
X295527319Y-126668309D01*
X295527319Y-126668309D02*
X295574938Y-126811166D01*
X295574938Y-126811166D02*
X295670176Y-126906404D01*
X295670176Y-126906404D02*
X295765414Y-126954023D01*
X295765414Y-126954023D02*
X295955890Y-127001642D01*
X295955890Y-127001642D02*
X296098747Y-127001642D01*
X296098747Y-127001642D02*
X296289223Y-126954023D01*
X296289223Y-126954023D02*
X296384461Y-126906404D01*
X296384461Y-126906404D02*
X296479700Y-126811166D01*
X296479700Y-126811166D02*
X296527319Y-126668309D01*
X296527319Y-126668309D02*
X296527319Y-126430214D01*
X295527319Y-127906404D02*
X295527319Y-127430214D01*
X295527319Y-127430214D02*
X296003509Y-127382595D01*
X296003509Y-127382595D02*
X295955890Y-127430214D01*
X295955890Y-127430214D02*
X295908271Y-127525452D01*
X295908271Y-127525452D02*
X295908271Y-127763547D01*
X295908271Y-127763547D02*
X295955890Y-127858785D01*
X295955890Y-127858785D02*
X296003509Y-127906404D01*
X296003509Y-127906404D02*
X296098747Y-127954023D01*
X296098747Y-127954023D02*
X296336842Y-127954023D01*
X296336842Y-127954023D02*
X296432080Y-127906404D01*
X296432080Y-127906404D02*
X296479700Y-127858785D01*
X296479700Y-127858785D02*
X296527319Y-127763547D01*
X296527319Y-127763547D02*
X296527319Y-127525452D01*
X296527319Y-127525452D02*
X296479700Y-127430214D01*
X296479700Y-127430214D02*
X296432080Y-127382595D01*
X295527319Y-128287357D02*
X295527319Y-128906404D01*
X295527319Y-128906404D02*
X295908271Y-128573071D01*
X295908271Y-128573071D02*
X295908271Y-128715928D01*
X295908271Y-128715928D02*
X295955890Y-128811166D01*
X295955890Y-128811166D02*
X296003509Y-128858785D01*
X296003509Y-128858785D02*
X296098747Y-128906404D01*
X296098747Y-128906404D02*
X296336842Y-128906404D01*
X296336842Y-128906404D02*
X296432080Y-128858785D01*
X296432080Y-128858785D02*
X296479700Y-128811166D01*
X296479700Y-128811166D02*
X296527319Y-128715928D01*
X296527319Y-128715928D02*
X296527319Y-128430214D01*
X296527319Y-128430214D02*
X296479700Y-128334976D01*
X296479700Y-128334976D02*
X296432080Y-128287357D01*
X-18750180Y-105951405D02*
X-19750180Y-105951405D01*
X-19750180Y-105951405D02*
X-19750180Y-106189500D01*
X-19750180Y-106189500D02*
X-19702561Y-106332357D01*
X-19702561Y-106332357D02*
X-19607323Y-106427595D01*
X-19607323Y-106427595D02*
X-19512085Y-106475214D01*
X-19512085Y-106475214D02*
X-19321609Y-106522833D01*
X-19321609Y-106522833D02*
X-19178752Y-106522833D01*
X-19178752Y-106522833D02*
X-18988276Y-106475214D01*
X-18988276Y-106475214D02*
X-18893038Y-106427595D01*
X-18893038Y-106427595D02*
X-18797800Y-106332357D01*
X-18797800Y-106332357D02*
X-18750180Y-106189500D01*
X-18750180Y-106189500D02*
X-18750180Y-105951405D01*
X-18750180Y-106999024D02*
X-18750180Y-107189500D01*
X-18750180Y-107189500D02*
X-18797800Y-107284738D01*
X-18797800Y-107284738D02*
X-18845419Y-107332357D01*
X-18845419Y-107332357D02*
X-18988276Y-107427595D01*
X-18988276Y-107427595D02*
X-19178752Y-107475214D01*
X-19178752Y-107475214D02*
X-19559704Y-107475214D01*
X-19559704Y-107475214D02*
X-19654942Y-107427595D01*
X-19654942Y-107427595D02*
X-19702561Y-107379976D01*
X-19702561Y-107379976D02*
X-19750180Y-107284738D01*
X-19750180Y-107284738D02*
X-19750180Y-107094262D01*
X-19750180Y-107094262D02*
X-19702561Y-106999024D01*
X-19702561Y-106999024D02*
X-19654942Y-106951405D01*
X-19654942Y-106951405D02*
X-19559704Y-106903786D01*
X-19559704Y-106903786D02*
X-19321609Y-106903786D01*
X-19321609Y-106903786D02*
X-19226371Y-106951405D01*
X-19226371Y-106951405D02*
X-19178752Y-106999024D01*
X-19178752Y-106999024D02*
X-19131133Y-107094262D01*
X-19131133Y-107094262D02*
X-19131133Y-107284738D01*
X-19131133Y-107284738D02*
X-19178752Y-107379976D01*
X-19178752Y-107379976D02*
X-19226371Y-107427595D01*
X-19226371Y-107427595D02*
X-19321609Y-107475214D01*
X31732319Y-107380214D02*
X30732319Y-107380214D01*
X30732319Y-107380214D02*
X30732319Y-107618309D01*
X30732319Y-107618309D02*
X30779938Y-107761166D01*
X30779938Y-107761166D02*
X30875176Y-107856404D01*
X30875176Y-107856404D02*
X30970414Y-107904023D01*
X30970414Y-107904023D02*
X31160890Y-107951642D01*
X31160890Y-107951642D02*
X31303747Y-107951642D01*
X31303747Y-107951642D02*
X31494223Y-107904023D01*
X31494223Y-107904023D02*
X31589461Y-107856404D01*
X31589461Y-107856404D02*
X31684700Y-107761166D01*
X31684700Y-107761166D02*
X31732319Y-107618309D01*
X31732319Y-107618309D02*
X31732319Y-107380214D01*
X31732319Y-108904023D02*
X31732319Y-108332595D01*
X31732319Y-108618309D02*
X30732319Y-108618309D01*
X30732319Y-108618309D02*
X30875176Y-108523071D01*
X30875176Y-108523071D02*
X30970414Y-108427833D01*
X30970414Y-108427833D02*
X31018033Y-108332595D01*
X31732319Y-109856404D02*
X31732319Y-109284976D01*
X31732319Y-109570690D02*
X30732319Y-109570690D01*
X30732319Y-109570690D02*
X30875176Y-109475452D01*
X30875176Y-109475452D02*
X30970414Y-109380214D01*
X30970414Y-109380214D02*
X31018033Y-109284976D01*
X32684819Y-126430214D02*
X31684819Y-126430214D01*
X31684819Y-126430214D02*
X31684819Y-126668309D01*
X31684819Y-126668309D02*
X31732438Y-126811166D01*
X31732438Y-126811166D02*
X31827676Y-126906404D01*
X31827676Y-126906404D02*
X31922914Y-126954023D01*
X31922914Y-126954023D02*
X32113390Y-127001642D01*
X32113390Y-127001642D02*
X32256247Y-127001642D01*
X32256247Y-127001642D02*
X32446723Y-126954023D01*
X32446723Y-126954023D02*
X32541961Y-126906404D01*
X32541961Y-126906404D02*
X32637200Y-126811166D01*
X32637200Y-126811166D02*
X32684819Y-126668309D01*
X32684819Y-126668309D02*
X32684819Y-126430214D01*
X32684819Y-127954023D02*
X32684819Y-127382595D01*
X32684819Y-127668309D02*
X31684819Y-127668309D01*
X31684819Y-127668309D02*
X31827676Y-127573071D01*
X31827676Y-127573071D02*
X31922914Y-127477833D01*
X31922914Y-127477833D02*
X31970533Y-127382595D01*
X32113390Y-128525452D02*
X32065771Y-128430214D01*
X32065771Y-128430214D02*
X32018152Y-128382595D01*
X32018152Y-128382595D02*
X31922914Y-128334976D01*
X31922914Y-128334976D02*
X31875295Y-128334976D01*
X31875295Y-128334976D02*
X31780057Y-128382595D01*
X31780057Y-128382595D02*
X31732438Y-128430214D01*
X31732438Y-128430214D02*
X31684819Y-128525452D01*
X31684819Y-128525452D02*
X31684819Y-128715928D01*
X31684819Y-128715928D02*
X31732438Y-128811166D01*
X31732438Y-128811166D02*
X31780057Y-128858785D01*
X31780057Y-128858785D02*
X31875295Y-128906404D01*
X31875295Y-128906404D02*
X31922914Y-128906404D01*
X31922914Y-128906404D02*
X32018152Y-128858785D01*
X32018152Y-128858785D02*
X32065771Y-128811166D01*
X32065771Y-128811166D02*
X32113390Y-128715928D01*
X32113390Y-128715928D02*
X32113390Y-128525452D01*
X32113390Y-128525452D02*
X32161009Y-128430214D01*
X32161009Y-128430214D02*
X32208628Y-128382595D01*
X32208628Y-128382595D02*
X32303866Y-128334976D01*
X32303866Y-128334976D02*
X32494342Y-128334976D01*
X32494342Y-128334976D02*
X32589580Y-128382595D01*
X32589580Y-128382595D02*
X32637200Y-128430214D01*
X32637200Y-128430214D02*
X32684819Y-128525452D01*
X32684819Y-128525452D02*
X32684819Y-128715928D01*
X32684819Y-128715928D02*
X32637200Y-128811166D01*
X32637200Y-128811166D02*
X32589580Y-128858785D01*
X32589580Y-128858785D02*
X32494342Y-128906404D01*
X32494342Y-128906404D02*
X32303866Y-128906404D01*
X32303866Y-128906404D02*
X32208628Y-128858785D01*
X32208628Y-128858785D02*
X32161009Y-128811166D01*
X32161009Y-128811166D02*
X32113390Y-128715928D01*
%TO.C,D56*%
D11*
X211007403Y-157731232D02*
X210204864Y-153955582D01*
X212963696Y-157315409D02*
X211007403Y-157731232D01*
X212963696Y-157315409D02*
X212161159Y-153539759D01*
%TO.C,D57*%
X229641115Y-153770514D02*
X228838576Y-149994864D01*
X231597408Y-153354691D02*
X229641115Y-153770514D01*
X231597408Y-153354691D02*
X230794871Y-149579041D01*
%TO.C,D1*%
X-18300000Y-89722500D02*
X-18300000Y-85862500D01*
X-16300000Y-89722500D02*
X-18300000Y-89722500D01*
X-16300000Y-89722500D02*
X-16300000Y-85862500D01*
%TO.C,D35*%
X232665931Y-94700805D02*
X231863392Y-90925155D01*
X234622224Y-94284982D02*
X232665931Y-94700805D01*
X234622224Y-94284982D02*
X233819687Y-90509332D01*
%TO.C,D33*%
X195398507Y-102622240D02*
X194595968Y-98846590D01*
X197354800Y-102206417D02*
X195398507Y-102622240D01*
X197354800Y-102206417D02*
X196552263Y-98430767D01*
%TO.C,D36*%
X251299643Y-90740087D02*
X250497104Y-86964437D01*
X253255936Y-90324264D02*
X251299643Y-90740087D01*
X253255936Y-90324264D02*
X252453399Y-86548614D01*
%TO.C,D61*%
X311265000Y-148777500D02*
X311265000Y-144917500D01*
X313265000Y-148777500D02*
X311265000Y-148777500D01*
X313265000Y-148777500D02*
X313265000Y-144917500D01*
%TO.C,D29*%
X-3060000Y-167827500D02*
X-3060000Y-163967500D01*
X-1060000Y-167827500D02*
X-3060000Y-167827500D01*
X-1060000Y-167827500D02*
X-1060000Y-163967500D01*
%TO.C,D15*%
X103445831Y-123401385D02*
X104248368Y-119625735D01*
X105402124Y-123817208D02*
X103445831Y-123401385D01*
X105402124Y-123817208D02*
X106204663Y-120041558D01*
%TO.C,D51*%
X252699279Y-129393762D02*
X251896740Y-125618112D01*
X254655572Y-128977939D02*
X252699279Y-129393762D01*
X254655572Y-128977939D02*
X253853035Y-125202289D01*
%TO.C,D63*%
X210309693Y-177355123D02*
X209507154Y-173579473D01*
X212265986Y-176939300D02*
X210309693Y-177355123D01*
X212265986Y-176939300D02*
X211463449Y-173163650D01*
%TO.C,D13*%
X66178407Y-115479950D02*
X66980944Y-111704300D01*
X68134700Y-115895773D02*
X66178407Y-115479950D01*
X68134700Y-115895773D02*
X68937239Y-112120123D01*
%TO.C,D54*%
X321742500Y-129727500D02*
X321742500Y-125867500D01*
X323742500Y-129727500D02*
X321742500Y-129727500D01*
X323742500Y-129727500D02*
X323742500Y-125867500D01*
%TO.C,D25*%
X54530229Y-151955230D02*
X55332766Y-148179580D01*
X56486522Y-152371053D02*
X54530229Y-151955230D01*
X56486522Y-152371053D02*
X57289061Y-148595403D01*
%TO.C,D60*%
X287452500Y-148777500D02*
X287452500Y-144917500D01*
X289452500Y-148777500D02*
X287452500Y-148777500D01*
X289452500Y-148777500D02*
X289452500Y-144917500D01*
%TO.C,D43*%
X245943505Y-111354158D02*
X245140966Y-107578508D01*
X247899798Y-110938335D02*
X245943505Y-111354158D01*
X247899798Y-110938335D02*
X247097261Y-107162685D01*
%TO.C,D7*%
X98089693Y-102787315D02*
X98892230Y-99011665D01*
X100045986Y-103203138D02*
X98089693Y-102787315D01*
X100045986Y-103203138D02*
X100848525Y-99427488D01*
%TO.C,D52*%
X274117500Y-129727500D02*
X274117500Y-125867500D01*
X276117500Y-129727500D02*
X274117500Y-129727500D01*
X276117500Y-129727500D02*
X276117500Y-125867500D01*
%TO.C,D48*%
X196798144Y-141275915D02*
X195995605Y-137500265D01*
X198754437Y-140860092D02*
X196798144Y-141275915D01*
X198754437Y-140860092D02*
X197951900Y-137084442D01*
%TO.C,D17*%
X3131250Y-129727500D02*
X3131250Y-125867500D01*
X5131250Y-129727500D02*
X3131250Y-129727500D01*
X5131250Y-129727500D02*
X5131250Y-125867500D01*
%TO.C,D27*%
X91797653Y-159876665D02*
X92600190Y-156101015D01*
X93753946Y-160292488D02*
X91797653Y-159876665D01*
X93753946Y-160292488D02*
X94556485Y-156516838D01*
%TO.C,D19*%
X49174091Y-131341159D02*
X49976628Y-127565509D01*
X51130384Y-131756982D02*
X49174091Y-131341159D01*
X51130384Y-131756982D02*
X51932923Y-127981332D01*
%TO.C,D28*%
X110431365Y-163837383D02*
X111233902Y-160061733D01*
X112387658Y-164253206D02*
X110431365Y-163837383D01*
X112387658Y-164253206D02*
X113190197Y-160477556D01*
%TO.C,D50*%
X234065567Y-133354479D02*
X233263028Y-129578829D01*
X236021860Y-132938656D02*
X234065567Y-133354479D01*
X236021860Y-132938656D02*
X235219323Y-129163006D01*
%TO.C,D3*%
X22657500Y-91627500D02*
X22657500Y-87767500D01*
X24657500Y-91627500D02*
X22657500Y-91627500D01*
X24657500Y-91627500D02*
X24657500Y-87767500D01*
%TO.C,D8*%
X116723404Y-106748032D02*
X117525941Y-102972382D01*
X118679697Y-107163855D02*
X116723404Y-106748032D01*
X118679697Y-107163855D02*
X119482236Y-103388205D01*
%TO.C,D5*%
X60822269Y-94865879D02*
X61624806Y-91090229D01*
X62778562Y-95281702D02*
X60822269Y-94865879D01*
X62778562Y-95281702D02*
X63581101Y-91506052D01*
%TO.C,D46*%
X303645000Y-110677500D02*
X303645000Y-106817500D01*
X305645000Y-110677500D02*
X303645000Y-110677500D01*
X305645000Y-110677500D02*
X305645000Y-106817500D01*
%TO.C,D49*%
X215431855Y-137315197D02*
X214629316Y-133539547D01*
X217388148Y-136899374D02*
X215431855Y-137315197D01*
X217388148Y-136899374D02*
X216585611Y-133123724D01*
%TO.C,D26*%
X73163941Y-155915948D02*
X73966478Y-152140298D01*
X75120234Y-156331771D02*
X73163941Y-155915948D01*
X75120234Y-156331771D02*
X75922773Y-152556121D01*
%TO.C,D37*%
X271260000Y-89722500D02*
X271260000Y-85862500D01*
X273260000Y-89722500D02*
X271260000Y-89722500D01*
X273260000Y-89722500D02*
X273260000Y-85862500D01*
%TO.C,D22*%
X105075227Y-143223312D02*
X105877764Y-139447662D01*
X107031520Y-143639135D02*
X105075227Y-143223312D01*
X107031520Y-143639135D02*
X107834059Y-139863485D01*
%TO.C,D21*%
X86441515Y-139262595D02*
X87244052Y-135486945D01*
X88397808Y-139678418D02*
X86441515Y-139262595D01*
X88397808Y-139678418D02*
X89200347Y-135902768D01*
%TO.C,D47*%
X325076250Y-110677500D02*
X325076250Y-106817500D01*
X327076250Y-110677500D02*
X325076250Y-110677500D01*
X327076250Y-110677500D02*
X327076250Y-106817500D01*
%TO.C,D2*%
X3607500Y-91627500D02*
X3607500Y-87767500D01*
X5607500Y-91627500D02*
X3607500Y-91627500D01*
X5607500Y-91627500D02*
X5607500Y-87767500D01*
%TO.C,D41*%
X208676081Y-119275593D02*
X207873542Y-115499943D01*
X210632374Y-118859770D02*
X208676081Y-119275593D01*
X210632374Y-118859770D02*
X209829837Y-115084120D01*
%TO.C,D23*%
X4083750Y-148777500D02*
X4083750Y-144917500D01*
X6083750Y-148777500D02*
X4083750Y-148777500D01*
X6083750Y-148777500D02*
X6083750Y-144917500D01*
%TO.C,D31*%
X81315136Y-177124126D02*
X82117673Y-173348476D01*
X83271429Y-177539949D02*
X81315136Y-177124126D01*
X83271429Y-177539949D02*
X84073968Y-173764299D01*
%TO.C,D42*%
X227309793Y-115314875D02*
X226507254Y-111539225D01*
X229266086Y-114899052D02*
X227309793Y-115314875D01*
X229266086Y-114899052D02*
X228463549Y-111123402D01*
%TO.C,D32*%
X111594918Y-183560292D02*
X112397455Y-179784642D01*
X113551211Y-183976115D02*
X111594918Y-183560292D01*
X113551211Y-183976115D02*
X114353750Y-180200465D01*
%TO.C,D62*%
X339840000Y-148777500D02*
X339840000Y-144917500D01*
X341840000Y-148777500D02*
X339840000Y-148777500D01*
X341840000Y-148777500D02*
X341840000Y-144917500D01*
%TO.C,D55*%
X192373691Y-161691950D02*
X191571152Y-157916300D01*
X194329984Y-161276127D02*
X192373691Y-161691950D01*
X194329984Y-161276127D02*
X193527447Y-157500477D01*
%TO.C,D45*%
X284595000Y-110677500D02*
X284595000Y-106817500D01*
X286595000Y-110677500D02*
X284595000Y-110677500D01*
X286595000Y-110677500D02*
X286595000Y-106817500D01*
%TO.C,D14*%
X84812119Y-119440668D02*
X85614656Y-115665018D01*
X86768412Y-119856491D02*
X84812119Y-119440668D01*
X86768412Y-119856491D02*
X87570951Y-116080841D01*
%TO.C,D30*%
X48508105Y-171124556D02*
X49310642Y-167348906D01*
X50464398Y-171540379D02*
X48508105Y-171124556D01*
X50464398Y-171540379D02*
X51266937Y-167764729D01*
%TO.C,D40*%
X190042369Y-123236311D02*
X189239830Y-119460661D01*
X191998662Y-122820488D02*
X190042369Y-123236311D01*
X191998662Y-122820488D02*
X191196125Y-119044838D01*
%TO.C,D59*%
X268402500Y-148777500D02*
X268402500Y-144917500D01*
X270402500Y-148777500D02*
X268402500Y-148777500D01*
X270402500Y-148777500D02*
X270402500Y-144917500D01*
%TO.C,D64*%
X250104366Y-169870284D02*
X249301827Y-166094634D01*
X252060659Y-169454461D02*
X250104366Y-169870284D01*
X252060659Y-169454461D02*
X251258122Y-165678811D01*
%TO.C,D20*%
X67807803Y-135301877D02*
X68610340Y-131526227D01*
X69764096Y-135717700D02*
X67807803Y-135301877D01*
X69764096Y-135717700D02*
X70566635Y-131942050D01*
%TO.C,D4*%
X41707500Y-89722500D02*
X41707500Y-85862500D01*
X43707500Y-89722500D02*
X41707500Y-89722500D01*
X43707500Y-89722500D02*
X43707500Y-85862500D01*
%TO.C,D24*%
X35040000Y-148777500D02*
X35040000Y-144917500D01*
X37040000Y-148777500D02*
X35040000Y-148777500D01*
X37040000Y-148777500D02*
X37040000Y-144917500D01*
%TO.C,D12*%
X47544695Y-111519232D02*
X48347232Y-107743582D01*
X49500988Y-111935055D02*
X47544695Y-111519232D01*
X49500988Y-111935055D02*
X50303527Y-108159405D01*
%TO.C,D10*%
X4560000Y-110677500D02*
X4560000Y-106817500D01*
X6560000Y-110677500D02*
X4560000Y-110677500D01*
X6560000Y-110677500D02*
X6560000Y-106817500D01*
%TO.C,D34*%
X214032219Y-98661522D02*
X213229680Y-94885872D01*
X215988512Y-98245699D02*
X214032219Y-98661522D01*
X215988512Y-98245699D02*
X215185975Y-94470049D01*
%TO.C,D58*%
X248274826Y-149809796D02*
X247472287Y-146034146D01*
X250231119Y-149393973D02*
X248274826Y-149809796D01*
X250231119Y-149393973D02*
X249428582Y-145618323D01*
%TO.C,D38*%
X290310000Y-91627500D02*
X290310000Y-87767500D01*
X292310000Y-91627500D02*
X290310000Y-91627500D01*
X292310000Y-91627500D02*
X292310000Y-87767500D01*
%TO.C,D39*%
X316503750Y-91627500D02*
X316503750Y-87767500D01*
X318503750Y-91627500D02*
X316503750Y-91627500D01*
X318503750Y-91627500D02*
X318503750Y-87767500D01*
%TO.C,D16*%
X-25920000Y-127822500D02*
X-25920000Y-123962500D01*
X-23920000Y-127822500D02*
X-25920000Y-127822500D01*
X-23920000Y-127822500D02*
X-23920000Y-123962500D01*
%TO.C,D44*%
X265545000Y-109725000D02*
X265545000Y-105865000D01*
X267545000Y-109725000D02*
X265545000Y-109725000D01*
X267545000Y-109725000D02*
X267545000Y-105865000D01*
%TO.C,D6*%
X79455981Y-98826597D02*
X80258518Y-95050947D01*
X81412274Y-99242420D02*
X79455981Y-98826597D01*
X81412274Y-99242420D02*
X82214813Y-95466770D01*
%TO.C,D65*%
X328886250Y-167827500D02*
X328886250Y-163967500D01*
X330886250Y-167827500D02*
X328886250Y-167827500D01*
X330886250Y-167827500D02*
X330886250Y-163967500D01*
%TO.C,D53*%
X293167500Y-129727500D02*
X293167500Y-125867500D01*
X295167500Y-129727500D02*
X293167500Y-129727500D01*
X295167500Y-129727500D02*
X295167500Y-125867500D01*
%TO.C,D9*%
X-22110000Y-108772500D02*
X-22110000Y-104912500D01*
X-20110000Y-108772500D02*
X-22110000Y-108772500D01*
X-20110000Y-108772500D02*
X-20110000Y-104912500D01*
%TO.C,D11*%
X28372500Y-110677500D02*
X28372500Y-106817500D01*
X30372500Y-110677500D02*
X28372500Y-110677500D01*
X30372500Y-110677500D02*
X30372500Y-106817500D01*
%TO.C,D18*%
X29325000Y-129727500D02*
X29325000Y-125867500D01*
X31325000Y-129727500D02*
X29325000Y-129727500D01*
X31325000Y-129727500D02*
X31325000Y-125867500D01*
%TD*%
M02*
