M48
; DRILL file KiCad 10.0.4 date 2026-07-12T21:05:38
; FORMAT={-:-/ absolute / metric / decimal}
; #@! TF.CreationDate,2026-07-12T21:05:38-04:00
; #@! TF.GenerationSoftware,Kicad,Pcbnew,10.0.4
; #@! TF.FileFunction,Plated,1,2,PTH
FMAT,2
METRIC
; #@! TA.AperFunction,Plated,PTH,ComponentDrill
T1C1.000
; #@! TA.AperFunction,Plated,PTH,ComponentDrill
T2C1.200
; #@! TA.AperFunction,Plated,PTH,ComponentDrill
T3C1.600
%
G90
G05
T1
X141.61Y-75.37
X141.61Y-77.91
X141.61Y-80.45
X141.61Y-82.99
X141.61Y-85.53
X141.61Y-88.07
X141.61Y-90.61
X141.61Y-93.15
X141.61Y-95.69
X141.61Y-98.23
X141.61Y-100.77
X141.61Y-103.31
X141.61Y-105.85
X141.61Y-108.39
X141.61Y-110.93
X141.61Y-113.47
X141.61Y-116.01
X141.61Y-118.55
X141.61Y-121.09
X141.61Y-123.63
X159.39Y-75.37
X159.39Y-77.91
X159.39Y-80.45
X159.39Y-82.99
X159.39Y-85.53
X159.39Y-88.07
X159.39Y-90.61
X159.39Y-93.15
X159.39Y-95.69
X159.39Y-98.23
X159.39Y-100.77
X159.39Y-103.31
X159.39Y-105.85
X159.39Y-108.39
X159.39Y-110.93
X159.39Y-113.47
X159.39Y-116.01
X159.39Y-118.55
X159.39Y-121.09
X159.39Y-123.63
T2
X-30.0Y-115.712
X-26.19Y-96.662
X-25.0Y-117.812
X-22.38Y-77.612
X-21.19Y-98.762
X-17.38Y-79.712
X-7.14Y-155.718
X-2.14Y-157.817
X-0.949Y-117.617
X-0.472Y-79.517
X0.004Y-136.667
X0.48Y-98.567
X4.051Y-119.718
X4.527Y-81.617
X5.004Y-138.767
X5.48Y-100.667
X18.578Y-79.517
X23.578Y-81.617
X24.293Y-98.567
X25.245Y-117.617
X29.293Y-100.667
X30.245Y-119.718
X30.96Y-136.667
X35.96Y-138.767
X37.627Y-77.612
X42.627Y-79.712
X46.072Y-98.826
X47.035Y-158.431
X47.701Y-118.648
X50.526Y-101.919
X51.489Y-161.525
X52.155Y-121.741
X53.057Y-139.262
X57.511Y-142.355
X59.349Y-82.172
X63.803Y-85.266
X64.705Y-102.786
X66.335Y-122.608
X69.159Y-105.88
X70.789Y-125.702
X71.691Y-143.222
X76.145Y-146.316
X77.983Y-86.133
X79.842Y-164.43
X82.437Y-89.227
X83.339Y-106.747
X84.296Y-167.524
X84.968Y-126.569
X87.793Y-109.841
X89.423Y-129.663
X90.325Y-147.183
X94.779Y-150.277
X96.617Y-90.094
X101.071Y-93.187
X101.973Y-110.708
X103.602Y-130.53
X106.427Y-113.801
X108.056Y-133.623
X108.958Y-151.144
X110.122Y-170.867
X113.412Y-154.237
X114.576Y-173.96
X115.25Y-94.054
X119.704Y-97.148
X183.534Y-112.239
X185.865Y-150.695
X188.861Y-113.254
X188.89Y-91.625
X190.289Y-130.279
X191.192Y-151.709
X194.217Y-92.64
X195.617Y-131.293
X202.167Y-108.279
X203.801Y-166.358
X204.499Y-146.734
X207.495Y-109.293
X207.524Y-87.664
X208.923Y-126.318
X209.128Y-167.373
X209.826Y-147.749
X212.851Y-88.679
X214.251Y-127.333
X220.801Y-104.318
X223.132Y-142.773
X226.128Y-105.332
X226.157Y-83.704
X227.557Y-122.357
X228.46Y-143.788
X231.485Y-84.718
X232.884Y-123.372
X239.435Y-100.357
X241.766Y-138.813
X243.596Y-158.873
X244.762Y-101.372
X244.791Y-79.743
X246.191Y-118.397
X247.094Y-139.827
X248.923Y-159.888
X250.118Y-80.758
X251.518Y-119.411
X261.465Y-97.615
X264.322Y-136.667
X266.465Y-99.715
X267.18Y-77.612
X269.322Y-138.767
X270.037Y-117.617
X272.18Y-79.712
X275.037Y-119.718
X280.515Y-98.567
X283.373Y-136.667
X285.515Y-100.667
X286.23Y-79.517
X288.373Y-138.767
X289.087Y-117.617
X291.23Y-81.617
X294.087Y-119.718
X299.565Y-98.567
X304.565Y-100.667
X307.185Y-136.667
X312.185Y-138.767
X312.424Y-79.517
X317.424Y-81.617
X317.662Y-117.617
X320.996Y-98.567
X322.662Y-119.718
X324.806Y-155.718
X325.996Y-100.667
X329.806Y-157.817
X335.76Y-136.667
X340.76Y-138.767
T3
X-35.0Y-126.762
X-31.19Y-107.712
X-27.38Y-88.662
X-12.14Y-166.767
X-5.949Y-128.667
X-5.473Y-90.567
X-4.996Y-147.718
X-4.52Y-109.617
X13.577Y-90.567
X19.293Y-109.617
X20.245Y-128.667
X25.96Y-147.718
X32.627Y-88.662
X38.883Y-108.595
X39.847Y-168.2
X40.513Y-128.416
X45.869Y-149.031
X52.161Y-91.941
X57.517Y-112.555
X59.147Y-132.377
X64.503Y-152.991
X70.795Y-95.902
X72.654Y-174.199
X76.151Y-116.516
X77.78Y-136.338
X83.136Y-156.952
X89.428Y-99.863
X94.785Y-120.477
X96.414Y-140.299
X101.77Y-160.913
X102.934Y-180.636
X108.062Y-103.823
X180.94Y-124.087
X183.272Y-162.543
X186.297Y-103.473
X187.696Y-142.127
X199.574Y-120.127
X201.208Y-178.206
X201.905Y-158.582
X204.93Y-99.513
X206.33Y-138.166
X218.208Y-116.166
X220.539Y-154.622
X223.564Y-95.552
X224.964Y-134.205
X236.842Y-112.205
X239.173Y-150.661
X241.002Y-170.721
X242.198Y-91.591
X243.597Y-130.245
X256.465Y-108.665
X259.322Y-147.718
X262.18Y-88.662
X265.037Y-128.667
X275.515Y-109.617
X278.373Y-147.718
X281.23Y-90.567
X284.087Y-128.667
X294.565Y-109.617
X302.185Y-147.718
X307.424Y-90.567
X312.662Y-128.667
X315.996Y-109.617
X319.806Y-166.767
X330.76Y-147.718
M30
