%TF.GenerationSoftware,KiCad,Pcbnew,10.0.4*%
%TF.CreationDate,2026-07-12T21:05:24-04:00*%
%TF.ProjectId,keyboard,6b657962-6f61-4726-942e-6b696361645f,rev?*%
%TF.SameCoordinates,Original*%
%TF.FileFunction,Legend,Top*%
%TF.FilePolarity,Positive*%
%FSLAX46Y46*%
G04 Gerber Fmt 4.6, Leading zero omitted, Abs format (unit mm)*
G04 Created by KiCad (PCBNEW 10.0.4) date 2026-07-12 21:05:24*
%MOMM*%
%LPD*%
G01*
G04 APERTURE LIST*
%ADD10C,0.150000*%
%ADD11C,0.120000*%
G04 APERTURE END LIST*
D10*
X206593357Y-124060374D02*
X206742993Y-124077251D01*
X206742993Y-124077251D02*
X206975885Y-124027748D01*
X206975885Y-124027748D02*
X207059141Y-123961369D01*
X207059141Y-123961369D02*
X207095819Y-123904890D01*
X207095819Y-123904890D02*
X207122597Y-123801832D01*
X207122597Y-123801832D02*
X207102795Y-123708675D01*
X207102795Y-123708675D02*
X207036416Y-123625419D01*
X207036416Y-123625419D02*
X206979937Y-123588741D01*
X206979937Y-123588741D02*
X206876879Y-123561964D01*
X206876879Y-123561964D02*
X206680665Y-123554988D01*
X206680665Y-123554988D02*
X206577608Y-123528210D01*
X206577608Y-123528210D02*
X206521129Y-123491532D01*
X206521129Y-123491532D02*
X206454749Y-123408276D01*
X206454749Y-123408276D02*
X206434948Y-123315119D01*
X206434948Y-123315119D02*
X206461725Y-123212062D01*
X206461725Y-123212062D02*
X206498403Y-123155583D01*
X206498403Y-123155583D02*
X206581659Y-123089203D01*
X206581659Y-123089203D02*
X206814552Y-123039700D01*
X206814552Y-123039700D02*
X206964188Y-123056577D01*
X207280336Y-122940695D02*
X207721140Y-123869339D01*
X207721140Y-123869339D02*
X207758946Y-123131060D01*
X207758946Y-123131060D02*
X208093768Y-123790135D01*
X208093768Y-123790135D02*
X208118749Y-122762485D01*
X208979886Y-122920224D02*
X209118494Y-123572323D01*
X208667789Y-122597099D02*
X208583405Y-123345279D01*
X208583405Y-123345279D02*
X209188925Y-123216572D01*
X209677435Y-123453516D02*
X209863749Y-123413914D01*
X209863749Y-123413914D02*
X209947006Y-123347534D01*
X209947006Y-123347534D02*
X209983684Y-123291055D01*
X209983684Y-123291055D02*
X210047139Y-123131519D01*
X210047139Y-123131519D02*
X210054115Y-122935304D01*
X210054115Y-122935304D02*
X209974911Y-122562677D01*
X209974911Y-122562677D02*
X209908531Y-122479420D01*
X209908531Y-122479420D02*
X209852052Y-122442742D01*
X209852052Y-122442742D02*
X209748995Y-122415965D01*
X209748995Y-122415965D02*
X209562681Y-122455567D01*
X209562681Y-122455567D02*
X209479424Y-122521947D01*
X209479424Y-122521947D02*
X209442746Y-122578426D01*
X209442746Y-122578426D02*
X209415969Y-122681483D01*
X209415969Y-122681483D02*
X209465472Y-122914376D01*
X209465472Y-122914376D02*
X209531851Y-122997632D01*
X209531851Y-122997632D02*
X209588330Y-123034310D01*
X209588330Y-123034310D02*
X209691388Y-123061087D01*
X209691388Y-123061087D02*
X209877702Y-123021485D01*
X209877702Y-123021485D02*
X209960958Y-122955106D01*
X209960958Y-122955106D02*
X209997636Y-122898627D01*
X209997636Y-122898627D02*
X210024413Y-122795569D01*
X305375476Y-133974700D02*
X305518333Y-134022319D01*
X305518333Y-134022319D02*
X305756428Y-134022319D01*
X305756428Y-134022319D02*
X305851666Y-133974700D01*
X305851666Y-133974700D02*
X305899285Y-133927080D01*
X305899285Y-133927080D02*
X305946904Y-133831842D01*
X305946904Y-133831842D02*
X305946904Y-133736604D01*
X305946904Y-133736604D02*
X305899285Y-133641366D01*
X305899285Y-133641366D02*
X305851666Y-133593747D01*
X305851666Y-133593747D02*
X305756428Y-133546128D01*
X305756428Y-133546128D02*
X305565952Y-133498509D01*
X305565952Y-133498509D02*
X305470714Y-133450890D01*
X305470714Y-133450890D02*
X305423095Y-133403271D01*
X305423095Y-133403271D02*
X305375476Y-133308033D01*
X305375476Y-133308033D02*
X305375476Y-133212795D01*
X305375476Y-133212795D02*
X305423095Y-133117557D01*
X305423095Y-133117557D02*
X305470714Y-133069938D01*
X305470714Y-133069938D02*
X305565952Y-133022319D01*
X305565952Y-133022319D02*
X305804047Y-133022319D01*
X305804047Y-133022319D02*
X305946904Y-133069938D01*
X306280238Y-133022319D02*
X306518333Y-134022319D01*
X306518333Y-134022319D02*
X306708809Y-133308033D01*
X306708809Y-133308033D02*
X306899285Y-134022319D01*
X306899285Y-134022319D02*
X307137381Y-133022319D01*
X307946904Y-133022319D02*
X307756428Y-133022319D01*
X307756428Y-133022319D02*
X307661190Y-133069938D01*
X307661190Y-133069938D02*
X307613571Y-133117557D01*
X307613571Y-133117557D02*
X307518333Y-133260414D01*
X307518333Y-133260414D02*
X307470714Y-133450890D01*
X307470714Y-133450890D02*
X307470714Y-133831842D01*
X307470714Y-133831842D02*
X307518333Y-133927080D01*
X307518333Y-133927080D02*
X307565952Y-133974700D01*
X307565952Y-133974700D02*
X307661190Y-134022319D01*
X307661190Y-134022319D02*
X307851666Y-134022319D01*
X307851666Y-134022319D02*
X307946904Y-133974700D01*
X307946904Y-133974700D02*
X307994523Y-133927080D01*
X307994523Y-133927080D02*
X308042142Y-133831842D01*
X308042142Y-133831842D02*
X308042142Y-133593747D01*
X308042142Y-133593747D02*
X307994523Y-133498509D01*
X307994523Y-133498509D02*
X307946904Y-133450890D01*
X307946904Y-133450890D02*
X307851666Y-133403271D01*
X307851666Y-133403271D02*
X307661190Y-133403271D01*
X307661190Y-133403271D02*
X307565952Y-133450890D01*
X307565952Y-133450890D02*
X307518333Y-133498509D01*
X307518333Y-133498509D02*
X307470714Y-133593747D01*
X308994523Y-134022319D02*
X308423095Y-134022319D01*
X308708809Y-134022319D02*
X308708809Y-133022319D01*
X308708809Y-133022319D02*
X308613571Y-133165176D01*
X308613571Y-133165176D02*
X308518333Y-133260414D01*
X308518333Y-133260414D02*
X308423095Y-133308033D01*
X45824953Y-155420732D02*
X45954788Y-155497012D01*
X45954788Y-155497012D02*
X46187681Y-155546515D01*
X46187681Y-155546515D02*
X46290738Y-155519738D01*
X46290738Y-155519738D02*
X46347217Y-155483060D01*
X46347217Y-155483060D02*
X46413597Y-155399803D01*
X46413597Y-155399803D02*
X46433398Y-155306646D01*
X46433398Y-155306646D02*
X46406620Y-155203589D01*
X46406620Y-155203589D02*
X46369943Y-155147110D01*
X46369943Y-155147110D02*
X46286686Y-155080730D01*
X46286686Y-155080730D02*
X46110273Y-154994550D01*
X46110273Y-154994550D02*
X46027017Y-154928170D01*
X46027017Y-154928170D02*
X45990339Y-154871691D01*
X45990339Y-154871691D02*
X45963561Y-154768634D01*
X45963561Y-154768634D02*
X45983362Y-154675477D01*
X45983362Y-154675477D02*
X46049742Y-154592220D01*
X46049742Y-154592220D02*
X46106221Y-154555542D01*
X46106221Y-154555542D02*
X46209278Y-154528765D01*
X46209278Y-154528765D02*
X46442171Y-154578268D01*
X46442171Y-154578268D02*
X46572006Y-154654548D01*
X46907955Y-154677273D02*
X46932936Y-155704924D01*
X46932936Y-155704924D02*
X47267758Y-155045849D01*
X47267758Y-155045849D02*
X47305564Y-155784128D01*
X47305564Y-155784128D02*
X47746368Y-154855484D01*
X48025838Y-154914887D02*
X48631358Y-155043594D01*
X48631358Y-155043594D02*
X48226104Y-155346918D01*
X48226104Y-155346918D02*
X48365840Y-155376619D01*
X48365840Y-155376619D02*
X48449096Y-155442999D01*
X48449096Y-155442999D02*
X48485774Y-155499478D01*
X48485774Y-155499478D02*
X48512551Y-155602536D01*
X48512551Y-155602536D02*
X48463049Y-155835428D01*
X48463049Y-155835428D02*
X48396669Y-155918684D01*
X48396669Y-155918684D02*
X48340190Y-155955362D01*
X48340190Y-155955362D02*
X48237133Y-155982139D01*
X48237133Y-155982139D02*
X47957662Y-155922736D01*
X47957662Y-155922736D02*
X47874406Y-155856357D01*
X47874406Y-155856357D02*
X47837728Y-155799878D01*
X49236878Y-155172301D02*
X49330035Y-155192102D01*
X49330035Y-155192102D02*
X49413291Y-155258482D01*
X49413291Y-155258482D02*
X49449969Y-155314961D01*
X49449969Y-155314961D02*
X49476747Y-155418018D01*
X49476747Y-155418018D02*
X49483723Y-155614233D01*
X49483723Y-155614233D02*
X49434220Y-155847125D01*
X49434220Y-155847125D02*
X49348039Y-156023538D01*
X49348039Y-156023538D02*
X49281660Y-156106795D01*
X49281660Y-156106795D02*
X49225181Y-156143473D01*
X49225181Y-156143473D02*
X49122123Y-156170250D01*
X49122123Y-156170250D02*
X49028966Y-156150449D01*
X49028966Y-156150449D02*
X48945710Y-156084069D01*
X48945710Y-156084069D02*
X48909032Y-156027590D01*
X48909032Y-156027590D02*
X48882255Y-155924533D01*
X48882255Y-155924533D02*
X48875279Y-155728318D01*
X48875279Y-155728318D02*
X48924781Y-155495426D01*
X48924781Y-155495426D02*
X49010962Y-155319013D01*
X49010962Y-155319013D02*
X49077342Y-155235757D01*
X49077342Y-155235757D02*
X49133821Y-155199079D01*
X49133821Y-155199079D02*
X49236878Y-155172301D01*
X107748213Y-148133559D02*
X107878048Y-148209839D01*
X107878048Y-148209839D02*
X108110941Y-148259342D01*
X108110941Y-148259342D02*
X108213998Y-148232565D01*
X108213998Y-148232565D02*
X108270477Y-148195887D01*
X108270477Y-148195887D02*
X108336857Y-148112630D01*
X108336857Y-148112630D02*
X108356658Y-148019473D01*
X108356658Y-148019473D02*
X108329880Y-147916416D01*
X108329880Y-147916416D02*
X108293203Y-147859937D01*
X108293203Y-147859937D02*
X108209946Y-147793557D01*
X108209946Y-147793557D02*
X108033533Y-147707377D01*
X108033533Y-147707377D02*
X107950277Y-147640997D01*
X107950277Y-147640997D02*
X107913599Y-147584518D01*
X107913599Y-147584518D02*
X107886821Y-147481461D01*
X107886821Y-147481461D02*
X107906622Y-147388304D01*
X107906622Y-147388304D02*
X107973002Y-147305047D01*
X107973002Y-147305047D02*
X108029481Y-147268369D01*
X108029481Y-147268369D02*
X108132538Y-147241592D01*
X108132538Y-147241592D02*
X108365431Y-147291095D01*
X108365431Y-147291095D02*
X108495266Y-147367375D01*
X108831215Y-147390100D02*
X108856196Y-148417751D01*
X108856196Y-148417751D02*
X109191018Y-147758676D01*
X109191018Y-147758676D02*
X109228824Y-148496955D01*
X109228824Y-148496955D02*
X109669628Y-147568311D01*
X109975876Y-147730771D02*
X110032355Y-147694093D01*
X110032355Y-147694093D02*
X110135412Y-147667316D01*
X110135412Y-147667316D02*
X110368304Y-147716819D01*
X110368304Y-147716819D02*
X110451561Y-147783198D01*
X110451561Y-147783198D02*
X110488239Y-147839677D01*
X110488239Y-147839677D02*
X110515016Y-147942735D01*
X110515016Y-147942735D02*
X110495215Y-148035892D01*
X110495215Y-148035892D02*
X110418935Y-148165727D01*
X110418935Y-148165727D02*
X109741186Y-148605861D01*
X109741186Y-148605861D02*
X110346706Y-148734569D01*
X111024455Y-148294434D02*
X110941198Y-148228054D01*
X110941198Y-148228054D02*
X110904520Y-148171575D01*
X110904520Y-148171575D02*
X110877743Y-148068518D01*
X110877743Y-148068518D02*
X110887644Y-148021939D01*
X110887644Y-148021939D02*
X110954023Y-147938683D01*
X110954023Y-147938683D02*
X111010502Y-147902005D01*
X111010502Y-147902005D02*
X111113560Y-147875228D01*
X111113560Y-147875228D02*
X111299873Y-147914830D01*
X111299873Y-147914830D02*
X111383130Y-147981210D01*
X111383130Y-147981210D02*
X111419808Y-148037689D01*
X111419808Y-148037689D02*
X111446585Y-148140746D01*
X111446585Y-148140746D02*
X111436685Y-148187324D01*
X111436685Y-148187324D02*
X111370305Y-148270581D01*
X111370305Y-148270581D02*
X111313826Y-148307259D01*
X111313826Y-148307259D02*
X111210768Y-148334036D01*
X111210768Y-148334036D02*
X111024455Y-148294434D01*
X111024455Y-148294434D02*
X110921397Y-148321211D01*
X110921397Y-148321211D02*
X110864918Y-148357889D01*
X110864918Y-148357889D02*
X110798539Y-148441145D01*
X110798539Y-148441145D02*
X110758936Y-148627459D01*
X110758936Y-148627459D02*
X110785714Y-148730517D01*
X110785714Y-148730517D02*
X110822392Y-148786996D01*
X110822392Y-148786996D02*
X110905648Y-148853375D01*
X110905648Y-148853375D02*
X111091962Y-148892978D01*
X111091962Y-148892978D02*
X111195019Y-148866200D01*
X111195019Y-148866200D02*
X111251498Y-148829522D01*
X111251498Y-148829522D02*
X111317878Y-148746266D01*
X111317878Y-148746266D02*
X111357480Y-148559952D01*
X111357480Y-148559952D02*
X111330703Y-148456895D01*
X111330703Y-148456895D02*
X111294025Y-148400416D01*
X111294025Y-148400416D02*
X111210768Y-148334036D01*
X17244167Y-76824700D02*
X17387024Y-76872319D01*
X17387024Y-76872319D02*
X17625119Y-76872319D01*
X17625119Y-76872319D02*
X17720357Y-76824700D01*
X17720357Y-76824700D02*
X17767976Y-76777080D01*
X17767976Y-76777080D02*
X17815595Y-76681842D01*
X17815595Y-76681842D02*
X17815595Y-76586604D01*
X17815595Y-76586604D02*
X17767976Y-76491366D01*
X17767976Y-76491366D02*
X17720357Y-76443747D01*
X17720357Y-76443747D02*
X17625119Y-76396128D01*
X17625119Y-76396128D02*
X17434643Y-76348509D01*
X17434643Y-76348509D02*
X17339405Y-76300890D01*
X17339405Y-76300890D02*
X17291786Y-76253271D01*
X17291786Y-76253271D02*
X17244167Y-76158033D01*
X17244167Y-76158033D02*
X17244167Y-76062795D01*
X17244167Y-76062795D02*
X17291786Y-75967557D01*
X17291786Y-75967557D02*
X17339405Y-75919938D01*
X17339405Y-75919938D02*
X17434643Y-75872319D01*
X17434643Y-75872319D02*
X17672738Y-75872319D01*
X17672738Y-75872319D02*
X17815595Y-75919938D01*
X18148929Y-75872319D02*
X18387024Y-76872319D01*
X18387024Y-76872319D02*
X18577500Y-76158033D01*
X18577500Y-76158033D02*
X18767976Y-76872319D01*
X18767976Y-76872319D02*
X19006072Y-75872319D01*
X19291786Y-75872319D02*
X19910833Y-75872319D01*
X19910833Y-75872319D02*
X19577500Y-76253271D01*
X19577500Y-76253271D02*
X19720357Y-76253271D01*
X19720357Y-76253271D02*
X19815595Y-76300890D01*
X19815595Y-76300890D02*
X19863214Y-76348509D01*
X19863214Y-76348509D02*
X19910833Y-76443747D01*
X19910833Y-76443747D02*
X19910833Y-76681842D01*
X19910833Y-76681842D02*
X19863214Y-76777080D01*
X19863214Y-76777080D02*
X19815595Y-76824700D01*
X19815595Y-76824700D02*
X19720357Y-76872319D01*
X19720357Y-76872319D02*
X19434643Y-76872319D01*
X19434643Y-76872319D02*
X19339405Y-76824700D01*
X19339405Y-76824700D02*
X19291786Y-76777080D01*
X58604903Y-79261061D02*
X58734737Y-79337341D01*
X58734737Y-79337341D02*
X58967630Y-79386844D01*
X58967630Y-79386844D02*
X59070687Y-79360066D01*
X59070687Y-79360066D02*
X59127166Y-79323388D01*
X59127166Y-79323388D02*
X59193546Y-79240132D01*
X59193546Y-79240132D02*
X59213347Y-79146975D01*
X59213347Y-79146975D02*
X59186569Y-79043918D01*
X59186569Y-79043918D02*
X59149892Y-78987439D01*
X59149892Y-78987439D02*
X59066635Y-78921059D01*
X59066635Y-78921059D02*
X58890222Y-78834878D01*
X58890222Y-78834878D02*
X58806966Y-78768499D01*
X58806966Y-78768499D02*
X58770288Y-78712020D01*
X58770288Y-78712020D02*
X58743510Y-78608962D01*
X58743510Y-78608962D02*
X58763311Y-78515805D01*
X58763311Y-78515805D02*
X58829691Y-78432549D01*
X58829691Y-78432549D02*
X58886170Y-78395871D01*
X58886170Y-78395871D02*
X58989228Y-78369094D01*
X58989228Y-78369094D02*
X59222120Y-78418597D01*
X59222120Y-78418597D02*
X59351955Y-78494877D01*
X59687904Y-78517602D02*
X59712885Y-79545253D01*
X59712885Y-79545253D02*
X60047707Y-78886178D01*
X60047707Y-78886178D02*
X60085513Y-79624457D01*
X60085513Y-79624457D02*
X60526317Y-78695812D01*
X61364729Y-78874022D02*
X60898944Y-78775017D01*
X60898944Y-78775017D02*
X60753360Y-79230901D01*
X60753360Y-79230901D02*
X60809839Y-79194223D01*
X60809839Y-79194223D02*
X60912897Y-79167445D01*
X60912897Y-79167445D02*
X61145789Y-79216948D01*
X61145789Y-79216948D02*
X61229045Y-79283328D01*
X61229045Y-79283328D02*
X61265723Y-79339807D01*
X61265723Y-79339807D02*
X61292501Y-79442864D01*
X61292501Y-79442864D02*
X61242998Y-79675757D01*
X61242998Y-79675757D02*
X61176618Y-79759013D01*
X61176618Y-79759013D02*
X61120139Y-79795691D01*
X61120139Y-79795691D02*
X61017082Y-79822468D01*
X61017082Y-79822468D02*
X60784189Y-79772965D01*
X60784189Y-79772965D02*
X60700933Y-79706586D01*
X60700933Y-79706586D02*
X60664255Y-79650107D01*
X187959646Y-128021092D02*
X188109282Y-128037969D01*
X188109282Y-128037969D02*
X188342174Y-127988466D01*
X188342174Y-127988466D02*
X188425430Y-127922087D01*
X188425430Y-127922087D02*
X188462108Y-127865608D01*
X188462108Y-127865608D02*
X188488886Y-127762550D01*
X188488886Y-127762550D02*
X188469084Y-127669393D01*
X188469084Y-127669393D02*
X188402705Y-127586137D01*
X188402705Y-127586137D02*
X188346226Y-127549459D01*
X188346226Y-127549459D02*
X188243168Y-127522682D01*
X188243168Y-127522682D02*
X188046954Y-127515706D01*
X188046954Y-127515706D02*
X187943897Y-127488928D01*
X187943897Y-127488928D02*
X187887418Y-127452250D01*
X187887418Y-127452250D02*
X187821038Y-127368994D01*
X187821038Y-127368994D02*
X187801237Y-127275837D01*
X187801237Y-127275837D02*
X187828014Y-127172780D01*
X187828014Y-127172780D02*
X187864692Y-127116301D01*
X187864692Y-127116301D02*
X187947948Y-127049921D01*
X187947948Y-127049921D02*
X188180841Y-127000418D01*
X188180841Y-127000418D02*
X188330477Y-127017295D01*
X188646625Y-126901413D02*
X189087429Y-127830057D01*
X189087429Y-127830057D02*
X189125235Y-127091778D01*
X189125235Y-127091778D02*
X189460057Y-127750853D01*
X189460057Y-127750853D02*
X189485038Y-126723203D01*
X190346175Y-126880942D02*
X190484783Y-127533041D01*
X190034078Y-126557817D02*
X189949694Y-127305997D01*
X189949694Y-127305997D02*
X190555214Y-127177290D01*
X191018075Y-126835491D02*
X190915017Y-126808714D01*
X190915017Y-126808714D02*
X190858538Y-126772036D01*
X190858538Y-126772036D02*
X190792159Y-126688780D01*
X190792159Y-126688780D02*
X190782258Y-126642201D01*
X190782258Y-126642201D02*
X190809035Y-126539144D01*
X190809035Y-126539144D02*
X190845713Y-126482665D01*
X190845713Y-126482665D02*
X190928970Y-126416285D01*
X190928970Y-126416285D02*
X191115284Y-126376683D01*
X191115284Y-126376683D02*
X191218341Y-126403460D01*
X191218341Y-126403460D02*
X191274820Y-126440138D01*
X191274820Y-126440138D02*
X191341200Y-126523395D01*
X191341200Y-126523395D02*
X191351100Y-126569973D01*
X191351100Y-126569973D02*
X191324323Y-126673031D01*
X191324323Y-126673031D02*
X191287645Y-126729510D01*
X191287645Y-126729510D02*
X191204389Y-126795889D01*
X191204389Y-126795889D02*
X191018075Y-126835491D01*
X191018075Y-126835491D02*
X190934818Y-126901871D01*
X190934818Y-126901871D02*
X190898140Y-126958350D01*
X190898140Y-126958350D02*
X190871363Y-127061408D01*
X190871363Y-127061408D02*
X190910965Y-127247721D01*
X190910965Y-127247721D02*
X190977345Y-127330978D01*
X190977345Y-127330978D02*
X191033824Y-127367656D01*
X191033824Y-127367656D02*
X191136881Y-127394433D01*
X191136881Y-127394433D02*
X191323195Y-127354831D01*
X191323195Y-127354831D02*
X191406452Y-127288451D01*
X191406452Y-127288451D02*
X191443129Y-127231972D01*
X191443129Y-127231972D02*
X191469907Y-127128915D01*
X191469907Y-127128915D02*
X191430305Y-126942601D01*
X191430305Y-126942601D02*
X191363925Y-126859345D01*
X191363925Y-126859345D02*
X191307446Y-126822667D01*
X191307446Y-126822667D02*
X191204389Y-126795889D01*
X319186726Y-95874700D02*
X319329583Y-95922319D01*
X319329583Y-95922319D02*
X319567678Y-95922319D01*
X319567678Y-95922319D02*
X319662916Y-95874700D01*
X319662916Y-95874700D02*
X319710535Y-95827080D01*
X319710535Y-95827080D02*
X319758154Y-95731842D01*
X319758154Y-95731842D02*
X319758154Y-95636604D01*
X319758154Y-95636604D02*
X319710535Y-95541366D01*
X319710535Y-95541366D02*
X319662916Y-95493747D01*
X319662916Y-95493747D02*
X319567678Y-95446128D01*
X319567678Y-95446128D02*
X319377202Y-95398509D01*
X319377202Y-95398509D02*
X319281964Y-95350890D01*
X319281964Y-95350890D02*
X319234345Y-95303271D01*
X319234345Y-95303271D02*
X319186726Y-95208033D01*
X319186726Y-95208033D02*
X319186726Y-95112795D01*
X319186726Y-95112795D02*
X319234345Y-95017557D01*
X319234345Y-95017557D02*
X319281964Y-94969938D01*
X319281964Y-94969938D02*
X319377202Y-94922319D01*
X319377202Y-94922319D02*
X319615297Y-94922319D01*
X319615297Y-94922319D02*
X319758154Y-94969938D01*
X320091488Y-94922319D02*
X320329583Y-95922319D01*
X320329583Y-95922319D02*
X320520059Y-95208033D01*
X320520059Y-95208033D02*
X320710535Y-95922319D01*
X320710535Y-95922319D02*
X320948631Y-94922319D01*
X321758154Y-95255652D02*
X321758154Y-95922319D01*
X321520059Y-94874700D02*
X321281964Y-95588985D01*
X321281964Y-95588985D02*
X321901011Y-95588985D01*
X322186726Y-94922319D02*
X322853392Y-94922319D01*
X322853392Y-94922319D02*
X322424821Y-95922319D01*
X201471195Y-164100300D02*
X201620831Y-164117177D01*
X201620831Y-164117177D02*
X201853723Y-164067674D01*
X201853723Y-164067674D02*
X201936979Y-164001295D01*
X201936979Y-164001295D02*
X201973657Y-163944816D01*
X201973657Y-163944816D02*
X202000435Y-163841758D01*
X202000435Y-163841758D02*
X201980633Y-163748601D01*
X201980633Y-163748601D02*
X201914254Y-163665345D01*
X201914254Y-163665345D02*
X201857775Y-163628667D01*
X201857775Y-163628667D02*
X201754717Y-163601890D01*
X201754717Y-163601890D02*
X201558503Y-163594914D01*
X201558503Y-163594914D02*
X201455446Y-163568136D01*
X201455446Y-163568136D02*
X201398967Y-163531458D01*
X201398967Y-163531458D02*
X201332587Y-163448202D01*
X201332587Y-163448202D02*
X201312786Y-163355045D01*
X201312786Y-163355045D02*
X201339563Y-163251988D01*
X201339563Y-163251988D02*
X201376241Y-163195509D01*
X201376241Y-163195509D02*
X201459497Y-163129129D01*
X201459497Y-163129129D02*
X201692390Y-163079626D01*
X201692390Y-163079626D02*
X201842026Y-163096503D01*
X202158174Y-162980621D02*
X202598978Y-163909265D01*
X202598978Y-163909265D02*
X202636784Y-163170986D01*
X202636784Y-163170986D02*
X202971606Y-163830061D01*
X202971606Y-163830061D02*
X202996587Y-162802411D01*
X203788420Y-162634101D02*
X203602106Y-162673703D01*
X203602106Y-162673703D02*
X203518850Y-162740083D01*
X203518850Y-162740083D02*
X203482172Y-162796562D01*
X203482172Y-162796562D02*
X203418717Y-162956098D01*
X203418717Y-162956098D02*
X203411741Y-163152313D01*
X203411741Y-163152313D02*
X203490945Y-163524941D01*
X203490945Y-163524941D02*
X203557325Y-163608197D01*
X203557325Y-163608197D02*
X203613804Y-163644875D01*
X203613804Y-163644875D02*
X203716861Y-163671652D01*
X203716861Y-163671652D02*
X203903175Y-163632050D01*
X203903175Y-163632050D02*
X203986431Y-163565670D01*
X203986431Y-163565670D02*
X204023109Y-163509191D01*
X204023109Y-163509191D02*
X204049887Y-163406134D01*
X204049887Y-163406134D02*
X204000384Y-163173242D01*
X204000384Y-163173242D02*
X203934004Y-163089985D01*
X203934004Y-163089985D02*
X203877525Y-163053307D01*
X203877525Y-163053307D02*
X203774468Y-163026530D01*
X203774468Y-163026530D02*
X203588154Y-163066132D01*
X203588154Y-163066132D02*
X203504898Y-163132512D01*
X203504898Y-163132512D02*
X203468220Y-163188991D01*
X203468220Y-163188991D02*
X203441442Y-163292048D01*
X204207626Y-162544996D02*
X204813146Y-162416289D01*
X204813146Y-162416289D02*
X204566302Y-162858220D01*
X204566302Y-162858220D02*
X204706037Y-162828519D01*
X204706037Y-162828519D02*
X204809094Y-162855296D01*
X204809094Y-162855296D02*
X204865573Y-162891974D01*
X204865573Y-162891974D02*
X204931953Y-162975230D01*
X204931953Y-162975230D02*
X204981456Y-163208123D01*
X204981456Y-163208123D02*
X204954678Y-163311180D01*
X204954678Y-163311180D02*
X204918001Y-163367659D01*
X204918001Y-163367659D02*
X204834744Y-163434039D01*
X204834744Y-163434039D02*
X204555273Y-163493442D01*
X204555273Y-163493442D02*
X204452216Y-163466665D01*
X204452216Y-163466665D02*
X204395737Y-163429987D01*
X-27523332Y-93969700D02*
X-27380475Y-94017319D01*
X-27380475Y-94017319D02*
X-27142380Y-94017319D01*
X-27142380Y-94017319D02*
X-27047142Y-93969700D01*
X-27047142Y-93969700D02*
X-26999523Y-93922080D01*
X-26999523Y-93922080D02*
X-26951904Y-93826842D01*
X-26951904Y-93826842D02*
X-26951904Y-93731604D01*
X-26951904Y-93731604D02*
X-26999523Y-93636366D01*
X-26999523Y-93636366D02*
X-27047142Y-93588747D01*
X-27047142Y-93588747D02*
X-27142380Y-93541128D01*
X-27142380Y-93541128D02*
X-27332856Y-93493509D01*
X-27332856Y-93493509D02*
X-27428094Y-93445890D01*
X-27428094Y-93445890D02*
X-27475713Y-93398271D01*
X-27475713Y-93398271D02*
X-27523332Y-93303033D01*
X-27523332Y-93303033D02*
X-27523332Y-93207795D01*
X-27523332Y-93207795D02*
X-27475713Y-93112557D01*
X-27475713Y-93112557D02*
X-27428094Y-93064938D01*
X-27428094Y-93064938D02*
X-27332856Y-93017319D01*
X-27332856Y-93017319D02*
X-27094761Y-93017319D01*
X-27094761Y-93017319D02*
X-26951904Y-93064938D01*
X-26618570Y-93017319D02*
X-26380475Y-94017319D01*
X-26380475Y-94017319D02*
X-26189999Y-93303033D01*
X-26189999Y-93303033D02*
X-25999523Y-94017319D01*
X-25999523Y-94017319D02*
X-25761428Y-93017319D01*
X-25332856Y-94017319D02*
X-25142380Y-94017319D01*
X-25142380Y-94017319D02*
X-25047142Y-93969700D01*
X-25047142Y-93969700D02*
X-24999523Y-93922080D01*
X-24999523Y-93922080D02*
X-24904285Y-93779223D01*
X-24904285Y-93779223D02*
X-24856666Y-93588747D01*
X-24856666Y-93588747D02*
X-24856666Y-93207795D01*
X-24856666Y-93207795D02*
X-24904285Y-93112557D01*
X-24904285Y-93112557D02*
X-24951904Y-93064938D01*
X-24951904Y-93064938D02*
X-25047142Y-93017319D01*
X-25047142Y-93017319D02*
X-25237618Y-93017319D01*
X-25237618Y-93017319D02*
X-25332856Y-93064938D01*
X-25332856Y-93064938D02*
X-25380475Y-93112557D01*
X-25380475Y-93112557D02*
X-25428094Y-93207795D01*
X-25428094Y-93207795D02*
X-25428094Y-93445890D01*
X-25428094Y-93445890D02*
X-25380475Y-93541128D01*
X-25380475Y-93541128D02*
X-25332856Y-93588747D01*
X-25332856Y-93588747D02*
X-25237618Y-93636366D01*
X-25237618Y-93636366D02*
X-25047142Y-93636366D01*
X-25047142Y-93636366D02*
X-24951904Y-93588747D01*
X-24951904Y-93588747D02*
X-24904285Y-93541128D01*
X-24904285Y-93541128D02*
X-24856666Y-93445890D01*
X265370476Y-74919700D02*
X265513333Y-74967319D01*
X265513333Y-74967319D02*
X265751428Y-74967319D01*
X265751428Y-74967319D02*
X265846666Y-74919700D01*
X265846666Y-74919700D02*
X265894285Y-74872080D01*
X265894285Y-74872080D02*
X265941904Y-74776842D01*
X265941904Y-74776842D02*
X265941904Y-74681604D01*
X265941904Y-74681604D02*
X265894285Y-74586366D01*
X265894285Y-74586366D02*
X265846666Y-74538747D01*
X265846666Y-74538747D02*
X265751428Y-74491128D01*
X265751428Y-74491128D02*
X265560952Y-74443509D01*
X265560952Y-74443509D02*
X265465714Y-74395890D01*
X265465714Y-74395890D02*
X265418095Y-74348271D01*
X265418095Y-74348271D02*
X265370476Y-74253033D01*
X265370476Y-74253033D02*
X265370476Y-74157795D01*
X265370476Y-74157795D02*
X265418095Y-74062557D01*
X265418095Y-74062557D02*
X265465714Y-74014938D01*
X265465714Y-74014938D02*
X265560952Y-73967319D01*
X265560952Y-73967319D02*
X265799047Y-73967319D01*
X265799047Y-73967319D02*
X265941904Y-74014938D01*
X266275238Y-73967319D02*
X266513333Y-74967319D01*
X266513333Y-74967319D02*
X266703809Y-74253033D01*
X266703809Y-74253033D02*
X266894285Y-74967319D01*
X266894285Y-74967319D02*
X267132381Y-73967319D01*
X267418095Y-73967319D02*
X268037142Y-73967319D01*
X268037142Y-73967319D02*
X267703809Y-74348271D01*
X267703809Y-74348271D02*
X267846666Y-74348271D01*
X267846666Y-74348271D02*
X267941904Y-74395890D01*
X267941904Y-74395890D02*
X267989523Y-74443509D01*
X267989523Y-74443509D02*
X268037142Y-74538747D01*
X268037142Y-74538747D02*
X268037142Y-74776842D01*
X268037142Y-74776842D02*
X267989523Y-74872080D01*
X267989523Y-74872080D02*
X267941904Y-74919700D01*
X267941904Y-74919700D02*
X267846666Y-74967319D01*
X267846666Y-74967319D02*
X267560952Y-74967319D01*
X267560952Y-74967319D02*
X267465714Y-74919700D01*
X267465714Y-74919700D02*
X267418095Y-74872080D01*
X268370476Y-73967319D02*
X269037142Y-73967319D01*
X269037142Y-73967319D02*
X268608571Y-74967319D01*
X70480789Y-140212124D02*
X70610624Y-140288404D01*
X70610624Y-140288404D02*
X70843517Y-140337907D01*
X70843517Y-140337907D02*
X70946574Y-140311130D01*
X70946574Y-140311130D02*
X71003053Y-140274452D01*
X71003053Y-140274452D02*
X71069433Y-140191195D01*
X71069433Y-140191195D02*
X71089234Y-140098038D01*
X71089234Y-140098038D02*
X71062456Y-139994981D01*
X71062456Y-139994981D02*
X71025779Y-139938502D01*
X71025779Y-139938502D02*
X70942522Y-139872122D01*
X70942522Y-139872122D02*
X70766109Y-139785942D01*
X70766109Y-139785942D02*
X70682853Y-139719562D01*
X70682853Y-139719562D02*
X70646175Y-139663083D01*
X70646175Y-139663083D02*
X70619397Y-139560026D01*
X70619397Y-139560026D02*
X70639198Y-139466869D01*
X70639198Y-139466869D02*
X70705578Y-139383612D01*
X70705578Y-139383612D02*
X70762057Y-139346934D01*
X70762057Y-139346934D02*
X70865114Y-139320157D01*
X70865114Y-139320157D02*
X71098007Y-139369660D01*
X71098007Y-139369660D02*
X71227842Y-139445940D01*
X71563791Y-139468665D02*
X71588772Y-140496316D01*
X71588772Y-140496316D02*
X71923594Y-139837241D01*
X71923594Y-139837241D02*
X71961400Y-140575520D01*
X71961400Y-140575520D02*
X72402204Y-139646876D01*
X72708452Y-139809336D02*
X72764931Y-139772658D01*
X72764931Y-139772658D02*
X72867988Y-139745881D01*
X72867988Y-139745881D02*
X73100880Y-139795384D01*
X73100880Y-139795384D02*
X73184137Y-139861763D01*
X73184137Y-139861763D02*
X73220815Y-139918242D01*
X73220815Y-139918242D02*
X73247592Y-140021300D01*
X73247592Y-140021300D02*
X73227791Y-140114457D01*
X73227791Y-140114457D02*
X73151511Y-140244292D01*
X73151511Y-140244292D02*
X72473762Y-140684426D01*
X72473762Y-140684426D02*
X73079282Y-140813134D01*
X74125606Y-140013196D02*
X73939293Y-139973594D01*
X73939293Y-139973594D02*
X73836235Y-140000371D01*
X73836235Y-140000371D02*
X73779756Y-140037049D01*
X73779756Y-140037049D02*
X73656898Y-140156983D01*
X73656898Y-140156983D02*
X73570717Y-140333397D01*
X73570717Y-140333397D02*
X73491512Y-140706024D01*
X73491512Y-140706024D02*
X73518290Y-140809082D01*
X73518290Y-140809082D02*
X73554968Y-140865561D01*
X73554968Y-140865561D02*
X73638224Y-140931940D01*
X73638224Y-140931940D02*
X73824538Y-140971543D01*
X73824538Y-140971543D02*
X73927595Y-140944765D01*
X73927595Y-140944765D02*
X73984074Y-140908087D01*
X73984074Y-140908087D02*
X74050454Y-140824831D01*
X74050454Y-140824831D02*
X74099957Y-140591939D01*
X74099957Y-140591939D02*
X74073179Y-140488881D01*
X74073179Y-140488881D02*
X74036501Y-140432402D01*
X74036501Y-140432402D02*
X73953245Y-140366023D01*
X73953245Y-140366023D02*
X73766931Y-140326420D01*
X73766931Y-140326420D02*
X73663874Y-140353198D01*
X73663874Y-140353198D02*
X73607395Y-140389876D01*
X73607395Y-140389876D02*
X73541015Y-140473132D01*
X237105007Y-98099335D02*
X237254643Y-98116212D01*
X237254643Y-98116212D02*
X237487535Y-98066709D01*
X237487535Y-98066709D02*
X237570791Y-98000330D01*
X237570791Y-98000330D02*
X237607469Y-97943851D01*
X237607469Y-97943851D02*
X237634247Y-97840793D01*
X237634247Y-97840793D02*
X237614445Y-97747636D01*
X237614445Y-97747636D02*
X237548066Y-97664380D01*
X237548066Y-97664380D02*
X237491587Y-97627702D01*
X237491587Y-97627702D02*
X237388529Y-97600925D01*
X237388529Y-97600925D02*
X237192315Y-97593949D01*
X237192315Y-97593949D02*
X237089258Y-97567171D01*
X237089258Y-97567171D02*
X237032779Y-97530493D01*
X237032779Y-97530493D02*
X236966399Y-97447237D01*
X236966399Y-97447237D02*
X236946598Y-97354080D01*
X236946598Y-97354080D02*
X236973375Y-97251023D01*
X236973375Y-97251023D02*
X237010053Y-97194544D01*
X237010053Y-97194544D02*
X237093309Y-97128164D01*
X237093309Y-97128164D02*
X237326202Y-97078661D01*
X237326202Y-97078661D02*
X237475838Y-97095538D01*
X237791986Y-96979656D02*
X238232790Y-97908300D01*
X238232790Y-97908300D02*
X238270596Y-97170021D01*
X238270596Y-97170021D02*
X238605418Y-97829096D01*
X238605418Y-97829096D02*
X238630399Y-96801446D01*
X239491536Y-96959185D02*
X239630144Y-97611284D01*
X239179439Y-96636060D02*
X239095055Y-97384240D01*
X239095055Y-97384240D02*
X239700575Y-97255533D01*
X239841438Y-96544031D02*
X240446958Y-96415324D01*
X240446958Y-96415324D02*
X240200114Y-96857255D01*
X240200114Y-96857255D02*
X240339849Y-96827554D01*
X240339849Y-96827554D02*
X240442906Y-96854331D01*
X240442906Y-96854331D02*
X240499385Y-96891009D01*
X240499385Y-96891009D02*
X240565765Y-96974265D01*
X240565765Y-96974265D02*
X240615268Y-97207158D01*
X240615268Y-97207158D02*
X240588490Y-97310215D01*
X240588490Y-97310215D02*
X240551813Y-97366694D01*
X240551813Y-97366694D02*
X240468556Y-97433074D01*
X240468556Y-97433074D02*
X240189085Y-97492477D01*
X240189085Y-97492477D02*
X240086028Y-97465700D01*
X240086028Y-97465700D02*
X240029549Y-97429022D01*
X36294167Y-74919700D02*
X36437024Y-74967319D01*
X36437024Y-74967319D02*
X36675119Y-74967319D01*
X36675119Y-74967319D02*
X36770357Y-74919700D01*
X36770357Y-74919700D02*
X36817976Y-74872080D01*
X36817976Y-74872080D02*
X36865595Y-74776842D01*
X36865595Y-74776842D02*
X36865595Y-74681604D01*
X36865595Y-74681604D02*
X36817976Y-74586366D01*
X36817976Y-74586366D02*
X36770357Y-74538747D01*
X36770357Y-74538747D02*
X36675119Y-74491128D01*
X36675119Y-74491128D02*
X36484643Y-74443509D01*
X36484643Y-74443509D02*
X36389405Y-74395890D01*
X36389405Y-74395890D02*
X36341786Y-74348271D01*
X36341786Y-74348271D02*
X36294167Y-74253033D01*
X36294167Y-74253033D02*
X36294167Y-74157795D01*
X36294167Y-74157795D02*
X36341786Y-74062557D01*
X36341786Y-74062557D02*
X36389405Y-74014938D01*
X36389405Y-74014938D02*
X36484643Y-73967319D01*
X36484643Y-73967319D02*
X36722738Y-73967319D01*
X36722738Y-73967319D02*
X36865595Y-74014938D01*
X37198929Y-73967319D02*
X37437024Y-74967319D01*
X37437024Y-74967319D02*
X37627500Y-74253033D01*
X37627500Y-74253033D02*
X37817976Y-74967319D01*
X37817976Y-74967319D02*
X38056072Y-73967319D01*
X38865595Y-74300652D02*
X38865595Y-74967319D01*
X38627500Y-73919700D02*
X38389405Y-74633985D01*
X38389405Y-74633985D02*
X39008452Y-74633985D01*
X100762679Y-107697561D02*
X100892514Y-107773841D01*
X100892514Y-107773841D02*
X101125407Y-107823344D01*
X101125407Y-107823344D02*
X101228464Y-107796567D01*
X101228464Y-107796567D02*
X101284943Y-107759889D01*
X101284943Y-107759889D02*
X101351323Y-107676632D01*
X101351323Y-107676632D02*
X101371124Y-107583475D01*
X101371124Y-107583475D02*
X101344346Y-107480418D01*
X101344346Y-107480418D02*
X101307669Y-107423939D01*
X101307669Y-107423939D02*
X101224412Y-107357559D01*
X101224412Y-107357559D02*
X101047999Y-107271379D01*
X101047999Y-107271379D02*
X100964743Y-107204999D01*
X100964743Y-107204999D02*
X100928065Y-107148520D01*
X100928065Y-107148520D02*
X100901287Y-107045463D01*
X100901287Y-107045463D02*
X100921088Y-106952306D01*
X100921088Y-106952306D02*
X100987468Y-106869049D01*
X100987468Y-106869049D02*
X101043947Y-106832371D01*
X101043947Y-106832371D02*
X101147004Y-106805594D01*
X101147004Y-106805594D02*
X101379897Y-106855097D01*
X101379897Y-106855097D02*
X101509732Y-106931377D01*
X101845681Y-106954102D02*
X101870662Y-107981753D01*
X101870662Y-107981753D02*
X102205484Y-107322678D01*
X102205484Y-107322678D02*
X102243290Y-108060957D01*
X102243290Y-108060957D02*
X102684094Y-107132313D01*
X103361172Y-108298571D02*
X102802231Y-108179764D01*
X103081702Y-108239167D02*
X103289613Y-107261020D01*
X103289613Y-107261020D02*
X103166755Y-107380954D01*
X103166755Y-107380954D02*
X103053797Y-107454310D01*
X103053797Y-107454310D02*
X102950739Y-107481087D01*
X104454075Y-107508534D02*
X103988290Y-107409528D01*
X103988290Y-107409528D02*
X103842706Y-107865412D01*
X103842706Y-107865412D02*
X103899185Y-107828734D01*
X103899185Y-107828734D02*
X104002243Y-107801957D01*
X104002243Y-107801957D02*
X104235135Y-107851460D01*
X104235135Y-107851460D02*
X104318391Y-107917839D01*
X104318391Y-107917839D02*
X104355069Y-107974318D01*
X104355069Y-107974318D02*
X104381847Y-108077376D01*
X104381847Y-108077376D02*
X104332344Y-108310268D01*
X104332344Y-108310268D02*
X104265964Y-108393524D01*
X104265964Y-108393524D02*
X104209485Y-108430202D01*
X104209485Y-108430202D02*
X104106428Y-108456980D01*
X104106428Y-108456980D02*
X103873536Y-108407477D01*
X103873536Y-108407477D02*
X103790279Y-108341097D01*
X103790279Y-108341097D02*
X103753601Y-108284618D01*
X181203871Y-109981488D02*
X181353507Y-109998365D01*
X181353507Y-109998365D02*
X181586399Y-109948862D01*
X181586399Y-109948862D02*
X181669655Y-109882483D01*
X181669655Y-109882483D02*
X181706333Y-109826004D01*
X181706333Y-109826004D02*
X181733111Y-109722946D01*
X181733111Y-109722946D02*
X181713309Y-109629789D01*
X181713309Y-109629789D02*
X181646930Y-109546533D01*
X181646930Y-109546533D02*
X181590451Y-109509855D01*
X181590451Y-109509855D02*
X181487393Y-109483078D01*
X181487393Y-109483078D02*
X181291179Y-109476102D01*
X181291179Y-109476102D02*
X181188122Y-109449324D01*
X181188122Y-109449324D02*
X181131643Y-109412646D01*
X181131643Y-109412646D02*
X181065263Y-109329390D01*
X181065263Y-109329390D02*
X181045462Y-109236233D01*
X181045462Y-109236233D02*
X181072239Y-109133176D01*
X181072239Y-109133176D02*
X181108917Y-109076697D01*
X181108917Y-109076697D02*
X181192173Y-109010317D01*
X181192173Y-109010317D02*
X181425066Y-108960814D01*
X181425066Y-108960814D02*
X181574702Y-108977691D01*
X181890850Y-108861809D02*
X182331654Y-109790453D01*
X182331654Y-109790453D02*
X182369460Y-109052174D01*
X182369460Y-109052174D02*
X182704282Y-109711249D01*
X182704282Y-109711249D02*
X182729263Y-108683599D01*
X183590400Y-108841338D02*
X183729008Y-109493437D01*
X183278303Y-108518213D02*
X183193919Y-109266393D01*
X183193919Y-109266393D02*
X183799439Y-109137686D01*
X184219773Y-108366781D02*
X184312930Y-108346980D01*
X184312930Y-108346980D02*
X184415988Y-108373757D01*
X184415988Y-108373757D02*
X184472467Y-108410435D01*
X184472467Y-108410435D02*
X184538846Y-108493691D01*
X184538846Y-108493691D02*
X184625027Y-108670105D01*
X184625027Y-108670105D02*
X184674530Y-108902997D01*
X184674530Y-108902997D02*
X184667553Y-109099211D01*
X184667553Y-109099211D02*
X184640776Y-109202269D01*
X184640776Y-109202269D02*
X184604098Y-109258748D01*
X184604098Y-109258748D02*
X184520842Y-109325127D01*
X184520842Y-109325127D02*
X184427685Y-109344928D01*
X184427685Y-109344928D02*
X184324627Y-109318151D01*
X184324627Y-109318151D02*
X184268148Y-109281473D01*
X184268148Y-109281473D02*
X184201769Y-109198217D01*
X184201769Y-109198217D02*
X184115588Y-109021804D01*
X184115588Y-109021804D02*
X184066085Y-108788911D01*
X184066085Y-108788911D02*
X184073062Y-108592697D01*
X184073062Y-108592697D02*
X184099839Y-108489639D01*
X184099839Y-108489639D02*
X184136517Y-108433160D01*
X184136517Y-108433160D02*
X184219773Y-108366781D01*
X-1805832Y-76824700D02*
X-1662975Y-76872319D01*
X-1662975Y-76872319D02*
X-1424880Y-76872319D01*
X-1424880Y-76872319D02*
X-1329642Y-76824700D01*
X-1329642Y-76824700D02*
X-1282023Y-76777080D01*
X-1282023Y-76777080D02*
X-1234404Y-76681842D01*
X-1234404Y-76681842D02*
X-1234404Y-76586604D01*
X-1234404Y-76586604D02*
X-1282023Y-76491366D01*
X-1282023Y-76491366D02*
X-1329642Y-76443747D01*
X-1329642Y-76443747D02*
X-1424880Y-76396128D01*
X-1424880Y-76396128D02*
X-1615356Y-76348509D01*
X-1615356Y-76348509D02*
X-1710594Y-76300890D01*
X-1710594Y-76300890D02*
X-1758213Y-76253271D01*
X-1758213Y-76253271D02*
X-1805832Y-76158033D01*
X-1805832Y-76158033D02*
X-1805832Y-76062795D01*
X-1805832Y-76062795D02*
X-1758213Y-75967557D01*
X-1758213Y-75967557D02*
X-1710594Y-75919938D01*
X-1710594Y-75919938D02*
X-1615356Y-75872319D01*
X-1615356Y-75872319D02*
X-1377261Y-75872319D01*
X-1377261Y-75872319D02*
X-1234404Y-75919938D01*
X-901070Y-75872319D02*
X-662975Y-76872319D01*
X-662975Y-76872319D02*
X-472499Y-76158033D01*
X-472499Y-76158033D02*
X-282023Y-76872319D01*
X-282023Y-76872319D02*
X-43928Y-75872319D01*
X289405Y-75967557D02*
X337024Y-75919938D01*
X337024Y-75919938D02*
X432262Y-75872319D01*
X432262Y-75872319D02*
X670357Y-75872319D01*
X670357Y-75872319D02*
X765595Y-75919938D01*
X765595Y-75919938D02*
X813214Y-75967557D01*
X813214Y-75967557D02*
X860833Y-76062795D01*
X860833Y-76062795D02*
X860833Y-76158033D01*
X860833Y-76158033D02*
X813214Y-76300890D01*
X813214Y-76300890D02*
X241786Y-76872319D01*
X241786Y-76872319D02*
X860833Y-76872319D01*
X108911766Y-167856468D02*
X109041601Y-167932748D01*
X109041601Y-167932748D02*
X109274494Y-167982251D01*
X109274494Y-167982251D02*
X109377551Y-167955474D01*
X109377551Y-167955474D02*
X109434030Y-167918796D01*
X109434030Y-167918796D02*
X109500410Y-167835539D01*
X109500410Y-167835539D02*
X109520211Y-167742382D01*
X109520211Y-167742382D02*
X109493433Y-167639325D01*
X109493433Y-167639325D02*
X109456756Y-167582846D01*
X109456756Y-167582846D02*
X109373499Y-167516466D01*
X109373499Y-167516466D02*
X109197086Y-167430286D01*
X109197086Y-167430286D02*
X109113830Y-167363906D01*
X109113830Y-167363906D02*
X109077152Y-167307427D01*
X109077152Y-167307427D02*
X109050374Y-167204370D01*
X109050374Y-167204370D02*
X109070175Y-167111213D01*
X109070175Y-167111213D02*
X109136555Y-167027956D01*
X109136555Y-167027956D02*
X109193034Y-166991278D01*
X109193034Y-166991278D02*
X109296091Y-166964501D01*
X109296091Y-166964501D02*
X109528984Y-167014004D01*
X109528984Y-167014004D02*
X109658819Y-167090284D01*
X109994768Y-167113009D02*
X110019749Y-168140660D01*
X110019749Y-168140660D02*
X110354571Y-167481585D01*
X110354571Y-167481585D02*
X110392377Y-168219864D01*
X110392377Y-168219864D02*
X110833181Y-167291220D01*
X111112651Y-167350623D02*
X111718171Y-167479330D01*
X111718171Y-167479330D02*
X111312917Y-167782654D01*
X111312917Y-167782654D02*
X111452653Y-167812355D01*
X111452653Y-167812355D02*
X111535909Y-167878735D01*
X111535909Y-167878735D02*
X111572587Y-167935214D01*
X111572587Y-167935214D02*
X111599364Y-168038272D01*
X111599364Y-168038272D02*
X111549862Y-168271164D01*
X111549862Y-168271164D02*
X111483482Y-168354420D01*
X111483482Y-168354420D02*
X111427003Y-168391098D01*
X111427003Y-168391098D02*
X111323946Y-168417875D01*
X111323946Y-168417875D02*
X111044475Y-168358472D01*
X111044475Y-168358472D02*
X110961219Y-168292093D01*
X110961219Y-168292093D02*
X110924541Y-168235614D01*
X112070998Y-167651691D02*
X112127477Y-167615014D01*
X112127477Y-167615014D02*
X112230534Y-167588236D01*
X112230534Y-167588236D02*
X112463426Y-167637739D01*
X112463426Y-167637739D02*
X112546683Y-167704119D01*
X112546683Y-167704119D02*
X112583361Y-167760598D01*
X112583361Y-167760598D02*
X112610138Y-167863655D01*
X112610138Y-167863655D02*
X112590337Y-167956812D01*
X112590337Y-167956812D02*
X112514057Y-168086647D01*
X112514057Y-168086647D02*
X111836309Y-168526782D01*
X111836309Y-168526782D02*
X112441829Y-168655489D01*
X77238615Y-83221779D02*
X77368449Y-83298059D01*
X77368449Y-83298059D02*
X77601342Y-83347562D01*
X77601342Y-83347562D02*
X77704399Y-83320784D01*
X77704399Y-83320784D02*
X77760878Y-83284106D01*
X77760878Y-83284106D02*
X77827258Y-83200850D01*
X77827258Y-83200850D02*
X77847059Y-83107693D01*
X77847059Y-83107693D02*
X77820281Y-83004636D01*
X77820281Y-83004636D02*
X77783604Y-82948157D01*
X77783604Y-82948157D02*
X77700347Y-82881777D01*
X77700347Y-82881777D02*
X77523934Y-82795596D01*
X77523934Y-82795596D02*
X77440678Y-82729217D01*
X77440678Y-82729217D02*
X77404000Y-82672738D01*
X77404000Y-82672738D02*
X77377222Y-82569680D01*
X77377222Y-82569680D02*
X77397023Y-82476523D01*
X77397023Y-82476523D02*
X77463403Y-82393267D01*
X77463403Y-82393267D02*
X77519882Y-82356589D01*
X77519882Y-82356589D02*
X77622940Y-82329812D01*
X77622940Y-82329812D02*
X77855832Y-82379315D01*
X77855832Y-82379315D02*
X77985667Y-82455595D01*
X78321616Y-82478320D02*
X78346597Y-83505971D01*
X78346597Y-83505971D02*
X78681419Y-82846896D01*
X78681419Y-82846896D02*
X78719225Y-83585175D01*
X78719225Y-83585175D02*
X79160029Y-82656530D01*
X79951862Y-82824840D02*
X79765548Y-82785237D01*
X79765548Y-82785237D02*
X79662491Y-82812015D01*
X79662491Y-82812015D02*
X79606012Y-82848693D01*
X79606012Y-82848693D02*
X79483153Y-82968627D01*
X79483153Y-82968627D02*
X79396973Y-83145040D01*
X79396973Y-83145040D02*
X79317768Y-83517668D01*
X79317768Y-83517668D02*
X79344546Y-83620725D01*
X79344546Y-83620725D02*
X79381224Y-83677204D01*
X79381224Y-83677204D02*
X79464480Y-83743584D01*
X79464480Y-83743584D02*
X79650794Y-83783186D01*
X79650794Y-83783186D02*
X79753851Y-83756409D01*
X79753851Y-83756409D02*
X79810330Y-83719731D01*
X79810330Y-83719731D02*
X79876710Y-83636475D01*
X79876710Y-83636475D02*
X79926213Y-83403582D01*
X79926213Y-83403582D02*
X79899435Y-83300525D01*
X79899435Y-83300525D02*
X79862757Y-83244046D01*
X79862757Y-83244046D02*
X79779501Y-83177666D01*
X79779501Y-83177666D02*
X79593187Y-83138064D01*
X79593187Y-83138064D02*
X79490130Y-83164841D01*
X79490130Y-83164841D02*
X79433651Y-83201519D01*
X79433651Y-83201519D02*
X79367271Y-83284776D01*
X223827433Y-81445982D02*
X223977069Y-81462859D01*
X223977069Y-81462859D02*
X224209961Y-81413356D01*
X224209961Y-81413356D02*
X224293217Y-81346977D01*
X224293217Y-81346977D02*
X224329895Y-81290498D01*
X224329895Y-81290498D02*
X224356673Y-81187440D01*
X224356673Y-81187440D02*
X224336871Y-81094283D01*
X224336871Y-81094283D02*
X224270492Y-81011027D01*
X224270492Y-81011027D02*
X224214013Y-80974349D01*
X224214013Y-80974349D02*
X224110955Y-80947572D01*
X224110955Y-80947572D02*
X223914741Y-80940596D01*
X223914741Y-80940596D02*
X223811684Y-80913818D01*
X223811684Y-80913818D02*
X223755205Y-80877140D01*
X223755205Y-80877140D02*
X223688825Y-80793884D01*
X223688825Y-80793884D02*
X223669024Y-80700727D01*
X223669024Y-80700727D02*
X223695801Y-80597670D01*
X223695801Y-80597670D02*
X223732479Y-80541191D01*
X223732479Y-80541191D02*
X223815735Y-80474811D01*
X223815735Y-80474811D02*
X224048628Y-80425308D01*
X224048628Y-80425308D02*
X224198264Y-80442185D01*
X224514412Y-80326303D02*
X224955216Y-81254947D01*
X224955216Y-81254947D02*
X224993022Y-80516668D01*
X224993022Y-80516668D02*
X225327844Y-81175743D01*
X225327844Y-81175743D02*
X225352825Y-80148093D01*
X225632295Y-80088689D02*
X226237815Y-79959982D01*
X226237815Y-79959982D02*
X225990970Y-80401914D01*
X225990970Y-80401914D02*
X226130706Y-80372212D01*
X226130706Y-80372212D02*
X226233763Y-80398989D01*
X226233763Y-80398989D02*
X226290242Y-80435667D01*
X226290242Y-80435667D02*
X226356622Y-80518924D01*
X226356622Y-80518924D02*
X226406125Y-80751816D01*
X226406125Y-80751816D02*
X226379347Y-80854873D01*
X226379347Y-80854873D02*
X226342669Y-80911352D01*
X226342669Y-80911352D02*
X226259413Y-80977732D01*
X226259413Y-80977732D02*
X225979942Y-81037135D01*
X225979942Y-81037135D02*
X225876885Y-81010358D01*
X225876885Y-81010358D02*
X225820406Y-80973680D01*
X227122806Y-79771871D02*
X226657021Y-79870877D01*
X226657021Y-79870877D02*
X226709448Y-80346562D01*
X226709448Y-80346562D02*
X226746126Y-80290083D01*
X226746126Y-80290083D02*
X226829383Y-80223704D01*
X226829383Y-80223704D02*
X227062275Y-80174201D01*
X227062275Y-80174201D02*
X227165332Y-80200978D01*
X227165332Y-80200978D02*
X227221811Y-80237656D01*
X227221811Y-80237656D02*
X227288191Y-80320912D01*
X227288191Y-80320912D02*
X227337694Y-80553805D01*
X227337694Y-80553805D02*
X227310916Y-80656862D01*
X227310916Y-80656862D02*
X227274239Y-80713341D01*
X227274239Y-80713341D02*
X227190982Y-80779721D01*
X227190982Y-80779721D02*
X226958090Y-80829224D01*
X226958090Y-80829224D02*
X226855032Y-80802446D01*
X226855032Y-80802446D02*
X226798553Y-80765768D01*
X310614226Y-76824700D02*
X310757083Y-76872319D01*
X310757083Y-76872319D02*
X310995178Y-76872319D01*
X310995178Y-76872319D02*
X311090416Y-76824700D01*
X311090416Y-76824700D02*
X311138035Y-76777080D01*
X311138035Y-76777080D02*
X311185654Y-76681842D01*
X311185654Y-76681842D02*
X311185654Y-76586604D01*
X311185654Y-76586604D02*
X311138035Y-76491366D01*
X311138035Y-76491366D02*
X311090416Y-76443747D01*
X311090416Y-76443747D02*
X310995178Y-76396128D01*
X310995178Y-76396128D02*
X310804702Y-76348509D01*
X310804702Y-76348509D02*
X310709464Y-76300890D01*
X310709464Y-76300890D02*
X310661845Y-76253271D01*
X310661845Y-76253271D02*
X310614226Y-76158033D01*
X310614226Y-76158033D02*
X310614226Y-76062795D01*
X310614226Y-76062795D02*
X310661845Y-75967557D01*
X310661845Y-75967557D02*
X310709464Y-75919938D01*
X310709464Y-75919938D02*
X310804702Y-75872319D01*
X310804702Y-75872319D02*
X311042797Y-75872319D01*
X311042797Y-75872319D02*
X311185654Y-75919938D01*
X311518988Y-75872319D02*
X311757083Y-76872319D01*
X311757083Y-76872319D02*
X311947559Y-76158033D01*
X311947559Y-76158033D02*
X312138035Y-76872319D01*
X312138035Y-76872319D02*
X312376131Y-75872319D01*
X312661845Y-75872319D02*
X313280892Y-75872319D01*
X313280892Y-75872319D02*
X312947559Y-76253271D01*
X312947559Y-76253271D02*
X313090416Y-76253271D01*
X313090416Y-76253271D02*
X313185654Y-76300890D01*
X313185654Y-76300890D02*
X313233273Y-76348509D01*
X313233273Y-76348509D02*
X313280892Y-76443747D01*
X313280892Y-76443747D02*
X313280892Y-76681842D01*
X313280892Y-76681842D02*
X313233273Y-76777080D01*
X313233273Y-76777080D02*
X313185654Y-76824700D01*
X313185654Y-76824700D02*
X313090416Y-76872319D01*
X313090416Y-76872319D02*
X312804702Y-76872319D01*
X312804702Y-76872319D02*
X312709464Y-76824700D01*
X312709464Y-76824700D02*
X312661845Y-76777080D01*
X313757083Y-76872319D02*
X313947559Y-76872319D01*
X313947559Y-76872319D02*
X314042797Y-76824700D01*
X314042797Y-76824700D02*
X314090416Y-76777080D01*
X314090416Y-76777080D02*
X314185654Y-76634223D01*
X314185654Y-76634223D02*
X314233273Y-76443747D01*
X314233273Y-76443747D02*
X314233273Y-76062795D01*
X314233273Y-76062795D02*
X314185654Y-75967557D01*
X314185654Y-75967557D02*
X314138035Y-75919938D01*
X314138035Y-75919938D02*
X314042797Y-75872319D01*
X314042797Y-75872319D02*
X313852321Y-75872319D01*
X313852321Y-75872319D02*
X313757083Y-75919938D01*
X313757083Y-75919938D02*
X313709464Y-75967557D01*
X313709464Y-75967557D02*
X313661845Y-76062795D01*
X313661845Y-76062795D02*
X313661845Y-76300890D01*
X313661845Y-76300890D02*
X313709464Y-76396128D01*
X313709464Y-76396128D02*
X313757083Y-76443747D01*
X313757083Y-76443747D02*
X313852321Y-76491366D01*
X313852321Y-76491366D02*
X314042797Y-76491366D01*
X314042797Y-76491366D02*
X314138035Y-76443747D01*
X314138035Y-76443747D02*
X314185654Y-76396128D01*
X314185654Y-76396128D02*
X314233273Y-76300890D01*
X-1805773Y-133974700D02*
X-1662916Y-134022319D01*
X-1662916Y-134022319D02*
X-1424821Y-134022319D01*
X-1424821Y-134022319D02*
X-1329583Y-133974700D01*
X-1329583Y-133974700D02*
X-1281964Y-133927080D01*
X-1281964Y-133927080D02*
X-1234345Y-133831842D01*
X-1234345Y-133831842D02*
X-1234345Y-133736604D01*
X-1234345Y-133736604D02*
X-1281964Y-133641366D01*
X-1281964Y-133641366D02*
X-1329583Y-133593747D01*
X-1329583Y-133593747D02*
X-1424821Y-133546128D01*
X-1424821Y-133546128D02*
X-1615297Y-133498509D01*
X-1615297Y-133498509D02*
X-1710535Y-133450890D01*
X-1710535Y-133450890D02*
X-1758154Y-133403271D01*
X-1758154Y-133403271D02*
X-1805773Y-133308033D01*
X-1805773Y-133308033D02*
X-1805773Y-133212795D01*
X-1805773Y-133212795D02*
X-1758154Y-133117557D01*
X-1758154Y-133117557D02*
X-1710535Y-133069938D01*
X-1710535Y-133069938D02*
X-1615297Y-133022319D01*
X-1615297Y-133022319D02*
X-1377202Y-133022319D01*
X-1377202Y-133022319D02*
X-1234345Y-133069938D01*
X-901011Y-133022319D02*
X-662916Y-134022319D01*
X-662916Y-134022319D02*
X-472440Y-133308033D01*
X-472440Y-133308033D02*
X-281964Y-134022319D01*
X-281964Y-134022319D02*
X-43869Y-133022319D01*
X289464Y-133117557D02*
X337083Y-133069938D01*
X337083Y-133069938D02*
X432321Y-133022319D01*
X432321Y-133022319D02*
X670416Y-133022319D01*
X670416Y-133022319D02*
X765654Y-133069938D01*
X765654Y-133069938D02*
X813273Y-133117557D01*
X813273Y-133117557D02*
X860892Y-133212795D01*
X860892Y-133212795D02*
X860892Y-133308033D01*
X860892Y-133308033D02*
X813273Y-133450890D01*
X813273Y-133450890D02*
X241845Y-134022319D01*
X241845Y-134022319D02*
X860892Y-134022319D01*
X1194226Y-133022319D02*
X1813273Y-133022319D01*
X1813273Y-133022319D02*
X1479940Y-133403271D01*
X1479940Y-133403271D02*
X1622797Y-133403271D01*
X1622797Y-133403271D02*
X1718035Y-133450890D01*
X1718035Y-133450890D02*
X1765654Y-133498509D01*
X1765654Y-133498509D02*
X1813273Y-133593747D01*
X1813273Y-133593747D02*
X1813273Y-133831842D01*
X1813273Y-133831842D02*
X1765654Y-133927080D01*
X1765654Y-133927080D02*
X1718035Y-133974700D01*
X1718035Y-133974700D02*
X1622797Y-134022319D01*
X1622797Y-134022319D02*
X1337083Y-134022319D01*
X1337083Y-134022319D02*
X1241845Y-133974700D01*
X1241845Y-133974700D02*
X1194226Y-133927080D01*
X163155707Y-124719819D02*
X162822374Y-124243628D01*
X162584279Y-124719819D02*
X162584279Y-123719819D01*
X162584279Y-123719819D02*
X162965231Y-123719819D01*
X162965231Y-123719819D02*
X163060469Y-123767438D01*
X163060469Y-123767438D02*
X163108088Y-123815057D01*
X163108088Y-123815057D02*
X163155707Y-123910295D01*
X163155707Y-123910295D02*
X163155707Y-124053152D01*
X163155707Y-124053152D02*
X163108088Y-124148390D01*
X163108088Y-124148390D02*
X163060469Y-124196009D01*
X163060469Y-124196009D02*
X162965231Y-124243628D01*
X162965231Y-124243628D02*
X162584279Y-124243628D01*
X163584279Y-124196009D02*
X163917612Y-124196009D01*
X164060469Y-124719819D02*
X163584279Y-124719819D01*
X163584279Y-124719819D02*
X163584279Y-123719819D01*
X163584279Y-123719819D02*
X164060469Y-123719819D01*
X164822374Y-124196009D02*
X164489041Y-124196009D01*
X164489041Y-124719819D02*
X164489041Y-123719819D01*
X164489041Y-123719819D02*
X164965231Y-123719819D01*
X165489041Y-123719819D02*
X165489041Y-123957914D01*
X165250946Y-123862676D02*
X165489041Y-123957914D01*
X165489041Y-123957914D02*
X165727136Y-123862676D01*
X165346184Y-124148390D02*
X165489041Y-123957914D01*
X165489041Y-123957914D02*
X165631898Y-124148390D01*
X166250946Y-123719819D02*
X166250946Y-123957914D01*
X166012851Y-123862676D02*
X166250946Y-123957914D01*
X166250946Y-123957914D02*
X166489041Y-123862676D01*
X166108089Y-124148390D02*
X166250946Y-123957914D01*
X166250946Y-123957914D02*
X166393803Y-124148390D01*
X95872327Y-87182497D02*
X96002161Y-87258777D01*
X96002161Y-87258777D02*
X96235054Y-87308280D01*
X96235054Y-87308280D02*
X96338111Y-87281502D01*
X96338111Y-87281502D02*
X96394590Y-87244824D01*
X96394590Y-87244824D02*
X96460970Y-87161568D01*
X96460970Y-87161568D02*
X96480771Y-87068411D01*
X96480771Y-87068411D02*
X96453993Y-86965354D01*
X96453993Y-86965354D02*
X96417316Y-86908875D01*
X96417316Y-86908875D02*
X96334059Y-86842495D01*
X96334059Y-86842495D02*
X96157646Y-86756314D01*
X96157646Y-86756314D02*
X96074390Y-86689935D01*
X96074390Y-86689935D02*
X96037712Y-86633456D01*
X96037712Y-86633456D02*
X96010934Y-86530398D01*
X96010934Y-86530398D02*
X96030735Y-86437241D01*
X96030735Y-86437241D02*
X96097115Y-86353985D01*
X96097115Y-86353985D02*
X96153594Y-86317307D01*
X96153594Y-86317307D02*
X96256652Y-86290530D01*
X96256652Y-86290530D02*
X96489544Y-86340033D01*
X96489544Y-86340033D02*
X96619379Y-86416313D01*
X96955328Y-86439038D02*
X96980309Y-87466689D01*
X96980309Y-87466689D02*
X97315131Y-86807614D01*
X97315131Y-86807614D02*
X97352937Y-87545893D01*
X97352937Y-87545893D02*
X97793741Y-86617248D01*
X98073211Y-86676651D02*
X98725310Y-86815259D01*
X98725310Y-86815259D02*
X98098192Y-87704302D01*
X83758363Y-123558771D02*
X83888198Y-123635051D01*
X83888198Y-123635051D02*
X84121091Y-123684554D01*
X84121091Y-123684554D02*
X84224148Y-123657777D01*
X84224148Y-123657777D02*
X84280627Y-123621099D01*
X84280627Y-123621099D02*
X84347007Y-123537842D01*
X84347007Y-123537842D02*
X84366808Y-123444685D01*
X84366808Y-123444685D02*
X84340030Y-123341628D01*
X84340030Y-123341628D02*
X84303353Y-123285149D01*
X84303353Y-123285149D02*
X84220096Y-123218769D01*
X84220096Y-123218769D02*
X84043683Y-123132589D01*
X84043683Y-123132589D02*
X83960427Y-123066209D01*
X83960427Y-123066209D02*
X83923749Y-123009730D01*
X83923749Y-123009730D02*
X83896971Y-122906673D01*
X83896971Y-122906673D02*
X83916772Y-122813516D01*
X83916772Y-122813516D02*
X83983152Y-122730259D01*
X83983152Y-122730259D02*
X84039631Y-122693581D01*
X84039631Y-122693581D02*
X84142688Y-122666804D01*
X84142688Y-122666804D02*
X84375581Y-122716307D01*
X84375581Y-122716307D02*
X84505416Y-122792587D01*
X84841365Y-122815312D02*
X84866346Y-123842963D01*
X84866346Y-123842963D02*
X85201168Y-123183888D01*
X85201168Y-123183888D02*
X85238974Y-123922167D01*
X85238974Y-123922167D02*
X85679778Y-122993523D01*
X85986026Y-123155983D02*
X86042505Y-123119305D01*
X86042505Y-123119305D02*
X86145562Y-123092528D01*
X86145562Y-123092528D02*
X86378454Y-123142031D01*
X86378454Y-123142031D02*
X86461711Y-123208410D01*
X86461711Y-123208410D02*
X86498389Y-123264889D01*
X86498389Y-123264889D02*
X86525166Y-123367947D01*
X86525166Y-123367947D02*
X86505365Y-123461104D01*
X86505365Y-123461104D02*
X86429085Y-123590939D01*
X86429085Y-123590939D02*
X85751336Y-124031073D01*
X85751336Y-124031073D02*
X86356856Y-124159781D01*
X87288426Y-124357792D02*
X86729484Y-124238985D01*
X87008955Y-124298388D02*
X87216867Y-123320241D01*
X87216867Y-123320241D02*
X87094008Y-123440175D01*
X87094008Y-123440175D02*
X86981050Y-123513531D01*
X86981050Y-123513531D02*
X86877992Y-123540308D01*
X-31809523Y-113019700D02*
X-31666666Y-113067319D01*
X-31666666Y-113067319D02*
X-31428571Y-113067319D01*
X-31428571Y-113067319D02*
X-31333333Y-113019700D01*
X-31333333Y-113019700D02*
X-31285714Y-112972080D01*
X-31285714Y-112972080D02*
X-31238095Y-112876842D01*
X-31238095Y-112876842D02*
X-31238095Y-112781604D01*
X-31238095Y-112781604D02*
X-31285714Y-112686366D01*
X-31285714Y-112686366D02*
X-31333333Y-112638747D01*
X-31333333Y-112638747D02*
X-31428571Y-112591128D01*
X-31428571Y-112591128D02*
X-31619047Y-112543509D01*
X-31619047Y-112543509D02*
X-31714285Y-112495890D01*
X-31714285Y-112495890D02*
X-31761904Y-112448271D01*
X-31761904Y-112448271D02*
X-31809523Y-112353033D01*
X-31809523Y-112353033D02*
X-31809523Y-112257795D01*
X-31809523Y-112257795D02*
X-31761904Y-112162557D01*
X-31761904Y-112162557D02*
X-31714285Y-112114938D01*
X-31714285Y-112114938D02*
X-31619047Y-112067319D01*
X-31619047Y-112067319D02*
X-31380952Y-112067319D01*
X-31380952Y-112067319D02*
X-31238095Y-112114938D01*
X-30904761Y-112067319D02*
X-30666666Y-113067319D01*
X-30666666Y-113067319D02*
X-30476190Y-112353033D01*
X-30476190Y-112353033D02*
X-30285714Y-113067319D01*
X-30285714Y-113067319D02*
X-30047619Y-112067319D01*
X-29142857Y-113067319D02*
X-29714285Y-113067319D01*
X-29428571Y-113067319D02*
X-29428571Y-112067319D01*
X-29428571Y-112067319D02*
X-29523809Y-112210176D01*
X-29523809Y-112210176D02*
X-29619047Y-112305414D01*
X-29619047Y-112305414D02*
X-29714285Y-112353033D01*
X-28285714Y-112067319D02*
X-28476190Y-112067319D01*
X-28476190Y-112067319D02*
X-28571428Y-112114938D01*
X-28571428Y-112114938D02*
X-28619047Y-112162557D01*
X-28619047Y-112162557D02*
X-28714285Y-112305414D01*
X-28714285Y-112305414D02*
X-28761904Y-112495890D01*
X-28761904Y-112495890D02*
X-28761904Y-112876842D01*
X-28761904Y-112876842D02*
X-28714285Y-112972080D01*
X-28714285Y-112972080D02*
X-28666666Y-113019700D01*
X-28666666Y-113019700D02*
X-28571428Y-113067319D01*
X-28571428Y-113067319D02*
X-28380952Y-113067319D01*
X-28380952Y-113067319D02*
X-28285714Y-113019700D01*
X-28285714Y-113019700D02*
X-28238095Y-112972080D01*
X-28238095Y-112972080D02*
X-28190476Y-112876842D01*
X-28190476Y-112876842D02*
X-28190476Y-112638747D01*
X-28190476Y-112638747D02*
X-28238095Y-112543509D01*
X-28238095Y-112543509D02*
X-28285714Y-112495890D01*
X-28285714Y-112495890D02*
X-28380952Y-112448271D01*
X-28380952Y-112448271D02*
X-28571428Y-112448271D01*
X-28571428Y-112448271D02*
X-28666666Y-112495890D01*
X-28666666Y-112495890D02*
X-28714285Y-112543509D01*
X-28714285Y-112543509D02*
X-28761904Y-112638747D01*
X281562976Y-133974700D02*
X281705833Y-134022319D01*
X281705833Y-134022319D02*
X281943928Y-134022319D01*
X281943928Y-134022319D02*
X282039166Y-133974700D01*
X282039166Y-133974700D02*
X282086785Y-133927080D01*
X282086785Y-133927080D02*
X282134404Y-133831842D01*
X282134404Y-133831842D02*
X282134404Y-133736604D01*
X282134404Y-133736604D02*
X282086785Y-133641366D01*
X282086785Y-133641366D02*
X282039166Y-133593747D01*
X282039166Y-133593747D02*
X281943928Y-133546128D01*
X281943928Y-133546128D02*
X281753452Y-133498509D01*
X281753452Y-133498509D02*
X281658214Y-133450890D01*
X281658214Y-133450890D02*
X281610595Y-133403271D01*
X281610595Y-133403271D02*
X281562976Y-133308033D01*
X281562976Y-133308033D02*
X281562976Y-133212795D01*
X281562976Y-133212795D02*
X281610595Y-133117557D01*
X281610595Y-133117557D02*
X281658214Y-133069938D01*
X281658214Y-133069938D02*
X281753452Y-133022319D01*
X281753452Y-133022319D02*
X281991547Y-133022319D01*
X281991547Y-133022319D02*
X282134404Y-133069938D01*
X282467738Y-133022319D02*
X282705833Y-134022319D01*
X282705833Y-134022319D02*
X282896309Y-133308033D01*
X282896309Y-133308033D02*
X283086785Y-134022319D01*
X283086785Y-134022319D02*
X283324881Y-133022319D01*
X284134404Y-133022319D02*
X283943928Y-133022319D01*
X283943928Y-133022319D02*
X283848690Y-133069938D01*
X283848690Y-133069938D02*
X283801071Y-133117557D01*
X283801071Y-133117557D02*
X283705833Y-133260414D01*
X283705833Y-133260414D02*
X283658214Y-133450890D01*
X283658214Y-133450890D02*
X283658214Y-133831842D01*
X283658214Y-133831842D02*
X283705833Y-133927080D01*
X283705833Y-133927080D02*
X283753452Y-133974700D01*
X283753452Y-133974700D02*
X283848690Y-134022319D01*
X283848690Y-134022319D02*
X284039166Y-134022319D01*
X284039166Y-134022319D02*
X284134404Y-133974700D01*
X284134404Y-133974700D02*
X284182023Y-133927080D01*
X284182023Y-133927080D02*
X284229642Y-133831842D01*
X284229642Y-133831842D02*
X284229642Y-133593747D01*
X284229642Y-133593747D02*
X284182023Y-133498509D01*
X284182023Y-133498509D02*
X284134404Y-133450890D01*
X284134404Y-133450890D02*
X284039166Y-133403271D01*
X284039166Y-133403271D02*
X283848690Y-133403271D01*
X283848690Y-133403271D02*
X283753452Y-133450890D01*
X283753452Y-133450890D02*
X283705833Y-133498509D01*
X283705833Y-133498509D02*
X283658214Y-133593747D01*
X284848690Y-133022319D02*
X284943928Y-133022319D01*
X284943928Y-133022319D02*
X285039166Y-133069938D01*
X285039166Y-133069938D02*
X285086785Y-133117557D01*
X285086785Y-133117557D02*
X285134404Y-133212795D01*
X285134404Y-133212795D02*
X285182023Y-133403271D01*
X285182023Y-133403271D02*
X285182023Y-133641366D01*
X285182023Y-133641366D02*
X285134404Y-133831842D01*
X285134404Y-133831842D02*
X285086785Y-133927080D01*
X285086785Y-133927080D02*
X285039166Y-133974700D01*
X285039166Y-133974700D02*
X284943928Y-134022319D01*
X284943928Y-134022319D02*
X284848690Y-134022319D01*
X284848690Y-134022319D02*
X284753452Y-133974700D01*
X284753452Y-133974700D02*
X284705833Y-133927080D01*
X284705833Y-133927080D02*
X284658214Y-133831842D01*
X284658214Y-133831842D02*
X284610595Y-133641366D01*
X284610595Y-133641366D02*
X284610595Y-133403271D01*
X284610595Y-133403271D02*
X284658214Y-133212795D01*
X284658214Y-133212795D02*
X284705833Y-133117557D01*
X284705833Y-133117557D02*
X284753452Y-133069938D01*
X284753452Y-133069938D02*
X284848690Y-133022319D01*
X322996726Y-153024700D02*
X323139583Y-153072319D01*
X323139583Y-153072319D02*
X323377678Y-153072319D01*
X323377678Y-153072319D02*
X323472916Y-153024700D01*
X323472916Y-153024700D02*
X323520535Y-152977080D01*
X323520535Y-152977080D02*
X323568154Y-152881842D01*
X323568154Y-152881842D02*
X323568154Y-152786604D01*
X323568154Y-152786604D02*
X323520535Y-152691366D01*
X323520535Y-152691366D02*
X323472916Y-152643747D01*
X323472916Y-152643747D02*
X323377678Y-152596128D01*
X323377678Y-152596128D02*
X323187202Y-152548509D01*
X323187202Y-152548509D02*
X323091964Y-152500890D01*
X323091964Y-152500890D02*
X323044345Y-152453271D01*
X323044345Y-152453271D02*
X322996726Y-152358033D01*
X322996726Y-152358033D02*
X322996726Y-152262795D01*
X322996726Y-152262795D02*
X323044345Y-152167557D01*
X323044345Y-152167557D02*
X323091964Y-152119938D01*
X323091964Y-152119938D02*
X323187202Y-152072319D01*
X323187202Y-152072319D02*
X323425297Y-152072319D01*
X323425297Y-152072319D02*
X323568154Y-152119938D01*
X323901488Y-152072319D02*
X324139583Y-153072319D01*
X324139583Y-153072319D02*
X324330059Y-152358033D01*
X324330059Y-152358033D02*
X324520535Y-153072319D01*
X324520535Y-153072319D02*
X324758631Y-152072319D01*
X325568154Y-152072319D02*
X325377678Y-152072319D01*
X325377678Y-152072319D02*
X325282440Y-152119938D01*
X325282440Y-152119938D02*
X325234821Y-152167557D01*
X325234821Y-152167557D02*
X325139583Y-152310414D01*
X325139583Y-152310414D02*
X325091964Y-152500890D01*
X325091964Y-152500890D02*
X325091964Y-152881842D01*
X325091964Y-152881842D02*
X325139583Y-152977080D01*
X325139583Y-152977080D02*
X325187202Y-153024700D01*
X325187202Y-153024700D02*
X325282440Y-153072319D01*
X325282440Y-153072319D02*
X325472916Y-153072319D01*
X325472916Y-153072319D02*
X325568154Y-153024700D01*
X325568154Y-153024700D02*
X325615773Y-152977080D01*
X325615773Y-152977080D02*
X325663392Y-152881842D01*
X325663392Y-152881842D02*
X325663392Y-152643747D01*
X325663392Y-152643747D02*
X325615773Y-152548509D01*
X325615773Y-152548509D02*
X325568154Y-152500890D01*
X325568154Y-152500890D02*
X325472916Y-152453271D01*
X325472916Y-152453271D02*
X325282440Y-152453271D01*
X325282440Y-152453271D02*
X325187202Y-152500890D01*
X325187202Y-152500890D02*
X325139583Y-152548509D01*
X325139583Y-152548509D02*
X325091964Y-152643747D01*
X326568154Y-152072319D02*
X326091964Y-152072319D01*
X326091964Y-152072319D02*
X326044345Y-152548509D01*
X326044345Y-152548509D02*
X326091964Y-152500890D01*
X326091964Y-152500890D02*
X326187202Y-152453271D01*
X326187202Y-152453271D02*
X326425297Y-152453271D01*
X326425297Y-152453271D02*
X326520535Y-152500890D01*
X326520535Y-152500890D02*
X326568154Y-152548509D01*
X326568154Y-152548509D02*
X326615773Y-152643747D01*
X326615773Y-152643747D02*
X326615773Y-152881842D01*
X326615773Y-152881842D02*
X326568154Y-152977080D01*
X326568154Y-152977080D02*
X326520535Y-153024700D01*
X326520535Y-153024700D02*
X326425297Y-153072319D01*
X326425297Y-153072319D02*
X326187202Y-153072319D01*
X326187202Y-153072319D02*
X326091964Y-153024700D01*
X326091964Y-153024700D02*
X326044345Y-152977080D01*
X205193721Y-85406699D02*
X205343357Y-85423576D01*
X205343357Y-85423576D02*
X205576249Y-85374073D01*
X205576249Y-85374073D02*
X205659505Y-85307694D01*
X205659505Y-85307694D02*
X205696183Y-85251215D01*
X205696183Y-85251215D02*
X205722961Y-85148157D01*
X205722961Y-85148157D02*
X205703159Y-85055000D01*
X205703159Y-85055000D02*
X205636780Y-84971744D01*
X205636780Y-84971744D02*
X205580301Y-84935066D01*
X205580301Y-84935066D02*
X205477243Y-84908289D01*
X205477243Y-84908289D02*
X205281029Y-84901313D01*
X205281029Y-84901313D02*
X205177972Y-84874535D01*
X205177972Y-84874535D02*
X205121493Y-84837857D01*
X205121493Y-84837857D02*
X205055113Y-84754601D01*
X205055113Y-84754601D02*
X205035312Y-84661444D01*
X205035312Y-84661444D02*
X205062089Y-84558387D01*
X205062089Y-84558387D02*
X205098767Y-84501908D01*
X205098767Y-84501908D02*
X205182023Y-84435528D01*
X205182023Y-84435528D02*
X205414916Y-84386025D01*
X205414916Y-84386025D02*
X205564552Y-84402902D01*
X205880700Y-84287020D02*
X206321504Y-85215664D01*
X206321504Y-85215664D02*
X206359310Y-84477385D01*
X206359310Y-84477385D02*
X206694132Y-85136460D01*
X206694132Y-85136460D02*
X206719113Y-84108810D01*
X206998583Y-84049406D02*
X207604103Y-83920699D01*
X207604103Y-83920699D02*
X207357258Y-84362631D01*
X207357258Y-84362631D02*
X207496994Y-84332929D01*
X207496994Y-84332929D02*
X207600051Y-84359706D01*
X207600051Y-84359706D02*
X207656530Y-84396384D01*
X207656530Y-84396384D02*
X207722910Y-84479641D01*
X207722910Y-84479641D02*
X207772413Y-84712533D01*
X207772413Y-84712533D02*
X207745635Y-84815590D01*
X207745635Y-84815590D02*
X207708957Y-84872069D01*
X207708957Y-84872069D02*
X207625701Y-84938449D01*
X207625701Y-84938449D02*
X207346230Y-84997852D01*
X207346230Y-84997852D02*
X207243173Y-84971075D01*
X207243173Y-84971075D02*
X207186694Y-84934397D01*
X208511819Y-84068538D02*
X208650427Y-84720637D01*
X208199723Y-83745413D02*
X208115339Y-84493593D01*
X208115339Y-84493593D02*
X208720859Y-84364886D01*
X65124651Y-119598053D02*
X65254486Y-119674333D01*
X65254486Y-119674333D02*
X65487379Y-119723836D01*
X65487379Y-119723836D02*
X65590436Y-119697059D01*
X65590436Y-119697059D02*
X65646915Y-119660381D01*
X65646915Y-119660381D02*
X65713295Y-119577124D01*
X65713295Y-119577124D02*
X65733096Y-119483967D01*
X65733096Y-119483967D02*
X65706318Y-119380910D01*
X65706318Y-119380910D02*
X65669641Y-119324431D01*
X65669641Y-119324431D02*
X65586384Y-119258051D01*
X65586384Y-119258051D02*
X65409971Y-119171871D01*
X65409971Y-119171871D02*
X65326715Y-119105491D01*
X65326715Y-119105491D02*
X65290037Y-119049012D01*
X65290037Y-119049012D02*
X65263259Y-118945955D01*
X65263259Y-118945955D02*
X65283060Y-118852798D01*
X65283060Y-118852798D02*
X65349440Y-118769541D01*
X65349440Y-118769541D02*
X65405919Y-118732863D01*
X65405919Y-118732863D02*
X65508976Y-118706086D01*
X65508976Y-118706086D02*
X65741869Y-118755589D01*
X65741869Y-118755589D02*
X65871704Y-118831869D01*
X66207653Y-118854594D02*
X66232634Y-119882245D01*
X66232634Y-119882245D02*
X66567456Y-119223170D01*
X66567456Y-119223170D02*
X66605262Y-119961449D01*
X66605262Y-119961449D02*
X67046066Y-119032805D01*
X67352314Y-119195265D02*
X67408793Y-119158587D01*
X67408793Y-119158587D02*
X67511850Y-119131810D01*
X67511850Y-119131810D02*
X67744742Y-119181313D01*
X67744742Y-119181313D02*
X67827999Y-119247692D01*
X67827999Y-119247692D02*
X67864677Y-119304171D01*
X67864677Y-119304171D02*
X67891454Y-119407229D01*
X67891454Y-119407229D02*
X67871653Y-119500386D01*
X67871653Y-119500386D02*
X67795373Y-119630221D01*
X67795373Y-119630221D02*
X67117624Y-120070355D01*
X67117624Y-120070355D02*
X67723144Y-120199063D01*
X68536576Y-119349622D02*
X68629733Y-119369423D01*
X68629733Y-119369423D02*
X68712989Y-119435803D01*
X68712989Y-119435803D02*
X68749667Y-119492282D01*
X68749667Y-119492282D02*
X68776445Y-119595339D01*
X68776445Y-119595339D02*
X68783421Y-119791554D01*
X68783421Y-119791554D02*
X68733918Y-120024446D01*
X68733918Y-120024446D02*
X68647737Y-120200859D01*
X68647737Y-120200859D02*
X68581358Y-120284116D01*
X68581358Y-120284116D02*
X68524879Y-120320794D01*
X68524879Y-120320794D02*
X68421821Y-120347571D01*
X68421821Y-120347571D02*
X68328664Y-120327770D01*
X68328664Y-120327770D02*
X68245408Y-120261390D01*
X68245408Y-120261390D02*
X68208730Y-120204911D01*
X68208730Y-120204911D02*
X68181953Y-120101854D01*
X68181953Y-120101854D02*
X68174977Y-119905639D01*
X68174977Y-119905639D02*
X68224479Y-119672747D01*
X68224479Y-119672747D02*
X68310660Y-119496334D01*
X68310660Y-119496334D02*
X68377040Y-119413078D01*
X68377040Y-119413078D02*
X68433519Y-119376400D01*
X68433519Y-119376400D02*
X68536576Y-119349622D01*
X315852976Y-114924700D02*
X315995833Y-114972319D01*
X315995833Y-114972319D02*
X316233928Y-114972319D01*
X316233928Y-114972319D02*
X316329166Y-114924700D01*
X316329166Y-114924700D02*
X316376785Y-114877080D01*
X316376785Y-114877080D02*
X316424404Y-114781842D01*
X316424404Y-114781842D02*
X316424404Y-114686604D01*
X316424404Y-114686604D02*
X316376785Y-114591366D01*
X316376785Y-114591366D02*
X316329166Y-114543747D01*
X316329166Y-114543747D02*
X316233928Y-114496128D01*
X316233928Y-114496128D02*
X316043452Y-114448509D01*
X316043452Y-114448509D02*
X315948214Y-114400890D01*
X315948214Y-114400890D02*
X315900595Y-114353271D01*
X315900595Y-114353271D02*
X315852976Y-114258033D01*
X315852976Y-114258033D02*
X315852976Y-114162795D01*
X315852976Y-114162795D02*
X315900595Y-114067557D01*
X315900595Y-114067557D02*
X315948214Y-114019938D01*
X315948214Y-114019938D02*
X316043452Y-113972319D01*
X316043452Y-113972319D02*
X316281547Y-113972319D01*
X316281547Y-113972319D02*
X316424404Y-114019938D01*
X316757738Y-113972319D02*
X316995833Y-114972319D01*
X316995833Y-114972319D02*
X317186309Y-114258033D01*
X317186309Y-114258033D02*
X317376785Y-114972319D01*
X317376785Y-114972319D02*
X317614881Y-113972319D01*
X318472023Y-113972319D02*
X317995833Y-113972319D01*
X317995833Y-113972319D02*
X317948214Y-114448509D01*
X317948214Y-114448509D02*
X317995833Y-114400890D01*
X317995833Y-114400890D02*
X318091071Y-114353271D01*
X318091071Y-114353271D02*
X318329166Y-114353271D01*
X318329166Y-114353271D02*
X318424404Y-114400890D01*
X318424404Y-114400890D02*
X318472023Y-114448509D01*
X318472023Y-114448509D02*
X318519642Y-114543747D01*
X318519642Y-114543747D02*
X318519642Y-114781842D01*
X318519642Y-114781842D02*
X318472023Y-114877080D01*
X318472023Y-114877080D02*
X318424404Y-114924700D01*
X318424404Y-114924700D02*
X318329166Y-114972319D01*
X318329166Y-114972319D02*
X318091071Y-114972319D01*
X318091071Y-114972319D02*
X317995833Y-114924700D01*
X317995833Y-114924700D02*
X317948214Y-114877080D01*
X319376785Y-114305652D02*
X319376785Y-114972319D01*
X319138690Y-113924700D02*
X318900595Y-114638985D01*
X318900595Y-114638985D02*
X319519642Y-114638985D01*
X297755476Y-95874700D02*
X297898333Y-95922319D01*
X297898333Y-95922319D02*
X298136428Y-95922319D01*
X298136428Y-95922319D02*
X298231666Y-95874700D01*
X298231666Y-95874700D02*
X298279285Y-95827080D01*
X298279285Y-95827080D02*
X298326904Y-95731842D01*
X298326904Y-95731842D02*
X298326904Y-95636604D01*
X298326904Y-95636604D02*
X298279285Y-95541366D01*
X298279285Y-95541366D02*
X298231666Y-95493747D01*
X298231666Y-95493747D02*
X298136428Y-95446128D01*
X298136428Y-95446128D02*
X297945952Y-95398509D01*
X297945952Y-95398509D02*
X297850714Y-95350890D01*
X297850714Y-95350890D02*
X297803095Y-95303271D01*
X297803095Y-95303271D02*
X297755476Y-95208033D01*
X297755476Y-95208033D02*
X297755476Y-95112795D01*
X297755476Y-95112795D02*
X297803095Y-95017557D01*
X297803095Y-95017557D02*
X297850714Y-94969938D01*
X297850714Y-94969938D02*
X297945952Y-94922319D01*
X297945952Y-94922319D02*
X298184047Y-94922319D01*
X298184047Y-94922319D02*
X298326904Y-94969938D01*
X298660238Y-94922319D02*
X298898333Y-95922319D01*
X298898333Y-95922319D02*
X299088809Y-95208033D01*
X299088809Y-95208033D02*
X299279285Y-95922319D01*
X299279285Y-95922319D02*
X299517381Y-94922319D01*
X300326904Y-95255652D02*
X300326904Y-95922319D01*
X300088809Y-94874700D02*
X299850714Y-95588985D01*
X299850714Y-95588985D02*
X300469761Y-95588985D01*
X301279285Y-94922319D02*
X301088809Y-94922319D01*
X301088809Y-94922319D02*
X300993571Y-94969938D01*
X300993571Y-94969938D02*
X300945952Y-95017557D01*
X300945952Y-95017557D02*
X300850714Y-95160414D01*
X300850714Y-95160414D02*
X300803095Y-95350890D01*
X300803095Y-95350890D02*
X300803095Y-95731842D01*
X300803095Y-95731842D02*
X300850714Y-95827080D01*
X300850714Y-95827080D02*
X300898333Y-95874700D01*
X300898333Y-95874700D02*
X300993571Y-95922319D01*
X300993571Y-95922319D02*
X301184047Y-95922319D01*
X301184047Y-95922319D02*
X301279285Y-95874700D01*
X301279285Y-95874700D02*
X301326904Y-95827080D01*
X301326904Y-95827080D02*
X301374523Y-95731842D01*
X301374523Y-95731842D02*
X301374523Y-95493747D01*
X301374523Y-95493747D02*
X301326904Y-95398509D01*
X301326904Y-95398509D02*
X301279285Y-95350890D01*
X301279285Y-95350890D02*
X301184047Y-95303271D01*
X301184047Y-95303271D02*
X300993571Y-95303271D01*
X300993571Y-95303271D02*
X300898333Y-95350890D01*
X300898333Y-95350890D02*
X300850714Y-95398509D01*
X300850714Y-95398509D02*
X300803095Y-95493747D01*
X22482976Y-95874700D02*
X22625833Y-95922319D01*
X22625833Y-95922319D02*
X22863928Y-95922319D01*
X22863928Y-95922319D02*
X22959166Y-95874700D01*
X22959166Y-95874700D02*
X23006785Y-95827080D01*
X23006785Y-95827080D02*
X23054404Y-95731842D01*
X23054404Y-95731842D02*
X23054404Y-95636604D01*
X23054404Y-95636604D02*
X23006785Y-95541366D01*
X23006785Y-95541366D02*
X22959166Y-95493747D01*
X22959166Y-95493747D02*
X22863928Y-95446128D01*
X22863928Y-95446128D02*
X22673452Y-95398509D01*
X22673452Y-95398509D02*
X22578214Y-95350890D01*
X22578214Y-95350890D02*
X22530595Y-95303271D01*
X22530595Y-95303271D02*
X22482976Y-95208033D01*
X22482976Y-95208033D02*
X22482976Y-95112795D01*
X22482976Y-95112795D02*
X22530595Y-95017557D01*
X22530595Y-95017557D02*
X22578214Y-94969938D01*
X22578214Y-94969938D02*
X22673452Y-94922319D01*
X22673452Y-94922319D02*
X22911547Y-94922319D01*
X22911547Y-94922319D02*
X23054404Y-94969938D01*
X23387738Y-94922319D02*
X23625833Y-95922319D01*
X23625833Y-95922319D02*
X23816309Y-95208033D01*
X23816309Y-95208033D02*
X24006785Y-95922319D01*
X24006785Y-95922319D02*
X24244881Y-94922319D01*
X25149642Y-95922319D02*
X24578214Y-95922319D01*
X24863928Y-95922319D02*
X24863928Y-94922319D01*
X24863928Y-94922319D02*
X24768690Y-95065176D01*
X24768690Y-95065176D02*
X24673452Y-95160414D01*
X24673452Y-95160414D02*
X24578214Y-95208033D01*
X26102023Y-95922319D02*
X25530595Y-95922319D01*
X25816309Y-95922319D02*
X25816309Y-94922319D01*
X25816309Y-94922319D02*
X25721071Y-95065176D01*
X25721071Y-95065176D02*
X25625833Y-95160414D01*
X25625833Y-95160414D02*
X25530595Y-95208033D01*
X46490939Y-115637335D02*
X46620774Y-115713615D01*
X46620774Y-115713615D02*
X46853667Y-115763118D01*
X46853667Y-115763118D02*
X46956724Y-115736341D01*
X46956724Y-115736341D02*
X47013203Y-115699663D01*
X47013203Y-115699663D02*
X47079583Y-115616406D01*
X47079583Y-115616406D02*
X47099384Y-115523249D01*
X47099384Y-115523249D02*
X47072606Y-115420192D01*
X47072606Y-115420192D02*
X47035929Y-115363713D01*
X47035929Y-115363713D02*
X46952672Y-115297333D01*
X46952672Y-115297333D02*
X46776259Y-115211153D01*
X46776259Y-115211153D02*
X46693003Y-115144773D01*
X46693003Y-115144773D02*
X46656325Y-115088294D01*
X46656325Y-115088294D02*
X46629547Y-114985237D01*
X46629547Y-114985237D02*
X46649348Y-114892080D01*
X46649348Y-114892080D02*
X46715728Y-114808823D01*
X46715728Y-114808823D02*
X46772207Y-114772145D01*
X46772207Y-114772145D02*
X46875264Y-114745368D01*
X46875264Y-114745368D02*
X47108157Y-114794871D01*
X47108157Y-114794871D02*
X47237992Y-114871151D01*
X47573941Y-114893876D02*
X47598922Y-115921527D01*
X47598922Y-115921527D02*
X47933744Y-115262452D01*
X47933744Y-115262452D02*
X47971550Y-116000731D01*
X47971550Y-116000731D02*
X48412354Y-115072087D01*
X49089432Y-116238345D02*
X48530491Y-116119538D01*
X48809962Y-116178941D02*
X49017873Y-115200794D01*
X49017873Y-115200794D02*
X48895015Y-115320728D01*
X48895015Y-115320728D02*
X48782057Y-115394084D01*
X48782057Y-115394084D02*
X48678999Y-115420861D01*
X49555217Y-116337350D02*
X49741531Y-116376952D01*
X49741531Y-116376952D02*
X49844588Y-116350175D01*
X49844588Y-116350175D02*
X49901067Y-116313497D01*
X49901067Y-116313497D02*
X50023926Y-116193563D01*
X50023926Y-116193563D02*
X50110107Y-116017150D01*
X50110107Y-116017150D02*
X50189311Y-115644522D01*
X50189311Y-115644522D02*
X50162534Y-115541465D01*
X50162534Y-115541465D02*
X50125856Y-115484986D01*
X50125856Y-115484986D02*
X50042599Y-115418606D01*
X50042599Y-115418606D02*
X49856286Y-115379004D01*
X49856286Y-115379004D02*
X49753228Y-115405781D01*
X49753228Y-115405781D02*
X49696749Y-115442459D01*
X49696749Y-115442459D02*
X49630370Y-115525715D01*
X49630370Y-115525715D02*
X49580867Y-115758608D01*
X49580867Y-115758608D02*
X49607644Y-115861665D01*
X49607644Y-115861665D02*
X49644322Y-115918144D01*
X49644322Y-115918144D02*
X49727578Y-115984524D01*
X49727578Y-115984524D02*
X49913892Y-116024126D01*
X49913892Y-116024126D02*
X50016950Y-115997349D01*
X50016950Y-115997349D02*
X50073429Y-115960671D01*
X50073429Y-115960671D02*
X50139808Y-115877414D01*
X29150476Y-133974700D02*
X29293333Y-134022319D01*
X29293333Y-134022319D02*
X29531428Y-134022319D01*
X29531428Y-134022319D02*
X29626666Y-133974700D01*
X29626666Y-133974700D02*
X29674285Y-133927080D01*
X29674285Y-133927080D02*
X29721904Y-133831842D01*
X29721904Y-133831842D02*
X29721904Y-133736604D01*
X29721904Y-133736604D02*
X29674285Y-133641366D01*
X29674285Y-133641366D02*
X29626666Y-133593747D01*
X29626666Y-133593747D02*
X29531428Y-133546128D01*
X29531428Y-133546128D02*
X29340952Y-133498509D01*
X29340952Y-133498509D02*
X29245714Y-133450890D01*
X29245714Y-133450890D02*
X29198095Y-133403271D01*
X29198095Y-133403271D02*
X29150476Y-133308033D01*
X29150476Y-133308033D02*
X29150476Y-133212795D01*
X29150476Y-133212795D02*
X29198095Y-133117557D01*
X29198095Y-133117557D02*
X29245714Y-133069938D01*
X29245714Y-133069938D02*
X29340952Y-133022319D01*
X29340952Y-133022319D02*
X29579047Y-133022319D01*
X29579047Y-133022319D02*
X29721904Y-133069938D01*
X30055238Y-133022319D02*
X30293333Y-134022319D01*
X30293333Y-134022319D02*
X30483809Y-133308033D01*
X30483809Y-133308033D02*
X30674285Y-134022319D01*
X30674285Y-134022319D02*
X30912381Y-133022319D01*
X31245714Y-133117557D02*
X31293333Y-133069938D01*
X31293333Y-133069938D02*
X31388571Y-133022319D01*
X31388571Y-133022319D02*
X31626666Y-133022319D01*
X31626666Y-133022319D02*
X31721904Y-133069938D01*
X31721904Y-133069938D02*
X31769523Y-133117557D01*
X31769523Y-133117557D02*
X31817142Y-133212795D01*
X31817142Y-133212795D02*
X31817142Y-133308033D01*
X31817142Y-133308033D02*
X31769523Y-133450890D01*
X31769523Y-133450890D02*
X31198095Y-134022319D01*
X31198095Y-134022319D02*
X31817142Y-134022319D01*
X32674285Y-133355652D02*
X32674285Y-134022319D01*
X32436190Y-132974700D02*
X32198095Y-133688985D01*
X32198095Y-133688985D02*
X32817142Y-133688985D01*
X51847077Y-136251406D02*
X51976912Y-136327686D01*
X51976912Y-136327686D02*
X52209805Y-136377189D01*
X52209805Y-136377189D02*
X52312862Y-136350412D01*
X52312862Y-136350412D02*
X52369341Y-136313734D01*
X52369341Y-136313734D02*
X52435721Y-136230477D01*
X52435721Y-136230477D02*
X52455522Y-136137320D01*
X52455522Y-136137320D02*
X52428744Y-136034263D01*
X52428744Y-136034263D02*
X52392067Y-135977784D01*
X52392067Y-135977784D02*
X52308810Y-135911404D01*
X52308810Y-135911404D02*
X52132397Y-135825224D01*
X52132397Y-135825224D02*
X52049141Y-135758844D01*
X52049141Y-135758844D02*
X52012463Y-135702365D01*
X52012463Y-135702365D02*
X51985685Y-135599308D01*
X51985685Y-135599308D02*
X52005486Y-135506151D01*
X52005486Y-135506151D02*
X52071866Y-135422894D01*
X52071866Y-135422894D02*
X52128345Y-135386216D01*
X52128345Y-135386216D02*
X52231402Y-135359439D01*
X52231402Y-135359439D02*
X52464295Y-135408942D01*
X52464295Y-135408942D02*
X52594130Y-135485222D01*
X52930079Y-135507947D02*
X52955060Y-136535598D01*
X52955060Y-136535598D02*
X53289882Y-135876523D01*
X53289882Y-135876523D02*
X53327688Y-136614802D01*
X53327688Y-136614802D02*
X53768492Y-135686158D01*
X54074740Y-135848618D02*
X54131219Y-135811940D01*
X54131219Y-135811940D02*
X54234276Y-135785163D01*
X54234276Y-135785163D02*
X54467168Y-135834666D01*
X54467168Y-135834666D02*
X54550425Y-135901045D01*
X54550425Y-135901045D02*
X54587103Y-135957524D01*
X54587103Y-135957524D02*
X54613880Y-136060582D01*
X54613880Y-136060582D02*
X54594079Y-136153739D01*
X54594079Y-136153739D02*
X54517799Y-136283574D01*
X54517799Y-136283574D02*
X53840050Y-136723708D01*
X53840050Y-136723708D02*
X54445570Y-136852416D01*
X55538473Y-136062379D02*
X55072688Y-135963373D01*
X55072688Y-135963373D02*
X54927104Y-136419257D01*
X54927104Y-136419257D02*
X54983583Y-136382579D01*
X54983583Y-136382579D02*
X55086641Y-136355802D01*
X55086641Y-136355802D02*
X55319533Y-136405305D01*
X55319533Y-136405305D02*
X55402789Y-136471684D01*
X55402789Y-136471684D02*
X55439467Y-136528163D01*
X55439467Y-136528163D02*
X55466245Y-136631221D01*
X55466245Y-136631221D02*
X55416742Y-136864113D01*
X55416742Y-136864113D02*
X55350362Y-136947369D01*
X55350362Y-136947369D02*
X55293883Y-136984047D01*
X55293883Y-136984047D02*
X55190826Y-137010825D01*
X55190826Y-137010825D02*
X54957934Y-136961322D01*
X54957934Y-136961322D02*
X54874677Y-136894942D01*
X54874677Y-136894942D02*
X54837999Y-136838463D01*
X78631984Y-161420302D02*
X78761819Y-161496582D01*
X78761819Y-161496582D02*
X78994712Y-161546085D01*
X78994712Y-161546085D02*
X79097769Y-161519308D01*
X79097769Y-161519308D02*
X79154248Y-161482630D01*
X79154248Y-161482630D02*
X79220628Y-161399373D01*
X79220628Y-161399373D02*
X79240429Y-161306216D01*
X79240429Y-161306216D02*
X79213651Y-161203159D01*
X79213651Y-161203159D02*
X79176974Y-161146680D01*
X79176974Y-161146680D02*
X79093717Y-161080300D01*
X79093717Y-161080300D02*
X78917304Y-160994120D01*
X78917304Y-160994120D02*
X78834048Y-160927740D01*
X78834048Y-160927740D02*
X78797370Y-160871261D01*
X78797370Y-160871261D02*
X78770592Y-160768204D01*
X78770592Y-160768204D02*
X78790393Y-160675047D01*
X78790393Y-160675047D02*
X78856773Y-160591790D01*
X78856773Y-160591790D02*
X78913252Y-160555112D01*
X78913252Y-160555112D02*
X79016309Y-160528335D01*
X79016309Y-160528335D02*
X79249202Y-160577838D01*
X79249202Y-160577838D02*
X79379037Y-160654118D01*
X79714986Y-160676843D02*
X79739967Y-161704494D01*
X79739967Y-161704494D02*
X80074789Y-161045419D01*
X80074789Y-161045419D02*
X80112595Y-161783698D01*
X80112595Y-161783698D02*
X80553399Y-160855054D01*
X80832869Y-160914457D02*
X81438389Y-161043164D01*
X81438389Y-161043164D02*
X81033135Y-161346488D01*
X81033135Y-161346488D02*
X81172871Y-161376189D01*
X81172871Y-161376189D02*
X81256127Y-161442569D01*
X81256127Y-161442569D02*
X81292805Y-161499048D01*
X81292805Y-161499048D02*
X81319582Y-161602106D01*
X81319582Y-161602106D02*
X81270080Y-161834998D01*
X81270080Y-161834998D02*
X81203700Y-161918254D01*
X81203700Y-161918254D02*
X81147221Y-161954932D01*
X81147221Y-161954932D02*
X81044164Y-161981709D01*
X81044164Y-161981709D02*
X80764693Y-161922306D01*
X80764693Y-161922306D02*
X80681437Y-161855927D01*
X80681437Y-161855927D02*
X80644759Y-161799448D01*
X82162047Y-162219323D02*
X81603105Y-162100516D01*
X81882576Y-162159919D02*
X82090488Y-161181772D01*
X82090488Y-161181772D02*
X81967629Y-161301706D01*
X81967629Y-161301706D02*
X81854671Y-161375062D01*
X81854671Y-161375062D02*
X81751613Y-161401839D01*
X202168905Y-144476409D02*
X202318541Y-144493286D01*
X202318541Y-144493286D02*
X202551433Y-144443783D01*
X202551433Y-144443783D02*
X202634689Y-144377404D01*
X202634689Y-144377404D02*
X202671367Y-144320925D01*
X202671367Y-144320925D02*
X202698145Y-144217867D01*
X202698145Y-144217867D02*
X202678343Y-144124710D01*
X202678343Y-144124710D02*
X202611964Y-144041454D01*
X202611964Y-144041454D02*
X202555485Y-144004776D01*
X202555485Y-144004776D02*
X202452427Y-143977999D01*
X202452427Y-143977999D02*
X202256213Y-143971023D01*
X202256213Y-143971023D02*
X202153156Y-143944245D01*
X202153156Y-143944245D02*
X202096677Y-143907567D01*
X202096677Y-143907567D02*
X202030297Y-143824311D01*
X202030297Y-143824311D02*
X202010496Y-143731154D01*
X202010496Y-143731154D02*
X202037273Y-143628097D01*
X202037273Y-143628097D02*
X202073951Y-143571618D01*
X202073951Y-143571618D02*
X202157207Y-143505238D01*
X202157207Y-143505238D02*
X202390100Y-143455735D01*
X202390100Y-143455735D02*
X202539736Y-143472612D01*
X202855884Y-143356730D02*
X203296688Y-144285374D01*
X203296688Y-144285374D02*
X203334494Y-143547095D01*
X203334494Y-143547095D02*
X203669316Y-144206170D01*
X203669316Y-144206170D02*
X203694297Y-143178520D01*
X204532709Y-143000310D02*
X204066924Y-143099315D01*
X204066924Y-143099315D02*
X204119351Y-143575000D01*
X204119351Y-143575000D02*
X204156029Y-143518521D01*
X204156029Y-143518521D02*
X204239285Y-143452142D01*
X204239285Y-143452142D02*
X204472178Y-143402639D01*
X204472178Y-143402639D02*
X204575235Y-143429416D01*
X204575235Y-143429416D02*
X204631714Y-143466094D01*
X204631714Y-143466094D02*
X204698094Y-143549351D01*
X204698094Y-143549351D02*
X204747597Y-143782243D01*
X204747597Y-143782243D02*
X204720819Y-143885300D01*
X204720819Y-143885300D02*
X204684141Y-143941779D01*
X204684141Y-143941779D02*
X204600885Y-144008159D01*
X204600885Y-144008159D02*
X204367993Y-144057662D01*
X204367993Y-144057662D02*
X204264935Y-144030884D01*
X204264935Y-144030884D02*
X204208456Y-143994206D01*
X205417699Y-142812199D02*
X205231386Y-142851801D01*
X205231386Y-142851801D02*
X205148129Y-142918181D01*
X205148129Y-142918181D02*
X205111451Y-142974660D01*
X205111451Y-142974660D02*
X205047996Y-143134196D01*
X205047996Y-143134196D02*
X205041020Y-143330411D01*
X205041020Y-143330411D02*
X205120224Y-143703038D01*
X205120224Y-143703038D02*
X205186604Y-143786295D01*
X205186604Y-143786295D02*
X205243083Y-143822973D01*
X205243083Y-143822973D02*
X205346140Y-143849750D01*
X205346140Y-143849750D02*
X205532454Y-143810148D01*
X205532454Y-143810148D02*
X205615711Y-143743768D01*
X205615711Y-143743768D02*
X205652388Y-143687289D01*
X205652388Y-143687289D02*
X205679166Y-143584232D01*
X205679166Y-143584232D02*
X205629663Y-143351339D01*
X205629663Y-143351339D02*
X205563283Y-143268083D01*
X205563283Y-143268083D02*
X205506804Y-143231405D01*
X205506804Y-143231405D02*
X205403747Y-143204628D01*
X205403747Y-143204628D02*
X205217433Y-143244230D01*
X205217433Y-143244230D02*
X205134177Y-143310610D01*
X205134177Y-143310610D02*
X205097499Y-143367089D01*
X205097499Y-143367089D02*
X205070722Y-143470146D01*
X284420476Y-76824700D02*
X284563333Y-76872319D01*
X284563333Y-76872319D02*
X284801428Y-76872319D01*
X284801428Y-76872319D02*
X284896666Y-76824700D01*
X284896666Y-76824700D02*
X284944285Y-76777080D01*
X284944285Y-76777080D02*
X284991904Y-76681842D01*
X284991904Y-76681842D02*
X284991904Y-76586604D01*
X284991904Y-76586604D02*
X284944285Y-76491366D01*
X284944285Y-76491366D02*
X284896666Y-76443747D01*
X284896666Y-76443747D02*
X284801428Y-76396128D01*
X284801428Y-76396128D02*
X284610952Y-76348509D01*
X284610952Y-76348509D02*
X284515714Y-76300890D01*
X284515714Y-76300890D02*
X284468095Y-76253271D01*
X284468095Y-76253271D02*
X284420476Y-76158033D01*
X284420476Y-76158033D02*
X284420476Y-76062795D01*
X284420476Y-76062795D02*
X284468095Y-75967557D01*
X284468095Y-75967557D02*
X284515714Y-75919938D01*
X284515714Y-75919938D02*
X284610952Y-75872319D01*
X284610952Y-75872319D02*
X284849047Y-75872319D01*
X284849047Y-75872319D02*
X284991904Y-75919938D01*
X285325238Y-75872319D02*
X285563333Y-76872319D01*
X285563333Y-76872319D02*
X285753809Y-76158033D01*
X285753809Y-76158033D02*
X285944285Y-76872319D01*
X285944285Y-76872319D02*
X286182381Y-75872319D01*
X286468095Y-75872319D02*
X287087142Y-75872319D01*
X287087142Y-75872319D02*
X286753809Y-76253271D01*
X286753809Y-76253271D02*
X286896666Y-76253271D01*
X286896666Y-76253271D02*
X286991904Y-76300890D01*
X286991904Y-76300890D02*
X287039523Y-76348509D01*
X287039523Y-76348509D02*
X287087142Y-76443747D01*
X287087142Y-76443747D02*
X287087142Y-76681842D01*
X287087142Y-76681842D02*
X287039523Y-76777080D01*
X287039523Y-76777080D02*
X286991904Y-76824700D01*
X286991904Y-76824700D02*
X286896666Y-76872319D01*
X286896666Y-76872319D02*
X286610952Y-76872319D01*
X286610952Y-76872319D02*
X286515714Y-76824700D01*
X286515714Y-76824700D02*
X286468095Y-76777080D01*
X287658571Y-76300890D02*
X287563333Y-76253271D01*
X287563333Y-76253271D02*
X287515714Y-76205652D01*
X287515714Y-76205652D02*
X287468095Y-76110414D01*
X287468095Y-76110414D02*
X287468095Y-76062795D01*
X287468095Y-76062795D02*
X287515714Y-75967557D01*
X287515714Y-75967557D02*
X287563333Y-75919938D01*
X287563333Y-75919938D02*
X287658571Y-75872319D01*
X287658571Y-75872319D02*
X287849047Y-75872319D01*
X287849047Y-75872319D02*
X287944285Y-75919938D01*
X287944285Y-75919938D02*
X287991904Y-75967557D01*
X287991904Y-75967557D02*
X288039523Y-76062795D01*
X288039523Y-76062795D02*
X288039523Y-76110414D01*
X288039523Y-76110414D02*
X287991904Y-76205652D01*
X287991904Y-76205652D02*
X287944285Y-76253271D01*
X287944285Y-76253271D02*
X287849047Y-76300890D01*
X287849047Y-76300890D02*
X287658571Y-76300890D01*
X287658571Y-76300890D02*
X287563333Y-76348509D01*
X287563333Y-76348509D02*
X287515714Y-76396128D01*
X287515714Y-76396128D02*
X287468095Y-76491366D01*
X287468095Y-76491366D02*
X287468095Y-76681842D01*
X287468095Y-76681842D02*
X287515714Y-76777080D01*
X287515714Y-76777080D02*
X287563333Y-76824700D01*
X287563333Y-76824700D02*
X287658571Y-76872319D01*
X287658571Y-76872319D02*
X287849047Y-76872319D01*
X287849047Y-76872319D02*
X287944285Y-76824700D01*
X287944285Y-76824700D02*
X287991904Y-76777080D01*
X287991904Y-76777080D02*
X288039523Y-76681842D01*
X288039523Y-76681842D02*
X288039523Y-76491366D01*
X288039523Y-76491366D02*
X287991904Y-76396128D01*
X287991904Y-76396128D02*
X287944285Y-76348509D01*
X287944285Y-76348509D02*
X287849047Y-76300890D01*
X-2758273Y-114924700D02*
X-2615416Y-114972319D01*
X-2615416Y-114972319D02*
X-2377321Y-114972319D01*
X-2377321Y-114972319D02*
X-2282083Y-114924700D01*
X-2282083Y-114924700D02*
X-2234464Y-114877080D01*
X-2234464Y-114877080D02*
X-2186845Y-114781842D01*
X-2186845Y-114781842D02*
X-2186845Y-114686604D01*
X-2186845Y-114686604D02*
X-2234464Y-114591366D01*
X-2234464Y-114591366D02*
X-2282083Y-114543747D01*
X-2282083Y-114543747D02*
X-2377321Y-114496128D01*
X-2377321Y-114496128D02*
X-2567797Y-114448509D01*
X-2567797Y-114448509D02*
X-2663035Y-114400890D01*
X-2663035Y-114400890D02*
X-2710654Y-114353271D01*
X-2710654Y-114353271D02*
X-2758273Y-114258033D01*
X-2758273Y-114258033D02*
X-2758273Y-114162795D01*
X-2758273Y-114162795D02*
X-2710654Y-114067557D01*
X-2710654Y-114067557D02*
X-2663035Y-114019938D01*
X-2663035Y-114019938D02*
X-2567797Y-113972319D01*
X-2567797Y-113972319D02*
X-2329702Y-113972319D01*
X-2329702Y-113972319D02*
X-2186845Y-114019938D01*
X-1853511Y-113972319D02*
X-1615416Y-114972319D01*
X-1615416Y-114972319D02*
X-1424940Y-114258033D01*
X-1424940Y-114258033D02*
X-1234464Y-114972319D01*
X-1234464Y-114972319D02*
X-996369Y-113972319D01*
X-91607Y-114972319D02*
X-663035Y-114972319D01*
X-377321Y-114972319D02*
X-377321Y-113972319D01*
X-377321Y-113972319D02*
X-472559Y-114115176D01*
X-472559Y-114115176D02*
X-567797Y-114210414D01*
X-567797Y-114210414D02*
X-663035Y-114258033D01*
X241726Y-113972319D02*
X908392Y-113972319D01*
X908392Y-113972319D02*
X479821Y-114972319D01*
X199837583Y-106020770D02*
X199987219Y-106037647D01*
X199987219Y-106037647D02*
X200220111Y-105988144D01*
X200220111Y-105988144D02*
X200303367Y-105921765D01*
X200303367Y-105921765D02*
X200340045Y-105865286D01*
X200340045Y-105865286D02*
X200366823Y-105762228D01*
X200366823Y-105762228D02*
X200347021Y-105669071D01*
X200347021Y-105669071D02*
X200280642Y-105585815D01*
X200280642Y-105585815D02*
X200224163Y-105549137D01*
X200224163Y-105549137D02*
X200121105Y-105522360D01*
X200121105Y-105522360D02*
X199924891Y-105515384D01*
X199924891Y-105515384D02*
X199821834Y-105488606D01*
X199821834Y-105488606D02*
X199765355Y-105451928D01*
X199765355Y-105451928D02*
X199698975Y-105368672D01*
X199698975Y-105368672D02*
X199679174Y-105275515D01*
X199679174Y-105275515D02*
X199705951Y-105172458D01*
X199705951Y-105172458D02*
X199742629Y-105115979D01*
X199742629Y-105115979D02*
X199825885Y-105049599D01*
X199825885Y-105049599D02*
X200058778Y-105000096D01*
X200058778Y-105000096D02*
X200208414Y-105016973D01*
X200524562Y-104901091D02*
X200965366Y-105829735D01*
X200965366Y-105829735D02*
X201003172Y-105091456D01*
X201003172Y-105091456D02*
X201337994Y-105750531D01*
X201337994Y-105750531D02*
X201362975Y-104722881D01*
X202224112Y-104880620D02*
X202362720Y-105532719D01*
X201912015Y-104557495D02*
X201827631Y-105305675D01*
X201827631Y-105305675D02*
X202433151Y-105176968D01*
X203387446Y-105314907D02*
X202828505Y-105433713D01*
X203107975Y-105374310D02*
X202900064Y-104396162D01*
X202900064Y-104396162D02*
X202836608Y-104555699D01*
X202836608Y-104555699D02*
X202763253Y-104668657D01*
X202763253Y-104668657D02*
X202679996Y-104735036D01*
X82128967Y-103736844D02*
X82258802Y-103813124D01*
X82258802Y-103813124D02*
X82491695Y-103862627D01*
X82491695Y-103862627D02*
X82594752Y-103835850D01*
X82594752Y-103835850D02*
X82651231Y-103799172D01*
X82651231Y-103799172D02*
X82717611Y-103715915D01*
X82717611Y-103715915D02*
X82737412Y-103622758D01*
X82737412Y-103622758D02*
X82710634Y-103519701D01*
X82710634Y-103519701D02*
X82673957Y-103463222D01*
X82673957Y-103463222D02*
X82590700Y-103396842D01*
X82590700Y-103396842D02*
X82414287Y-103310662D01*
X82414287Y-103310662D02*
X82331031Y-103244282D01*
X82331031Y-103244282D02*
X82294353Y-103187803D01*
X82294353Y-103187803D02*
X82267575Y-103084746D01*
X82267575Y-103084746D02*
X82287376Y-102991589D01*
X82287376Y-102991589D02*
X82353756Y-102908332D01*
X82353756Y-102908332D02*
X82410235Y-102871654D01*
X82410235Y-102871654D02*
X82513292Y-102844877D01*
X82513292Y-102844877D02*
X82746185Y-102894380D01*
X82746185Y-102894380D02*
X82876020Y-102970660D01*
X83211969Y-102993385D02*
X83236950Y-104021036D01*
X83236950Y-104021036D02*
X83571772Y-103361961D01*
X83571772Y-103361961D02*
X83609578Y-104100240D01*
X83609578Y-104100240D02*
X84050382Y-103171596D01*
X84727460Y-104337854D02*
X84168519Y-104219047D01*
X84447990Y-104278450D02*
X84655901Y-103300303D01*
X84655901Y-103300303D02*
X84533043Y-103420237D01*
X84533043Y-103420237D02*
X84420085Y-103493593D01*
X84420085Y-103493593D02*
X84317027Y-103520370D01*
X85704481Y-103863965D02*
X85565873Y-104516064D01*
X85550793Y-103441835D02*
X85169392Y-104091009D01*
X85169392Y-104091009D02*
X85774912Y-104219716D01*
X-23713332Y-74919700D02*
X-23570475Y-74967319D01*
X-23570475Y-74967319D02*
X-23332380Y-74967319D01*
X-23332380Y-74967319D02*
X-23237142Y-74919700D01*
X-23237142Y-74919700D02*
X-23189523Y-74872080D01*
X-23189523Y-74872080D02*
X-23141904Y-74776842D01*
X-23141904Y-74776842D02*
X-23141904Y-74681604D01*
X-23141904Y-74681604D02*
X-23189523Y-74586366D01*
X-23189523Y-74586366D02*
X-23237142Y-74538747D01*
X-23237142Y-74538747D02*
X-23332380Y-74491128D01*
X-23332380Y-74491128D02*
X-23522856Y-74443509D01*
X-23522856Y-74443509D02*
X-23618094Y-74395890D01*
X-23618094Y-74395890D02*
X-23665713Y-74348271D01*
X-23665713Y-74348271D02*
X-23713332Y-74253033D01*
X-23713332Y-74253033D02*
X-23713332Y-74157795D01*
X-23713332Y-74157795D02*
X-23665713Y-74062557D01*
X-23665713Y-74062557D02*
X-23618094Y-74014938D01*
X-23618094Y-74014938D02*
X-23522856Y-73967319D01*
X-23522856Y-73967319D02*
X-23284761Y-73967319D01*
X-23284761Y-73967319D02*
X-23141904Y-74014938D01*
X-22808570Y-73967319D02*
X-22570475Y-74967319D01*
X-22570475Y-74967319D02*
X-22379999Y-74253033D01*
X-22379999Y-74253033D02*
X-22189523Y-74967319D01*
X-22189523Y-74967319D02*
X-21951428Y-73967319D01*
X-21046666Y-74967319D02*
X-21618094Y-74967319D01*
X-21332380Y-74967319D02*
X-21332380Y-73967319D01*
X-21332380Y-73967319D02*
X-21427618Y-74110176D01*
X-21427618Y-74110176D02*
X-21522856Y-74205414D01*
X-21522856Y-74205414D02*
X-21618094Y-74253033D01*
X218471295Y-102060052D02*
X218620931Y-102076929D01*
X218620931Y-102076929D02*
X218853823Y-102027426D01*
X218853823Y-102027426D02*
X218937079Y-101961047D01*
X218937079Y-101961047D02*
X218973757Y-101904568D01*
X218973757Y-101904568D02*
X219000535Y-101801510D01*
X219000535Y-101801510D02*
X218980733Y-101708353D01*
X218980733Y-101708353D02*
X218914354Y-101625097D01*
X218914354Y-101625097D02*
X218857875Y-101588419D01*
X218857875Y-101588419D02*
X218754817Y-101561642D01*
X218754817Y-101561642D02*
X218558603Y-101554666D01*
X218558603Y-101554666D02*
X218455546Y-101527888D01*
X218455546Y-101527888D02*
X218399067Y-101491210D01*
X218399067Y-101491210D02*
X218332687Y-101407954D01*
X218332687Y-101407954D02*
X218312886Y-101314797D01*
X218312886Y-101314797D02*
X218339663Y-101211740D01*
X218339663Y-101211740D02*
X218376341Y-101155261D01*
X218376341Y-101155261D02*
X218459597Y-101088881D01*
X218459597Y-101088881D02*
X218692490Y-101039378D01*
X218692490Y-101039378D02*
X218842126Y-101056255D01*
X219158274Y-100940373D02*
X219599078Y-101869017D01*
X219599078Y-101869017D02*
X219636884Y-101130738D01*
X219636884Y-101130738D02*
X219971706Y-101789813D01*
X219971706Y-101789813D02*
X219996687Y-100762163D01*
X220857824Y-100919902D02*
X220996432Y-101572001D01*
X220545727Y-100596777D02*
X220461343Y-101344957D01*
X220461343Y-101344957D02*
X221066863Y-101216250D01*
X221274106Y-100588005D02*
X221310784Y-100531525D01*
X221310784Y-100531525D02*
X221394040Y-100465146D01*
X221394040Y-100465146D02*
X221626933Y-100415643D01*
X221626933Y-100415643D02*
X221729990Y-100442420D01*
X221729990Y-100442420D02*
X221786469Y-100479098D01*
X221786469Y-100479098D02*
X221852849Y-100562355D01*
X221852849Y-100562355D02*
X221872650Y-100655512D01*
X221872650Y-100655512D02*
X221855773Y-100805148D01*
X221855773Y-100805148D02*
X221415638Y-101482896D01*
X221415638Y-101482896D02*
X222021158Y-101354189D01*
X23435476Y-114924700D02*
X23578333Y-114972319D01*
X23578333Y-114972319D02*
X23816428Y-114972319D01*
X23816428Y-114972319D02*
X23911666Y-114924700D01*
X23911666Y-114924700D02*
X23959285Y-114877080D01*
X23959285Y-114877080D02*
X24006904Y-114781842D01*
X24006904Y-114781842D02*
X24006904Y-114686604D01*
X24006904Y-114686604D02*
X23959285Y-114591366D01*
X23959285Y-114591366D02*
X23911666Y-114543747D01*
X23911666Y-114543747D02*
X23816428Y-114496128D01*
X23816428Y-114496128D02*
X23625952Y-114448509D01*
X23625952Y-114448509D02*
X23530714Y-114400890D01*
X23530714Y-114400890D02*
X23483095Y-114353271D01*
X23483095Y-114353271D02*
X23435476Y-114258033D01*
X23435476Y-114258033D02*
X23435476Y-114162795D01*
X23435476Y-114162795D02*
X23483095Y-114067557D01*
X23483095Y-114067557D02*
X23530714Y-114019938D01*
X23530714Y-114019938D02*
X23625952Y-113972319D01*
X23625952Y-113972319D02*
X23864047Y-113972319D01*
X23864047Y-113972319D02*
X24006904Y-114019938D01*
X24340238Y-113972319D02*
X24578333Y-114972319D01*
X24578333Y-114972319D02*
X24768809Y-114258033D01*
X24768809Y-114258033D02*
X24959285Y-114972319D01*
X24959285Y-114972319D02*
X25197381Y-113972319D01*
X26102142Y-114972319D02*
X25530714Y-114972319D01*
X25816428Y-114972319D02*
X25816428Y-113972319D01*
X25816428Y-113972319D02*
X25721190Y-114115176D01*
X25721190Y-114115176D02*
X25625952Y-114210414D01*
X25625952Y-114210414D02*
X25530714Y-114258033D01*
X26673571Y-114400890D02*
X26578333Y-114353271D01*
X26578333Y-114353271D02*
X26530714Y-114305652D01*
X26530714Y-114305652D02*
X26483095Y-114210414D01*
X26483095Y-114210414D02*
X26483095Y-114162795D01*
X26483095Y-114162795D02*
X26530714Y-114067557D01*
X26530714Y-114067557D02*
X26578333Y-114019938D01*
X26578333Y-114019938D02*
X26673571Y-113972319D01*
X26673571Y-113972319D02*
X26864047Y-113972319D01*
X26864047Y-113972319D02*
X26959285Y-114019938D01*
X26959285Y-114019938D02*
X27006904Y-114067557D01*
X27006904Y-114067557D02*
X27054523Y-114162795D01*
X27054523Y-114162795D02*
X27054523Y-114210414D01*
X27054523Y-114210414D02*
X27006904Y-114305652D01*
X27006904Y-114305652D02*
X26959285Y-114353271D01*
X26959285Y-114353271D02*
X26864047Y-114400890D01*
X26864047Y-114400890D02*
X26673571Y-114400890D01*
X26673571Y-114400890D02*
X26578333Y-114448509D01*
X26578333Y-114448509D02*
X26530714Y-114496128D01*
X26530714Y-114496128D02*
X26483095Y-114591366D01*
X26483095Y-114591366D02*
X26483095Y-114781842D01*
X26483095Y-114781842D02*
X26530714Y-114877080D01*
X26530714Y-114877080D02*
X26578333Y-114924700D01*
X26578333Y-114924700D02*
X26673571Y-114972319D01*
X26673571Y-114972319D02*
X26864047Y-114972319D01*
X26864047Y-114972319D02*
X26959285Y-114924700D01*
X26959285Y-114924700D02*
X27006904Y-114877080D01*
X27006904Y-114877080D02*
X27054523Y-114781842D01*
X27054523Y-114781842D02*
X27054523Y-114591366D01*
X27054523Y-114591366D02*
X27006904Y-114496128D01*
X27006904Y-114496128D02*
X26959285Y-114448509D01*
X26959285Y-114448509D02*
X26864047Y-114400890D01*
X243860781Y-116138939D02*
X244010417Y-116155816D01*
X244010417Y-116155816D02*
X244243309Y-116106313D01*
X244243309Y-116106313D02*
X244326565Y-116039934D01*
X244326565Y-116039934D02*
X244363243Y-115983455D01*
X244363243Y-115983455D02*
X244390021Y-115880397D01*
X244390021Y-115880397D02*
X244370219Y-115787240D01*
X244370219Y-115787240D02*
X244303840Y-115703984D01*
X244303840Y-115703984D02*
X244247361Y-115667306D01*
X244247361Y-115667306D02*
X244144303Y-115640529D01*
X244144303Y-115640529D02*
X243948089Y-115633553D01*
X243948089Y-115633553D02*
X243845032Y-115606775D01*
X243845032Y-115606775D02*
X243788553Y-115570097D01*
X243788553Y-115570097D02*
X243722173Y-115486841D01*
X243722173Y-115486841D02*
X243702372Y-115393684D01*
X243702372Y-115393684D02*
X243729149Y-115290627D01*
X243729149Y-115290627D02*
X243765827Y-115234148D01*
X243765827Y-115234148D02*
X243849083Y-115167768D01*
X243849083Y-115167768D02*
X244081976Y-115118265D01*
X244081976Y-115118265D02*
X244231612Y-115135142D01*
X244547760Y-115019260D02*
X244988564Y-115947904D01*
X244988564Y-115947904D02*
X245026370Y-115209625D01*
X245026370Y-115209625D02*
X245361192Y-115868700D01*
X245361192Y-115868700D02*
X245386173Y-114841050D01*
X246224585Y-114662840D02*
X245758800Y-114761845D01*
X245758800Y-114761845D02*
X245811227Y-115237530D01*
X245811227Y-115237530D02*
X245847905Y-115181051D01*
X245847905Y-115181051D02*
X245931161Y-115114672D01*
X245931161Y-115114672D02*
X246164054Y-115065169D01*
X246164054Y-115065169D02*
X246267111Y-115091946D01*
X246267111Y-115091946D02*
X246323590Y-115128624D01*
X246323590Y-115128624D02*
X246389970Y-115211881D01*
X246389970Y-115211881D02*
X246439473Y-115444773D01*
X246439473Y-115444773D02*
X246412695Y-115547830D01*
X246412695Y-115547830D02*
X246376017Y-115604309D01*
X246376017Y-115604309D02*
X246292761Y-115670689D01*
X246292761Y-115670689D02*
X246059869Y-115720192D01*
X246059869Y-115720192D02*
X245956811Y-115693414D01*
X245956811Y-115693414D02*
X245900332Y-115656736D01*
X247410644Y-115433076D02*
X246851703Y-115551882D01*
X247131173Y-115492479D02*
X246923262Y-114514331D01*
X246923262Y-114514331D02*
X246859806Y-114673868D01*
X246859806Y-114673868D02*
X246786451Y-114786826D01*
X246786451Y-114786826D02*
X246703194Y-114853205D01*
X262512976Y-133974700D02*
X262655833Y-134022319D01*
X262655833Y-134022319D02*
X262893928Y-134022319D01*
X262893928Y-134022319D02*
X262989166Y-133974700D01*
X262989166Y-133974700D02*
X263036785Y-133927080D01*
X263036785Y-133927080D02*
X263084404Y-133831842D01*
X263084404Y-133831842D02*
X263084404Y-133736604D01*
X263084404Y-133736604D02*
X263036785Y-133641366D01*
X263036785Y-133641366D02*
X262989166Y-133593747D01*
X262989166Y-133593747D02*
X262893928Y-133546128D01*
X262893928Y-133546128D02*
X262703452Y-133498509D01*
X262703452Y-133498509D02*
X262608214Y-133450890D01*
X262608214Y-133450890D02*
X262560595Y-133403271D01*
X262560595Y-133403271D02*
X262512976Y-133308033D01*
X262512976Y-133308033D02*
X262512976Y-133212795D01*
X262512976Y-133212795D02*
X262560595Y-133117557D01*
X262560595Y-133117557D02*
X262608214Y-133069938D01*
X262608214Y-133069938D02*
X262703452Y-133022319D01*
X262703452Y-133022319D02*
X262941547Y-133022319D01*
X262941547Y-133022319D02*
X263084404Y-133069938D01*
X263417738Y-133022319D02*
X263655833Y-134022319D01*
X263655833Y-134022319D02*
X263846309Y-133308033D01*
X263846309Y-133308033D02*
X264036785Y-134022319D01*
X264036785Y-134022319D02*
X264274881Y-133022319D01*
X265132023Y-133022319D02*
X264655833Y-133022319D01*
X264655833Y-133022319D02*
X264608214Y-133498509D01*
X264608214Y-133498509D02*
X264655833Y-133450890D01*
X264655833Y-133450890D02*
X264751071Y-133403271D01*
X264751071Y-133403271D02*
X264989166Y-133403271D01*
X264989166Y-133403271D02*
X265084404Y-133450890D01*
X265084404Y-133450890D02*
X265132023Y-133498509D01*
X265132023Y-133498509D02*
X265179642Y-133593747D01*
X265179642Y-133593747D02*
X265179642Y-133831842D01*
X265179642Y-133831842D02*
X265132023Y-133927080D01*
X265132023Y-133927080D02*
X265084404Y-133974700D01*
X265084404Y-133974700D02*
X264989166Y-134022319D01*
X264989166Y-134022319D02*
X264751071Y-134022319D01*
X264751071Y-134022319D02*
X264655833Y-133974700D01*
X264655833Y-133974700D02*
X264608214Y-133927080D01*
X265655833Y-134022319D02*
X265846309Y-134022319D01*
X265846309Y-134022319D02*
X265941547Y-133974700D01*
X265941547Y-133974700D02*
X265989166Y-133927080D01*
X265989166Y-133927080D02*
X266084404Y-133784223D01*
X266084404Y-133784223D02*
X266132023Y-133593747D01*
X266132023Y-133593747D02*
X266132023Y-133212795D01*
X266132023Y-133212795D02*
X266084404Y-133117557D01*
X266084404Y-133117557D02*
X266036785Y-133069938D01*
X266036785Y-133069938D02*
X265941547Y-133022319D01*
X265941547Y-133022319D02*
X265751071Y-133022319D01*
X265751071Y-133022319D02*
X265655833Y-133069938D01*
X265655833Y-133069938D02*
X265608214Y-133117557D01*
X265608214Y-133117557D02*
X265560595Y-133212795D01*
X265560595Y-133212795D02*
X265560595Y-133450890D01*
X265560595Y-133450890D02*
X265608214Y-133546128D01*
X265608214Y-133546128D02*
X265655833Y-133593747D01*
X265655833Y-133593747D02*
X265751071Y-133641366D01*
X265751071Y-133641366D02*
X265941547Y-133641366D01*
X265941547Y-133641366D02*
X266036785Y-133593747D01*
X266036785Y-133593747D02*
X266084404Y-133546128D01*
X266084404Y-133546128D02*
X266132023Y-133450890D01*
X333950476Y-133974700D02*
X334093333Y-134022319D01*
X334093333Y-134022319D02*
X334331428Y-134022319D01*
X334331428Y-134022319D02*
X334426666Y-133974700D01*
X334426666Y-133974700D02*
X334474285Y-133927080D01*
X334474285Y-133927080D02*
X334521904Y-133831842D01*
X334521904Y-133831842D02*
X334521904Y-133736604D01*
X334521904Y-133736604D02*
X334474285Y-133641366D01*
X334474285Y-133641366D02*
X334426666Y-133593747D01*
X334426666Y-133593747D02*
X334331428Y-133546128D01*
X334331428Y-133546128D02*
X334140952Y-133498509D01*
X334140952Y-133498509D02*
X334045714Y-133450890D01*
X334045714Y-133450890D02*
X333998095Y-133403271D01*
X333998095Y-133403271D02*
X333950476Y-133308033D01*
X333950476Y-133308033D02*
X333950476Y-133212795D01*
X333950476Y-133212795D02*
X333998095Y-133117557D01*
X333998095Y-133117557D02*
X334045714Y-133069938D01*
X334045714Y-133069938D02*
X334140952Y-133022319D01*
X334140952Y-133022319D02*
X334379047Y-133022319D01*
X334379047Y-133022319D02*
X334521904Y-133069938D01*
X334855238Y-133022319D02*
X335093333Y-134022319D01*
X335093333Y-134022319D02*
X335283809Y-133308033D01*
X335283809Y-133308033D02*
X335474285Y-134022319D01*
X335474285Y-134022319D02*
X335712381Y-133022319D01*
X336521904Y-133022319D02*
X336331428Y-133022319D01*
X336331428Y-133022319D02*
X336236190Y-133069938D01*
X336236190Y-133069938D02*
X336188571Y-133117557D01*
X336188571Y-133117557D02*
X336093333Y-133260414D01*
X336093333Y-133260414D02*
X336045714Y-133450890D01*
X336045714Y-133450890D02*
X336045714Y-133831842D01*
X336045714Y-133831842D02*
X336093333Y-133927080D01*
X336093333Y-133927080D02*
X336140952Y-133974700D01*
X336140952Y-133974700D02*
X336236190Y-134022319D01*
X336236190Y-134022319D02*
X336426666Y-134022319D01*
X336426666Y-134022319D02*
X336521904Y-133974700D01*
X336521904Y-133974700D02*
X336569523Y-133927080D01*
X336569523Y-133927080D02*
X336617142Y-133831842D01*
X336617142Y-133831842D02*
X336617142Y-133593747D01*
X336617142Y-133593747D02*
X336569523Y-133498509D01*
X336569523Y-133498509D02*
X336521904Y-133450890D01*
X336521904Y-133450890D02*
X336426666Y-133403271D01*
X336426666Y-133403271D02*
X336236190Y-133403271D01*
X336236190Y-133403271D02*
X336140952Y-133450890D01*
X336140952Y-133450890D02*
X336093333Y-133498509D01*
X336093333Y-133498509D02*
X336045714Y-133593747D01*
X336998095Y-133117557D02*
X337045714Y-133069938D01*
X337045714Y-133069938D02*
X337140952Y-133022319D01*
X337140952Y-133022319D02*
X337379047Y-133022319D01*
X337379047Y-133022319D02*
X337474285Y-133069938D01*
X337474285Y-133069938D02*
X337521904Y-133117557D01*
X337521904Y-133117557D02*
X337569523Y-133212795D01*
X337569523Y-133212795D02*
X337569523Y-133308033D01*
X337569523Y-133308033D02*
X337521904Y-133450890D01*
X337521904Y-133450890D02*
X336950476Y-134022319D01*
X336950476Y-134022319D02*
X337569523Y-134022319D01*
X89114501Y-144172841D02*
X89244336Y-144249121D01*
X89244336Y-144249121D02*
X89477229Y-144298624D01*
X89477229Y-144298624D02*
X89580286Y-144271847D01*
X89580286Y-144271847D02*
X89636765Y-144235169D01*
X89636765Y-144235169D02*
X89703145Y-144151912D01*
X89703145Y-144151912D02*
X89722946Y-144058755D01*
X89722946Y-144058755D02*
X89696168Y-143955698D01*
X89696168Y-143955698D02*
X89659491Y-143899219D01*
X89659491Y-143899219D02*
X89576234Y-143832839D01*
X89576234Y-143832839D02*
X89399821Y-143746659D01*
X89399821Y-143746659D02*
X89316565Y-143680279D01*
X89316565Y-143680279D02*
X89279887Y-143623800D01*
X89279887Y-143623800D02*
X89253109Y-143520743D01*
X89253109Y-143520743D02*
X89272910Y-143427586D01*
X89272910Y-143427586D02*
X89339290Y-143344329D01*
X89339290Y-143344329D02*
X89395769Y-143307651D01*
X89395769Y-143307651D02*
X89498826Y-143280874D01*
X89498826Y-143280874D02*
X89731719Y-143330377D01*
X89731719Y-143330377D02*
X89861554Y-143406657D01*
X90197503Y-143429382D02*
X90222484Y-144457033D01*
X90222484Y-144457033D02*
X90557306Y-143797958D01*
X90557306Y-143797958D02*
X90595112Y-144536237D01*
X90595112Y-144536237D02*
X91035916Y-143607593D01*
X91342164Y-143770053D02*
X91398643Y-143733375D01*
X91398643Y-143733375D02*
X91501700Y-143706598D01*
X91501700Y-143706598D02*
X91734592Y-143756101D01*
X91734592Y-143756101D02*
X91817849Y-143822480D01*
X91817849Y-143822480D02*
X91854527Y-143878959D01*
X91854527Y-143878959D02*
X91881304Y-143982017D01*
X91881304Y-143982017D02*
X91861503Y-144075174D01*
X91861503Y-144075174D02*
X91785223Y-144205009D01*
X91785223Y-144205009D02*
X91107474Y-144645143D01*
X91107474Y-144645143D02*
X91712994Y-144773851D01*
X92246955Y-143865007D02*
X92899054Y-144003615D01*
X92899054Y-144003615D02*
X92271936Y-144892657D01*
X278705476Y-95874700D02*
X278848333Y-95922319D01*
X278848333Y-95922319D02*
X279086428Y-95922319D01*
X279086428Y-95922319D02*
X279181666Y-95874700D01*
X279181666Y-95874700D02*
X279229285Y-95827080D01*
X279229285Y-95827080D02*
X279276904Y-95731842D01*
X279276904Y-95731842D02*
X279276904Y-95636604D01*
X279276904Y-95636604D02*
X279229285Y-95541366D01*
X279229285Y-95541366D02*
X279181666Y-95493747D01*
X279181666Y-95493747D02*
X279086428Y-95446128D01*
X279086428Y-95446128D02*
X278895952Y-95398509D01*
X278895952Y-95398509D02*
X278800714Y-95350890D01*
X278800714Y-95350890D02*
X278753095Y-95303271D01*
X278753095Y-95303271D02*
X278705476Y-95208033D01*
X278705476Y-95208033D02*
X278705476Y-95112795D01*
X278705476Y-95112795D02*
X278753095Y-95017557D01*
X278753095Y-95017557D02*
X278800714Y-94969938D01*
X278800714Y-94969938D02*
X278895952Y-94922319D01*
X278895952Y-94922319D02*
X279134047Y-94922319D01*
X279134047Y-94922319D02*
X279276904Y-94969938D01*
X279610238Y-94922319D02*
X279848333Y-95922319D01*
X279848333Y-95922319D02*
X280038809Y-95208033D01*
X280038809Y-95208033D02*
X280229285Y-95922319D01*
X280229285Y-95922319D02*
X280467381Y-94922319D01*
X281276904Y-95255652D02*
X281276904Y-95922319D01*
X281038809Y-94874700D02*
X280800714Y-95588985D01*
X280800714Y-95588985D02*
X281419761Y-95588985D01*
X282276904Y-94922319D02*
X281800714Y-94922319D01*
X281800714Y-94922319D02*
X281753095Y-95398509D01*
X281753095Y-95398509D02*
X281800714Y-95350890D01*
X281800714Y-95350890D02*
X281895952Y-95303271D01*
X281895952Y-95303271D02*
X282134047Y-95303271D01*
X282134047Y-95303271D02*
X282229285Y-95350890D01*
X282229285Y-95350890D02*
X282276904Y-95398509D01*
X282276904Y-95398509D02*
X282324523Y-95493747D01*
X282324523Y-95493747D02*
X282324523Y-95731842D01*
X282324523Y-95731842D02*
X282276904Y-95827080D01*
X282276904Y-95827080D02*
X282229285Y-95874700D01*
X282229285Y-95874700D02*
X282134047Y-95922319D01*
X282134047Y-95922319D02*
X281895952Y-95922319D01*
X281895952Y-95922319D02*
X281800714Y-95874700D01*
X281800714Y-95874700D02*
X281753095Y-95827080D01*
X186560009Y-89367417D02*
X186709645Y-89384294D01*
X186709645Y-89384294D02*
X186942537Y-89334791D01*
X186942537Y-89334791D02*
X187025793Y-89268412D01*
X187025793Y-89268412D02*
X187062471Y-89211933D01*
X187062471Y-89211933D02*
X187089249Y-89108875D01*
X187089249Y-89108875D02*
X187069447Y-89015718D01*
X187069447Y-89015718D02*
X187003068Y-88932462D01*
X187003068Y-88932462D02*
X186946589Y-88895784D01*
X186946589Y-88895784D02*
X186843531Y-88869007D01*
X186843531Y-88869007D02*
X186647317Y-88862031D01*
X186647317Y-88862031D02*
X186544260Y-88835253D01*
X186544260Y-88835253D02*
X186487781Y-88798575D01*
X186487781Y-88798575D02*
X186421401Y-88715319D01*
X186421401Y-88715319D02*
X186401600Y-88622162D01*
X186401600Y-88622162D02*
X186428377Y-88519105D01*
X186428377Y-88519105D02*
X186465055Y-88462626D01*
X186465055Y-88462626D02*
X186548311Y-88396246D01*
X186548311Y-88396246D02*
X186781204Y-88346743D01*
X186781204Y-88346743D02*
X186930840Y-88363620D01*
X187246988Y-88247738D02*
X187687792Y-89176382D01*
X187687792Y-89176382D02*
X187725598Y-88438103D01*
X187725598Y-88438103D02*
X188060420Y-89097178D01*
X188060420Y-89097178D02*
X188085401Y-88069528D01*
X188364871Y-88010124D02*
X188970391Y-87881417D01*
X188970391Y-87881417D02*
X188723546Y-88323349D01*
X188723546Y-88323349D02*
X188863282Y-88293647D01*
X188863282Y-88293647D02*
X188966339Y-88320424D01*
X188966339Y-88320424D02*
X189022818Y-88357102D01*
X189022818Y-88357102D02*
X189089198Y-88440359D01*
X189089198Y-88440359D02*
X189138701Y-88673251D01*
X189138701Y-88673251D02*
X189111923Y-88776308D01*
X189111923Y-88776308D02*
X189075245Y-88832787D01*
X189075245Y-88832787D02*
X188991989Y-88899167D01*
X188991989Y-88899167D02*
X188712518Y-88958570D01*
X188712518Y-88958570D02*
X188609461Y-88931793D01*
X188609461Y-88931793D02*
X188552982Y-88895115D01*
X189296440Y-87812113D02*
X189901960Y-87683406D01*
X189901960Y-87683406D02*
X189655116Y-88125337D01*
X189655116Y-88125337D02*
X189794851Y-88095636D01*
X189794851Y-88095636D02*
X189897908Y-88122413D01*
X189897908Y-88122413D02*
X189954387Y-88159091D01*
X189954387Y-88159091D02*
X190020767Y-88242347D01*
X190020767Y-88242347D02*
X190070270Y-88475240D01*
X190070270Y-88475240D02*
X190043492Y-88578297D01*
X190043492Y-88578297D02*
X190006815Y-88634776D01*
X190006815Y-88634776D02*
X189923558Y-88701156D01*
X189923558Y-88701156D02*
X189644087Y-88760559D01*
X189644087Y-88760559D02*
X189541030Y-88733782D01*
X189541030Y-88733782D02*
X189484551Y-88697104D01*
X-8949523Y-153024700D02*
X-8806666Y-153072319D01*
X-8806666Y-153072319D02*
X-8568571Y-153072319D01*
X-8568571Y-153072319D02*
X-8473333Y-153024700D01*
X-8473333Y-153024700D02*
X-8425714Y-152977080D01*
X-8425714Y-152977080D02*
X-8378095Y-152881842D01*
X-8378095Y-152881842D02*
X-8378095Y-152786604D01*
X-8378095Y-152786604D02*
X-8425714Y-152691366D01*
X-8425714Y-152691366D02*
X-8473333Y-152643747D01*
X-8473333Y-152643747D02*
X-8568571Y-152596128D01*
X-8568571Y-152596128D02*
X-8759047Y-152548509D01*
X-8759047Y-152548509D02*
X-8854285Y-152500890D01*
X-8854285Y-152500890D02*
X-8901904Y-152453271D01*
X-8901904Y-152453271D02*
X-8949523Y-152358033D01*
X-8949523Y-152358033D02*
X-8949523Y-152262795D01*
X-8949523Y-152262795D02*
X-8901904Y-152167557D01*
X-8901904Y-152167557D02*
X-8854285Y-152119938D01*
X-8854285Y-152119938D02*
X-8759047Y-152072319D01*
X-8759047Y-152072319D02*
X-8520952Y-152072319D01*
X-8520952Y-152072319D02*
X-8378095Y-152119938D01*
X-8044761Y-152072319D02*
X-7806666Y-153072319D01*
X-7806666Y-153072319D02*
X-7616190Y-152358033D01*
X-7616190Y-152358033D02*
X-7425714Y-153072319D01*
X-7425714Y-153072319D02*
X-7187619Y-152072319D01*
X-6854285Y-152167557D02*
X-6806666Y-152119938D01*
X-6806666Y-152119938D02*
X-6711428Y-152072319D01*
X-6711428Y-152072319D02*
X-6473333Y-152072319D01*
X-6473333Y-152072319D02*
X-6378095Y-152119938D01*
X-6378095Y-152119938D02*
X-6330476Y-152167557D01*
X-6330476Y-152167557D02*
X-6282857Y-152262795D01*
X-6282857Y-152262795D02*
X-6282857Y-152358033D01*
X-6282857Y-152358033D02*
X-6330476Y-152500890D01*
X-6330476Y-152500890D02*
X-6901904Y-153072319D01*
X-6901904Y-153072319D02*
X-6282857Y-153072319D01*
X-5806666Y-153072319D02*
X-5616190Y-153072319D01*
X-5616190Y-153072319D02*
X-5520952Y-153024700D01*
X-5520952Y-153024700D02*
X-5473333Y-152977080D01*
X-5473333Y-152977080D02*
X-5378095Y-152834223D01*
X-5378095Y-152834223D02*
X-5330476Y-152643747D01*
X-5330476Y-152643747D02*
X-5330476Y-152262795D01*
X-5330476Y-152262795D02*
X-5378095Y-152167557D01*
X-5378095Y-152167557D02*
X-5425714Y-152119938D01*
X-5425714Y-152119938D02*
X-5520952Y-152072319D01*
X-5520952Y-152072319D02*
X-5711428Y-152072319D01*
X-5711428Y-152072319D02*
X-5806666Y-152119938D01*
X-5806666Y-152119938D02*
X-5854285Y-152167557D01*
X-5854285Y-152167557D02*
X-5901904Y-152262795D01*
X-5901904Y-152262795D02*
X-5901904Y-152500890D01*
X-5901904Y-152500890D02*
X-5854285Y-152596128D01*
X-5854285Y-152596128D02*
X-5806666Y-152643747D01*
X-5806666Y-152643747D02*
X-5711428Y-152691366D01*
X-5711428Y-152691366D02*
X-5520952Y-152691366D01*
X-5520952Y-152691366D02*
X-5425714Y-152643747D01*
X-5425714Y-152643747D02*
X-5378095Y-152596128D01*
X-5378095Y-152596128D02*
X-5330476Y-152500890D01*
X-1329523Y-95874700D02*
X-1186666Y-95922319D01*
X-1186666Y-95922319D02*
X-948571Y-95922319D01*
X-948571Y-95922319D02*
X-853333Y-95874700D01*
X-853333Y-95874700D02*
X-805714Y-95827080D01*
X-805714Y-95827080D02*
X-758095Y-95731842D01*
X-758095Y-95731842D02*
X-758095Y-95636604D01*
X-758095Y-95636604D02*
X-805714Y-95541366D01*
X-805714Y-95541366D02*
X-853333Y-95493747D01*
X-853333Y-95493747D02*
X-948571Y-95446128D01*
X-948571Y-95446128D02*
X-1139047Y-95398509D01*
X-1139047Y-95398509D02*
X-1234285Y-95350890D01*
X-1234285Y-95350890D02*
X-1281904Y-95303271D01*
X-1281904Y-95303271D02*
X-1329523Y-95208033D01*
X-1329523Y-95208033D02*
X-1329523Y-95112795D01*
X-1329523Y-95112795D02*
X-1281904Y-95017557D01*
X-1281904Y-95017557D02*
X-1234285Y-94969938D01*
X-1234285Y-94969938D02*
X-1139047Y-94922319D01*
X-1139047Y-94922319D02*
X-900952Y-94922319D01*
X-900952Y-94922319D02*
X-758095Y-94969938D01*
X-424761Y-94922319D02*
X-186666Y-95922319D01*
X-186666Y-95922319D02*
X3809Y-95208033D01*
X3809Y-95208033D02*
X194285Y-95922319D01*
X194285Y-95922319D02*
X432381Y-94922319D01*
X1337142Y-95922319D02*
X765714Y-95922319D01*
X1051428Y-95922319D02*
X1051428Y-94922319D01*
X1051428Y-94922319D02*
X956190Y-95065176D01*
X956190Y-95065176D02*
X860952Y-95160414D01*
X860952Y-95160414D02*
X765714Y-95208033D01*
X1956190Y-94922319D02*
X2051428Y-94922319D01*
X2051428Y-94922319D02*
X2146666Y-94969938D01*
X2146666Y-94969938D02*
X2194285Y-95017557D01*
X2194285Y-95017557D02*
X2241904Y-95112795D01*
X2241904Y-95112795D02*
X2289523Y-95303271D01*
X2289523Y-95303271D02*
X2289523Y-95541366D01*
X2289523Y-95541366D02*
X2241904Y-95731842D01*
X2241904Y-95731842D02*
X2194285Y-95827080D01*
X2194285Y-95827080D02*
X2146666Y-95874700D01*
X2146666Y-95874700D02*
X2051428Y-95922319D01*
X2051428Y-95922319D02*
X1956190Y-95922319D01*
X1956190Y-95922319D02*
X1860952Y-95874700D01*
X1860952Y-95874700D02*
X1813333Y-95827080D01*
X1813333Y-95827080D02*
X1765714Y-95731842D01*
X1765714Y-95731842D02*
X1718095Y-95541366D01*
X1718095Y-95541366D02*
X1718095Y-95303271D01*
X1718095Y-95303271D02*
X1765714Y-95112795D01*
X1765714Y-95112795D02*
X1813333Y-95017557D01*
X1813333Y-95017557D02*
X1860952Y-94969938D01*
X1860952Y-94969938D02*
X1956190Y-94922319D01*
X268227976Y-114924700D02*
X268370833Y-114972319D01*
X268370833Y-114972319D02*
X268608928Y-114972319D01*
X268608928Y-114972319D02*
X268704166Y-114924700D01*
X268704166Y-114924700D02*
X268751785Y-114877080D01*
X268751785Y-114877080D02*
X268799404Y-114781842D01*
X268799404Y-114781842D02*
X268799404Y-114686604D01*
X268799404Y-114686604D02*
X268751785Y-114591366D01*
X268751785Y-114591366D02*
X268704166Y-114543747D01*
X268704166Y-114543747D02*
X268608928Y-114496128D01*
X268608928Y-114496128D02*
X268418452Y-114448509D01*
X268418452Y-114448509D02*
X268323214Y-114400890D01*
X268323214Y-114400890D02*
X268275595Y-114353271D01*
X268275595Y-114353271D02*
X268227976Y-114258033D01*
X268227976Y-114258033D02*
X268227976Y-114162795D01*
X268227976Y-114162795D02*
X268275595Y-114067557D01*
X268275595Y-114067557D02*
X268323214Y-114019938D01*
X268323214Y-114019938D02*
X268418452Y-113972319D01*
X268418452Y-113972319D02*
X268656547Y-113972319D01*
X268656547Y-113972319D02*
X268799404Y-114019938D01*
X269132738Y-113972319D02*
X269370833Y-114972319D01*
X269370833Y-114972319D02*
X269561309Y-114258033D01*
X269561309Y-114258033D02*
X269751785Y-114972319D01*
X269751785Y-114972319D02*
X269989881Y-113972319D01*
X270847023Y-113972319D02*
X270370833Y-113972319D01*
X270370833Y-113972319D02*
X270323214Y-114448509D01*
X270323214Y-114448509D02*
X270370833Y-114400890D01*
X270370833Y-114400890D02*
X270466071Y-114353271D01*
X270466071Y-114353271D02*
X270704166Y-114353271D01*
X270704166Y-114353271D02*
X270799404Y-114400890D01*
X270799404Y-114400890D02*
X270847023Y-114448509D01*
X270847023Y-114448509D02*
X270894642Y-114543747D01*
X270894642Y-114543747D02*
X270894642Y-114781842D01*
X270894642Y-114781842D02*
X270847023Y-114877080D01*
X270847023Y-114877080D02*
X270799404Y-114924700D01*
X270799404Y-114924700D02*
X270704166Y-114972319D01*
X270704166Y-114972319D02*
X270466071Y-114972319D01*
X270466071Y-114972319D02*
X270370833Y-114924700D01*
X270370833Y-114924700D02*
X270323214Y-114877080D01*
X271275595Y-114067557D02*
X271323214Y-114019938D01*
X271323214Y-114019938D02*
X271418452Y-113972319D01*
X271418452Y-113972319D02*
X271656547Y-113972319D01*
X271656547Y-113972319D02*
X271751785Y-114019938D01*
X271751785Y-114019938D02*
X271799404Y-114067557D01*
X271799404Y-114067557D02*
X271847023Y-114162795D01*
X271847023Y-114162795D02*
X271847023Y-114258033D01*
X271847023Y-114258033D02*
X271799404Y-114400890D01*
X271799404Y-114400890D02*
X271227976Y-114972319D01*
X271227976Y-114972319D02*
X271847023Y-114972319D01*
X239436328Y-136554973D02*
X239585964Y-136571850D01*
X239585964Y-136571850D02*
X239818856Y-136522347D01*
X239818856Y-136522347D02*
X239902112Y-136455968D01*
X239902112Y-136455968D02*
X239938790Y-136399489D01*
X239938790Y-136399489D02*
X239965568Y-136296431D01*
X239965568Y-136296431D02*
X239945766Y-136203274D01*
X239945766Y-136203274D02*
X239879387Y-136120018D01*
X239879387Y-136120018D02*
X239822908Y-136083340D01*
X239822908Y-136083340D02*
X239719850Y-136056563D01*
X239719850Y-136056563D02*
X239523636Y-136049587D01*
X239523636Y-136049587D02*
X239420579Y-136022809D01*
X239420579Y-136022809D02*
X239364100Y-135986131D01*
X239364100Y-135986131D02*
X239297720Y-135902875D01*
X239297720Y-135902875D02*
X239277919Y-135809718D01*
X239277919Y-135809718D02*
X239304696Y-135706661D01*
X239304696Y-135706661D02*
X239341374Y-135650182D01*
X239341374Y-135650182D02*
X239424630Y-135583802D01*
X239424630Y-135583802D02*
X239657523Y-135534299D01*
X239657523Y-135534299D02*
X239807159Y-135551176D01*
X240123307Y-135435294D02*
X240564111Y-136363938D01*
X240564111Y-136363938D02*
X240601917Y-135625659D01*
X240601917Y-135625659D02*
X240936739Y-136284734D01*
X240936739Y-136284734D02*
X240961720Y-135257084D01*
X241800132Y-135078874D02*
X241334347Y-135177879D01*
X241334347Y-135177879D02*
X241386774Y-135653564D01*
X241386774Y-135653564D02*
X241423452Y-135597085D01*
X241423452Y-135597085D02*
X241506708Y-135530706D01*
X241506708Y-135530706D02*
X241739601Y-135481203D01*
X241739601Y-135481203D02*
X241842658Y-135507980D01*
X241842658Y-135507980D02*
X241899137Y-135544658D01*
X241899137Y-135544658D02*
X241965517Y-135627915D01*
X241965517Y-135627915D02*
X242015020Y-135860807D01*
X242015020Y-135860807D02*
X241988242Y-135963864D01*
X241988242Y-135963864D02*
X241951564Y-136020343D01*
X241951564Y-136020343D02*
X241868308Y-136086723D01*
X241868308Y-136086723D02*
X241635416Y-136136226D01*
X241635416Y-136136226D02*
X241532358Y-136109448D01*
X241532358Y-136109448D02*
X241475879Y-136072770D01*
X242494757Y-135369372D02*
X242391699Y-135342595D01*
X242391699Y-135342595D02*
X242335220Y-135305917D01*
X242335220Y-135305917D02*
X242268841Y-135222661D01*
X242268841Y-135222661D02*
X242258940Y-135176082D01*
X242258940Y-135176082D02*
X242285717Y-135073025D01*
X242285717Y-135073025D02*
X242322395Y-135016546D01*
X242322395Y-135016546D02*
X242405652Y-134950166D01*
X242405652Y-134950166D02*
X242591966Y-134910564D01*
X242591966Y-134910564D02*
X242695023Y-134937341D01*
X242695023Y-134937341D02*
X242751502Y-134974019D01*
X242751502Y-134974019D02*
X242817882Y-135057276D01*
X242817882Y-135057276D02*
X242827782Y-135103854D01*
X242827782Y-135103854D02*
X242801005Y-135206912D01*
X242801005Y-135206912D02*
X242764327Y-135263391D01*
X242764327Y-135263391D02*
X242681071Y-135329770D01*
X242681071Y-135329770D02*
X242494757Y-135369372D01*
X242494757Y-135369372D02*
X242411500Y-135435752D01*
X242411500Y-135435752D02*
X242374822Y-135492231D01*
X242374822Y-135492231D02*
X242348045Y-135595289D01*
X242348045Y-135595289D02*
X242387647Y-135781602D01*
X242387647Y-135781602D02*
X242454027Y-135864859D01*
X242454027Y-135864859D02*
X242510506Y-135901537D01*
X242510506Y-135901537D02*
X242613563Y-135928314D01*
X242613563Y-135928314D02*
X242799877Y-135888712D01*
X242799877Y-135888712D02*
X242883134Y-135822332D01*
X242883134Y-135822332D02*
X242919811Y-135765853D01*
X242919811Y-135765853D02*
X242946589Y-135662796D01*
X242946589Y-135662796D02*
X242906987Y-135476482D01*
X242906987Y-135476482D02*
X242840607Y-135393226D01*
X242840607Y-135393226D02*
X242784128Y-135356548D01*
X242784128Y-135356548D02*
X242681071Y-135329770D01*
X44861543Y-95815408D02*
X44991378Y-95891688D01*
X44991378Y-95891688D02*
X45224271Y-95941191D01*
X45224271Y-95941191D02*
X45327328Y-95914414D01*
X45327328Y-95914414D02*
X45383807Y-95877736D01*
X45383807Y-95877736D02*
X45450187Y-95794479D01*
X45450187Y-95794479D02*
X45469988Y-95701322D01*
X45469988Y-95701322D02*
X45443210Y-95598265D01*
X45443210Y-95598265D02*
X45406533Y-95541786D01*
X45406533Y-95541786D02*
X45323276Y-95475406D01*
X45323276Y-95475406D02*
X45146863Y-95389226D01*
X45146863Y-95389226D02*
X45063607Y-95322846D01*
X45063607Y-95322846D02*
X45026929Y-95266367D01*
X45026929Y-95266367D02*
X45000151Y-95163310D01*
X45000151Y-95163310D02*
X45019952Y-95070153D01*
X45019952Y-95070153D02*
X45086332Y-94986896D01*
X45086332Y-94986896D02*
X45142811Y-94950218D01*
X45142811Y-94950218D02*
X45245868Y-94923441D01*
X45245868Y-94923441D02*
X45478761Y-94972944D01*
X45478761Y-94972944D02*
X45608596Y-95049224D01*
X45944545Y-95071949D02*
X45969526Y-96099600D01*
X45969526Y-96099600D02*
X46304348Y-95440525D01*
X46304348Y-95440525D02*
X46342154Y-96178804D01*
X46342154Y-96178804D02*
X46782958Y-95250160D01*
X47460036Y-96416418D02*
X46901095Y-96297611D01*
X47180566Y-96357014D02*
X47388477Y-95378867D01*
X47388477Y-95378867D02*
X47265619Y-95498801D01*
X47265619Y-95498801D02*
X47152661Y-95572157D01*
X47152661Y-95572157D02*
X47049603Y-95598934D01*
X48020775Y-95610631D02*
X48077254Y-95573954D01*
X48077254Y-95573954D02*
X48180311Y-95547176D01*
X48180311Y-95547176D02*
X48413203Y-95596679D01*
X48413203Y-95596679D02*
X48496460Y-95663059D01*
X48496460Y-95663059D02*
X48533138Y-95719538D01*
X48533138Y-95719538D02*
X48559915Y-95822595D01*
X48559915Y-95822595D02*
X48540114Y-95915752D01*
X48540114Y-95915752D02*
X48463834Y-96045587D01*
X48463834Y-96045587D02*
X47786086Y-96485722D01*
X47786086Y-96485722D02*
X48391606Y-96614429D01*
X287277976Y-114924700D02*
X287420833Y-114972319D01*
X287420833Y-114972319D02*
X287658928Y-114972319D01*
X287658928Y-114972319D02*
X287754166Y-114924700D01*
X287754166Y-114924700D02*
X287801785Y-114877080D01*
X287801785Y-114877080D02*
X287849404Y-114781842D01*
X287849404Y-114781842D02*
X287849404Y-114686604D01*
X287849404Y-114686604D02*
X287801785Y-114591366D01*
X287801785Y-114591366D02*
X287754166Y-114543747D01*
X287754166Y-114543747D02*
X287658928Y-114496128D01*
X287658928Y-114496128D02*
X287468452Y-114448509D01*
X287468452Y-114448509D02*
X287373214Y-114400890D01*
X287373214Y-114400890D02*
X287325595Y-114353271D01*
X287325595Y-114353271D02*
X287277976Y-114258033D01*
X287277976Y-114258033D02*
X287277976Y-114162795D01*
X287277976Y-114162795D02*
X287325595Y-114067557D01*
X287325595Y-114067557D02*
X287373214Y-114019938D01*
X287373214Y-114019938D02*
X287468452Y-113972319D01*
X287468452Y-113972319D02*
X287706547Y-113972319D01*
X287706547Y-113972319D02*
X287849404Y-114019938D01*
X288182738Y-113972319D02*
X288420833Y-114972319D01*
X288420833Y-114972319D02*
X288611309Y-114258033D01*
X288611309Y-114258033D02*
X288801785Y-114972319D01*
X288801785Y-114972319D02*
X289039881Y-113972319D01*
X289897023Y-113972319D02*
X289420833Y-113972319D01*
X289420833Y-113972319D02*
X289373214Y-114448509D01*
X289373214Y-114448509D02*
X289420833Y-114400890D01*
X289420833Y-114400890D02*
X289516071Y-114353271D01*
X289516071Y-114353271D02*
X289754166Y-114353271D01*
X289754166Y-114353271D02*
X289849404Y-114400890D01*
X289849404Y-114400890D02*
X289897023Y-114448509D01*
X289897023Y-114448509D02*
X289944642Y-114543747D01*
X289944642Y-114543747D02*
X289944642Y-114781842D01*
X289944642Y-114781842D02*
X289897023Y-114877080D01*
X289897023Y-114877080D02*
X289849404Y-114924700D01*
X289849404Y-114924700D02*
X289754166Y-114972319D01*
X289754166Y-114972319D02*
X289516071Y-114972319D01*
X289516071Y-114972319D02*
X289420833Y-114924700D01*
X289420833Y-114924700D02*
X289373214Y-114877080D01*
X290277976Y-113972319D02*
X290897023Y-113972319D01*
X290897023Y-113972319D02*
X290563690Y-114353271D01*
X290563690Y-114353271D02*
X290706547Y-114353271D01*
X290706547Y-114353271D02*
X290801785Y-114400890D01*
X290801785Y-114400890D02*
X290849404Y-114448509D01*
X290849404Y-114448509D02*
X290897023Y-114543747D01*
X290897023Y-114543747D02*
X290897023Y-114781842D01*
X290897023Y-114781842D02*
X290849404Y-114877080D01*
X290849404Y-114877080D02*
X290801785Y-114924700D01*
X290801785Y-114924700D02*
X290706547Y-114972319D01*
X290706547Y-114972319D02*
X290420833Y-114972319D01*
X290420833Y-114972319D02*
X290325595Y-114924700D01*
X290325595Y-114924700D02*
X290277976Y-114877080D01*
X242461145Y-77485264D02*
X242610781Y-77502141D01*
X242610781Y-77502141D02*
X242843673Y-77452638D01*
X242843673Y-77452638D02*
X242926929Y-77386259D01*
X242926929Y-77386259D02*
X242963607Y-77329780D01*
X242963607Y-77329780D02*
X242990385Y-77226722D01*
X242990385Y-77226722D02*
X242970583Y-77133565D01*
X242970583Y-77133565D02*
X242904204Y-77050309D01*
X242904204Y-77050309D02*
X242847725Y-77013631D01*
X242847725Y-77013631D02*
X242744667Y-76986854D01*
X242744667Y-76986854D02*
X242548453Y-76979878D01*
X242548453Y-76979878D02*
X242445396Y-76953100D01*
X242445396Y-76953100D02*
X242388917Y-76916422D01*
X242388917Y-76916422D02*
X242322537Y-76833166D01*
X242322537Y-76833166D02*
X242302736Y-76740009D01*
X242302736Y-76740009D02*
X242329513Y-76636952D01*
X242329513Y-76636952D02*
X242366191Y-76580473D01*
X242366191Y-76580473D02*
X242449447Y-76514093D01*
X242449447Y-76514093D02*
X242682340Y-76464590D01*
X242682340Y-76464590D02*
X242831976Y-76481467D01*
X243148124Y-76365585D02*
X243588928Y-77294229D01*
X243588928Y-77294229D02*
X243626734Y-76555950D01*
X243626734Y-76555950D02*
X243961556Y-77215025D01*
X243961556Y-77215025D02*
X243986537Y-76187375D01*
X244266007Y-76127971D02*
X244871527Y-75999264D01*
X244871527Y-75999264D02*
X244624682Y-76441196D01*
X244624682Y-76441196D02*
X244764418Y-76411494D01*
X244764418Y-76411494D02*
X244867475Y-76438271D01*
X244867475Y-76438271D02*
X244923954Y-76474949D01*
X244923954Y-76474949D02*
X244990334Y-76558206D01*
X244990334Y-76558206D02*
X245039837Y-76791098D01*
X245039837Y-76791098D02*
X245013059Y-76894155D01*
X245013059Y-76894155D02*
X244976381Y-76950634D01*
X244976381Y-76950634D02*
X244893125Y-77017014D01*
X244893125Y-77017014D02*
X244613654Y-77076417D01*
X244613654Y-77076417D02*
X244510597Y-77049640D01*
X244510597Y-77049640D02*
X244454118Y-77012962D01*
X245709939Y-75821054D02*
X245523626Y-75860656D01*
X245523626Y-75860656D02*
X245440369Y-75927036D01*
X245440369Y-75927036D02*
X245403691Y-75983515D01*
X245403691Y-75983515D02*
X245340236Y-76143051D01*
X245340236Y-76143051D02*
X245333260Y-76339266D01*
X245333260Y-76339266D02*
X245412464Y-76711893D01*
X245412464Y-76711893D02*
X245478844Y-76795150D01*
X245478844Y-76795150D02*
X245535323Y-76831828D01*
X245535323Y-76831828D02*
X245638380Y-76858605D01*
X245638380Y-76858605D02*
X245824694Y-76819003D01*
X245824694Y-76819003D02*
X245907951Y-76752623D01*
X245907951Y-76752623D02*
X245944628Y-76696144D01*
X245944628Y-76696144D02*
X245971406Y-76593087D01*
X245971406Y-76593087D02*
X245921903Y-76360194D01*
X245921903Y-76360194D02*
X245855523Y-76276938D01*
X245855523Y-76276938D02*
X245799044Y-76240260D01*
X245799044Y-76240260D02*
X245695987Y-76213483D01*
X245695987Y-76213483D02*
X245509673Y-76253085D01*
X245509673Y-76253085D02*
X245426417Y-76319465D01*
X245426417Y-76319465D02*
X245389739Y-76375944D01*
X245389739Y-76375944D02*
X245362962Y-76479001D01*
X63495255Y-99776126D02*
X63625090Y-99852406D01*
X63625090Y-99852406D02*
X63857983Y-99901909D01*
X63857983Y-99901909D02*
X63961040Y-99875132D01*
X63961040Y-99875132D02*
X64017519Y-99838454D01*
X64017519Y-99838454D02*
X64083899Y-99755197D01*
X64083899Y-99755197D02*
X64103700Y-99662040D01*
X64103700Y-99662040D02*
X64076922Y-99558983D01*
X64076922Y-99558983D02*
X64040245Y-99502504D01*
X64040245Y-99502504D02*
X63956988Y-99436124D01*
X63956988Y-99436124D02*
X63780575Y-99349944D01*
X63780575Y-99349944D02*
X63697319Y-99283564D01*
X63697319Y-99283564D02*
X63660641Y-99227085D01*
X63660641Y-99227085D02*
X63633863Y-99124028D01*
X63633863Y-99124028D02*
X63653664Y-99030871D01*
X63653664Y-99030871D02*
X63720044Y-98947614D01*
X63720044Y-98947614D02*
X63776523Y-98910936D01*
X63776523Y-98910936D02*
X63879580Y-98884159D01*
X63879580Y-98884159D02*
X64112473Y-98933662D01*
X64112473Y-98933662D02*
X64242308Y-99009942D01*
X64578257Y-99032667D02*
X64603238Y-100060318D01*
X64603238Y-100060318D02*
X64938060Y-99401243D01*
X64938060Y-99401243D02*
X64975866Y-100139522D01*
X64975866Y-100139522D02*
X65416670Y-99210878D01*
X66093748Y-100377136D02*
X65534807Y-100258329D01*
X65814278Y-100317732D02*
X66022189Y-99339585D01*
X66022189Y-99339585D02*
X65899331Y-99459519D01*
X65899331Y-99459519D02*
X65786373Y-99532875D01*
X65786373Y-99532875D02*
X65683315Y-99559652D01*
X66627709Y-99468292D02*
X67233229Y-99596999D01*
X67233229Y-99596999D02*
X66827976Y-99900323D01*
X66827976Y-99900323D02*
X66967711Y-99930025D01*
X66967711Y-99930025D02*
X67050967Y-99996404D01*
X67050967Y-99996404D02*
X67087645Y-100052883D01*
X67087645Y-100052883D02*
X67114423Y-100155941D01*
X67114423Y-100155941D02*
X67064920Y-100388833D01*
X67064920Y-100388833D02*
X66998540Y-100472089D01*
X66998540Y-100472089D02*
X66942061Y-100508767D01*
X66942061Y-100508767D02*
X66839004Y-100535545D01*
X66839004Y-100535545D02*
X66559533Y-100476141D01*
X66559533Y-100476141D02*
X66476277Y-100409762D01*
X66476277Y-100409762D02*
X66439599Y-100353283D01*
X114506038Y-91143214D02*
X114635872Y-91219494D01*
X114635872Y-91219494D02*
X114868765Y-91268997D01*
X114868765Y-91268997D02*
X114971822Y-91242219D01*
X114971822Y-91242219D02*
X115028301Y-91205541D01*
X115028301Y-91205541D02*
X115094681Y-91122285D01*
X115094681Y-91122285D02*
X115114482Y-91029128D01*
X115114482Y-91029128D02*
X115087704Y-90926071D01*
X115087704Y-90926071D02*
X115051027Y-90869592D01*
X115051027Y-90869592D02*
X114967770Y-90803212D01*
X114967770Y-90803212D02*
X114791357Y-90717031D01*
X114791357Y-90717031D02*
X114708101Y-90650652D01*
X114708101Y-90650652D02*
X114671423Y-90594173D01*
X114671423Y-90594173D02*
X114644645Y-90491115D01*
X114644645Y-90491115D02*
X114664446Y-90397958D01*
X114664446Y-90397958D02*
X114730826Y-90314702D01*
X114730826Y-90314702D02*
X114787305Y-90278024D01*
X114787305Y-90278024D02*
X114890363Y-90251247D01*
X114890363Y-90251247D02*
X115123255Y-90300750D01*
X115123255Y-90300750D02*
X115253090Y-90377030D01*
X115589039Y-90399755D02*
X115614020Y-91427406D01*
X115614020Y-91427406D02*
X115948842Y-90768331D01*
X115948842Y-90768331D02*
X115986648Y-91506610D01*
X115986648Y-91506610D02*
X116427452Y-90577965D01*
X116850710Y-91106077D02*
X116767453Y-91039698D01*
X116767453Y-91039698D02*
X116730775Y-90983219D01*
X116730775Y-90983219D02*
X116703998Y-90880161D01*
X116703998Y-90880161D02*
X116713899Y-90833583D01*
X116713899Y-90833583D02*
X116780278Y-90750327D01*
X116780278Y-90750327D02*
X116836757Y-90713649D01*
X116836757Y-90713649D02*
X116939815Y-90686871D01*
X116939815Y-90686871D02*
X117126128Y-90726474D01*
X117126128Y-90726474D02*
X117209385Y-90792853D01*
X117209385Y-90792853D02*
X117246063Y-90849332D01*
X117246063Y-90849332D02*
X117272840Y-90952390D01*
X117272840Y-90952390D02*
X117262939Y-90998968D01*
X117262939Y-90998968D02*
X117196560Y-91082224D01*
X117196560Y-91082224D02*
X117140081Y-91118902D01*
X117140081Y-91118902D02*
X117037023Y-91145680D01*
X117037023Y-91145680D02*
X116850710Y-91106077D01*
X116850710Y-91106077D02*
X116747652Y-91132855D01*
X116747652Y-91132855D02*
X116691173Y-91169533D01*
X116691173Y-91169533D02*
X116624793Y-91252789D01*
X116624793Y-91252789D02*
X116585191Y-91439103D01*
X116585191Y-91439103D02*
X116611969Y-91542160D01*
X116611969Y-91542160D02*
X116648647Y-91598639D01*
X116648647Y-91598639D02*
X116731903Y-91665019D01*
X116731903Y-91665019D02*
X116918217Y-91704621D01*
X116918217Y-91704621D02*
X117021274Y-91677844D01*
X117021274Y-91677844D02*
X117077753Y-91641166D01*
X117077753Y-91641166D02*
X117144133Y-91557910D01*
X117144133Y-91557910D02*
X117183735Y-91371596D01*
X117183735Y-91371596D02*
X117156958Y-91268538D01*
X117156958Y-91268538D02*
X117120280Y-91212059D01*
X117120280Y-91212059D02*
X117037023Y-91145680D01*
X220802617Y-140515691D02*
X220952253Y-140532568D01*
X220952253Y-140532568D02*
X221185145Y-140483065D01*
X221185145Y-140483065D02*
X221268401Y-140416686D01*
X221268401Y-140416686D02*
X221305079Y-140360207D01*
X221305079Y-140360207D02*
X221331857Y-140257149D01*
X221331857Y-140257149D02*
X221312055Y-140163992D01*
X221312055Y-140163992D02*
X221245676Y-140080736D01*
X221245676Y-140080736D02*
X221189197Y-140044058D01*
X221189197Y-140044058D02*
X221086139Y-140017281D01*
X221086139Y-140017281D02*
X220889925Y-140010305D01*
X220889925Y-140010305D02*
X220786868Y-139983527D01*
X220786868Y-139983527D02*
X220730389Y-139946849D01*
X220730389Y-139946849D02*
X220664009Y-139863593D01*
X220664009Y-139863593D02*
X220644208Y-139770436D01*
X220644208Y-139770436D02*
X220670985Y-139667379D01*
X220670985Y-139667379D02*
X220707663Y-139610900D01*
X220707663Y-139610900D02*
X220790919Y-139544520D01*
X220790919Y-139544520D02*
X221023812Y-139495017D01*
X221023812Y-139495017D02*
X221173448Y-139511894D01*
X221489596Y-139396012D02*
X221930400Y-140324656D01*
X221930400Y-140324656D02*
X221968206Y-139586377D01*
X221968206Y-139586377D02*
X222303028Y-140245452D01*
X222303028Y-140245452D02*
X222328009Y-139217802D01*
X223166421Y-139039592D02*
X222700636Y-139138597D01*
X222700636Y-139138597D02*
X222753063Y-139614282D01*
X222753063Y-139614282D02*
X222789741Y-139557803D01*
X222789741Y-139557803D02*
X222872997Y-139491424D01*
X222872997Y-139491424D02*
X223105890Y-139441921D01*
X223105890Y-139441921D02*
X223208947Y-139468698D01*
X223208947Y-139468698D02*
X223265426Y-139505376D01*
X223265426Y-139505376D02*
X223331806Y-139588633D01*
X223331806Y-139588633D02*
X223381309Y-139821525D01*
X223381309Y-139821525D02*
X223354531Y-139924582D01*
X223354531Y-139924582D02*
X223317853Y-139981061D01*
X223317853Y-139981061D02*
X223234597Y-140047441D01*
X223234597Y-140047441D02*
X223001705Y-140096944D01*
X223001705Y-140096944D02*
X222898647Y-140070166D01*
X222898647Y-140070166D02*
X222842168Y-140033488D01*
X223539048Y-138960387D02*
X224191147Y-138821779D01*
X224191147Y-138821779D02*
X223979852Y-139889032D01*
X183535193Y-148437127D02*
X183684829Y-148454004D01*
X183684829Y-148454004D02*
X183917721Y-148404501D01*
X183917721Y-148404501D02*
X184000977Y-148338122D01*
X184000977Y-148338122D02*
X184037655Y-148281643D01*
X184037655Y-148281643D02*
X184064433Y-148178585D01*
X184064433Y-148178585D02*
X184044631Y-148085428D01*
X184044631Y-148085428D02*
X183978252Y-148002172D01*
X183978252Y-148002172D02*
X183921773Y-147965494D01*
X183921773Y-147965494D02*
X183818715Y-147938717D01*
X183818715Y-147938717D02*
X183622501Y-147931741D01*
X183622501Y-147931741D02*
X183519444Y-147904963D01*
X183519444Y-147904963D02*
X183462965Y-147868285D01*
X183462965Y-147868285D02*
X183396585Y-147785029D01*
X183396585Y-147785029D02*
X183376784Y-147691872D01*
X183376784Y-147691872D02*
X183403561Y-147588815D01*
X183403561Y-147588815D02*
X183440239Y-147532336D01*
X183440239Y-147532336D02*
X183523495Y-147465956D01*
X183523495Y-147465956D02*
X183756388Y-147416453D01*
X183756388Y-147416453D02*
X183906024Y-147433330D01*
X184222172Y-147317448D02*
X184662976Y-148246092D01*
X184662976Y-148246092D02*
X184700782Y-147507813D01*
X184700782Y-147507813D02*
X185035604Y-148166888D01*
X185035604Y-148166888D02*
X185060585Y-147139238D01*
X185898997Y-146961028D02*
X185433212Y-147060033D01*
X185433212Y-147060033D02*
X185485639Y-147535718D01*
X185485639Y-147535718D02*
X185522317Y-147479239D01*
X185522317Y-147479239D02*
X185605573Y-147412860D01*
X185605573Y-147412860D02*
X185838466Y-147363357D01*
X185838466Y-147363357D02*
X185941523Y-147390134D01*
X185941523Y-147390134D02*
X185998002Y-147426812D01*
X185998002Y-147426812D02*
X186064382Y-147510069D01*
X186064382Y-147510069D02*
X186113885Y-147742961D01*
X186113885Y-147742961D02*
X186087107Y-147846018D01*
X186087107Y-147846018D02*
X186050429Y-147902497D01*
X186050429Y-147902497D02*
X185967173Y-147968877D01*
X185967173Y-147968877D02*
X185734281Y-148018380D01*
X185734281Y-148018380D02*
X185631223Y-147991602D01*
X185631223Y-147991602D02*
X185574744Y-147954924D01*
X186830566Y-146763016D02*
X186364781Y-146862022D01*
X186364781Y-146862022D02*
X186417208Y-147337707D01*
X186417208Y-147337707D02*
X186453886Y-147281228D01*
X186453886Y-147281228D02*
X186537143Y-147214849D01*
X186537143Y-147214849D02*
X186770035Y-147165346D01*
X186770035Y-147165346D02*
X186873092Y-147192123D01*
X186873092Y-147192123D02*
X186929571Y-147228801D01*
X186929571Y-147228801D02*
X186995951Y-147312057D01*
X186995951Y-147312057D02*
X187045454Y-147544950D01*
X187045454Y-147544950D02*
X187018676Y-147648007D01*
X187018676Y-147648007D02*
X186981999Y-147704486D01*
X186981999Y-147704486D02*
X186898742Y-147770866D01*
X186898742Y-147770866D02*
X186665850Y-147820369D01*
X186665850Y-147820369D02*
X186562792Y-147793591D01*
X186562792Y-147793591D02*
X186506313Y-147756913D01*
X102392075Y-127519488D02*
X102521910Y-127595768D01*
X102521910Y-127595768D02*
X102754803Y-127645271D01*
X102754803Y-127645271D02*
X102857860Y-127618494D01*
X102857860Y-127618494D02*
X102914339Y-127581816D01*
X102914339Y-127581816D02*
X102980719Y-127498559D01*
X102980719Y-127498559D02*
X103000520Y-127405402D01*
X103000520Y-127405402D02*
X102973742Y-127302345D01*
X102973742Y-127302345D02*
X102937065Y-127245866D01*
X102937065Y-127245866D02*
X102853808Y-127179486D01*
X102853808Y-127179486D02*
X102677395Y-127093306D01*
X102677395Y-127093306D02*
X102594139Y-127026926D01*
X102594139Y-127026926D02*
X102557461Y-126970447D01*
X102557461Y-126970447D02*
X102530683Y-126867390D01*
X102530683Y-126867390D02*
X102550484Y-126774233D01*
X102550484Y-126774233D02*
X102616864Y-126690976D01*
X102616864Y-126690976D02*
X102673343Y-126654298D01*
X102673343Y-126654298D02*
X102776400Y-126627521D01*
X102776400Y-126627521D02*
X103009293Y-126677024D01*
X103009293Y-126677024D02*
X103139128Y-126753304D01*
X103475077Y-126776029D02*
X103500058Y-127803680D01*
X103500058Y-127803680D02*
X103834880Y-127144605D01*
X103834880Y-127144605D02*
X103872686Y-127882884D01*
X103872686Y-127882884D02*
X104313490Y-126954240D01*
X104619738Y-127116700D02*
X104676217Y-127080022D01*
X104676217Y-127080022D02*
X104779274Y-127053245D01*
X104779274Y-127053245D02*
X105012166Y-127102748D01*
X105012166Y-127102748D02*
X105095423Y-127169127D01*
X105095423Y-127169127D02*
X105132101Y-127225606D01*
X105132101Y-127225606D02*
X105158878Y-127328664D01*
X105158878Y-127328664D02*
X105139077Y-127421821D01*
X105139077Y-127421821D02*
X105062797Y-127551656D01*
X105062797Y-127551656D02*
X104385048Y-127991790D01*
X104385048Y-127991790D02*
X104990568Y-128120498D01*
X105551307Y-127314711D02*
X105607786Y-127278034D01*
X105607786Y-127278034D02*
X105710843Y-127251256D01*
X105710843Y-127251256D02*
X105943735Y-127300759D01*
X105943735Y-127300759D02*
X106026992Y-127367139D01*
X106026992Y-127367139D02*
X106063670Y-127423618D01*
X106063670Y-127423618D02*
X106090447Y-127526675D01*
X106090447Y-127526675D02*
X106070646Y-127619832D01*
X106070646Y-127619832D02*
X105994366Y-127749667D01*
X105994366Y-127749667D02*
X105316618Y-128189802D01*
X105316618Y-128189802D02*
X105922138Y-128318509D01*
X241265868Y-156615461D02*
X241415504Y-156632338D01*
X241415504Y-156632338D02*
X241648396Y-156582835D01*
X241648396Y-156582835D02*
X241731652Y-156516456D01*
X241731652Y-156516456D02*
X241768330Y-156459977D01*
X241768330Y-156459977D02*
X241795108Y-156356919D01*
X241795108Y-156356919D02*
X241775306Y-156263762D01*
X241775306Y-156263762D02*
X241708927Y-156180506D01*
X241708927Y-156180506D02*
X241652448Y-156143828D01*
X241652448Y-156143828D02*
X241549390Y-156117051D01*
X241549390Y-156117051D02*
X241353176Y-156110075D01*
X241353176Y-156110075D02*
X241250119Y-156083297D01*
X241250119Y-156083297D02*
X241193640Y-156046619D01*
X241193640Y-156046619D02*
X241127260Y-155963363D01*
X241127260Y-155963363D02*
X241107459Y-155870206D01*
X241107459Y-155870206D02*
X241134236Y-155767149D01*
X241134236Y-155767149D02*
X241170914Y-155710670D01*
X241170914Y-155710670D02*
X241254170Y-155644290D01*
X241254170Y-155644290D02*
X241487063Y-155594787D01*
X241487063Y-155594787D02*
X241636699Y-155611664D01*
X241952847Y-155495782D02*
X242393651Y-156424426D01*
X242393651Y-156424426D02*
X242431457Y-155686147D01*
X242431457Y-155686147D02*
X242766279Y-156345222D01*
X242766279Y-156345222D02*
X242791260Y-155317572D01*
X243583093Y-155149262D02*
X243396779Y-155188864D01*
X243396779Y-155188864D02*
X243313523Y-155255244D01*
X243313523Y-155255244D02*
X243276845Y-155311723D01*
X243276845Y-155311723D02*
X243213390Y-155471259D01*
X243213390Y-155471259D02*
X243206414Y-155667474D01*
X243206414Y-155667474D02*
X243285618Y-156040102D01*
X243285618Y-156040102D02*
X243351998Y-156123358D01*
X243351998Y-156123358D02*
X243408477Y-156160036D01*
X243408477Y-156160036D02*
X243511534Y-156186813D01*
X243511534Y-156186813D02*
X243697848Y-156147211D01*
X243697848Y-156147211D02*
X243781104Y-156080831D01*
X243781104Y-156080831D02*
X243817782Y-156024352D01*
X243817782Y-156024352D02*
X243844560Y-155921295D01*
X243844560Y-155921295D02*
X243795057Y-155688403D01*
X243795057Y-155688403D02*
X243728677Y-155605146D01*
X243728677Y-155605146D02*
X243672198Y-155568468D01*
X243672198Y-155568468D02*
X243569141Y-155541691D01*
X243569141Y-155541691D02*
X243382827Y-155581293D01*
X243382827Y-155581293D02*
X243299571Y-155647673D01*
X243299571Y-155647673D02*
X243262893Y-155704152D01*
X243262893Y-155704152D02*
X243236115Y-155807209D01*
X244583966Y-155277300D02*
X244722574Y-155929399D01*
X244271870Y-154954175D02*
X244187486Y-155702355D01*
X244187486Y-155702355D02*
X244793006Y-155573648D01*
X259655476Y-94922200D02*
X259798333Y-94969819D01*
X259798333Y-94969819D02*
X260036428Y-94969819D01*
X260036428Y-94969819D02*
X260131666Y-94922200D01*
X260131666Y-94922200D02*
X260179285Y-94874580D01*
X260179285Y-94874580D02*
X260226904Y-94779342D01*
X260226904Y-94779342D02*
X260226904Y-94684104D01*
X260226904Y-94684104D02*
X260179285Y-94588866D01*
X260179285Y-94588866D02*
X260131666Y-94541247D01*
X260131666Y-94541247D02*
X260036428Y-94493628D01*
X260036428Y-94493628D02*
X259845952Y-94446009D01*
X259845952Y-94446009D02*
X259750714Y-94398390D01*
X259750714Y-94398390D02*
X259703095Y-94350771D01*
X259703095Y-94350771D02*
X259655476Y-94255533D01*
X259655476Y-94255533D02*
X259655476Y-94160295D01*
X259655476Y-94160295D02*
X259703095Y-94065057D01*
X259703095Y-94065057D02*
X259750714Y-94017438D01*
X259750714Y-94017438D02*
X259845952Y-93969819D01*
X259845952Y-93969819D02*
X260084047Y-93969819D01*
X260084047Y-93969819D02*
X260226904Y-94017438D01*
X260560238Y-93969819D02*
X260798333Y-94969819D01*
X260798333Y-94969819D02*
X260988809Y-94255533D01*
X260988809Y-94255533D02*
X261179285Y-94969819D01*
X261179285Y-94969819D02*
X261417381Y-93969819D01*
X262226904Y-94303152D02*
X262226904Y-94969819D01*
X261988809Y-93922200D02*
X261750714Y-94636485D01*
X261750714Y-94636485D02*
X262369761Y-94636485D01*
X263179285Y-94303152D02*
X263179285Y-94969819D01*
X262941190Y-93922200D02*
X262703095Y-94636485D01*
X262703095Y-94636485D02*
X263322142Y-94636485D01*
X225227069Y-120099656D02*
X225376705Y-120116533D01*
X225376705Y-120116533D02*
X225609597Y-120067030D01*
X225609597Y-120067030D02*
X225692853Y-120000651D01*
X225692853Y-120000651D02*
X225729531Y-119944172D01*
X225729531Y-119944172D02*
X225756309Y-119841114D01*
X225756309Y-119841114D02*
X225736507Y-119747957D01*
X225736507Y-119747957D02*
X225670128Y-119664701D01*
X225670128Y-119664701D02*
X225613649Y-119628023D01*
X225613649Y-119628023D02*
X225510591Y-119601246D01*
X225510591Y-119601246D02*
X225314377Y-119594270D01*
X225314377Y-119594270D02*
X225211320Y-119567492D01*
X225211320Y-119567492D02*
X225154841Y-119530814D01*
X225154841Y-119530814D02*
X225088461Y-119447558D01*
X225088461Y-119447558D02*
X225068660Y-119354401D01*
X225068660Y-119354401D02*
X225095437Y-119251344D01*
X225095437Y-119251344D02*
X225132115Y-119194865D01*
X225132115Y-119194865D02*
X225215371Y-119128485D01*
X225215371Y-119128485D02*
X225448264Y-119078982D01*
X225448264Y-119078982D02*
X225597900Y-119095859D01*
X225914048Y-118979977D02*
X226354852Y-119908621D01*
X226354852Y-119908621D02*
X226392658Y-119170342D01*
X226392658Y-119170342D02*
X226727480Y-119829417D01*
X226727480Y-119829417D02*
X226752461Y-118801767D01*
X227590873Y-118623557D02*
X227125088Y-118722562D01*
X227125088Y-118722562D02*
X227177515Y-119198247D01*
X227177515Y-119198247D02*
X227214193Y-119141768D01*
X227214193Y-119141768D02*
X227297449Y-119075389D01*
X227297449Y-119075389D02*
X227530342Y-119025886D01*
X227530342Y-119025886D02*
X227633399Y-119052663D01*
X227633399Y-119052663D02*
X227689878Y-119089341D01*
X227689878Y-119089341D02*
X227756258Y-119172598D01*
X227756258Y-119172598D02*
X227805761Y-119405490D01*
X227805761Y-119405490D02*
X227778983Y-119508547D01*
X227778983Y-119508547D02*
X227742305Y-119565026D01*
X227742305Y-119565026D02*
X227659049Y-119631406D01*
X227659049Y-119631406D02*
X227426157Y-119680909D01*
X227426157Y-119680909D02*
X227323099Y-119654131D01*
X227323099Y-119654131D02*
X227266620Y-119617453D01*
X228242971Y-118484949D02*
X228336128Y-118465148D01*
X228336128Y-118465148D02*
X228439186Y-118491925D01*
X228439186Y-118491925D02*
X228495665Y-118528603D01*
X228495665Y-118528603D02*
X228562044Y-118611859D01*
X228562044Y-118611859D02*
X228648225Y-118788273D01*
X228648225Y-118788273D02*
X228697728Y-119021165D01*
X228697728Y-119021165D02*
X228690751Y-119217379D01*
X228690751Y-119217379D02*
X228663974Y-119320437D01*
X228663974Y-119320437D02*
X228627296Y-119376916D01*
X228627296Y-119376916D02*
X228544040Y-119443295D01*
X228544040Y-119443295D02*
X228450883Y-119463096D01*
X228450883Y-119463096D02*
X228347825Y-119436319D01*
X228347825Y-119436319D02*
X228291346Y-119399641D01*
X228291346Y-119399641D02*
X228224967Y-119316385D01*
X228224967Y-119316385D02*
X228138786Y-119139972D01*
X228138786Y-119139972D02*
X228089283Y-118907079D01*
X228089283Y-118907079D02*
X228096260Y-118710865D01*
X228096260Y-118710865D02*
X228123037Y-118607807D01*
X228123037Y-118607807D02*
X228159715Y-118551328D01*
X228159715Y-118551328D02*
X228242971Y-118484949D01*
%TO.C,SW49*%
D11*
X201135831Y-126235387D02*
X204296089Y-141103231D01*
X204296089Y-141103231D02*
X219163933Y-137942973D01*
X216003675Y-123075129D02*
X201135831Y-126235387D01*
X219163933Y-137942973D02*
X216003675Y-123075129D01*
%TO.C,SW61*%
X299585000Y-134967500D02*
X299585000Y-150167500D01*
X299585000Y-150167500D02*
X314785000Y-150167500D01*
X314785000Y-134967500D02*
X299585000Y-134967500D01*
X314785000Y-150167500D02*
X314785000Y-134967500D01*
%TO.C,SW30*%
X36794341Y-170055773D02*
X51662185Y-173216031D01*
X39954599Y-155187929D02*
X36794341Y-170055773D01*
X51662185Y-173216031D02*
X54822443Y-158348187D01*
X54822443Y-158348187D02*
X39954599Y-155187929D01*
%TO.C,SW28*%
X98717601Y-162768600D02*
X113585445Y-165928858D01*
X101877859Y-147900756D02*
X98717601Y-162768600D01*
X113585445Y-165928858D02*
X116745703Y-151061014D01*
X116745703Y-151061014D02*
X101877859Y-147900756D01*
%TO.C,SW3*%
X10977500Y-77817500D02*
X10977500Y-93017500D01*
X10977500Y-93017500D02*
X26177500Y-93017500D01*
X26177500Y-77817500D02*
X10977500Y-77817500D01*
X26177500Y-93017500D02*
X26177500Y-77817500D01*
%TO.C,SW5*%
X49108505Y-93797096D02*
X63976349Y-96957354D01*
X52268763Y-78929252D02*
X49108505Y-93797096D01*
X63976349Y-96957354D02*
X67136607Y-82089510D01*
X67136607Y-82089510D02*
X52268763Y-78929252D01*
%TO.C,SW48*%
X182502120Y-130196105D02*
X185662378Y-145063949D01*
X185662378Y-145063949D02*
X200530222Y-141903691D01*
X197369964Y-127035847D02*
X182502120Y-130196105D01*
X200530222Y-141903691D02*
X197369964Y-127035847D01*
%TO.C,SW47*%
X313396250Y-96867500D02*
X313396250Y-112067500D01*
X313396250Y-112067500D02*
X328596250Y-112067500D01*
X328596250Y-96867500D02*
X313396250Y-96867500D01*
X328596250Y-112067500D02*
X328596250Y-96867500D01*
%TO.C,SW63*%
X196013669Y-166275313D02*
X199173927Y-181143157D01*
X199173927Y-181143157D02*
X214041771Y-177982899D01*
X210881513Y-163115055D02*
X196013669Y-166275313D01*
X214041771Y-177982899D02*
X210881513Y-163115055D01*
%TO.C,SW9*%
X-33790000Y-94962500D02*
X-33790000Y-110162500D01*
X-33790000Y-110162500D02*
X-18590000Y-110162500D01*
X-18590000Y-94962500D02*
X-33790000Y-94962500D01*
X-18590000Y-110162500D02*
X-18590000Y-94962500D01*
%TO.C,SW37*%
X259580000Y-75912500D02*
X259580000Y-91112500D01*
X259580000Y-91112500D02*
X274780000Y-91112500D01*
X274780000Y-75912500D02*
X259580000Y-75912500D01*
X274780000Y-91112500D02*
X274780000Y-75912500D01*
%TO.C,SW26*%
X61450177Y-154847165D02*
X76318021Y-158007423D01*
X64610435Y-139979321D02*
X61450177Y-154847165D01*
X76318021Y-158007423D02*
X79478279Y-143139579D01*
X79478279Y-143139579D02*
X64610435Y-139979321D01*
%TO.C,SW43*%
X231647481Y-100274348D02*
X234807739Y-115142192D01*
X234807739Y-115142192D02*
X249675583Y-111981934D01*
X246515325Y-97114090D02*
X231647481Y-100274348D01*
X249675583Y-111981934D02*
X246515325Y-97114090D01*
%TO.C,SW4*%
X30027500Y-75912500D02*
X30027500Y-91112500D01*
X30027500Y-91112500D02*
X45227500Y-91112500D01*
X45227500Y-75912500D02*
X30027500Y-75912500D01*
X45227500Y-91112500D02*
X45227500Y-75912500D01*
%TO.C,SW15*%
X91732067Y-122332602D02*
X106599911Y-125492860D01*
X94892325Y-107464758D02*
X91732067Y-122332602D01*
X106599911Y-125492860D02*
X109760169Y-110625016D01*
X109760169Y-110625016D02*
X94892325Y-107464758D01*
%TO.C,SW40*%
X175746345Y-112156501D02*
X178906603Y-127024345D01*
X178906603Y-127024345D02*
X193774447Y-123864087D01*
X190614189Y-108996243D02*
X175746345Y-112156501D01*
X193774447Y-123864087D02*
X190614189Y-108996243D01*
%TO.C,SW2*%
X-8072500Y-77817500D02*
X-8072500Y-93017500D01*
X-8072500Y-93017500D02*
X7127500Y-93017500D01*
X7127500Y-77817500D02*
X-8072500Y-77817500D01*
X7127500Y-93017500D02*
X7127500Y-77817500D01*
%TO.C,SW32*%
X99881154Y-182491509D02*
X114748998Y-185651767D01*
X103041412Y-167623665D02*
X99881154Y-182491509D01*
X114748998Y-185651767D02*
X117909256Y-170783923D01*
X117909256Y-170783923D02*
X103041412Y-167623665D01*
%TO.C,SW6*%
X67742217Y-97757814D02*
X82610061Y-100918072D01*
X70902475Y-82889970D02*
X67742217Y-97757814D01*
X82610061Y-100918072D02*
X85770319Y-86050228D01*
X85770319Y-86050228D02*
X70902475Y-82889970D01*
%TO.C,SW35*%
X218369907Y-83620995D02*
X221530165Y-98488839D01*
X221530165Y-98488839D02*
X236398009Y-95328581D01*
X233237751Y-80460737D02*
X218369907Y-83620995D01*
X236398009Y-95328581D02*
X233237751Y-80460737D01*
%TO.C,SW39*%
X304823750Y-77817500D02*
X304823750Y-93017500D01*
X304823750Y-93017500D02*
X320023750Y-93017500D01*
X320023750Y-77817500D02*
X304823750Y-77817500D01*
X320023750Y-93017500D02*
X320023750Y-77817500D01*
%TO.C,SW23*%
X-7596250Y-134967500D02*
X-7596250Y-150167500D01*
X-7596250Y-150167500D02*
X7603750Y-150167500D01*
X7603750Y-134967500D02*
X-7596250Y-134967500D01*
X7603750Y-150167500D02*
X7603750Y-134967500D01*
%TO.C,REF\u002A\u002A*%
X139890000Y-76430000D02*
X139410000Y-76430000D01*
X139890000Y-76430000D02*
X139890000Y-76850000D01*
X139890000Y-78970000D02*
X139890000Y-79390000D01*
X139890000Y-81510000D02*
X139890000Y-81930000D01*
X139890000Y-84050000D02*
X139890000Y-84470000D01*
X139890000Y-86590000D02*
X139890000Y-87010000D01*
X139890000Y-89130000D02*
X139890000Y-89550000D01*
X139890000Y-91670000D02*
X139890000Y-92090000D01*
X139890000Y-94210000D02*
X139890000Y-94630000D01*
X139890000Y-96750000D02*
X139890000Y-97170000D01*
X139890000Y-99290000D02*
X139890000Y-99710000D01*
X139890000Y-101830000D02*
X139890000Y-102250000D01*
X139890000Y-104370000D02*
X139890000Y-104790000D01*
X139890000Y-106910000D02*
X139890000Y-107330000D01*
X139890000Y-109450000D02*
X139890000Y-109870000D01*
X139890000Y-111990000D02*
X139890000Y-112410000D01*
X139890000Y-114530000D02*
X139890000Y-114950000D01*
X139890000Y-117070000D02*
X139890000Y-117490000D01*
X139890000Y-119610000D02*
X139890000Y-120030000D01*
X139890000Y-122150000D02*
X139890000Y-122570000D01*
X139920324Y-74310000D02*
X139410000Y-74310000D01*
X140230000Y-74310063D02*
X140230000Y-73953000D01*
X140230000Y-76430000D02*
X140230000Y-76850000D01*
X140230000Y-78970000D02*
X140230000Y-79390000D01*
X140230000Y-81510000D02*
X140230000Y-81930000D01*
X140230000Y-84050000D02*
X140230000Y-84470000D01*
X140230000Y-86590000D02*
X140230000Y-87010000D01*
X140230000Y-89130000D02*
X140230000Y-89550000D01*
X140230000Y-91670000D02*
X140230000Y-92090000D01*
X140230000Y-94210000D02*
X140230000Y-94630000D01*
X140230000Y-96750000D02*
X140230000Y-97170000D01*
X140230000Y-99290000D02*
X140230000Y-99710000D01*
X140230000Y-101830000D02*
X140230000Y-102250000D01*
X140230000Y-104370000D02*
X140230000Y-104790000D01*
X140230000Y-106910000D02*
X140230000Y-107330000D01*
X140230000Y-109450000D02*
X140230000Y-109870000D01*
X140230000Y-111990000D02*
X140230000Y-112410000D01*
X140230000Y-114530000D02*
X140230000Y-114950000D01*
X140230000Y-117070000D02*
X140230000Y-117490000D01*
X140230000Y-119610000D02*
X140230000Y-120030000D01*
X140230000Y-122150000D02*
X140230000Y-122570000D01*
X140230000Y-124689937D02*
X140230000Y-125047000D01*
X140500000Y-73890000D02*
X142990000Y-73890000D01*
X140500000Y-125110000D02*
X146900000Y-125110000D01*
X142990000Y-73890000D02*
X142990000Y-74803520D01*
X142990000Y-73890000D02*
X146265000Y-73890000D01*
X142990000Y-74803520D02*
X142990000Y-77196480D01*
X142990000Y-77196480D02*
X142990000Y-121803520D01*
X142990000Y-121803520D02*
X142990000Y-124196480D01*
X142990000Y-124196480D02*
X142990000Y-125110000D01*
X146265000Y-73890000D02*
X154735000Y-73890000D01*
X146600000Y-73890000D02*
X146600000Y-74806000D01*
X146600000Y-76184800D02*
X146600000Y-78410000D01*
X146600000Y-78410000D02*
X146896090Y-78410000D01*
X149253910Y-78410000D02*
X151746090Y-78410000D01*
X154100000Y-125110000D02*
X146900000Y-125110000D01*
X154100000Y-125110000D02*
X160500000Y-125110000D01*
X154103910Y-78410000D02*
X154400000Y-78410000D01*
X154400000Y-73890000D02*
X154400000Y-74806000D01*
X154400000Y-76184800D02*
X154400000Y-78410000D01*
X154735000Y-73890000D02*
X158010000Y-73890000D01*
X158010000Y-73890000D02*
X158010000Y-74803520D01*
X158010000Y-74803520D02*
X158010000Y-77196480D01*
X158010000Y-77196480D02*
X158010000Y-121803520D01*
X158010000Y-121803520D02*
X158010000Y-124196480D01*
X158010000Y-124196480D02*
X158010000Y-125110000D01*
X160500000Y-73890000D02*
X158010000Y-73890000D01*
X160770000Y-74310063D02*
X160770000Y-73953000D01*
X160770000Y-76430000D02*
X160770000Y-76850000D01*
X160770000Y-78970000D02*
X160770000Y-79390000D01*
X160770000Y-81510000D02*
X160770000Y-81930000D01*
X160770000Y-84050000D02*
X160770000Y-84470000D01*
X160770000Y-86590000D02*
X160770000Y-87010000D01*
X160770000Y-89130000D02*
X160770000Y-89550000D01*
X160770000Y-91670000D02*
X160770000Y-92090000D01*
X160770000Y-94210000D02*
X160770000Y-94630000D01*
X160770000Y-96750000D02*
X160770000Y-97170000D01*
X160770000Y-99290000D02*
X160770000Y-99710000D01*
X160770000Y-101830000D02*
X160770000Y-102250000D01*
X160770000Y-104370000D02*
X160770000Y-104790000D01*
X160770000Y-106910000D02*
X160770000Y-107330000D01*
X160770000Y-109450000D02*
X160770000Y-109870000D01*
X160770000Y-111990000D02*
X160770000Y-112410000D01*
X160770000Y-114530000D02*
X160770000Y-114950000D01*
X160770000Y-117070000D02*
X160770000Y-117490000D01*
X160770000Y-119610000D02*
X160770000Y-120030000D01*
X160770000Y-122150000D02*
X160770000Y-122570000D01*
X160770000Y-124689937D02*
X160770000Y-125047000D01*
X161110000Y-76430000D02*
X161110000Y-76850000D01*
X161110000Y-78970000D02*
X161110000Y-79390000D01*
X161110000Y-81510000D02*
X161110000Y-81930000D01*
X161110000Y-84050000D02*
X161110000Y-84470000D01*
X161110000Y-86590000D02*
X161110000Y-87010000D01*
X161110000Y-89130000D02*
X161110000Y-89550000D01*
X161110000Y-91670000D02*
X161110000Y-92090000D01*
X161110000Y-94210000D02*
X161110000Y-94630000D01*
X161110000Y-96750000D02*
X161110000Y-97170000D01*
X161110000Y-99290000D02*
X161110000Y-99710000D01*
X161110000Y-101830000D02*
X161110000Y-102250000D01*
X161110000Y-104370000D02*
X161110000Y-104790000D01*
X161110000Y-106910000D02*
X161110000Y-107330000D01*
X161110000Y-109450000D02*
X161110000Y-109870000D01*
X161110000Y-111990000D02*
X161110000Y-112410000D01*
X161110000Y-114530000D02*
X161110000Y-114950000D01*
X161110000Y-117070000D02*
X161110000Y-117490000D01*
X161110000Y-119610000D02*
X161110000Y-120030000D01*
X161110000Y-122150000D02*
X161110000Y-122570000D01*
X139920324Y-74310000D02*
G75*
G02*
X140500000Y-73890000I579692J-190051D01*
G01*
X140500000Y-125110000D02*
G75*
G02*
X139920324Y-124689937I1J610002D01*
G01*
X160500000Y-73890000D02*
G75*
G02*
X161079676Y-74310063I0J-610000D01*
G01*
X161079676Y-124689937D02*
G75*
G02*
X160500000Y-125109974I-579576J189837D01*
G01*
X145740000Y-76000000D02*
G75*
G02*
X143860000Y-76000000I-940000J0D01*
G01*
X143860000Y-76000000D02*
G75*
G02*
X145740000Y-76000000I940000J0D01*
G01*
X145740000Y-123000000D02*
G75*
G02*
X143860000Y-123000000I-940000J0D01*
G01*
X143860000Y-123000000D02*
G75*
G02*
X145740000Y-123000000I940000J0D01*
G01*
X157140000Y-76000000D02*
G75*
G02*
X155260000Y-76000000I-940000J0D01*
G01*
X155260000Y-76000000D02*
G75*
G02*
X157140000Y-76000000I940000J0D01*
G01*
X157140000Y-123000000D02*
G75*
G02*
X155260000Y-123000000I-940000J0D01*
G01*
X155260000Y-123000000D02*
G75*
G02*
X157140000Y-123000000I940000J0D01*
G01*
%TO.C,SW7*%
X86375929Y-101718532D02*
X101243773Y-104878790D01*
X89536187Y-86850688D02*
X86375929Y-101718532D01*
X101243773Y-104878790D02*
X104404031Y-90010946D01*
X104404031Y-90010946D02*
X89536187Y-86850688D01*
%TO.C,SW21*%
X74727751Y-138193812D02*
X89595595Y-141354070D01*
X77888009Y-123325968D02*
X74727751Y-138193812D01*
X89595595Y-141354070D02*
X92755853Y-126486226D01*
X92755853Y-126486226D02*
X77888009Y-123325968D01*
%TO.C,SW16*%
X-37600000Y-114012500D02*
X-37600000Y-129212500D01*
X-37600000Y-129212500D02*
X-22400000Y-129212500D01*
X-22400000Y-114012500D02*
X-37600000Y-114012500D01*
X-22400000Y-129212500D02*
X-22400000Y-114012500D01*
%TO.C,SW60*%
X275772500Y-134967500D02*
X275772500Y-150167500D01*
X275772500Y-150167500D02*
X290972500Y-150167500D01*
X290972500Y-134967500D02*
X275772500Y-134967500D01*
X290972500Y-150167500D02*
X290972500Y-134967500D01*
%TO.C,SW65*%
X317206250Y-154017500D02*
X317206250Y-169217500D01*
X317206250Y-169217500D02*
X332406250Y-169217500D01*
X332406250Y-154017500D02*
X317206250Y-154017500D01*
X332406250Y-169217500D02*
X332406250Y-154017500D01*
%TO.C,SW34*%
X199736195Y-87581712D02*
X202896453Y-102449556D01*
X202896453Y-102449556D02*
X217764297Y-99289298D01*
X214604039Y-84421454D02*
X199736195Y-87581712D01*
X217764297Y-99289298D02*
X214604039Y-84421454D01*
%TO.C,SW20*%
X56094039Y-134233094D02*
X70961883Y-137393352D01*
X59254297Y-119365250D02*
X56094039Y-134233094D01*
X70961883Y-137393352D02*
X74122141Y-122525508D01*
X74122141Y-122525508D02*
X59254297Y-119365250D01*
%TO.C,SW54*%
X310062500Y-115917500D02*
X310062500Y-131117500D01*
X310062500Y-131117500D02*
X325262500Y-131117500D01*
X325262500Y-115917500D02*
X310062500Y-115917500D01*
X325262500Y-131117500D02*
X325262500Y-115917500D01*
%TO.C,SW46*%
X291965000Y-96867500D02*
X291965000Y-112067500D01*
X291965000Y-112067500D02*
X307165000Y-112067500D01*
X307165000Y-96867500D02*
X291965000Y-96867500D01*
X307165000Y-112067500D02*
X307165000Y-96867500D01*
%TO.C,SW11*%
X16692500Y-96867500D02*
X16692500Y-112067500D01*
X16692500Y-112067500D02*
X31892500Y-112067500D01*
X31892500Y-96867500D02*
X16692500Y-96867500D01*
X31892500Y-112067500D02*
X31892500Y-96867500D01*
%TO.C,SW19*%
X37460327Y-130272376D02*
X52328171Y-133432634D01*
X40620585Y-115404532D02*
X37460327Y-130272376D01*
X52328171Y-133432634D02*
X55488429Y-118564790D01*
X55488429Y-118564790D02*
X40620585Y-115404532D01*
%TO.C,SW24*%
X23360000Y-134967500D02*
X23360000Y-150167500D01*
X23360000Y-150167500D02*
X38560000Y-150167500D01*
X38560000Y-134967500D02*
X23360000Y-134967500D01*
X38560000Y-150167500D02*
X38560000Y-134967500D01*
%TO.C,SW25*%
X42816465Y-150886447D02*
X57684309Y-154046705D01*
X45976723Y-136018603D02*
X42816465Y-150886447D01*
X57684309Y-154046705D02*
X60844567Y-139178861D01*
X60844567Y-139178861D02*
X45976723Y-136018603D01*
%TO.C,SW31*%
X69601372Y-176055343D02*
X84469216Y-179215601D01*
X72761630Y-161187499D02*
X69601372Y-176055343D01*
X84469216Y-179215601D02*
X87629474Y-164347757D01*
X87629474Y-164347757D02*
X72761630Y-161187499D01*
%TO.C,SW56*%
X196711379Y-146651422D02*
X199871637Y-161519266D01*
X199871637Y-161519266D02*
X214739481Y-158359008D01*
X211579223Y-143491164D02*
X196711379Y-146651422D01*
X214739481Y-158359008D02*
X211579223Y-143491164D01*
%TO.C,SW38*%
X278630000Y-77817500D02*
X278630000Y-93017500D01*
X278630000Y-93017500D02*
X293830000Y-93017500D01*
X293830000Y-77817500D02*
X278630000Y-77817500D01*
X293830000Y-93017500D02*
X293830000Y-77817500D01*
%TO.C,SW17*%
X-8548750Y-115917500D02*
X-8548750Y-131117500D01*
X-8548750Y-131117500D02*
X6651250Y-131117500D01*
X6651250Y-115917500D02*
X-8548750Y-115917500D01*
X6651250Y-131117500D02*
X6651250Y-115917500D01*
%TO.C,SW41*%
X194380057Y-108195783D02*
X197540315Y-123063627D01*
X197540315Y-123063627D02*
X212408159Y-119903369D01*
X209247901Y-105035525D02*
X194380057Y-108195783D01*
X212408159Y-119903369D02*
X209247901Y-105035525D01*
%TO.C,SW14*%
X73098355Y-118371885D02*
X87966199Y-121532143D01*
X76258613Y-103504041D02*
X73098355Y-118371885D01*
X87966199Y-121532143D02*
X91126457Y-106664299D01*
X91126457Y-106664299D02*
X76258613Y-103504041D01*
%TO.C,SW1*%
X-29980000Y-75912500D02*
X-29980000Y-91112500D01*
X-29980000Y-91112500D02*
X-14780000Y-91112500D01*
X-14780000Y-75912500D02*
X-29980000Y-75912500D01*
X-14780000Y-91112500D02*
X-14780000Y-75912500D01*
%TO.C,SW42*%
X213013769Y-104235065D02*
X216174027Y-119102909D01*
X216174027Y-119102909D02*
X231041871Y-115942651D01*
X227881613Y-101074807D02*
X213013769Y-104235065D01*
X231041871Y-115942651D02*
X227881613Y-101074807D01*
%TO.C,SW18*%
X17645000Y-115917500D02*
X17645000Y-131117500D01*
X17645000Y-131117500D02*
X32845000Y-131117500D01*
X32845000Y-115917500D02*
X17645000Y-115917500D01*
X32845000Y-131117500D02*
X32845000Y-115917500D01*
%TO.C,SW51*%
X238403255Y-118313952D02*
X241563513Y-133181796D01*
X241563513Y-133181796D02*
X256431357Y-130021538D01*
X253271099Y-115153694D02*
X238403255Y-118313952D01*
X256431357Y-130021538D02*
X253271099Y-115153694D01*
%TO.C,SW59*%
X256722500Y-134967500D02*
X256722500Y-150167500D01*
X256722500Y-150167500D02*
X271922500Y-150167500D01*
X271922500Y-134967500D02*
X256722500Y-134967500D01*
X271922500Y-150167500D02*
X271922500Y-134967500D01*
%TO.C,SW62*%
X328160000Y-134967500D02*
X328160000Y-150167500D01*
X328160000Y-150167500D02*
X343360000Y-150167500D01*
X343360000Y-134967500D02*
X328160000Y-134967500D01*
X343360000Y-150167500D02*
X343360000Y-134967500D01*
%TO.C,SW27*%
X80083889Y-158807882D02*
X94951733Y-161968140D01*
X83244147Y-143940038D02*
X80083889Y-158807882D01*
X94951733Y-161968140D02*
X98111991Y-147100296D01*
X98111991Y-147100296D02*
X83244147Y-143940038D01*
%TO.C,SW45*%
X272915000Y-96867500D02*
X272915000Y-112067500D01*
X272915000Y-112067500D02*
X288115000Y-112067500D01*
X288115000Y-96867500D02*
X272915000Y-96867500D01*
X288115000Y-112067500D02*
X288115000Y-96867500D01*
%TO.C,SW33*%
X181102483Y-91542430D02*
X184262741Y-106410274D01*
X184262741Y-106410274D02*
X199130585Y-103250016D01*
X195970327Y-88382172D02*
X181102483Y-91542430D01*
X199130585Y-103250016D02*
X195970327Y-88382172D01*
%TO.C,SW29*%
X-14740000Y-154017500D02*
X-14740000Y-169217500D01*
X-14740000Y-169217500D02*
X460000Y-169217500D01*
X460000Y-154017500D02*
X-14740000Y-154017500D01*
X460000Y-169217500D02*
X460000Y-154017500D01*
%TO.C,SW10*%
X-7120000Y-96867500D02*
X-7120000Y-112067500D01*
X-7120000Y-112067500D02*
X8080000Y-112067500D01*
X8080000Y-96867500D02*
X-7120000Y-96867500D01*
X8080000Y-112067500D02*
X8080000Y-96867500D01*
%TO.C,SW52*%
X262437500Y-115917500D02*
X262437500Y-131117500D01*
X262437500Y-131117500D02*
X277637500Y-131117500D01*
X277637500Y-115917500D02*
X262437500Y-115917500D01*
X277637500Y-131117500D02*
X277637500Y-115917500D01*
%TO.C,SW58*%
X233978802Y-138729986D02*
X237139060Y-153597830D01*
X237139060Y-153597830D02*
X252006904Y-150437572D01*
X248846646Y-135569728D02*
X233978802Y-138729986D01*
X252006904Y-150437572D02*
X248846646Y-135569728D01*
%TO.C,SW12*%
X35830931Y-110450449D02*
X50698775Y-113610707D01*
X38991189Y-95582605D02*
X35830931Y-110450449D01*
X50698775Y-113610707D02*
X53859033Y-98742863D01*
X53859033Y-98742863D02*
X38991189Y-95582605D01*
%TO.C,SW53*%
X281487500Y-115917500D02*
X281487500Y-131117500D01*
X281487500Y-131117500D02*
X296687500Y-131117500D01*
X296687500Y-115917500D02*
X281487500Y-115917500D01*
X296687500Y-131117500D02*
X296687500Y-115917500D01*
%TO.C,SW36*%
X237003619Y-79660277D02*
X240163877Y-94528121D01*
X240163877Y-94528121D02*
X255031721Y-91367863D01*
X251871463Y-76500019D02*
X237003619Y-79660277D01*
X255031721Y-91367863D02*
X251871463Y-76500019D01*
%TO.C,SW13*%
X54464643Y-114411167D02*
X69332487Y-117571425D01*
X57624901Y-99543323D02*
X54464643Y-114411167D01*
X69332487Y-117571425D02*
X72492745Y-102703581D01*
X72492745Y-102703581D02*
X57624901Y-99543323D01*
%TO.C,SW8*%
X105009640Y-105679249D02*
X119877484Y-108839507D01*
X108169898Y-90811405D02*
X105009640Y-105679249D01*
X119877484Y-108839507D02*
X123037742Y-93971663D01*
X123037742Y-93971663D02*
X108169898Y-90811405D01*
%TO.C,SW57*%
X215345091Y-142690704D02*
X218505349Y-157558548D01*
X218505349Y-157558548D02*
X233373193Y-154398290D01*
X230212935Y-139530446D02*
X215345091Y-142690704D01*
X233373193Y-154398290D02*
X230212935Y-139530446D01*
%TO.C,SW55*%
X178077667Y-150612140D02*
X181237925Y-165479984D01*
X181237925Y-165479984D02*
X196105769Y-162319726D01*
X192945511Y-147451882D02*
X178077667Y-150612140D01*
X196105769Y-162319726D02*
X192945511Y-147451882D01*
%TO.C,SW22*%
X93361463Y-142154529D02*
X108229307Y-145314787D01*
X96521721Y-127286685D02*
X93361463Y-142154529D01*
X108229307Y-145314787D02*
X111389565Y-130446943D01*
X111389565Y-130446943D02*
X96521721Y-127286685D01*
%TO.C,SW64*%
X235808342Y-158790474D02*
X238968600Y-173658318D01*
X238968600Y-173658318D02*
X253836444Y-170498060D01*
X250676186Y-155630216D02*
X235808342Y-158790474D01*
X253836444Y-170498060D02*
X250676186Y-155630216D01*
%TO.C,SW44*%
X253865000Y-95915000D02*
X253865000Y-111115000D01*
X253865000Y-111115000D02*
X269065000Y-111115000D01*
X269065000Y-95915000D02*
X253865000Y-95915000D01*
X269065000Y-111115000D02*
X269065000Y-95915000D01*
%TO.C,SW50*%
X219769543Y-122274669D02*
X222929801Y-137142513D01*
X222929801Y-137142513D02*
X237797645Y-133982255D01*
X234637387Y-119114411D02*
X219769543Y-122274669D01*
X237797645Y-133982255D02*
X234637387Y-119114411D01*
%TD*%
M02*
