M48
; DRILL file KiCad 10.0.4 date 2026-07-12T21:05:38
; FORMAT={-:-/ absolute / metric / decimal}
; #@! TF.CreationDate,2026-07-12T21:05:38-04:00
; #@! TF.GenerationSoftware,Kicad,Pcbnew,10.0.4
; #@! TF.FileFunction,NonPlated,1,2,NPTH
FMAT,2
METRIC
; #@! TA.AperFunction,NonPlated,NPTH,ComponentDrill
T1C1.850
; #@! TA.AperFunction,NonPlated,NPTH,ComponentDrill
T2C2.200
; #@! TA.AperFunction,NonPlated,NPTH,ComponentDrill
T3C5.050
%
G90
G05
T1
X148.075Y-78.53
X152.925Y-78.53
T2
X147.775Y-75.5
X153.225Y-75.5
T3
X-30.0Y-121.612
X-26.19Y-102.562
X-22.38Y-83.513
X-7.14Y-161.618
X-0.949Y-123.517
X-0.472Y-85.417
X0.004Y-142.567
X0.48Y-104.468
X18.578Y-85.417
X24.293Y-104.468
X25.245Y-123.517
X30.96Y-142.567
X37.627Y-83.513
X44.845Y-104.597
X45.808Y-164.202
X46.474Y-124.419
X51.831Y-145.033
X58.123Y-87.943
X63.479Y-108.557
X65.108Y-128.379
X70.464Y-148.993
X76.756Y-91.904
X78.615Y-170.202
X82.112Y-112.518
X83.742Y-132.34
X89.098Y-152.954
X95.39Y-95.865
X100.746Y-116.479
X102.376Y-136.301
X107.732Y-156.915
X108.895Y-176.638
X114.024Y-99.825
X184.76Y-118.01
X187.092Y-156.466
X190.117Y-97.396
X191.516Y-136.05
X203.394Y-114.05
X205.028Y-172.129
X205.725Y-152.505
X208.75Y-93.436
X210.15Y-132.089
X222.028Y-110.089
X224.359Y-148.544
X227.384Y-89.475
X228.784Y-128.128
X240.662Y-106.128
X242.993Y-144.584
X244.822Y-164.644
X246.018Y-85.514
X247.417Y-124.168
X261.465Y-103.515
X264.322Y-142.567
X267.18Y-83.513
X270.037Y-123.517
X280.515Y-104.468
X283.373Y-142.567
X286.23Y-85.417
X289.087Y-123.517
X299.565Y-104.468
X307.185Y-142.567
X312.424Y-85.417
X317.662Y-123.517
X320.996Y-104.468
X324.806Y-161.618
X335.76Y-142.567
M30
