%TF.GenerationSoftware,KiCad,Pcbnew,10.0.4*%
%TF.CreationDate,2026-07-12T21:05:24-04:00*%
%TF.ProjectId,keyboard,6b657962-6f61-4726-942e-6b696361645f,rev?*%
%TF.SameCoordinates,Original*%
%TF.FileFunction,Soldermask,Top*%
%TF.FilePolarity,Negative*%
%FSLAX46Y46*%
G04 Gerber Fmt 4.6, Leading zero omitted, Abs format (unit mm)*
G04 Created by KiCad (PCBNEW 10.0.4) date 2026-07-12 21:05:24*
%MOMM*%
%LPD*%
G01*
G04 APERTURE LIST*
G04 Aperture macros list*
%AMRoundRect*
0 Rectangle with rounded corners*
0 $1 Rounding radius*
0 $2 $3 $4 $5 $6 $7 $8 $9 X,Y pos of 4 corners*
0 Add a 4 corners polygon primitive as box body*
4,1,4,$2,$3,$4,$5,$6,$7,$8,$9,$2,$3,0*
0 Add four circle primitives for the rounded corners*
1,1,$1+$1,$2,$3*
1,1,$1+$1,$4,$5*
1,1,$1+$1,$6,$7*
1,1,$1+$1,$8,$9*
0 Add four rect primitives between the rounded corners*
20,1,$1+$1,$2,$3,$4,$5,0*
20,1,$1+$1,$4,$5,$6,$7,0*
20,1,$1+$1,$6,$7,$8,$9,0*
20,1,$1+$1,$8,$9,$2,$3,0*%
%AMFreePoly0*
4,1,37,0.000000,0.796148,0.078414,0.796148,0.232228,0.765552,0.377117,0.705537,0.507515,0.618408,0.618408,0.507515,0.705537,0.377117,0.765552,0.232228,0.796148,0.078414,0.796148,-0.078414,0.765552,-0.232228,0.705537,-0.377117,0.618408,-0.507515,0.507515,-0.618408,0.377117,-0.705537,0.232228,-0.765552,0.078414,-0.796148,0.000000,-0.796148,0.000000,-0.800000,-2.200000,-0.800000,
-2.203843,-0.796157,-2.239018,-0.796157,-2.311114,-0.766294,-2.366294,-0.711114,-2.396157,-0.639018,-2.396157,-0.603843,-2.400000,-0.600000,-2.400000,0.600000,-2.396157,0.603843,-2.396157,0.639018,-2.366294,0.711114,-2.311114,0.766294,-2.239018,0.796157,-2.203843,0.796157,-2.200000,0.800000,0.000000,0.800000,0.000000,0.796148,0.000000,0.796148,$1*%
%AMFreePoly1*
4,1,37,0.603843,0.796157,0.639018,0.796157,0.711114,0.766294,0.766294,0.711114,0.796157,0.639018,0.796157,0.603843,0.800000,0.600000,0.800000,-0.600000,0.796157,-0.603843,0.796157,-0.639018,0.766294,-0.711114,0.711114,-0.766294,0.639018,-0.796157,0.603843,-0.796157,0.600000,-0.800000,-1.600000,-0.800000,-1.600000,-0.796148,-1.678414,-0.796148,-1.832228,-0.765552,-1.977117,-0.705537,
-2.107515,-0.618408,-2.218408,-0.507515,-2.305537,-0.377117,-2.365552,-0.232228,-2.396148,-0.078414,-2.396148,0.078414,-2.365552,0.232228,-2.305537,0.377117,-2.218408,0.507515,-2.107515,0.618408,-1.977117,0.705537,-1.832228,0.765552,-1.678414,0.796148,-1.600000,0.796148,-1.600000,0.800000,0.600000,0.800000,0.603843,0.796157,0.603843,0.796157,$1*%
%AMFreePoly2*
4,1,37,0.603843,0.796157,0.639018,0.796157,0.711114,0.766294,0.766294,0.711114,0.796157,0.639018,0.796157,0.603843,0.800000,0.600000,0.800000,-0.600000,0.796157,-0.603843,0.796157,-0.639018,0.766294,-0.711114,0.711114,-0.766294,0.639018,-0.796157,0.603843,-0.796157,0.600000,-0.800000,0.000000,-0.800000,0.000000,-0.796148,-0.078414,-0.796148,-0.232228,-0.765552,-0.377117,-0.705537,
-0.507515,-0.618408,-0.618408,-0.507515,-0.705537,-0.377117,-0.765552,-0.232228,-0.796148,-0.078414,-0.796148,0.078414,-0.765552,0.232228,-0.705537,0.377117,-0.618408,0.507515,-0.507515,0.618408,-0.377117,0.705537,-0.232228,0.765552,-0.078414,0.796148,0.000000,0.796148,0.000000,0.800000,0.600000,0.800000,0.603843,0.796157,0.603843,0.796157,$1*%
%AMFreePoly3*
4,1,37,1.600000,0.796148,1.678414,0.796148,1.832228,0.765552,1.977117,0.705537,2.107515,0.618408,2.218408,0.507515,2.305537,0.377117,2.365552,0.232228,2.396148,0.078414,2.396148,-0.078414,2.365552,-0.232228,2.305537,-0.377117,2.218408,-0.507515,2.107515,-0.618408,1.977117,-0.705537,1.832228,-0.765552,1.678414,-0.796148,1.600000,-0.796148,1.600000,-0.800000,-0.600000,-0.800000,
-0.603843,-0.796157,-0.639018,-0.796157,-0.711114,-0.766294,-0.766294,-0.711114,-0.796157,-0.639018,-0.796157,-0.603843,-0.800000,-0.600000,-0.800000,0.600000,-0.796157,0.603843,-0.796157,0.639018,-0.766294,0.711114,-0.711114,0.766294,-0.639018,0.796157,-0.603843,0.796157,-0.600000,0.800000,1.600000,0.800000,1.600000,0.796148,1.600000,0.796148,$1*%
%AMFreePoly4*
4,1,37,0.000000,0.796148,0.078414,0.796148,0.232228,0.765552,0.377117,0.705537,0.507515,0.618408,0.618408,0.507515,0.705537,0.377117,0.765552,0.232228,0.796148,0.078414,0.796148,-0.078414,0.765552,-0.232228,0.705537,-0.377117,0.618408,-0.507515,0.507515,-0.618408,0.377117,-0.705537,0.232228,-0.765552,0.078414,-0.796148,0.000000,-0.796148,0.000000,-0.800000,-0.600000,-0.800000,
-0.603843,-0.796157,-0.639018,-0.796157,-0.711114,-0.766294,-0.766294,-0.711114,-0.796157,-0.639018,-0.796157,-0.603843,-0.800000,-0.600000,-0.800000,0.600000,-0.796157,0.603843,-0.796157,0.639018,-0.766294,0.711114,-0.711114,0.766294,-0.639018,0.796157,-0.603843,0.796157,-0.600000,0.800000,0.000000,0.800000,0.000000,0.796148,0.000000,0.796148,$1*%
G04 Aperture macros list end*
%ADD10C,2.600000*%
%ADD11C,5.050000*%
%ADD12C,2.200000*%
%ADD13C,1.850000*%
%ADD14RoundRect,0.200000X-0.600000X-0.600000X0.600000X-0.600000X0.600000X0.600000X-0.600000X0.600000X0*%
%ADD15FreePoly0,0.000000*%
%ADD16C,1.600000*%
%ADD17RoundRect,0.800000X-0.800000X-0.000010X0.800000X-0.000010X0.800000X0.000010X-0.800000X0.000010X0*%
%ADD18FreePoly1,0.000000*%
%ADD19FreePoly2,0.000000*%
%ADD20FreePoly3,0.000000*%
%ADD21FreePoly4,0.000000*%
G04 APERTURE END LIST*
D10*
%TO.C,SW49*%
X206329889Y-138166199D03*
D11*
X210149882Y-132089180D03*
D12*
X208923203Y-126318109D03*
X214250556Y-127332661D03*
%TD*%
D10*
%TO.C,SW61*%
X302185000Y-147717500D03*
D11*
X307185000Y-142567500D03*
D12*
X307185000Y-136667500D03*
X312185000Y-138767500D03*
%TD*%
D10*
%TO.C,SW30*%
X39846909Y-168199882D03*
D11*
X45808392Y-164201980D03*
D12*
X47035071Y-158430909D03*
X51489194Y-161524579D03*
%TD*%
D10*
%TO.C,SW28*%
X101770169Y-160912709D03*
D11*
X107731652Y-156914807D03*
D12*
X108958331Y-151143736D03*
X113412454Y-154237406D03*
%TD*%
D10*
%TO.C,SW3*%
X13577500Y-90567500D03*
D11*
X18577500Y-85417500D03*
D12*
X18577500Y-79517500D03*
X23577500Y-81617500D03*
%TD*%
D10*
%TO.C,SW5*%
X52161073Y-91941205D03*
D11*
X58122556Y-87943303D03*
D12*
X59349235Y-82172232D03*
X63803358Y-85265902D03*
%TD*%
D10*
%TO.C,SW48*%
X187696178Y-142126917D03*
D11*
X191516171Y-136049898D03*
D12*
X190289492Y-130278827D03*
X195616845Y-131293379D03*
%TD*%
D10*
%TO.C,SW47*%
X315996250Y-109617500D03*
D11*
X320996250Y-104467500D03*
D12*
X320996250Y-98567500D03*
X325996250Y-100667500D03*
%TD*%
D10*
%TO.C,SW63*%
X201207727Y-178206125D03*
D11*
X205027720Y-172129106D03*
D12*
X203801041Y-166358035D03*
X209128394Y-167372587D03*
%TD*%
D10*
%TO.C,SW9*%
X-31190000Y-107712500D03*
D11*
X-26190000Y-102562500D03*
D12*
X-26190000Y-96662500D03*
X-21190000Y-98762500D03*
%TD*%
D10*
%TO.C,SW37*%
X262180000Y-88662500D03*
D11*
X267180000Y-83512500D03*
D12*
X267180000Y-77612500D03*
X272180000Y-79712500D03*
%TD*%
D10*
%TO.C,SW26*%
X64502745Y-152991274D03*
D11*
X70464228Y-148993372D03*
D12*
X71690907Y-143222301D03*
X76145030Y-146315971D03*
%TD*%
D10*
%TO.C,SW43*%
X236841539Y-112205160D03*
D11*
X240661532Y-106128141D03*
D12*
X239434853Y-100357070D03*
X244762206Y-101371622D03*
%TD*%
D10*
%TO.C,SW4*%
X32627500Y-88662500D03*
D11*
X37627500Y-83512500D03*
D12*
X37627500Y-77612500D03*
X42627500Y-79712500D03*
%TD*%
D10*
%TO.C,SW15*%
X94784635Y-120476711D03*
D11*
X100746118Y-116478809D03*
D12*
X101972797Y-110707738D03*
X106426920Y-113801408D03*
%TD*%
D10*
%TO.C,SW40*%
X180940403Y-124087313D03*
D11*
X184760396Y-118010294D03*
D12*
X183533717Y-112239223D03*
X188861070Y-113253775D03*
%TD*%
D10*
%TO.C,SW2*%
X-5472500Y-90567500D03*
D11*
X-472500Y-85417500D03*
D12*
X-472500Y-79517500D03*
X4527500Y-81617500D03*
%TD*%
D10*
%TO.C,SW32*%
X102933722Y-180635618D03*
D11*
X108895205Y-176637716D03*
D12*
X110121884Y-170866645D03*
X114576007Y-173960315D03*
%TD*%
D10*
%TO.C,SW6*%
X70794785Y-95901923D03*
D11*
X76756268Y-91904021D03*
D12*
X77982947Y-86132950D03*
X82437070Y-89226620D03*
%TD*%
D10*
%TO.C,SW35*%
X223563965Y-95551807D03*
D11*
X227383958Y-89474788D03*
D12*
X226157279Y-83703717D03*
X231484632Y-84718269D03*
%TD*%
D10*
%TO.C,SW39*%
X307423750Y-90567500D03*
D11*
X312423750Y-85417500D03*
D12*
X312423750Y-79517500D03*
X317423750Y-81617500D03*
%TD*%
D10*
%TO.C,SW23*%
X-4996250Y-147717500D03*
D11*
X3750Y-142567500D03*
D12*
X3750Y-136667500D03*
X5003750Y-138767500D03*
%TD*%
%TO.C,REF\u002A\u002A*%
X147775000Y-75500000D03*
D13*
X148075000Y-78530000D03*
X152925000Y-78530000D03*
D12*
X153225000Y-75500000D03*
D14*
X141610000Y-75370000D03*
D15*
X141610000Y-75370000D03*
D16*
X141610000Y-77910000D03*
D17*
X140810000Y-77910000D03*
D18*
X141610000Y-80450000D03*
D19*
X141610000Y-80450000D03*
D16*
X141610000Y-82990000D03*
D17*
X140810000Y-82990000D03*
D16*
X141610000Y-85530000D03*
D17*
X140810000Y-85530000D03*
D16*
X141610000Y-88070000D03*
D17*
X140810000Y-88070000D03*
D16*
X141610000Y-90610000D03*
D17*
X140810000Y-90610000D03*
D18*
X141610000Y-93150000D03*
D19*
X141610000Y-93150000D03*
D16*
X141610000Y-95690000D03*
D17*
X140810000Y-95690000D03*
D16*
X141610000Y-98230000D03*
D17*
X140810000Y-98230000D03*
D16*
X141610000Y-100770000D03*
D17*
X140810000Y-100770000D03*
D16*
X141610000Y-103310000D03*
D17*
X140810000Y-103310000D03*
D18*
X141610000Y-105850000D03*
D19*
X141610000Y-105850000D03*
D16*
X141610000Y-108390000D03*
D17*
X140810000Y-108390000D03*
D16*
X141610000Y-110930000D03*
D17*
X140810000Y-110930000D03*
D16*
X141610000Y-113470000D03*
D17*
X140810000Y-113470000D03*
D16*
X141610000Y-116010000D03*
D17*
X140810000Y-116010000D03*
D18*
X141610000Y-118550000D03*
D19*
X141610000Y-118550000D03*
D16*
X141610000Y-121090000D03*
D17*
X140810000Y-121090000D03*
D16*
X141610000Y-123630000D03*
D17*
X140810000Y-123630000D03*
D16*
X159390000Y-123630000D03*
D17*
X160190000Y-123630000D03*
D16*
X159390000Y-121090000D03*
D17*
X160190000Y-121090000D03*
D20*
X159390000Y-118550000D03*
D21*
X159390000Y-118550000D03*
D16*
X159390000Y-116010000D03*
D17*
X160190000Y-116010000D03*
D16*
X159390000Y-113470000D03*
D17*
X160190000Y-113470000D03*
D16*
X159390000Y-110930000D03*
D17*
X160190000Y-110930000D03*
D16*
X159390000Y-108390000D03*
D17*
X160190000Y-108390000D03*
D20*
X159390000Y-105850000D03*
D21*
X159390000Y-105850000D03*
D16*
X159390000Y-103310000D03*
D17*
X160190000Y-103310000D03*
D16*
X159390000Y-100770000D03*
D17*
X160190000Y-100770000D03*
D16*
X159390000Y-98230000D03*
D17*
X160190000Y-98230000D03*
D16*
X159390000Y-95690000D03*
D17*
X160190000Y-95690000D03*
D20*
X159390000Y-93150000D03*
D21*
X159390000Y-93150000D03*
D16*
X159390000Y-90610000D03*
D17*
X160190000Y-90610000D03*
D16*
X159390000Y-88070000D03*
D17*
X160190000Y-88070000D03*
D16*
X159390000Y-85530000D03*
D17*
X160190000Y-85530000D03*
D16*
X159390000Y-82990000D03*
D17*
X160190000Y-82990000D03*
D20*
X159390000Y-80450000D03*
D21*
X159390000Y-80450000D03*
D16*
X159390000Y-77910000D03*
D17*
X160190000Y-77910000D03*
D16*
X159390000Y-75370000D03*
D17*
X160190000Y-75370000D03*
%TD*%
D10*
%TO.C,SW7*%
X89428497Y-99862641D03*
D11*
X95389980Y-95864739D03*
D12*
X96616659Y-90093668D03*
X101070782Y-93187338D03*
%TD*%
D10*
%TO.C,SW21*%
X77780319Y-136337921D03*
D11*
X83741802Y-132340019D03*
D12*
X84968481Y-126568948D03*
X89422604Y-129662618D03*
%TD*%
D10*
%TO.C,SW16*%
X-35000000Y-126762500D03*
D11*
X-30000000Y-121612500D03*
D12*
X-30000000Y-115712500D03*
X-25000000Y-117812500D03*
%TD*%
D10*
%TO.C,SW60*%
X278372500Y-147717500D03*
D11*
X283372500Y-142567500D03*
D12*
X283372500Y-136667500D03*
X288372500Y-138767500D03*
%TD*%
D10*
%TO.C,SW65*%
X319806250Y-166767500D03*
D11*
X324806250Y-161617500D03*
D12*
X324806250Y-155717500D03*
X329806250Y-157817500D03*
%TD*%
D10*
%TO.C,SW34*%
X204930253Y-99512524D03*
D11*
X208750246Y-93435505D03*
D12*
X207523567Y-87664434D03*
X212850920Y-88678986D03*
%TD*%
D10*
%TO.C,SW20*%
X59146607Y-132377203D03*
D11*
X65108090Y-128379301D03*
D12*
X66334769Y-122608230D03*
X70788892Y-125701900D03*
%TD*%
D10*
%TO.C,SW54*%
X312662500Y-128667500D03*
D11*
X317662500Y-123517500D03*
D12*
X317662500Y-117617500D03*
X322662500Y-119717500D03*
%TD*%
D10*
%TO.C,SW46*%
X294565000Y-109617500D03*
D11*
X299565000Y-104467500D03*
D12*
X299565000Y-98567500D03*
X304565000Y-100667500D03*
%TD*%
D10*
%TO.C,SW11*%
X19292500Y-109617500D03*
D11*
X24292500Y-104467500D03*
D12*
X24292500Y-98567500D03*
X29292500Y-100667500D03*
%TD*%
D10*
%TO.C,SW19*%
X40512895Y-128416485D03*
D11*
X46474378Y-124418583D03*
D12*
X47701057Y-118647512D03*
X52155180Y-121741182D03*
%TD*%
D10*
%TO.C,SW24*%
X25960000Y-147717500D03*
D11*
X30960000Y-142567500D03*
D12*
X30960000Y-136667500D03*
X35960000Y-138767500D03*
%TD*%
D10*
%TO.C,SW25*%
X45869033Y-149030556D03*
D11*
X51830516Y-145032654D03*
D12*
X53057195Y-139261583D03*
X57511318Y-142355253D03*
%TD*%
D10*
%TO.C,SW31*%
X72653940Y-174199452D03*
D11*
X78615423Y-170201550D03*
D12*
X79842102Y-164430479D03*
X84296225Y-167524149D03*
%TD*%
D10*
%TO.C,SW56*%
X201905437Y-158582234D03*
D11*
X205725430Y-152505215D03*
D12*
X204498751Y-146734144D03*
X209826104Y-147748696D03*
%TD*%
D10*
%TO.C,SW38*%
X281230000Y-90567500D03*
D11*
X286230000Y-85417500D03*
D12*
X286230000Y-79517500D03*
X291230000Y-81617500D03*
%TD*%
D10*
%TO.C,SW17*%
X-5948750Y-128667500D03*
D11*
X-948750Y-123517500D03*
D12*
X-948750Y-117617500D03*
X4051250Y-119717500D03*
%TD*%
D10*
%TO.C,SW41*%
X199574115Y-120126595D03*
D11*
X203394108Y-114049576D03*
D12*
X202167429Y-108278505D03*
X207494782Y-109293057D03*
%TD*%
D10*
%TO.C,SW14*%
X76150923Y-116515994D03*
D11*
X82112406Y-112518092D03*
D12*
X83339085Y-106747021D03*
X87793208Y-109840691D03*
%TD*%
D10*
%TO.C,SW1*%
X-27380000Y-88662500D03*
D11*
X-22380000Y-83512500D03*
D12*
X-22380000Y-77612500D03*
X-17380000Y-79712500D03*
%TD*%
D10*
%TO.C,SW42*%
X218207827Y-116165877D03*
D11*
X222027820Y-110088858D03*
D12*
X220801141Y-104317787D03*
X226128494Y-105332339D03*
%TD*%
D10*
%TO.C,SW18*%
X20245000Y-128667500D03*
D11*
X25245000Y-123517500D03*
D12*
X25245000Y-117617500D03*
X30245000Y-119717500D03*
%TD*%
D10*
%TO.C,SW51*%
X243597313Y-130244764D03*
D11*
X247417306Y-124167745D03*
D12*
X246190627Y-118396674D03*
X251517980Y-119411226D03*
%TD*%
D10*
%TO.C,SW59*%
X259322500Y-147717500D03*
D11*
X264322500Y-142567500D03*
D12*
X264322500Y-136667500D03*
X269322500Y-138767500D03*
%TD*%
D10*
%TO.C,SW62*%
X330760000Y-147717500D03*
D11*
X335760000Y-142567500D03*
D12*
X335760000Y-136667500D03*
X340760000Y-138767500D03*
%TD*%
D10*
%TO.C,SW27*%
X83136457Y-156951991D03*
D11*
X89097940Y-152954089D03*
D12*
X90324619Y-147183018D03*
X94778742Y-150276688D03*
%TD*%
D10*
%TO.C,SW45*%
X275515000Y-109617500D03*
D11*
X280515000Y-104467500D03*
D12*
X280515000Y-98567500D03*
X285515000Y-100667500D03*
%TD*%
D10*
%TO.C,SW33*%
X186296541Y-103473242D03*
D11*
X190116534Y-97396223D03*
D12*
X188889855Y-91625152D03*
X194217208Y-92639704D03*
%TD*%
D10*
%TO.C,SW29*%
X-12140000Y-166767500D03*
D11*
X-7140000Y-161617500D03*
D12*
X-7140000Y-155717500D03*
X-2140000Y-157817500D03*
%TD*%
D10*
%TO.C,SW10*%
X-4520000Y-109617500D03*
D11*
X480000Y-104467500D03*
D12*
X480000Y-98567500D03*
X5480000Y-100667500D03*
%TD*%
D10*
%TO.C,SW52*%
X265037500Y-128667500D03*
D11*
X270037500Y-123517500D03*
D12*
X270037500Y-117617500D03*
X275037500Y-119717500D03*
%TD*%
D10*
%TO.C,SW58*%
X239172860Y-150660798D03*
D11*
X242992853Y-144583779D03*
D12*
X241766174Y-138812708D03*
X247093527Y-139827260D03*
%TD*%
D10*
%TO.C,SW12*%
X38883499Y-108594558D03*
D11*
X44844982Y-104596656D03*
D12*
X46071661Y-98825585D03*
X50525784Y-101919255D03*
%TD*%
D10*
%TO.C,SW53*%
X284087500Y-128667500D03*
D11*
X289087500Y-123517500D03*
D12*
X289087500Y-117617500D03*
X294087500Y-119717500D03*
%TD*%
D10*
%TO.C,SW36*%
X242197677Y-91591089D03*
D11*
X246017670Y-85514070D03*
D12*
X244790991Y-79742999D03*
X250118344Y-80757551D03*
%TD*%
D10*
%TO.C,SW13*%
X57517211Y-112555276D03*
D11*
X63478694Y-108557374D03*
D12*
X64705373Y-102786303D03*
X69159496Y-105879973D03*
%TD*%
D10*
%TO.C,SW8*%
X108062208Y-103823358D03*
D11*
X114023691Y-99825456D03*
D12*
X115250370Y-94054385D03*
X119704493Y-97148055D03*
%TD*%
D10*
%TO.C,SW57*%
X220539149Y-154621516D03*
D11*
X224359142Y-148544497D03*
D12*
X223132463Y-142773426D03*
X228459816Y-143787978D03*
%TD*%
D10*
%TO.C,SW55*%
X183271725Y-162542952D03*
D11*
X187091718Y-156465933D03*
D12*
X185865039Y-150694862D03*
X191192392Y-151709414D03*
%TD*%
D10*
%TO.C,SW22*%
X96414031Y-140298638D03*
D11*
X102375514Y-136300736D03*
D12*
X103602193Y-130529665D03*
X108056316Y-133623335D03*
%TD*%
D10*
%TO.C,SW64*%
X241002400Y-170721286D03*
D11*
X244822393Y-164644267D03*
D12*
X243595714Y-158873196D03*
X248923067Y-159887748D03*
%TD*%
D10*
%TO.C,SW44*%
X256465000Y-108665000D03*
D11*
X261465000Y-103515000D03*
D12*
X261465000Y-97615000D03*
X266465000Y-99715000D03*
%TD*%
D10*
%TO.C,SW50*%
X224963601Y-134205481D03*
D11*
X228783594Y-128128462D03*
D12*
X227556915Y-122357391D03*
X232884268Y-123371943D03*
%TD*%
M02*
